<?xml version="1.0" encoding="UTF-8" standalone="no"?>
<!DOCTYPE svg PUBLIC "-//W3C//DTD SVG 1.1//EN"
 "http://www.w3.org/Graphics/SVG/1.1/DTD/svg11.dtd">
<!-- Generated by graphviz version 7.1.0 (20230121.1956)
 -->
<!-- Title: Renderable Pages: 1 -->
<!--zoomable 518 -->
<svg id="main" version="1.1" xmlns="http://www.w3.org/2000/svg" xmlns:xlink="http://www.w3.org/1999/xlink" xml:space="preserve" onload="init(evt)">
<style type="text/css"><![CDATA[
.edge:hover path { stroke: red; }
.edge:hover polygon { stroke: red; fill: red; }
]]></style>
<script type="text/javascript"><![CDATA[
var edges = document.getElementsByTagName('g');
if (edges && edges.length) {
  for (var i=0;i<edges.length;i++) {
    if (edges[i].id.substr(0,4)=='edge') {
      edges[i].setAttribute('class','edge');
    }
  }
}
]]></script>
        <defs>
                <circle id="rim" cx="0" cy="0" r="7"/>
                <circle id="rim2" cx="0" cy="0" r="3.5"/>
                <g id="zoomPlus">
                        <use xlink:href="#rim" fill="#404040">
                                <set attributeName="fill" to="#808080" begin="zoomplus.mouseover" end="zoomplus.mouseout"/>
                        </use>
                        <path d="M-4,0h8M0,-4v8" fill="none" stroke="white" stroke-width="1.5" pointer-events="none"/>
                </g>
                <g id="zoomMin">
                        <use xlink:href="#rim" fill="#404040">
                                <set attributeName="fill" to="#808080" begin="zoomminus.mouseover" end="zoomminus.mouseout"/>
                        </use>
                        <path d="M-4,0h8" fill="none" stroke="white" stroke-width="1.5" pointer-events="none"/>
                </g>
                <g id="dirArrow">
                        <path fill="none" stroke="white" stroke-width="1.5" d="M0,-3.0v7 M-2.5,-0.5L0,-3.0L2.5,-0.5"/>
                </g>
               <g id="resetDef">
                       <use xlink:href="#rim2" fill="#404040">
                               <set attributeName="fill" to="#808080" begin="reset.mouseover" end="reset.mouseout"/>
                       </use>
               </g>
        </defs>

<script type="text/javascript">
var viewWidth = 708;
var viewHeight = 518;
var sectionId = 'dynsection-0';
</script>
<script xlink:href="svgpan.js"/>
<svg id="graph" class="graph">
<g id="viewport">
<title>Renderable</title>
<!-- Node1 -->
<g id="node1" class="node">
<title>Node1</title>
<g id="a_node1"><a xlink:title=" ">
<polygon fill="#999999" stroke="#666666" points="276,-441.5 276,-509.5 362,-509.5 362,-441.5 276,-441.5"/>
<text text-anchor="middle" x="319" y="-497.5" font-family="Helvetica,sans-Serif" font-size="10.00">Renderable</text>
<polyline fill="none" stroke="#666666" points="276,-490.5 362,-490.5"/>
<text text-anchor="middle" x="319" y="-478.5" font-family="Helvetica,sans-Serif" font-size="10.00"> </text>
<polyline fill="none" stroke="#666666" points="276,-471.5 362,-471.5"/>
<text text-anchor="start" x="284" y="-459.5" font-family="Helvetica,sans-Serif" font-size="10.00">+ render()</text>
<text text-anchor="start" x="284" y="-448.5" font-family="Helvetica,sans-Serif" font-size="10.00">+ ~Renderable()</text>
</a>
</g>
</g>
<!-- Node2 -->
<g id="node2" class="node">
<title>Node2</title>
<g id="a_node2"><a xlink:href="class_fluid_simulator.html" target="_top" xlink:title=" ">
<polygon fill="white" stroke="#666666" points="0,-243 0,-344 126,-344 126,-243 0,-243"/>
<text text-anchor="middle" x="63" y="-332" font-family="Helvetica,sans-Serif" font-size="10.00">FluidSimulator</text>
<polyline fill="none" stroke="#666666" points="0,-325 126,-325"/>
<text text-anchor="start" x="8" y="-313" font-family="Helvetica,sans-Serif" font-size="10.00">+ simulationSize</text>
<polyline fill="none" stroke="#666666" points="0,-306 126,-306"/>
<text text-anchor="start" x="8" y="-294" font-family="Helvetica,sans-Serif" font-size="10.00">+ FluidSimulator()</text>
<text text-anchor="start" x="8" y="-283" font-family="Helvetica,sans-Serif" font-size="10.00">+ update()</text>
<text text-anchor="start" x="8" y="-272" font-family="Helvetica,sans-Serif" font-size="10.00">+ bindObstaclesTexture()</text>
<text text-anchor="start" x="8" y="-261" font-family="Helvetica,sans-Serif" font-size="10.00">+ getVelocityBuffer()</text>
<text text-anchor="start" x="8" y="-250" font-family="Helvetica,sans-Serif" font-size="10.00">+ render()</text>
</a>
</g>
</g>
<!-- Node1&#45;&gt;Node2 -->
<g id="edge1" class="edge">
<title>Node1&#45;&gt;Node2</title>
<path fill="none" stroke="#63b8ff" d="M265.13,-463.66C225.82,-453.63 172.99,-435.54 135,-405 114.75,-388.71 98.3,-365.15 86.27,-343.96"/>
<polygon fill="none" stroke="#63b8ff" points="264.08,-467.01 274.62,-465.98 265.74,-460.21 264.08,-467.01"/>
</g>
<!-- Node3 -->
<g id="node3" class="node">
<title>Node3</title>
<g id="a_node3"><a xlink:href="class_particle_simulator.html" target="_top" xlink:title=" ">
<polygon fill="white" stroke="#666666" points="144,-243 144,-344 256,-344 256,-243 144,-243"/>
<text text-anchor="middle" x="200" y="-332" font-family="Helvetica,sans-Serif" font-size="10.00">ParticleSimulator</text>
<polyline fill="none" stroke="#666666" points="144,-325 256,-325"/>
<text text-anchor="start" x="152" y="-313" font-family="Helvetica,sans-Serif" font-size="10.00">+ simulationSize</text>
<polyline fill="none" stroke="#666666" points="144,-306 256,-306"/>
<text text-anchor="start" x="152" y="-294" font-family="Helvetica,sans-Serif" font-size="10.00">+ ParticleSimulator()</text>
<text text-anchor="start" x="152" y="-283" font-family="Helvetica,sans-Serif" font-size="10.00">+ update()</text>
<text text-anchor="start" x="152" y="-272" font-family="Helvetica,sans-Serif" font-size="10.00">+ renderObstacles()</text>
<text text-anchor="start" x="152" y="-261" font-family="Helvetica,sans-Serif" font-size="10.00">+ render()</text>
<text text-anchor="start" x="152" y="-250" font-family="Helvetica,sans-Serif" font-size="10.00">+ ~ParticleSimulator()</text>
</a>
</g>
</g>
<!-- Node1&#45;&gt;Node3 -->
<g id="edge2" class="edge">
<title>Node1&#45;&gt;Node3</title>
<path fill="none" stroke="#63b8ff" d="M284.98,-432.51C278.15,-423.58 271.18,-414.1 265,-405 251.75,-385.48 238.33,-363.18 227.15,-343.75"/>
<polygon fill="none" stroke="#63b8ff" points="282.19,-434.62 291.09,-440.37 287.72,-430.33 282.19,-434.62"/>
</g>
<!-- Node4 -->
<g id="node4" class="node">
<title>Node4</title>
<g id="a_node4"><a xlink:href="class_simulation.html" target="_top" xlink:title=" ">
<polygon fill="white" stroke="#666666" points="274.5,-254 274.5,-333 363.5,-333 363.5,-254 274.5,-254"/>
<text text-anchor="middle" x="319" y="-321" font-family="Helvetica,sans-Serif" font-size="10.00">Simulation</text>
<polyline fill="none" stroke="#666666" points="274.5,-314 363.5,-314"/>
<text text-anchor="start" x="282.5" y="-302" font-family="Helvetica,sans-Serif" font-size="10.00">+ simulationSize</text>
<polyline fill="none" stroke="#666666" points="274.5,-295 363.5,-295"/>
<text text-anchor="start" x="282.5" y="-283" font-family="Helvetica,sans-Serif" font-size="10.00">+ Simulation()</text>
<text text-anchor="start" x="282.5" y="-272" font-family="Helvetica,sans-Serif" font-size="10.00">+ update()</text>
<text text-anchor="start" x="282.5" y="-261" font-family="Helvetica,sans-Serif" font-size="10.00">+ render()</text>
</a>
</g>
</g>
<!-- Node1&#45;&gt;Node4 -->
<g id="edge3" class="edge">
<title>Node1&#45;&gt;Node4</title>
<path fill="none" stroke="#63b8ff" d="M319,-430.53C319,-400.61 319,-361.42 319,-332.79"/>
<polygon fill="none" stroke="#63b8ff" points="315.5,-430.39 319,-440.39 322.5,-430.39 315.5,-430.39"/>
</g>
<!-- Node5 -->
<g id="node5" class="node">
<title>Node5</title>
<g id="a_node5"><a xlink:href="class_u_i.html" target="_top" xlink:title=" ">
<polygon fill="white" stroke="#666666" points="381.5,-237.5 381.5,-349.5 512.5,-349.5 512.5,-237.5 381.5,-237.5"/>
<text text-anchor="middle" x="447" y="-337.5" font-family="Helvetica,sans-Serif" font-size="10.00">UI</text>
<polyline fill="none" stroke="#666666" points="381.5,-330.5 512.5,-330.5"/>
<text text-anchor="start" x="389.5" y="-318.5" font-family="Helvetica,sans-Serif" font-size="10.00">+ rendered</text>
<polyline fill="none" stroke="#666666" points="381.5,-311.5 512.5,-311.5"/>
<text text-anchor="start" x="389.5" y="-299.5" font-family="Helvetica,sans-Serif" font-size="10.00">+ UI()</text>
<text text-anchor="start" x="389.5" y="-288.5" font-family="Helvetica,sans-Serif" font-size="10.00">+ UI()</text>
<text text-anchor="start" x="389.5" y="-277.5" font-family="Helvetica,sans-Serif" font-size="10.00">+ render()</text>
<text text-anchor="start" x="389.5" y="-266.5" font-family="Helvetica,sans-Serif" font-size="10.00">+ init()</text>
<text text-anchor="start" x="389.5" y="-255.5" font-family="Helvetica,sans-Serif" font-size="10.00">+ destroy()</text>
<text text-anchor="start" x="389.5" y="-244.5" font-family="Helvetica,sans-Serif" font-size="10.00"># renderUIObjectChildren()</text>
</a>
</g>
</g>
<!-- Node1&#45;&gt;Node5 -->
<g id="edge4" class="edge">
<title>Node1&#45;&gt;Node5</title>
<path fill="none" stroke="#63b8ff" d="M351.68,-432.41C358.49,-423.44 365.55,-413.96 372,-405 384.87,-387.12 398.51,-367.3 410.59,-349.43"/>
<polygon fill="none" stroke="#63b8ff" points="348.92,-430.27 345.64,-440.35 354.48,-434.52 348.92,-430.27"/>
</g>
<!-- Node6 -->
<g id="node6" class="node">
<title>Node6</title>
<g id="a_node6"><a xlink:href="class_u_i_object.html" target="_top" xlink:title=" ">
<polygon fill="white" stroke="#666666" points="531,-182.5 531,-404.5 665,-404.5 665,-182.5 531,-182.5"/>
<text text-anchor="middle" x="598" y="-392.5" font-family="Helvetica,sans-Serif" font-size="10.00">UIObject</text>
<polyline fill="none" stroke="#666666" points="531,-385.5 665,-385.5"/>
<text text-anchor="start" x="539" y="-373.5" font-family="Helvetica,sans-Serif" font-size="10.00">+ visible</text>
<text text-anchor="start" x="539" y="-362.5" font-family="Helvetica,sans-Serif" font-size="10.00">+ backgroundTransparency</text>
<text text-anchor="start" x="539" y="-351.5" font-family="Helvetica,sans-Serif" font-size="10.00">+ backgroundColor</text>
<text text-anchor="start" x="539" y="-340.5" font-family="Helvetica,sans-Serif" font-size="10.00">+ borderThickness</text>
<text text-anchor="start" x="539" y="-329.5" font-family="Helvetica,sans-Serif" font-size="10.00">+ borderTransparency</text>
<text text-anchor="start" x="539" y="-318.5" font-family="Helvetica,sans-Serif" font-size="10.00">+ borderColor</text>
<text text-anchor="start" x="539" y="-307.5" font-family="Helvetica,sans-Serif" font-size="10.00">+ anchorPoint</text>
<text text-anchor="start" x="539" y="-296.5" font-family="Helvetica,sans-Serif" font-size="10.00">+ position</text>
<text text-anchor="start" x="539" y="-285.5" font-family="Helvetica,sans-Serif" font-size="10.00">+ size</text>
<polyline fill="none" stroke="#666666" points="531,-278.5 665,-278.5"/>
<text text-anchor="start" x="539" y="-266.5" font-family="Helvetica,sans-Serif" font-size="10.00">+ render()</text>
<text text-anchor="start" x="539" y="-255.5" font-family="Helvetica,sans-Serif" font-size="10.00">+ getAbsolutePosition()</text>
<text text-anchor="start" x="539" y="-244.5" font-family="Helvetica,sans-Serif" font-size="10.00">+ getAbosluteSize()</text>
<text text-anchor="start" x="539" y="-233.5" font-family="Helvetica,sans-Serif" font-size="10.00">+ init()</text>
<text text-anchor="start" x="539" y="-222.5" font-family="Helvetica,sans-Serif" font-size="10.00">+ destroy()</text>
<text text-anchor="start" x="539" y="-211.5" font-family="Helvetica,sans-Serif" font-size="10.00"># UIObject()</text>
<text text-anchor="start" x="539" y="-200.5" font-family="Helvetica,sans-Serif" font-size="10.00"># UIObject()</text>
<text text-anchor="start" x="539" y="-189.5" font-family="Helvetica,sans-Serif" font-size="10.00"># render()</text>
</a>
</g>
</g>
<!-- Node1&#45;&gt;Node6 -->
<g id="edge5" class="edge">
<title>Node1&#45;&gt;Node6</title>
<path fill="none" stroke="#8b1a1a" d="M373.23,-465.67C416.89,-456.41 478.01,-438.38 522,-405 525.15,-402.61 528.22,-400.05 531.21,-397.35"/>
<polygon fill="none" stroke="#8b1a1a" points="372.56,-462.23 363.45,-467.65 373.95,-469.09 372.56,-462.23"/>
</g>
<!-- Node7 -->
<g id="node7" class="node">
<title>Node7</title>
<g id="a_node7"><a xlink:href="class_u_i_frame.html" target="_top" xlink:title=" ">
<polygon fill="white" stroke="#666666" points="512,-39 512,-107 580,-107 580,-39 512,-39"/>
<text text-anchor="middle" x="546" y="-95" font-family="Helvetica,sans-Serif" font-size="10.00">UIFrame</text>
<polyline fill="none" stroke="#666666" points="512,-88 580,-88"/>
<text text-anchor="middle" x="546" y="-76" font-family="Helvetica,sans-Serif" font-size="10.00"> </text>
<polyline fill="none" stroke="#666666" points="512,-69 580,-69"/>
<text text-anchor="start" x="520" y="-57" font-family="Helvetica,sans-Serif" font-size="10.00">+ UIFrame()</text>
<text text-anchor="start" x="520" y="-46" font-family="Helvetica,sans-Serif" font-size="10.00">+ UIFrame()</text>
</a>
</g>
</g>
<!-- Node6&#45;&gt;Node7 -->
<g id="edge6" class="edge">
<title>Node6&#45;&gt;Node7</title>
<path fill="none" stroke="#63b8ff" d="M569.23,-171.62C563.56,-147.78 558.06,-124.69 553.84,-106.95"/>
<polygon fill="none" stroke="#63b8ff" points="565.78,-172.22 571.5,-181.14 572.59,-170.6 565.78,-172.22"/>
</g>
<!-- Node8 -->
<g id="node8" class="node">
<title>Node8</title>
<g id="a_node8"><a xlink:href="class_u_i_text.html" target="_top" xlink:title=" ">
<polygon fill="white" stroke="#666666" points="598.5,-0.5 598.5,-145.5 699.5,-145.5 699.5,-0.5 598.5,-0.5"/>
<text text-anchor="middle" x="649" y="-133.5" font-family="Helvetica,sans-Serif" font-size="10.00">UIText</text>
<polyline fill="none" stroke="#666666" points="598.5,-126.5 699.5,-126.5"/>
<text text-anchor="start" x="606.5" y="-114.5" font-family="Helvetica,sans-Serif" font-size="10.00">+ text</text>
<text text-anchor="start" x="606.5" y="-103.5" font-family="Helvetica,sans-Serif" font-size="10.00">+ textColor</text>
<text text-anchor="start" x="606.5" y="-92.5" font-family="Helvetica,sans-Serif" font-size="10.00">+ textTransparency</text>
<text text-anchor="start" x="606.5" y="-81.5" font-family="Helvetica,sans-Serif" font-size="10.00">+ font</text>
<text text-anchor="start" x="606.5" y="-70.5" font-family="Helvetica,sans-Serif" font-size="10.00">+ textSize</text>
<text text-anchor="start" x="606.5" y="-59.5" font-family="Helvetica,sans-Serif" font-size="10.00">+ textAnchorPoint</text>
<text text-anchor="start" x="606.5" y="-48.5" font-family="Helvetica,sans-Serif" font-size="10.00">+ textPadding</text>
<polyline fill="none" stroke="#666666" points="598.5,-41.5 699.5,-41.5"/>
<text text-anchor="start" x="606.5" y="-29.5" font-family="Helvetica,sans-Serif" font-size="10.00">+ UIText()</text>
<text text-anchor="start" x="606.5" y="-18.5" font-family="Helvetica,sans-Serif" font-size="10.00">+ UIText()</text>
<text text-anchor="start" x="606.5" y="-7.5" font-family="Helvetica,sans-Serif" font-size="10.00">+ render()</text>
</a>
</g>
</g>
<!-- Node6&#45;&gt;Node8 -->
<g id="edge7" class="edge">
<title>Node6&#45;&gt;Node8</title>
<path fill="none" stroke="#63b8ff" d="M626.2,-171.66C628.29,-162.72 630.36,-153.88 632.34,-145.38"/>
<polygon fill="none" stroke="#63b8ff" points="622.86,-170.6 623.99,-181.14 629.67,-172.19 622.86,-170.6"/>
</g>
</g>
</svg>
        <g id="navigator" transform="translate(0 0)" fill="#404254">
                <rect fill="#f2f5e9" fill-opacity="0.5" stroke="#606060" stroke-width=".5" x="0" y="0" width="60" height="60"/>
                <use id="zoomplus" xlink:href="#zoomPlus" x="17" y="9" onmousedown="handleZoom(evt,'in')"/>
                <use id="zoomminus" xlink:href="#zoomMin" x="42" y="9" onmousedown="handleZoom(evt,'out')"/>
                <use id="reset" xlink:href="#resetDef" x="30" y="36" onmousedown="handleReset()"/>
                <g id="arrowUp" xlink:href="#dirArrow" transform="translate(30 24)" onmousedown="handlePan(0,-1)">
                  <use xlink:href="#rim" fill="#404040">
                        <set attributeName="fill" to="#808080" begin="arrowUp.mouseover" end="arrowUp.mouseout"/>
                  </use>
                  <path fill="none" stroke="white" stroke-width="1.5" d="M0,-3.0v7 M-2.5,-0.5L0,-3.0L2.5,-0.5"/>
                </g>
                <g id="arrowRight" xlink:href="#dirArrow" transform="rotate(90) translate(36 -43)" onmousedown="handlePan(1,0)">
                  <use xlink:href="#rim" fill="#404040">
                        <set attributeName="fill" to="#808080" begin="arrowRight.mouseover" end="arrowRight.mouseout"/>
                  </use>
                  <path fill="none" stroke="white" stroke-width="1.5" d="M0,-3.0v7 M-2.5,-0.5L0,-3.0L2.5,-0.5"/>
                </g>
                <g id="arrowDown" xlink:href="#dirArrow" transform="rotate(180) translate(-30 -48)" onmousedown="handlePan(0,1)">
                  <use xlink:href="#rim" fill="#404040">
                        <set attributeName="fill" to="#808080" begin="arrowDown.mouseover" end="arrowDown.mouseout"/>
                  </use>
                  <path fill="none" stroke="white" stroke-width="1.5" d="M0,-3.0v7 M-2.5,-0.5L0,-3.0L2.5,-0.5"/>
                </g>
                <g id="arrowLeft" xlink:href="#dirArrow" transform="rotate(270) translate(-36 17)" onmousedown="handlePan(-1,0)">
                  <use xlink:href="#rim" fill="#404040">
                        <set attributeName="fill" to="#808080" begin="arrowLeft.mouseover" end="arrowLeft.mouseout"/>
                  </use>
                  <path fill="none" stroke="white" stroke-width="1.5" d="M0,-3.0v7 M-2.5,-0.5L0,-3.0L2.5,-0.5"/>
                </g>
        </g>
        <svg viewBox="0 0 15 15" width="100%" height="30px" preserveAspectRatio="xMaxYMin meet">
         <g id="arrow_out" transform="scale(0.3 0.3)">
          <a xlink:href="class_renderable__inherit__graph_org.svg" target="_base">
           <rect id="button" ry="5" rx="5" y="6" x="6" height="38" width="38"
                fill="#f2f5e9" fill-opacity="0.5" stroke="#606060" stroke-width="1.0"/>
           <path id="arrow"
             d="M 11.500037,31.436501 C 11.940474,20.09759 22.043105,11.32322 32.158766,21.979434 L 37.068811,17.246167 C 37.068811,17.246167 37.088388,32 37.088388,32 L 22.160133,31.978069 C 22.160133,31.978069 26.997745,27.140456 26.997745,27.140456 C 18.528582,18.264221 13.291696,25.230495 11.500037,31.436501 z"
             style="fill:#404040;"/>
          </a>
         </g>
        </svg>
</svg>
