<?xml version="1.0" encoding="UTF-8" standalone="no"?>
<!DOCTYPE svg PUBLIC "-//W3C//DTD SVG 1.1//EN"
 "http://www.w3.org/Graphics/SVG/1.1/DTD/svg11.dtd">
<!-- Generated by graphviz version 7.1.0 (20230121.1956)
 -->
<!-- Title: Renderable Pages: 1 -->
<svg width="708pt" height="518pt"
 viewBox="0.00 0.00 707.50 518.00" xmlns="http://www.w3.org/2000/svg" xmlns:xlink="http://www.w3.org/1999/xlink">
<g id="graph0" class="graph" transform="scale(1 1) rotate(0) translate(4 514)">
<title>Renderable</title>
<!-- Node1 -->
<g id="node1" class="node">
<title>Node1</title>
<g id="a_node1"><a xlink:title=" ">
<polygon fill="#999999" stroke="#666666" points="276,-441.5 276,-509.5 362,-509.5 362,-441.5 276,-441.5"/>
<text text-anchor="middle" x="319" y="-497.5" font-family="Helvetica,sans-Serif" font-size="10.00">Renderable</text>
<polyline fill="none" stroke="#666666" points="276,-490.5 362,-490.5"/>
<text text-anchor="middle" x="319" y="-478.5" font-family="Helvetica,sans-Serif" font-size="10.00"> </text>
<polyline fill="none" stroke="#666666" points="276,-471.5 362,-471.5"/>
<text text-anchor="start" x="284" y="-459.5" font-family="Helvetica,sans-Serif" font-size="10.00">+ render()</text>
<text text-anchor="start" x="284" y="-448.5" font-family="Helvetica,sans-Serif" font-size="10.00">+ ~Renderable()</text>
</a>
</g>
</g>
<!-- Node2 -->
<g id="node2" class="node">
<title>Node2</title>
<g id="a_node2"><a xlink:href="class_fluid_simulator.html" target="_top" xlink:title=" ">
<polygon fill="white" stroke="#666666" points="0,-243 0,-344 126,-344 126,-243 0,-243"/>
<text text-anchor="middle" x="63" y="-332" font-family="Helvetica,sans-Serif" font-size="10.00">FluidSimulator</text>
<polyline fill="none" stroke="#666666" points="0,-325 126,-325"/>
<text text-anchor="start" x="8" y="-313" font-family="Helvetica,sans-Serif" font-size="10.00">+ simulationSize</text>
<polyline fill="none" stroke="#666666" points="0,-306 126,-306"/>
<text text-anchor="start" x="8" y="-294" font-family="Helvetica,sans-Serif" font-size="10.00">+ FluidSimulator()</text>
<text text-anchor="start" x="8" y="-283" font-family="Helvetica,sans-Serif" font-size="10.00">+ update()</text>
<text text-anchor="start" x="8" y="-272" font-family="Helvetica,sans-Serif" font-size="10.00">+ bindObstaclesTexture()</text>
<text text-anchor="start" x="8" y="-261" font-family="Helvetica,sans-Serif" font-size="10.00">+ getVelocityBuffer()</text>
<text text-anchor="start" x="8" y="-250" font-family="Helvetica,sans-Serif" font-size="10.00">+ render()</text>
</a>
</g>
</g>
<!-- Node1&#45;&gt;Node2 -->
<g id="edge1" class="edge">
<title>Node1&#45;&gt;Node2</title>
<path fill="none" stroke="#63b8ff" d="M265.13,-463.66C225.82,-453.63 172.99,-435.54 135,-405 114.75,-388.71 98.3,-365.15 86.27,-343.96"/>
<polygon fill="none" stroke="#63b8ff" points="264.08,-467.01 274.62,-465.98 265.74,-460.21 264.08,-467.01"/>
</g>
<!-- Node3 -->
<g id="node3" class="node">
<title>Node3</title>
<g id="a_node3"><a xlink:href="class_particle_simulator.html" target="_top" xlink:title=" ">
<polygon fill="white" stroke="#666666" points="144,-243 144,-344 256,-344 256,-243 144,-243"/>
<text text-anchor="middle" x="200" y="-332" font-family="Helvetica,sans-Serif" font-size="10.00">ParticleSimulator</text>
<polyline fill="none" stroke="#666666" points="144,-325 256,-325"/>
<text text-anchor="start" x="152" y="-313" font-family="Helvetica,sans-Serif" font-size="10.00">+ simulationSize</text>
<polyline fill="none" stroke="#666666" points="144,-306 256,-306"/>
<text text-anchor="start" x="152" y="-294" font-family="Helvetica,sans-Serif" font-size="10.00">+ ParticleSimulator()</text>
<text text-anchor="start" x="152" y="-283" font-family="Helvetica,sans-Serif" font-size="10.00">+ update()</text>
<text text-anchor="start" x="152" y="-272" font-family="Helvetica,sans-Serif" font-size="10.00">+ renderObstacles()</text>
<text text-anchor="start" x="152" y="-261" font-family="Helvetica,sans-Serif" font-size="10.00">+ render()</text>
<text text-anchor="start" x="152" y="-250" font-family="Helvetica,sans-Serif" font-size="10.00">+ ~ParticleSimulator()</text>
</a>
</g>
</g>
<!-- Node1&#45;&gt;Node3 -->
<g id="edge2" class="edge">
<title>Node1&#45;&gt;Node3</title>
<path fill="none" stroke="#63b8ff" d="M284.98,-432.51C278.15,-423.58 271.18,-414.1 265,-405 251.75,-385.48 238.33,-363.18 227.15,-343.75"/>
<polygon fill="none" stroke="#63b8ff" points="282.19,-434.62 291.09,-440.37 287.72,-430.33 282.19,-434.62"/>
</g>
<!-- Node4 -->
<g id="node4" class="node">
<title>Node4</title>
<g id="a_node4"><a xlink:href="class_simulation.html" target="_top" xlink:title=" ">
<polygon fill="white" stroke="#666666" points="274.5,-254 274.5,-333 363.5,-333 363.5,-254 274.5,-254"/>
<text text-anchor="middle" x="319" y="-321" font-family="Helvetica,sans-Serif" font-size="10.00">Simulation</text>
<polyline fill="none" stroke="#666666" points="274.5,-314 363.5,-314"/>
<text text-anchor="start" x="282.5" y="-302" font-family="Helvetica,sans-Serif" font-size="10.00">+ simulationSize</text>
<polyline fill="none" stroke="#666666" points="274.5,-295 363.5,-295"/>
<text text-anchor="start" x="282.5" y="-283" font-family="Helvetica,sans-Serif" font-size="10.00">+ Simulation()</text>
<text text-anchor="start" x="282.5" y="-272" font-family="Helvetica,sans-Serif" font-size="10.00">+ update()</text>
<text text-anchor="start" x="282.5" y="-261" font-family="Helvetica,sans-Serif" font-size="10.00">+ render()</text>
</a>
</g>
</g>
<!-- Node1&#45;&gt;Node4 -->
<g id="edge3" class="edge">
<title>Node1&#45;&gt;Node4</title>
<path fill="none" stroke="#63b8ff" d="M319,-430.53C319,-400.61 319,-361.42 319,-332.79"/>
<polygon fill="none" stroke="#63b8ff" points="315.5,-430.39 319,-440.39 322.5,-430.39 315.5,-430.39"/>
</g>
<!-- Node5 -->
<g id="node5" class="node">
<title>Node5</title>
<g id="a_node5"><a xlink:href="class_u_i.html" target="_top" xlink:title=" ">
<polygon fill="white" stroke="#666666" points="381.5,-237.5 381.5,-349.5 512.5,-349.5 512.5,-237.5 381.5,-237.5"/>
<text text-anchor="middle" x="447" y="-337.5" font-family="Helvetica,sans-Serif" font-size="10.00">UI</text>
<polyline fill="none" stroke="#666666" points="381.5,-330.5 512.5,-330.5"/>
<text text-anchor="start" x="389.5" y="-318.5" font-family="Helvetica,sans-Serif" font-size="10.00">+ rendered</text>
<polyline fill="none" stroke="#666666" points="381.5,-311.5 512.5,-311.5"/>
<text text-anchor="start" x="389.5" y="-299.5" font-family="Helvetica,sans-Serif" font-size="10.00">+ UI()</text>
<text text-anchor="start" x="389.5" y="-288.5" font-family="Helvetica,sans-Serif" font-size="10.00">+ UI()</text>
<text text-anchor="start" x="389.5" y="-277.5" font-family="Helvetica,sans-Serif" font-size="10.00">+ render()</text>
<text text-anchor="start" x="389.5" y="-266.5" font-family="Helvetica,sans-Serif" font-size="10.00">+ init()</text>
<text text-anchor="start" x="389.5" y="-255.5" font-family="Helvetica,sans-Serif" font-size="10.00">+ destroy()</text>
<text text-anchor="start" x="389.5" y="-244.5" font-family="Helvetica,sans-Serif" font-size="10.00"># renderUIObjectChildren()</text>
</a>
</g>
</g>
<!-- Node1&#45;&gt;Node5 -->
<g id="edge4" class="edge">
<title>Node1&#45;&gt;Node5</title>
<path fill="none" stroke="#63b8ff" d="M351.68,-432.41C358.49,-423.44 365.55,-413.96 372,-405 384.87,-387.12 398.51,-367.3 410.59,-349.43"/>
<polygon fill="none" stroke="#63b8ff" points="348.92,-430.27 345.64,-440.35 354.48,-434.52 348.92,-430.27"/>
</g>
<!-- Node6 -->
<g id="node6" class="node">
<title>Node6</title>
<g id="a_node6"><a xlink:href="class_u_i_object.html" target="_top" xlink:title=" ">
<polygon fill="white" stroke="#666666" points="531,-182.5 531,-404.5 665,-404.5 665,-182.5 531,-182.5"/>
<text text-anchor="middle" x="598" y="-392.5" font-family="Helvetica,sans-Serif" font-size="10.00">UIObject</text>
<polyline fill="none" stroke="#666666" points="531,-385.5 665,-385.5"/>
<text text-anchor="start" x="539" y="-373.5" font-family="Helvetica,sans-Serif" font-size="10.00">+ visible</text>
<text text-anchor="start" x="539" y="-362.5" font-family="Helvetica,sans-Serif" font-size="10.00">+ backgroundTransparency</text>
<text text-anchor="start" x="539" y="-351.5" font-family="Helvetica,sans-Serif" font-size="10.00">+ backgroundColor</text>
<text text-anchor="start" x="539" y="-340.5" font-family="Helvetica,sans-Serif" font-size="10.00">+ borderThickness</text>
<text text-anchor="start" x="539" y="-329.5" font-family="Helvetica,sans-Serif" font-size="10.00">+ borderTransparency</text>
<text text-anchor="start" x="539" y="-318.5" font-family="Helvetica,sans-Serif" font-size="10.00">+ borderColor</text>
<text text-anchor="start" x="539" y="-307.5" font-family="Helvetica,sans-Serif" font-size="10.00">+ anchorPoint</text>
<text text-anchor="start" x="539" y="-296.5" font-family="Helvetica,sans-Serif" font-size="10.00">+ position</text>
<text text-anchor="start" x="539" y="-285.5" font-family="Helvetica,sans-Serif" font-size="10.00">+ size</text>
<polyline fill="none" stroke="#666666" points="531,-278.5 665,-278.5"/>
<text text-anchor="start" x="539" y="-266.5" font-family="Helvetica,sans-Serif" font-size="10.00">+ render()</text>
<text text-anchor="start" x="539" y="-255.5" font-family="Helvetica,sans-Serif" font-size="10.00">+ getAbsolutePosition()</text>
<text text-anchor="start" x="539" y="-244.5" font-family="Helvetica,sans-Serif" font-size="10.00">+ getAbosluteSize()</text>
<text text-anchor="start" x="539" y="-233.5" font-family="Helvetica,sans-Serif" font-size="10.00">+ init()</text>
<text text-anchor="start" x="539" y="-222.5" font-family="Helvetica,sans-Serif" font-size="10.00">+ destroy()</text>
<text text-anchor="start" x="539" y="-211.5" font-family="Helvetica,sans-Serif" font-size="10.00"># UIObject()</text>
<text text-anchor="start" x="539" y="-200.5" font-family="Helvetica,sans-Serif" font-size="10.00"># UIObject()</text>
<text text-anchor="start" x="539" y="-189.5" font-family="Helvetica,sans-Serif" font-size="10.00"># render()</text>
</a>
</g>
</g>
<!-- Node1&#45;&gt;Node6 -->
<g id="edge5" class="edge">
<title>Node1&#45;&gt;Node6</title>
<path fill="none" stroke="#8b1a1a" d="M373.23,-465.67C416.89,-456.41 478.01,-438.38 522,-405 525.15,-402.61 528.22,-400.05 531.21,-397.35"/>
<polygon fill="none" stroke="#8b1a1a" points="372.56,-462.23 363.45,-467.65 373.95,-469.09 372.56,-462.23"/>
</g>
<!-- Node7 -->
<g id="node7" class="node">
<title>Node7</title>
<g id="a_node7"><a xlink:href="class_u_i_frame.html" target="_top" xlink:title=" ">
<polygon fill="white" stroke="#666666" points="512,-39 512,-107 580,-107 580,-39 512,-39"/>
<text text-anchor="middle" x="546" y="-95" font-family="Helvetica,sans-Serif" font-size="10.00">UIFrame</text>
<polyline fill="none" stroke="#666666" points="512,-88 580,-88"/>
<text text-anchor="middle" x="546" y="-76" font-family="Helvetica,sans-Serif" font-size="10.00"> </text>
<polyline fill="none" stroke="#666666" points="512,-69 580,-69"/>
<text text-anchor="start" x="520" y="-57" font-family="Helvetica,sans-Serif" font-size="10.00">+ UIFrame()</text>
<text text-anchor="start" x="520" y="-46" font-family="Helvetica,sans-Serif" font-size="10.00">+ UIFrame()</text>
</a>
</g>
</g>
<!-- Node6&#45;&gt;Node7 -->
<g id="edge6" class="edge">
<title>Node6&#45;&gt;Node7</title>
<path fill="none" stroke="#63b8ff" d="M569.23,-171.62C563.56,-147.78 558.06,-124.69 553.84,-106.95"/>
<polygon fill="none" stroke="#63b8ff" points="565.78,-172.22 571.5,-181.14 572.59,-170.6 565.78,-172.22"/>
</g>
<!-- Node8 -->
<g id="node8" class="node">
<title>Node8</title>
<g id="a_node8"><a xlink:href="class_u_i_text.html" target="_top" xlink:title=" ">
<polygon fill="white" stroke="#666666" points="598.5,-0.5 598.5,-145.5 699.5,-145.5 699.5,-0.5 598.5,-0.5"/>
<text text-anchor="middle" x="649" y="-133.5" font-family="Helvetica,sans-Serif" font-size="10.00">UIText</text>
<polyline fill="none" stroke="#666666" points="598.5,-126.5 699.5,-126.5"/>
<text text-anchor="start" x="606.5" y="-114.5" font-family="Helvetica,sans-Serif" font-size="10.00">+ text</text>
<text text-anchor="start" x="606.5" y="-103.5" font-family="Helvetica,sans-Serif" font-size="10.00">+ textColor</text>
<text text-anchor="start" x="606.5" y="-92.5" font-family="Helvetica,sans-Serif" font-size="10.00">+ textTransparency</text>
<text text-anchor="start" x="606.5" y="-81.5" font-family="Helvetica,sans-Serif" font-size="10.00">+ font</text>
<text text-anchor="start" x="606.5" y="-70.5" font-family="Helvetica,sans-Serif" font-size="10.00">+ textSize</text>
<text text-anchor="start" x="606.5" y="-59.5" font-family="Helvetica,sans-Serif" font-size="10.00">+ textAnchorPoint</text>
<text text-anchor="start" x="606.5" y="-48.5" font-family="Helvetica,sans-Serif" font-size="10.00">+ textPadding</text>
<polyline fill="none" stroke="#666666" points="598.5,-41.5 699.5,-41.5"/>
<text text-anchor="start" x="606.5" y="-29.5" font-family="Helvetica,sans-Serif" font-size="10.00">+ UIText()</text>
<text text-anchor="start" x="606.5" y="-18.5" font-family="Helvetica,sans-Serif" font-size="10.00">+ UIText()</text>
<text text-anchor="start" x="606.5" y="-7.5" font-family="Helvetica,sans-Serif" font-size="10.00">+ render()</text>
</a>
</g>
</g>
<!-- Node6&#45;&gt;Node8 -->
<g id="edge7" class="edge">
<title>Node6&#45;&gt;Node8</title>
<path fill="none" stroke="#63b8ff" d="M626.2,-171.66C628.29,-162.72 630.36,-153.88 632.34,-145.38"/>
<polygon fill="none" stroke="#63b8ff" points="622.86,-170.6 623.99,-181.14 629.67,-172.19 622.86,-170.6"/>
</g>
</g>
</svg>
