<?xml version="1.0" encoding="UTF-8" standalone="no"?>
<!DOCTYPE svg PUBLIC "-//W3C//DTD SVG 1.1//EN"
 "http://www.w3.org/Graphics/SVG/1.1/DTD/svg11.dtd">
<!-- Generated by graphviz version 7.1.0 (20230121.1956)
 -->
<!-- Title: UIObject Pages: 1 -->
<svg width="219pt" height="606pt"
 viewBox="0.00 0.00 218.50 606.00" xmlns="http://www.w3.org/2000/svg" xmlns:xlink="http://www.w3.org/1999/xlink">
<g id="graph0" class="graph" transform="scale(1 1) rotate(0) translate(4 602)">
<title>UIObject</title>
<!-- Node1 -->
<g id="node1" class="node">
<title>Node1</title>
<g id="a_node1"><a xlink:title=" ">
<polygon fill="#999999" stroke="#666666" points="41,-182.5 41,-404.5 175,-404.5 175,-182.5 41,-182.5"/>
<text text-anchor="middle" x="108" y="-392.5" font-family="Helvetica,sans-Serif" font-size="10.00">UIObject</text>
<polyline fill="none" stroke="#666666" points="41,-385.5 175,-385.5"/>
<text text-anchor="start" x="49" y="-373.5" font-family="Helvetica,sans-Serif" font-size="10.00">+ visible</text>
<text text-anchor="start" x="49" y="-362.5" font-family="Helvetica,sans-Serif" font-size="10.00">+ backgroundTransparency</text>
<text text-anchor="start" x="49" y="-351.5" font-family="Helvetica,sans-Serif" font-size="10.00">+ backgroundColor</text>
<text text-anchor="start" x="49" y="-340.5" font-family="Helvetica,sans-Serif" font-size="10.00">+ borderThickness</text>
<text text-anchor="start" x="49" y="-329.5" font-family="Helvetica,sans-Serif" font-size="10.00">+ borderTransparency</text>
<text text-anchor="start" x="49" y="-318.5" font-family="Helvetica,sans-Serif" font-size="10.00">+ borderColor</text>
<text text-anchor="start" x="49" y="-307.5" font-family="Helvetica,sans-Serif" font-size="10.00">+ anchorPoint</text>
<text text-anchor="start" x="49" y="-296.5" font-family="Helvetica,sans-Serif" font-size="10.00">+ position</text>
<text text-anchor="start" x="49" y="-285.5" font-family="Helvetica,sans-Serif" font-size="10.00">+ size</text>
<polyline fill="none" stroke="#666666" points="41,-278.5 175,-278.5"/>
<text text-anchor="start" x="49" y="-266.5" font-family="Helvetica,sans-Serif" font-size="10.00">+ render()</text>
<text text-anchor="start" x="49" y="-255.5" font-family="Helvetica,sans-Serif" font-size="10.00">+ getAbsolutePosition()</text>
<text text-anchor="start" x="49" y="-244.5" font-family="Helvetica,sans-Serif" font-size="10.00">+ getAbosluteSize()</text>
<text text-anchor="start" x="49" y="-233.5" font-family="Helvetica,sans-Serif" font-size="10.00">+ init()</text>
<text text-anchor="start" x="49" y="-222.5" font-family="Helvetica,sans-Serif" font-size="10.00">+ destroy()</text>
<text text-anchor="start" x="49" y="-211.5" font-family="Helvetica,sans-Serif" font-size="10.00"># UIObject()</text>
<text text-anchor="start" x="49" y="-200.5" font-family="Helvetica,sans-Serif" font-size="10.00"># UIObject()</text>
<text text-anchor="start" x="49" y="-189.5" font-family="Helvetica,sans-Serif" font-size="10.00"># render()</text>
</a>
</g>
</g>
<!-- Node4 -->
<g id="node4" class="node">
<title>Node4</title>
<g id="a_node4"><a xlink:href="class_u_i_frame.html" target="_top" xlink:title=" ">
<polygon fill="white" stroke="#666666" points="23,-39 23,-107 91,-107 91,-39 23,-39"/>
<text text-anchor="middle" x="57" y="-95" font-family="Helvetica,sans-Serif" font-size="10.00">UIFrame</text>
<polyline fill="none" stroke="#666666" points="23,-88 91,-88"/>
<text text-anchor="middle" x="57" y="-76" font-family="Helvetica,sans-Serif" font-size="10.00"> </text>
<polyline fill="none" stroke="#666666" points="23,-69 91,-69"/>
<text text-anchor="start" x="31" y="-57" font-family="Helvetica,sans-Serif" font-size="10.00">+ UIFrame()</text>
<text text-anchor="start" x="31" y="-46" font-family="Helvetica,sans-Serif" font-size="10.00">+ UIFrame()</text>
</a>
</g>
</g>
<!-- Node1&#45;&gt;Node4 -->
<g id="edge3" class="edge">
<title>Node1&#45;&gt;Node4</title>
<path fill="none" stroke="#63b8ff" d="M79.79,-171.62C74.22,-147.78 68.83,-124.69 64.69,-106.95"/>
<polygon fill="none" stroke="#63b8ff" points="76.33,-172.19 82.01,-181.14 83.14,-170.6 76.33,-172.19"/>
</g>
<!-- Node5 -->
<g id="node5" class="node">
<title>Node5</title>
<g id="a_node5"><a xlink:href="class_u_i_text.html" target="_top" xlink:title=" ">
<polygon fill="white" stroke="#666666" points="109.5,-0.5 109.5,-145.5 210.5,-145.5 210.5,-0.5 109.5,-0.5"/>
<text text-anchor="middle" x="160" y="-133.5" font-family="Helvetica,sans-Serif" font-size="10.00">UIText</text>
<polyline fill="none" stroke="#666666" points="109.5,-126.5 210.5,-126.5"/>
<text text-anchor="start" x="117.5" y="-114.5" font-family="Helvetica,sans-Serif" font-size="10.00">+ text</text>
<text text-anchor="start" x="117.5" y="-103.5" font-family="Helvetica,sans-Serif" font-size="10.00">+ textColor</text>
<text text-anchor="start" x="117.5" y="-92.5" font-family="Helvetica,sans-Serif" font-size="10.00">+ textTransparency</text>
<text text-anchor="start" x="117.5" y="-81.5" font-family="Helvetica,sans-Serif" font-size="10.00">+ font</text>
<text text-anchor="start" x="117.5" y="-70.5" font-family="Helvetica,sans-Serif" font-size="10.00">+ textSize</text>
<text text-anchor="start" x="117.5" y="-59.5" font-family="Helvetica,sans-Serif" font-size="10.00">+ textAnchorPoint</text>
<text text-anchor="start" x="117.5" y="-48.5" font-family="Helvetica,sans-Serif" font-size="10.00">+ textPadding</text>
<polyline fill="none" stroke="#666666" points="109.5,-41.5 210.5,-41.5"/>
<text text-anchor="start" x="117.5" y="-29.5" font-family="Helvetica,sans-Serif" font-size="10.00">+ UIText()</text>
<text text-anchor="start" x="117.5" y="-18.5" font-family="Helvetica,sans-Serif" font-size="10.00">+ UIText()</text>
<text text-anchor="start" x="117.5" y="-7.5" font-family="Helvetica,sans-Serif" font-size="10.00">+ render()</text>
</a>
</g>
</g>
<!-- Node1&#45;&gt;Node5 -->
<g id="edge4" class="edge">
<title>Node1&#45;&gt;Node5</title>
<path fill="none" stroke="#63b8ff" d="M136.76,-171.66C138.89,-162.72 140.99,-153.88 143.01,-145.38"/>
<polygon fill="none" stroke="#63b8ff" points="133.41,-170.6 134.5,-181.14 140.22,-172.22 133.41,-170.6"/>
</g>
<!-- Node2 -->
<g id="node2" class="node">
<title>Node2</title>
<g id="a_node2"><a xlink:href="class_instance.html" target="_top" xlink:title=" ">
<polygon fill="white" stroke="#666666" points="0,-441.5 0,-597.5 104,-597.5 104,-441.5 0,-441.5"/>
<text text-anchor="middle" x="52" y="-585.5" font-family="Helvetica,sans-Serif" font-size="10.00">Instance</text>
<polyline fill="none" stroke="#666666" points="0,-578.5 104,-578.5"/>
<text text-anchor="start" x="8" y="-566.5" font-family="Helvetica,sans-Serif" font-size="10.00">+ type</text>
<text text-anchor="start" x="8" y="-555.5" font-family="Helvetica,sans-Serif" font-size="10.00">+ name</text>
<polyline fill="none" stroke="#666666" points="0,-548.5 104,-548.5"/>
<text text-anchor="start" x="8" y="-536.5" font-family="Helvetica,sans-Serif" font-size="10.00">+ onChildAdded()</text>
<text text-anchor="start" x="8" y="-525.5" font-family="Helvetica,sans-Serif" font-size="10.00">+ onChildRemoved()</text>
<text text-anchor="start" x="8" y="-514.5" font-family="Helvetica,sans-Serif" font-size="10.00">+ Instance()</text>
<text text-anchor="start" x="8" y="-503.5" font-family="Helvetica,sans-Serif" font-size="10.00">+ setParent()</text>
<text text-anchor="start" x="8" y="-492.5" font-family="Helvetica,sans-Serif" font-size="10.00">+ getChildren()</text>
<text text-anchor="start" x="8" y="-481.5" font-family="Helvetica,sans-Serif" font-size="10.00">+ findChild()</text>
<text text-anchor="start" x="8" y="-470.5" font-family="Helvetica,sans-Serif" font-size="10.00">+ getChild()</text>
<text text-anchor="start" x="8" y="-459.5" font-family="Helvetica,sans-Serif" font-size="10.00">+ ~Instance()</text>
<text text-anchor="start" x="8" y="-448.5" font-family="Helvetica,sans-Serif" font-size="10.00">+ fromJSON()</text>
</a>
</g>
</g>
<!-- Node2&#45;&gt;Node1 -->
<g id="edge1" class="edge">
<title>Node2&#45;&gt;Node1</title>
<path fill="none" stroke="#63b8ff" d="M73.98,-430.58C76.13,-422 78.32,-413.22 80.51,-404.46"/>
<polygon fill="none" stroke="#63b8ff" points="70.59,-429.71 71.56,-440.26 77.38,-431.4 70.59,-429.71"/>
</g>
<!-- Node3 -->
<g id="node3" class="node">
<title>Node3</title>
<g id="a_node3"><a xlink:href="class_renderable.html" target="_top" xlink:title=" ">
<polygon fill="white" stroke="#666666" points="122,-485.5 122,-553.5 208,-553.5 208,-485.5 122,-485.5"/>
<text text-anchor="middle" x="165" y="-541.5" font-family="Helvetica,sans-Serif" font-size="10.00">Renderable</text>
<polyline fill="none" stroke="#666666" points="122,-534.5 208,-534.5"/>
<text text-anchor="middle" x="165" y="-522.5" font-family="Helvetica,sans-Serif" font-size="10.00"> </text>
<polyline fill="none" stroke="#666666" points="122,-515.5 208,-515.5"/>
<text text-anchor="start" x="130" y="-503.5" font-family="Helvetica,sans-Serif" font-size="10.00">+ render()</text>
<text text-anchor="start" x="130" y="-492.5" font-family="Helvetica,sans-Serif" font-size="10.00">+ ~Renderable()</text>
</a>
</g>
</g>
<!-- Node3&#45;&gt;Node1 -->
<g id="edge2" class="edge">
<title>Node3&#45;&gt;Node1</title>
<path fill="none" stroke="#8b1a1a" d="M153.89,-474.83C148.7,-454.44 142.26,-429.15 135.87,-404.03"/>
<polygon fill="none" stroke="#8b1a1a" points="150.48,-475.63 156.34,-484.46 157.26,-473.91 150.48,-475.63"/>
</g>
</g>
</svg>
