<?xml version="1.0" encoding="UTF-8" standalone="no"?>
<!DOCTYPE svg PUBLIC "-//W3C//DTD SVG 1.1//EN"
 "http://www.w3.org/Graphics/SVG/1.1/DTD/svg11.dtd">
<!-- Generated by graphviz version 7.1.0 (20230121.1956)
 -->
<!-- Title: UIText Pages: 1 -->
<svg width="286pt" height="607pt"
 viewBox="0.00 0.00 285.50 607.00" xmlns="http://www.w3.org/2000/svg" xmlns:xlink="http://www.w3.org/1999/xlink">
<g id="graph0" class="graph" transform="scale(1 1) rotate(0) translate(4 603)">
<title>UIText</title>
<!-- Node1 -->
<g id="node1" class="node">
<title>Node1</title>
<g id="a_node1"><a xlink:title=" ">
<polygon fill="#999999" stroke="#666666" points="114.5,-0.5 114.5,-145.5 215.5,-145.5 215.5,-0.5 114.5,-0.5"/>
<text text-anchor="middle" x="165" y="-133.5" font-family="Helvetica,sans-Serif" font-size="10.00">UIText</text>
<polyline fill="none" stroke="#666666" points="114.5,-126.5 215.5,-126.5"/>
<text text-anchor="start" x="122.5" y="-114.5" font-family="Helvetica,sans-Serif" font-size="10.00">+ text</text>
<text text-anchor="start" x="122.5" y="-103.5" font-family="Helvetica,sans-Serif" font-size="10.00">+ textColor</text>
<text text-anchor="start" x="122.5" y="-92.5" font-family="Helvetica,sans-Serif" font-size="10.00">+ textTransparency</text>
<text text-anchor="start" x="122.5" y="-81.5" font-family="Helvetica,sans-Serif" font-size="10.00">+ font</text>
<text text-anchor="start" x="122.5" y="-70.5" font-family="Helvetica,sans-Serif" font-size="10.00">+ textSize</text>
<text text-anchor="start" x="122.5" y="-59.5" font-family="Helvetica,sans-Serif" font-size="10.00">+ textAnchorPoint</text>
<text text-anchor="start" x="122.5" y="-48.5" font-family="Helvetica,sans-Serif" font-size="10.00">+ textPadding</text>
<polyline fill="none" stroke="#666666" points="114.5,-41.5 215.5,-41.5"/>
<text text-anchor="start" x="122.5" y="-29.5" font-family="Helvetica,sans-Serif" font-size="10.00">+ UIText()</text>
<text text-anchor="start" x="122.5" y="-18.5" font-family="Helvetica,sans-Serif" font-size="10.00">+ UIText()</text>
<text text-anchor="start" x="122.5" y="-7.5" font-family="Helvetica,sans-Serif" font-size="10.00">+ render()</text>
</a>
</g>
</g>
<!-- Node2 -->
<g id="node2" class="node">
<title>Node2</title>
<g id="a_node2"><a xlink:href="class_u_i_object.html" target="_top" xlink:title=" ">
<polygon fill="white" stroke="#666666" points="98,-183.5 98,-383.5 232,-383.5 232,-183.5 98,-183.5"/>
<text text-anchor="middle" x="165" y="-371.5" font-family="Helvetica,sans-Serif" font-size="10.00">UIObject</text>
<polyline fill="none" stroke="#666666" points="98,-364.5 232,-364.5"/>
<text text-anchor="start" x="106" y="-352.5" font-family="Helvetica,sans-Serif" font-size="10.00">+ visible</text>
<text text-anchor="start" x="106" y="-341.5" font-family="Helvetica,sans-Serif" font-size="10.00">+ backgroundTransparency</text>
<text text-anchor="start" x="106" y="-330.5" font-family="Helvetica,sans-Serif" font-size="10.00">+ backgroundColor</text>
<text text-anchor="start" x="106" y="-319.5" font-family="Helvetica,sans-Serif" font-size="10.00">+ borderThickness</text>
<text text-anchor="start" x="106" y="-308.5" font-family="Helvetica,sans-Serif" font-size="10.00">+ borderTransparency</text>
<text text-anchor="start" x="106" y="-297.5" font-family="Helvetica,sans-Serif" font-size="10.00">+ borderColor</text>
<text text-anchor="start" x="106" y="-286.5" font-family="Helvetica,sans-Serif" font-size="10.00">+ anchorPoint</text>
<polyline fill="none" stroke="#666666" points="98,-279.5 232,-279.5"/>
<text text-anchor="start" x="106" y="-267.5" font-family="Helvetica,sans-Serif" font-size="10.00">+ render()</text>
<text text-anchor="start" x="106" y="-256.5" font-family="Helvetica,sans-Serif" font-size="10.00">+ getAbsolutePosition()</text>
<text text-anchor="start" x="106" y="-245.5" font-family="Helvetica,sans-Serif" font-size="10.00">+ getAbosluteSize()</text>
<text text-anchor="start" x="106" y="-234.5" font-family="Helvetica,sans-Serif" font-size="10.00">+ init()</text>
<text text-anchor="start" x="106" y="-223.5" font-family="Helvetica,sans-Serif" font-size="10.00">+ destroy()</text>
<text text-anchor="start" x="106" y="-212.5" font-family="Helvetica,sans-Serif" font-size="10.00"># UIObject()</text>
<text text-anchor="start" x="106" y="-201.5" font-family="Helvetica,sans-Serif" font-size="10.00"># UIObject()</text>
<text text-anchor="start" x="106" y="-190.5" font-family="Helvetica,sans-Serif" font-size="10.00"># render()</text>
</a>
</g>
</g>
<!-- Node2&#45;&gt;Node1 -->
<g id="edge1" class="edge">
<title>Node2&#45;&gt;Node1</title>
<path fill="none" stroke="#63b8ff" d="M165,-172.51C165,-163.31 165,-154.16 165,-145.37"/>
<polygon fill="none" stroke="#63b8ff" points="161.5,-172.23 165,-182.23 168.5,-172.23 161.5,-172.23"/>
</g>
<!-- Node3 -->
<g id="node3" class="node">
<title>Node3</title>
<g id="a_node3"><a xlink:href="class_instance.html" target="_top" xlink:title=" ">
<polygon fill="white" stroke="#666666" points="0,-442.5 0,-598.5 104,-598.5 104,-442.5 0,-442.5"/>
<text text-anchor="middle" x="52" y="-586.5" font-family="Helvetica,sans-Serif" font-size="10.00">Instance</text>
<polyline fill="none" stroke="#666666" points="0,-579.5 104,-579.5"/>
<text text-anchor="start" x="8" y="-567.5" font-family="Helvetica,sans-Serif" font-size="10.00">+ type</text>
<text text-anchor="start" x="8" y="-556.5" font-family="Helvetica,sans-Serif" font-size="10.00">+ name</text>
<polyline fill="none" stroke="#666666" points="0,-549.5 104,-549.5"/>
<text text-anchor="start" x="8" y="-537.5" font-family="Helvetica,sans-Serif" font-size="10.00">+ onChildAdded()</text>
<text text-anchor="start" x="8" y="-526.5" font-family="Helvetica,sans-Serif" font-size="10.00">+ onChildRemoved()</text>
<text text-anchor="start" x="8" y="-515.5" font-family="Helvetica,sans-Serif" font-size="10.00">+ Instance()</text>
<text text-anchor="start" x="8" y="-504.5" font-family="Helvetica,sans-Serif" font-size="10.00">+ setParent()</text>
<text text-anchor="start" x="8" y="-493.5" font-family="Helvetica,sans-Serif" font-size="10.00">+ getChildren()</text>
<text text-anchor="start" x="8" y="-482.5" font-family="Helvetica,sans-Serif" font-size="10.00">+ findChild()</text>
<text text-anchor="start" x="8" y="-471.5" font-family="Helvetica,sans-Serif" font-size="10.00">+ getChild()</text>
<text text-anchor="start" x="8" y="-460.5" font-family="Helvetica,sans-Serif" font-size="10.00">+ ~Instance()</text>
<text text-anchor="start" x="8" y="-449.5" font-family="Helvetica,sans-Serif" font-size="10.00">+ fromJSON()</text>
</a>
</g>
</g>
<!-- Node3&#45;&gt;Node2 -->
<g id="edge2" class="edge">
<title>Node3&#45;&gt;Node2</title>
<path fill="none" stroke="#63b8ff" d="M93.96,-432.24C101.6,-416.35 109.62,-399.66 117.41,-383.46"/>
<polygon fill="none" stroke="#63b8ff" points="90.84,-430.66 89.66,-441.19 97.14,-433.69 90.84,-430.66"/>
</g>
<!-- Node4 -->
<g id="node4" class="node">
<title>Node4</title>
<g id="a_node4"><a xlink:href="class_renderable.html" target="_top" xlink:title=" ">
<polygon fill="white" stroke="#666666" points="122,-486.5 122,-554.5 208,-554.5 208,-486.5 122,-486.5"/>
<text text-anchor="middle" x="165" y="-542.5" font-family="Helvetica,sans-Serif" font-size="10.00">Renderable</text>
<polyline fill="none" stroke="#666666" points="122,-535.5 208,-535.5"/>
<text text-anchor="middle" x="165" y="-523.5" font-family="Helvetica,sans-Serif" font-size="10.00"> </text>
<polyline fill="none" stroke="#666666" points="122,-516.5 208,-516.5"/>
<text text-anchor="start" x="130" y="-504.5" font-family="Helvetica,sans-Serif" font-size="10.00">+ render()</text>
<text text-anchor="start" x="130" y="-493.5" font-family="Helvetica,sans-Serif" font-size="10.00">+ ~Renderable()</text>
</a>
</g>
</g>
<!-- Node4&#45;&gt;Node2 -->
<g id="edge3" class="edge">
<title>Node4&#45;&gt;Node2</title>
<path fill="none" stroke="#8b1a1a" d="M165,-475.49C165,-449.51 165,-415.52 165,-383.43"/>
<polygon fill="none" stroke="#8b1a1a" points="161.5,-475.31 165,-485.31 168.5,-475.31 161.5,-475.31"/>
</g>
<!-- Node5 -->
<g id="node5" class="node">
<title>Node5</title>
<g id="a_node5"><a xlink:href="struct_u_i_coord.html" target="_top" xlink:title=" ">
<polygon fill="white" stroke="#666666" points="226.5,-486.5 226.5,-554.5 277.5,-554.5 277.5,-486.5 226.5,-486.5"/>
<text text-anchor="middle" x="252" y="-542.5" font-family="Helvetica,sans-Serif" font-size="10.00">UICoord</text>
<polyline fill="none" stroke="#666666" points="226.5,-535.5 277.5,-535.5"/>
<text text-anchor="start" x="234.5" y="-523.5" font-family="Helvetica,sans-Serif" font-size="10.00">+ scale</text>
<text text-anchor="start" x="234.5" y="-512.5" font-family="Helvetica,sans-Serif" font-size="10.00">+ offset</text>
<polyline fill="none" stroke="#666666" points="226.5,-505.5 277.5,-505.5"/>
<text text-anchor="middle" x="252" y="-493.5" font-family="Helvetica,sans-Serif" font-size="10.00"> </text>
</a>
</g>
</g>
<!-- Node5&#45;&gt;Node2 -->
<g id="edge4" class="edge">
<title>Node5&#45;&gt;Node2</title>
<path fill="none" stroke="#404040" d="M239.9,-486.82C231.05,-462.9 218.47,-428.93 206.15,-395.64"/>
<polygon fill="none" stroke="#404040" points="206.1,-395.53 200.27,-391.29 201.94,-384.27 207.77,-388.51 206.1,-395.53"/>
<text text-anchor="middle" x="237.5" y="-416" font-family="Helvetica,sans-Serif" font-size="10.00"> +position</text>
<text text-anchor="middle" x="237.5" y="-405" font-family="Helvetica,sans-Serif" font-size="10.00">+size</text>
</g>
</g>
</svg>
