<?xml version="1.0" encoding="UTF-8" standalone="no"?>
<!DOCTYPE svg PUBLIC "-//W3C//DTD SVG 1.1//EN"
 "http://www.w3.org/Graphics/SVG/1.1/DTD/svg11.dtd">
<!-- Generated by graphviz version 7.1.0 (20230121.1956)
 -->
<!-- Title: UIObject Pages: 1 -->
<svg width="286pt" height="424pt"
 viewBox="0.00 0.00 285.50 424.00" xmlns="http://www.w3.org/2000/svg" xmlns:xlink="http://www.w3.org/1999/xlink">
<g id="graph0" class="graph" transform="scale(1 1) rotate(0) translate(4 420)">
<title>UIObject</title>
<!-- Node1 -->
<g id="node1" class="node">
<title>Node1</title>
<g id="a_node1"><a xlink:title=" ">
<polygon fill="#999999" stroke="#666666" points="98,-0.5 98,-200.5 232,-200.5 232,-0.5 98,-0.5"/>
<text text-anchor="middle" x="165" y="-188.5" font-family="Helvetica,sans-Serif" font-size="10.00">UIObject</text>
<polyline fill="none" stroke="#666666" points="98,-181.5 232,-181.5"/>
<text text-anchor="start" x="106" y="-169.5" font-family="Helvetica,sans-Serif" font-size="10.00">+ visible</text>
<text text-anchor="start" x="106" y="-158.5" font-family="Helvetica,sans-Serif" font-size="10.00">+ backgroundTransparency</text>
<text text-anchor="start" x="106" y="-147.5" font-family="Helvetica,sans-Serif" font-size="10.00">+ backgroundColor</text>
<text text-anchor="start" x="106" y="-136.5" font-family="Helvetica,sans-Serif" font-size="10.00">+ borderThickness</text>
<text text-anchor="start" x="106" y="-125.5" font-family="Helvetica,sans-Serif" font-size="10.00">+ borderTransparency</text>
<text text-anchor="start" x="106" y="-114.5" font-family="Helvetica,sans-Serif" font-size="10.00">+ borderColor</text>
<text text-anchor="start" x="106" y="-103.5" font-family="Helvetica,sans-Serif" font-size="10.00">+ anchorPoint</text>
<polyline fill="none" stroke="#666666" points="98,-96.5 232,-96.5"/>
<text text-anchor="start" x="106" y="-84.5" font-family="Helvetica,sans-Serif" font-size="10.00">+ render()</text>
<text text-anchor="start" x="106" y="-73.5" font-family="Helvetica,sans-Serif" font-size="10.00">+ getAbsolutePosition()</text>
<text text-anchor="start" x="106" y="-62.5" font-family="Helvetica,sans-Serif" font-size="10.00">+ getAbosluteSize()</text>
<text text-anchor="start" x="106" y="-51.5" font-family="Helvetica,sans-Serif" font-size="10.00">+ init()</text>
<text text-anchor="start" x="106" y="-40.5" font-family="Helvetica,sans-Serif" font-size="10.00">+ destroy()</text>
<text text-anchor="start" x="106" y="-29.5" font-family="Helvetica,sans-Serif" font-size="10.00"># UIObject()</text>
<text text-anchor="start" x="106" y="-18.5" font-family="Helvetica,sans-Serif" font-size="10.00"># UIObject()</text>
<text text-anchor="start" x="106" y="-7.5" font-family="Helvetica,sans-Serif" font-size="10.00"># render()</text>
</a>
</g>
</g>
<!-- Node2 -->
<g id="node2" class="node">
<title>Node2</title>
<g id="a_node2"><a xlink:href="class_instance.html" target="_top" xlink:title=" ">
<polygon fill="white" stroke="#666666" points="0,-259.5 0,-415.5 104,-415.5 104,-259.5 0,-259.5"/>
<text text-anchor="middle" x="52" y="-403.5" font-family="Helvetica,sans-Serif" font-size="10.00">Instance</text>
<polyline fill="none" stroke="#666666" points="0,-396.5 104,-396.5"/>
<text text-anchor="start" x="8" y="-384.5" font-family="Helvetica,sans-Serif" font-size="10.00">+ type</text>
<text text-anchor="start" x="8" y="-373.5" font-family="Helvetica,sans-Serif" font-size="10.00">+ name</text>
<polyline fill="none" stroke="#666666" points="0,-366.5 104,-366.5"/>
<text text-anchor="start" x="8" y="-354.5" font-family="Helvetica,sans-Serif" font-size="10.00">+ onChildAdded()</text>
<text text-anchor="start" x="8" y="-343.5" font-family="Helvetica,sans-Serif" font-size="10.00">+ onChildRemoved()</text>
<text text-anchor="start" x="8" y="-332.5" font-family="Helvetica,sans-Serif" font-size="10.00">+ Instance()</text>
<text text-anchor="start" x="8" y="-321.5" font-family="Helvetica,sans-Serif" font-size="10.00">+ setParent()</text>
<text text-anchor="start" x="8" y="-310.5" font-family="Helvetica,sans-Serif" font-size="10.00">+ getChildren()</text>
<text text-anchor="start" x="8" y="-299.5" font-family="Helvetica,sans-Serif" font-size="10.00">+ findChild()</text>
<text text-anchor="start" x="8" y="-288.5" font-family="Helvetica,sans-Serif" font-size="10.00">+ getChild()</text>
<text text-anchor="start" x="8" y="-277.5" font-family="Helvetica,sans-Serif" font-size="10.00">+ ~Instance()</text>
<text text-anchor="start" x="8" y="-266.5" font-family="Helvetica,sans-Serif" font-size="10.00">+ fromJSON()</text>
</a>
</g>
</g>
<!-- Node2&#45;&gt;Node1 -->
<g id="edge1" class="edge">
<title>Node2&#45;&gt;Node1</title>
<path fill="none" stroke="#63b8ff" d="M93.96,-249.24C101.6,-233.35 109.62,-216.66 117.41,-200.46"/>
<polygon fill="none" stroke="#63b8ff" points="90.84,-247.66 89.66,-258.19 97.14,-250.69 90.84,-247.66"/>
</g>
<!-- Node3 -->
<g id="node3" class="node">
<title>Node3</title>
<g id="a_node3"><a xlink:href="class_renderable.html" target="_top" xlink:title=" ">
<polygon fill="white" stroke="#666666" points="122,-303.5 122,-371.5 208,-371.5 208,-303.5 122,-303.5"/>
<text text-anchor="middle" x="165" y="-359.5" font-family="Helvetica,sans-Serif" font-size="10.00">Renderable</text>
<polyline fill="none" stroke="#666666" points="122,-352.5 208,-352.5"/>
<text text-anchor="middle" x="165" y="-340.5" font-family="Helvetica,sans-Serif" font-size="10.00"> </text>
<polyline fill="none" stroke="#666666" points="122,-333.5 208,-333.5"/>
<text text-anchor="start" x="130" y="-321.5" font-family="Helvetica,sans-Serif" font-size="10.00">+ render()</text>
<text text-anchor="start" x="130" y="-310.5" font-family="Helvetica,sans-Serif" font-size="10.00">+ ~Renderable()</text>
</a>
</g>
</g>
<!-- Node3&#45;&gt;Node1 -->
<g id="edge2" class="edge">
<title>Node3&#45;&gt;Node1</title>
<path fill="none" stroke="#8b1a1a" d="M165,-292.49C165,-266.51 165,-232.52 165,-200.43"/>
<polygon fill="none" stroke="#8b1a1a" points="161.5,-292.31 165,-302.31 168.5,-292.31 161.5,-292.31"/>
</g>
<!-- Node4 -->
<g id="node4" class="node">
<title>Node4</title>
<g id="a_node4"><a xlink:href="struct_u_i_coord.html" target="_top" xlink:title=" ">
<polygon fill="white" stroke="#666666" points="226.5,-303.5 226.5,-371.5 277.5,-371.5 277.5,-303.5 226.5,-303.5"/>
<text text-anchor="middle" x="252" y="-359.5" font-family="Helvetica,sans-Serif" font-size="10.00">UICoord</text>
<polyline fill="none" stroke="#666666" points="226.5,-352.5 277.5,-352.5"/>
<text text-anchor="start" x="234.5" y="-340.5" font-family="Helvetica,sans-Serif" font-size="10.00">+ scale</text>
<text text-anchor="start" x="234.5" y="-329.5" font-family="Helvetica,sans-Serif" font-size="10.00">+ offset</text>
<polyline fill="none" stroke="#666666" points="226.5,-322.5 277.5,-322.5"/>
<text text-anchor="middle" x="252" y="-310.5" font-family="Helvetica,sans-Serif" font-size="10.00"> </text>
</a>
</g>
</g>
<!-- Node4&#45;&gt;Node1 -->
<g id="edge3" class="edge">
<title>Node4&#45;&gt;Node1</title>
<path fill="none" stroke="#404040" d="M239.9,-303.82C231.05,-279.9 218.47,-245.93 206.15,-212.64"/>
<polygon fill="none" stroke="#404040" points="206.1,-212.53 200.27,-208.29 201.94,-201.27 207.77,-205.51 206.1,-212.53"/>
<text text-anchor="middle" x="237.5" y="-233" font-family="Helvetica,sans-Serif" font-size="10.00"> +position</text>
<text text-anchor="middle" x="237.5" y="-222" font-family="Helvetica,sans-Serif" font-size="10.00">+size</text>
</g>
</g>
</svg>
