<?xml version="1.0" encoding="UTF-8" standalone="no"?>
<!DOCTYPE svg PUBLIC "-//W3C//DTD SVG 1.1//EN"
 "http://www.w3.org/Graphics/SVG/1.1/DTD/svg11.dtd">
<!-- Generated by graphviz version 7.1.0 (20230121.1956)
 -->
<!-- Title: UI Pages: 1 -->
<svg width="216pt" height="314pt"
 viewBox="0.00 0.00 216.00 314.00" xmlns="http://www.w3.org/2000/svg" xmlns:xlink="http://www.w3.org/1999/xlink">
<g id="graph0" class="graph" transform="scale(1 1) rotate(0) translate(4 310)">
<title>UI</title>
<!-- Node1 -->
<g id="node1" class="node">
<title>Node1</title>
<g id="a_node1"><a xlink:title=" ">
<polygon fill="#999999" stroke="#666666" points="33.5,-0.5 33.5,-112.5 164.5,-112.5 164.5,-0.5 33.5,-0.5"/>
<text text-anchor="middle" x="99" y="-100.5" font-family="Helvetica,sans-Serif" font-size="10.00">UI</text>
<polyline fill="none" stroke="#666666" points="33.5,-93.5 164.5,-93.5"/>
<text text-anchor="start" x="41.5" y="-81.5" font-family="Helvetica,sans-Serif" font-size="10.00">+ rendered</text>
<polyline fill="none" stroke="#666666" points="33.5,-74.5 164.5,-74.5"/>
<text text-anchor="start" x="41.5" y="-62.5" font-family="Helvetica,sans-Serif" font-size="10.00">+ UI()</text>
<text text-anchor="start" x="41.5" y="-51.5" font-family="Helvetica,sans-Serif" font-size="10.00">+ UI()</text>
<text text-anchor="start" x="41.5" y="-40.5" font-family="Helvetica,sans-Serif" font-size="10.00">+ render()</text>
<text text-anchor="start" x="41.5" y="-29.5" font-family="Helvetica,sans-Serif" font-size="10.00">+ init()</text>
<text text-anchor="start" x="41.5" y="-18.5" font-family="Helvetica,sans-Serif" font-size="10.00">+ destroy()</text>
<text text-anchor="start" x="41.5" y="-7.5" font-family="Helvetica,sans-Serif" font-size="10.00"># renderUIObjectChildren()</text>
</a>
</g>
</g>
<!-- Node2 -->
<g id="node2" class="node">
<title>Node2</title>
<g id="a_node2"><a xlink:href="class_renderable.html" target="_top" xlink:title=" ">
<polygon fill="white" stroke="#666666" points="0,-193.5 0,-261.5 86,-261.5 86,-193.5 0,-193.5"/>
<text text-anchor="middle" x="43" y="-249.5" font-family="Helvetica,sans-Serif" font-size="10.00">Renderable</text>
<polyline fill="none" stroke="#666666" points="0,-242.5 86,-242.5"/>
<text text-anchor="middle" x="43" y="-230.5" font-family="Helvetica,sans-Serif" font-size="10.00"> </text>
<polyline fill="none" stroke="#666666" points="0,-223.5 86,-223.5"/>
<text text-anchor="start" x="8" y="-211.5" font-family="Helvetica,sans-Serif" font-size="10.00">+ render()</text>
<text text-anchor="start" x="8" y="-200.5" font-family="Helvetica,sans-Serif" font-size="10.00">+ ~Renderable()</text>
</a>
</g>
</g>
<!-- Node2&#45;&gt;Node1 -->
<g id="edge1" class="edge">
<title>Node2&#45;&gt;Node1</title>
<path fill="none" stroke="#63b8ff" d="M57.5,-182.74C64.62,-161.26 73.27,-135.16 80.82,-112.35"/>
<polygon fill="none" stroke="#63b8ff" points="54.23,-181.48 54.41,-192.08 60.87,-183.69 54.23,-181.48"/>
</g>
<!-- Node3 -->
<g id="node3" class="node">
<title>Node3</title>
<g id="a_node3"><a xlink:href="class_instance.html" target="_top" xlink:title=" ">
<polygon fill="white" stroke="#666666" points="104,-149.5 104,-305.5 208,-305.5 208,-149.5 104,-149.5"/>
<text text-anchor="middle" x="156" y="-293.5" font-family="Helvetica,sans-Serif" font-size="10.00">Instance</text>
<polyline fill="none" stroke="#666666" points="104,-286.5 208,-286.5"/>
<text text-anchor="start" x="112" y="-274.5" font-family="Helvetica,sans-Serif" font-size="10.00">+ type</text>
<text text-anchor="start" x="112" y="-263.5" font-family="Helvetica,sans-Serif" font-size="10.00">+ name</text>
<polyline fill="none" stroke="#666666" points="104,-256.5 208,-256.5"/>
<text text-anchor="start" x="112" y="-244.5" font-family="Helvetica,sans-Serif" font-size="10.00">+ onChildAdded()</text>
<text text-anchor="start" x="112" y="-233.5" font-family="Helvetica,sans-Serif" font-size="10.00">+ onChildRemoved()</text>
<text text-anchor="start" x="112" y="-222.5" font-family="Helvetica,sans-Serif" font-size="10.00">+ Instance()</text>
<text text-anchor="start" x="112" y="-211.5" font-family="Helvetica,sans-Serif" font-size="10.00">+ setParent()</text>
<text text-anchor="start" x="112" y="-200.5" font-family="Helvetica,sans-Serif" font-size="10.00">+ getChildren()</text>
<text text-anchor="start" x="112" y="-189.5" font-family="Helvetica,sans-Serif" font-size="10.00">+ findChild()</text>
<text text-anchor="start" x="112" y="-178.5" font-family="Helvetica,sans-Serif" font-size="10.00">+ getChild()</text>
<text text-anchor="start" x="112" y="-167.5" font-family="Helvetica,sans-Serif" font-size="10.00">+ ~Instance()</text>
<text text-anchor="start" x="112" y="-156.5" font-family="Helvetica,sans-Serif" font-size="10.00">+ fromJSON()</text>
</a>
</g>
</g>
<!-- Node3&#45;&gt;Node1 -->
<g id="edge2" class="edge">
<title>Node3&#45;&gt;Node1</title>
<path fill="none" stroke="#63b8ff" d="M126.53,-139.12C123.43,-129.93 120.34,-120.78 117.42,-112.11"/>
<polygon fill="none" stroke="#63b8ff" points="123.17,-140.12 129.68,-148.48 129.81,-137.88 123.17,-140.12"/>
</g>
</g>
</svg>
