<?xml version="1.0" encoding="UTF-8" standalone="no"?>
<!DOCTYPE svg PUBLIC "-//W3C//DTD SVG 1.1//EN"
 "http://www.w3.org/Graphics/SVG/1.1/DTD/svg11.dtd">
<!-- Generated by graphviz version 7.1.0 (20230121.1956)
 -->
<!-- Title: UIFrame Pages: 1 -->
<svg width="286pt" height="530pt"
 viewBox="0.00 0.00 285.50 530.00" xmlns="http://www.w3.org/2000/svg" xmlns:xlink="http://www.w3.org/1999/xlink">
<g id="graph0" class="graph" transform="scale(1 1) rotate(0) translate(4 526)">
<title>UIFrame</title>
<!-- Node1 -->
<g id="node1" class="node">
<title>Node1</title>
<g id="a_node1"><a xlink:title=" ">
<polygon fill="#999999" stroke="#666666" points="131,-0.5 131,-68.5 199,-68.5 199,-0.5 131,-0.5"/>
<text text-anchor="middle" x="165" y="-56.5" font-family="Helvetica,sans-Serif" font-size="10.00">UIFrame</text>
<polyline fill="none" stroke="#666666" points="131,-49.5 199,-49.5"/>
<text text-anchor="middle" x="165" y="-37.5" font-family="Helvetica,sans-Serif" font-size="10.00"> </text>
<polyline fill="none" stroke="#666666" points="131,-30.5 199,-30.5"/>
<text text-anchor="start" x="139" y="-18.5" font-family="Helvetica,sans-Serif" font-size="10.00">+ UIFrame()</text>
<text text-anchor="start" x="139" y="-7.5" font-family="Helvetica,sans-Serif" font-size="10.00">+ UIFrame()</text>
</a>
</g>
</g>
<!-- Node2 -->
<g id="node2" class="node">
<title>Node2</title>
<g id="a_node2"><a xlink:href="class_u_i_object.html" target="_top" xlink:title=" ">
<polygon fill="white" stroke="#666666" points="98,-106.5 98,-306.5 232,-306.5 232,-106.5 98,-106.5"/>
<text text-anchor="middle" x="165" y="-294.5" font-family="Helvetica,sans-Serif" font-size="10.00">UIObject</text>
<polyline fill="none" stroke="#666666" points="98,-287.5 232,-287.5"/>
<text text-anchor="start" x="106" y="-275.5" font-family="Helvetica,sans-Serif" font-size="10.00">+ visible</text>
<text text-anchor="start" x="106" y="-264.5" font-family="Helvetica,sans-Serif" font-size="10.00">+ backgroundTransparency</text>
<text text-anchor="start" x="106" y="-253.5" font-family="Helvetica,sans-Serif" font-size="10.00">+ backgroundColor</text>
<text text-anchor="start" x="106" y="-242.5" font-family="Helvetica,sans-Serif" font-size="10.00">+ borderThickness</text>
<text text-anchor="start" x="106" y="-231.5" font-family="Helvetica,sans-Serif" font-size="10.00">+ borderTransparency</text>
<text text-anchor="start" x="106" y="-220.5" font-family="Helvetica,sans-Serif" font-size="10.00">+ borderColor</text>
<text text-anchor="start" x="106" y="-209.5" font-family="Helvetica,sans-Serif" font-size="10.00">+ anchorPoint</text>
<polyline fill="none" stroke="#666666" points="98,-202.5 232,-202.5"/>
<text text-anchor="start" x="106" y="-190.5" font-family="Helvetica,sans-Serif" font-size="10.00">+ render()</text>
<text text-anchor="start" x="106" y="-179.5" font-family="Helvetica,sans-Serif" font-size="10.00">+ getAbsolutePosition()</text>
<text text-anchor="start" x="106" y="-168.5" font-family="Helvetica,sans-Serif" font-size="10.00">+ getAbosluteSize()</text>
<text text-anchor="start" x="106" y="-157.5" font-family="Helvetica,sans-Serif" font-size="10.00">+ init()</text>
<text text-anchor="start" x="106" y="-146.5" font-family="Helvetica,sans-Serif" font-size="10.00">+ destroy()</text>
<text text-anchor="start" x="106" y="-135.5" font-family="Helvetica,sans-Serif" font-size="10.00"># UIObject()</text>
<text text-anchor="start" x="106" y="-124.5" font-family="Helvetica,sans-Serif" font-size="10.00"># UIObject()</text>
<text text-anchor="start" x="106" y="-113.5" font-family="Helvetica,sans-Serif" font-size="10.00"># render()</text>
</a>
</g>
</g>
<!-- Node2&#45;&gt;Node1 -->
<g id="edge1" class="edge">
<title>Node2&#45;&gt;Node1</title>
<path fill="none" stroke="#63b8ff" d="M165,-95.17C165,-85.59 165,-76.48 165,-68.39"/>
<polygon fill="none" stroke="#63b8ff" points="161.5,-95.1 165,-105.1 168.5,-95.1 161.5,-95.1"/>
</g>
<!-- Node3 -->
<g id="node3" class="node">
<title>Node3</title>
<g id="a_node3"><a xlink:href="class_instance.html" target="_top" xlink:title=" ">
<polygon fill="white" stroke="#666666" points="0,-365.5 0,-521.5 104,-521.5 104,-365.5 0,-365.5"/>
<text text-anchor="middle" x="52" y="-509.5" font-family="Helvetica,sans-Serif" font-size="10.00">Instance</text>
<polyline fill="none" stroke="#666666" points="0,-502.5 104,-502.5"/>
<text text-anchor="start" x="8" y="-490.5" font-family="Helvetica,sans-Serif" font-size="10.00">+ type</text>
<text text-anchor="start" x="8" y="-479.5" font-family="Helvetica,sans-Serif" font-size="10.00">+ name</text>
<polyline fill="none" stroke="#666666" points="0,-472.5 104,-472.5"/>
<text text-anchor="start" x="8" y="-460.5" font-family="Helvetica,sans-Serif" font-size="10.00">+ onChildAdded()</text>
<text text-anchor="start" x="8" y="-449.5" font-family="Helvetica,sans-Serif" font-size="10.00">+ onChildRemoved()</text>
<text text-anchor="start" x="8" y="-438.5" font-family="Helvetica,sans-Serif" font-size="10.00">+ Instance()</text>
<text text-anchor="start" x="8" y="-427.5" font-family="Helvetica,sans-Serif" font-size="10.00">+ setParent()</text>
<text text-anchor="start" x="8" y="-416.5" font-family="Helvetica,sans-Serif" font-size="10.00">+ getChildren()</text>
<text text-anchor="start" x="8" y="-405.5" font-family="Helvetica,sans-Serif" font-size="10.00">+ findChild()</text>
<text text-anchor="start" x="8" y="-394.5" font-family="Helvetica,sans-Serif" font-size="10.00">+ getChild()</text>
<text text-anchor="start" x="8" y="-383.5" font-family="Helvetica,sans-Serif" font-size="10.00">+ ~Instance()</text>
<text text-anchor="start" x="8" y="-372.5" font-family="Helvetica,sans-Serif" font-size="10.00">+ fromJSON()</text>
</a>
</g>
</g>
<!-- Node3&#45;&gt;Node2 -->
<g id="edge2" class="edge">
<title>Node3&#45;&gt;Node2</title>
<path fill="none" stroke="#63b8ff" d="M93.96,-355.24C101.6,-339.35 109.62,-322.66 117.41,-306.46"/>
<polygon fill="none" stroke="#63b8ff" points="90.84,-353.66 89.66,-364.19 97.14,-356.69 90.84,-353.66"/>
</g>
<!-- Node4 -->
<g id="node4" class="node">
<title>Node4</title>
<g id="a_node4"><a xlink:href="class_renderable.html" target="_top" xlink:title=" ">
<polygon fill="white" stroke="#666666" points="122,-409.5 122,-477.5 208,-477.5 208,-409.5 122,-409.5"/>
<text text-anchor="middle" x="165" y="-465.5" font-family="Helvetica,sans-Serif" font-size="10.00">Renderable</text>
<polyline fill="none" stroke="#666666" points="122,-458.5 208,-458.5"/>
<text text-anchor="middle" x="165" y="-446.5" font-family="Helvetica,sans-Serif" font-size="10.00"> </text>
<polyline fill="none" stroke="#666666" points="122,-439.5 208,-439.5"/>
<text text-anchor="start" x="130" y="-427.5" font-family="Helvetica,sans-Serif" font-size="10.00">+ render()</text>
<text text-anchor="start" x="130" y="-416.5" font-family="Helvetica,sans-Serif" font-size="10.00">+ ~Renderable()</text>
</a>
</g>
</g>
<!-- Node4&#45;&gt;Node2 -->
<g id="edge3" class="edge">
<title>Node4&#45;&gt;Node2</title>
<path fill="none" stroke="#8b1a1a" d="M165,-398.49C165,-372.51 165,-338.52 165,-306.43"/>
<polygon fill="none" stroke="#8b1a1a" points="161.5,-398.31 165,-408.31 168.5,-398.31 161.5,-398.31"/>
</g>
<!-- Node5 -->
<g id="node5" class="node">
<title>Node5</title>
<g id="a_node5"><a xlink:href="struct_u_i_coord.html" target="_top" xlink:title=" ">
<polygon fill="white" stroke="#666666" points="226.5,-409.5 226.5,-477.5 277.5,-477.5 277.5,-409.5 226.5,-409.5"/>
<text text-anchor="middle" x="252" y="-465.5" font-family="Helvetica,sans-Serif" font-size="10.00">UICoord</text>
<polyline fill="none" stroke="#666666" points="226.5,-458.5 277.5,-458.5"/>
<text text-anchor="start" x="234.5" y="-446.5" font-family="Helvetica,sans-Serif" font-size="10.00">+ scale</text>
<text text-anchor="start" x="234.5" y="-435.5" font-family="Helvetica,sans-Serif" font-size="10.00">+ offset</text>
<polyline fill="none" stroke="#666666" points="226.5,-428.5 277.5,-428.5"/>
<text text-anchor="middle" x="252" y="-416.5" font-family="Helvetica,sans-Serif" font-size="10.00"> </text>
</a>
</g>
</g>
<!-- Node5&#45;&gt;Node2 -->
<g id="edge4" class="edge">
<title>Node5&#45;&gt;Node2</title>
<path fill="none" stroke="#404040" d="M239.9,-409.82C231.05,-385.9 218.47,-351.93 206.15,-318.64"/>
<polygon fill="none" stroke="#404040" points="206.1,-318.53 200.27,-314.29 201.94,-307.27 207.77,-311.51 206.1,-318.53"/>
<text text-anchor="middle" x="237.5" y="-339" font-family="Helvetica,sans-Serif" font-size="10.00"> +position</text>
<text text-anchor="middle" x="237.5" y="-328" font-family="Helvetica,sans-Serif" font-size="10.00">+size</text>
</g>
</g>
</svg>
