<?xml version="1.0" encoding="UTF-8" standalone="no"?>
<!DOCTYPE svg PUBLIC "-//W3C//DTD SVG 1.1//EN"
 "http://www.w3.org/Graphics/SVG/1.1/DTD/svg11.dtd">
<!-- Generated by graphviz version 7.1.0 (20230121.1956)
 -->
<!-- Title: Instance Pages: 1 -->
<svg width="326pt" height="606pt"
 viewBox="0.00 0.00 326.00 606.00" xmlns="http://www.w3.org/2000/svg" xmlns:xlink="http://www.w3.org/1999/xlink">
<g id="graph0" class="graph" transform="scale(1 1) rotate(0) translate(4 602)">
<title>Instance</title>
<!-- Node1 -->
<g id="node1" class="node">
<title>Node1</title>
<g id="a_node1"><a xlink:title=" ">
<polygon fill="#999999" stroke="#666666" points="88.5,-441.5 88.5,-597.5 192.5,-597.5 192.5,-441.5 88.5,-441.5"/>
<text text-anchor="middle" x="140.5" y="-585.5" font-family="Helvetica,sans-Serif" font-size="10.00">Instance</text>
<polyline fill="none" stroke="#666666" points="88.5,-578.5 192.5,-578.5"/>
<text text-anchor="start" x="96.5" y="-566.5" font-family="Helvetica,sans-Serif" font-size="10.00">+ type</text>
<text text-anchor="start" x="96.5" y="-555.5" font-family="Helvetica,sans-Serif" font-size="10.00">+ name</text>
<polyline fill="none" stroke="#666666" points="88.5,-548.5 192.5,-548.5"/>
<text text-anchor="start" x="96.5" y="-536.5" font-family="Helvetica,sans-Serif" font-size="10.00">+ onChildAdded()</text>
<text text-anchor="start" x="96.5" y="-525.5" font-family="Helvetica,sans-Serif" font-size="10.00">+ onChildRemoved()</text>
<text text-anchor="start" x="96.5" y="-514.5" font-family="Helvetica,sans-Serif" font-size="10.00">+ Instance()</text>
<text text-anchor="start" x="96.5" y="-503.5" font-family="Helvetica,sans-Serif" font-size="10.00">+ setParent()</text>
<text text-anchor="start" x="96.5" y="-492.5" font-family="Helvetica,sans-Serif" font-size="10.00">+ getChildren()</text>
<text text-anchor="start" x="96.5" y="-481.5" font-family="Helvetica,sans-Serif" font-size="10.00">+ findChild()</text>
<text text-anchor="start" x="96.5" y="-470.5" font-family="Helvetica,sans-Serif" font-size="10.00">+ getChild()</text>
<text text-anchor="start" x="96.5" y="-459.5" font-family="Helvetica,sans-Serif" font-size="10.00">+ ~Instance()</text>
<text text-anchor="start" x="96.5" y="-448.5" font-family="Helvetica,sans-Serif" font-size="10.00">+ fromJSON()</text>
</a>
</g>
</g>
<!-- Node2 -->
<g id="node2" class="node">
<title>Node2</title>
<g id="a_node2"><a xlink:href="class_u_i.html" target="_top" xlink:title=" ">
<polygon fill="white" stroke="#666666" points="0,-237.5 0,-349.5 131,-349.5 131,-237.5 0,-237.5"/>
<text text-anchor="middle" x="65.5" y="-337.5" font-family="Helvetica,sans-Serif" font-size="10.00">UI</text>
<polyline fill="none" stroke="#666666" points="0,-330.5 131,-330.5"/>
<text text-anchor="start" x="8" y="-318.5" font-family="Helvetica,sans-Serif" font-size="10.00">+ rendered</text>
<polyline fill="none" stroke="#666666" points="0,-311.5 131,-311.5"/>
<text text-anchor="start" x="8" y="-299.5" font-family="Helvetica,sans-Serif" font-size="10.00">+ UI()</text>
<text text-anchor="start" x="8" y="-288.5" font-family="Helvetica,sans-Serif" font-size="10.00">+ UI()</text>
<text text-anchor="start" x="8" y="-277.5" font-family="Helvetica,sans-Serif" font-size="10.00">+ render()</text>
<text text-anchor="start" x="8" y="-266.5" font-family="Helvetica,sans-Serif" font-size="10.00">+ init()</text>
<text text-anchor="start" x="8" y="-255.5" font-family="Helvetica,sans-Serif" font-size="10.00">+ destroy()</text>
<text text-anchor="start" x="8" y="-244.5" font-family="Helvetica,sans-Serif" font-size="10.00"># renderUIObjectChildren()</text>
</a>
</g>
</g>
<!-- Node1&#45;&gt;Node2 -->
<g id="edge1" class="edge">
<title>Node1&#45;&gt;Node2</title>
<path fill="none" stroke="#63b8ff" d="M111.17,-430.9C101.96,-403.39 92.06,-373.82 83.84,-349.27"/>
<polygon fill="none" stroke="#63b8ff" points="107.82,-431.92 114.31,-440.29 114.46,-429.7 107.82,-431.92"/>
</g>
<!-- Node3 -->
<g id="node3" class="node">
<title>Node3</title>
<g id="a_node3"><a xlink:href="class_u_i_object.html" target="_top" xlink:title=" ">
<polygon fill="white" stroke="#666666" points="149.5,-182.5 149.5,-404.5 283.5,-404.5 283.5,-182.5 149.5,-182.5"/>
<text text-anchor="middle" x="216.5" y="-392.5" font-family="Helvetica,sans-Serif" font-size="10.00">UIObject</text>
<polyline fill="none" stroke="#666666" points="149.5,-385.5 283.5,-385.5"/>
<text text-anchor="start" x="157.5" y="-373.5" font-family="Helvetica,sans-Serif" font-size="10.00">+ visible</text>
<text text-anchor="start" x="157.5" y="-362.5" font-family="Helvetica,sans-Serif" font-size="10.00">+ backgroundTransparency</text>
<text text-anchor="start" x="157.5" y="-351.5" font-family="Helvetica,sans-Serif" font-size="10.00">+ backgroundColor</text>
<text text-anchor="start" x="157.5" y="-340.5" font-family="Helvetica,sans-Serif" font-size="10.00">+ borderThickness</text>
<text text-anchor="start" x="157.5" y="-329.5" font-family="Helvetica,sans-Serif" font-size="10.00">+ borderTransparency</text>
<text text-anchor="start" x="157.5" y="-318.5" font-family="Helvetica,sans-Serif" font-size="10.00">+ borderColor</text>
<text text-anchor="start" x="157.5" y="-307.5" font-family="Helvetica,sans-Serif" font-size="10.00">+ anchorPoint</text>
<text text-anchor="start" x="157.5" y="-296.5" font-family="Helvetica,sans-Serif" font-size="10.00">+ position</text>
<text text-anchor="start" x="157.5" y="-285.5" font-family="Helvetica,sans-Serif" font-size="10.00">+ size</text>
<polyline fill="none" stroke="#666666" points="149.5,-278.5 283.5,-278.5"/>
<text text-anchor="start" x="157.5" y="-266.5" font-family="Helvetica,sans-Serif" font-size="10.00">+ render()</text>
<text text-anchor="start" x="157.5" y="-255.5" font-family="Helvetica,sans-Serif" font-size="10.00">+ getAbsolutePosition()</text>
<text text-anchor="start" x="157.5" y="-244.5" font-family="Helvetica,sans-Serif" font-size="10.00">+ getAbosluteSize()</text>
<text text-anchor="start" x="157.5" y="-233.5" font-family="Helvetica,sans-Serif" font-size="10.00">+ init()</text>
<text text-anchor="start" x="157.5" y="-222.5" font-family="Helvetica,sans-Serif" font-size="10.00">+ destroy()</text>
<text text-anchor="start" x="157.5" y="-211.5" font-family="Helvetica,sans-Serif" font-size="10.00"># UIObject()</text>
<text text-anchor="start" x="157.5" y="-200.5" font-family="Helvetica,sans-Serif" font-size="10.00"># UIObject()</text>
<text text-anchor="start" x="157.5" y="-189.5" font-family="Helvetica,sans-Serif" font-size="10.00"># render()</text>
</a>
</g>
</g>
<!-- Node1&#45;&gt;Node3 -->
<g id="edge2" class="edge">
<title>Node1&#45;&gt;Node3</title>
<path fill="none" stroke="#63b8ff" d="M170.23,-430.87C173.18,-422.19 176.19,-413.32 179.19,-404.46"/>
<polygon fill="none" stroke="#63b8ff" points="166.93,-429.7 167.03,-440.29 173.56,-431.95 166.93,-429.7"/>
</g>
<!-- Node4 -->
<g id="node4" class="node">
<title>Node4</title>
<g id="a_node4"><a xlink:href="class_u_i_frame.html" target="_top" xlink:title=" ">
<polygon fill="white" stroke="#666666" points="130.5,-39 130.5,-107 198.5,-107 198.5,-39 130.5,-39"/>
<text text-anchor="middle" x="164.5" y="-95" font-family="Helvetica,sans-Serif" font-size="10.00">UIFrame</text>
<polyline fill="none" stroke="#666666" points="130.5,-88 198.5,-88"/>
<text text-anchor="middle" x="164.5" y="-76" font-family="Helvetica,sans-Serif" font-size="10.00"> </text>
<polyline fill="none" stroke="#666666" points="130.5,-69 198.5,-69"/>
<text text-anchor="start" x="138.5" y="-57" font-family="Helvetica,sans-Serif" font-size="10.00">+ UIFrame()</text>
<text text-anchor="start" x="138.5" y="-46" font-family="Helvetica,sans-Serif" font-size="10.00">+ UIFrame()</text>
</a>
</g>
</g>
<!-- Node3&#45;&gt;Node4 -->
<g id="edge3" class="edge">
<title>Node3&#45;&gt;Node4</title>
<path fill="none" stroke="#63b8ff" d="M187.73,-171.62C182.06,-147.78 176.56,-124.69 172.34,-106.95"/>
<polygon fill="none" stroke="#63b8ff" points="184.28,-172.22 190,-181.14 191.09,-170.6 184.28,-172.22"/>
</g>
<!-- Node5 -->
<g id="node5" class="node">
<title>Node5</title>
<g id="a_node5"><a xlink:href="class_u_i_text.html" target="_top" xlink:title=" ">
<polygon fill="white" stroke="#666666" points="217,-0.5 217,-145.5 318,-145.5 318,-0.5 217,-0.5"/>
<text text-anchor="middle" x="267.5" y="-133.5" font-family="Helvetica,sans-Serif" font-size="10.00">UIText</text>
<polyline fill="none" stroke="#666666" points="217,-126.5 318,-126.5"/>
<text text-anchor="start" x="225" y="-114.5" font-family="Helvetica,sans-Serif" font-size="10.00">+ text</text>
<text text-anchor="start" x="225" y="-103.5" font-family="Helvetica,sans-Serif" font-size="10.00">+ textColor</text>
<text text-anchor="start" x="225" y="-92.5" font-family="Helvetica,sans-Serif" font-size="10.00">+ textTransparency</text>
<text text-anchor="start" x="225" y="-81.5" font-family="Helvetica,sans-Serif" font-size="10.00">+ font</text>
<text text-anchor="start" x="225" y="-70.5" font-family="Helvetica,sans-Serif" font-size="10.00">+ textSize</text>
<text text-anchor="start" x="225" y="-59.5" font-family="Helvetica,sans-Serif" font-size="10.00">+ textAnchorPoint</text>
<text text-anchor="start" x="225" y="-48.5" font-family="Helvetica,sans-Serif" font-size="10.00">+ textPadding</text>
<polyline fill="none" stroke="#666666" points="217,-41.5 318,-41.5"/>
<text text-anchor="start" x="225" y="-29.5" font-family="Helvetica,sans-Serif" font-size="10.00">+ UIText()</text>
<text text-anchor="start" x="225" y="-18.5" font-family="Helvetica,sans-Serif" font-size="10.00">+ UIText()</text>
<text text-anchor="start" x="225" y="-7.5" font-family="Helvetica,sans-Serif" font-size="10.00">+ render()</text>
</a>
</g>
</g>
<!-- Node3&#45;&gt;Node5 -->
<g id="edge4" class="edge">
<title>Node3&#45;&gt;Node5</title>
<path fill="none" stroke="#63b8ff" d="M244.7,-171.66C246.79,-162.72 248.86,-153.88 250.84,-145.38"/>
<polygon fill="none" stroke="#63b8ff" points="241.36,-170.6 242.49,-181.14 248.17,-172.19 241.36,-170.6"/>
</g>
</g>
</svg>
