<?xml version="1.0" encoding="UTF-8" standalone="no"?>
<!DOCTYPE svg PUBLIC "-//W3C//DTD SVG 1.1//EN"
 "http://www.w3.org/Graphics/SVG/1.1/DTD/svg11.dtd">
<!-- Generated by graphviz version 7.1.0 (20230121.1956)
 -->
<!-- Title: src/core.cpp Pages: 1 -->
<svg width="1593pt" height="357pt"
 viewBox="0.00 0.00 1593.00 357.00" xmlns="http://www.w3.org/2000/svg" xmlns:xlink="http://www.w3.org/1999/xlink">
<g id="graph0" class="graph" transform="scale(1 1) rotate(0) translate(4 353)">
<title>src/core.cpp</title>
<!-- Node1 -->
<g id="node1" class="node">
<title>Node1</title>
<g id="a_node1"><a xlink:title=" ">
<polygon fill="#999999" stroke="#666666" points="1065.5,-349 994.5,-349 994.5,-330 1065.5,-330 1065.5,-349"/>
<text text-anchor="middle" x="1030" y="-337" font-family="Helvetica,sans-Serif" font-size="10.00">src/core.cpp</text>
</a>
</g>
</g>
<!-- Node2 -->
<g id="node2" class="node">
<title>Node2</title>
<g id="a_node2"><a xlink:title=" ">
<polygon fill="#e0e0e0" stroke="#999999" points="452,-19 400,-19 400,0 452,0 452,-19"/>
<text text-anchor="middle" x="426" y="-7" font-family="Helvetica,sans-Serif" font-size="10.00">memory</text>
</a>
</g>
</g>
<!-- Node1&#45;&gt;Node2 -->
<g id="edge1" class="edge">
<title>Node1&#45;&gt;Node2</title>
<path fill="none" stroke="#63b8ff" d="M994.14,-338.13C838.31,-336.34 224.18,-327.2 145,-294 106.57,-277.88 76,-272.18 76,-230.5 76,-230.5 76,-230.5 76,-118.5 76,-59.73 136.68,-74.84 192,-55 227.61,-42.23 331.87,-24.98 388.44,-16.18"/>
<polygon fill="#63b8ff" stroke="#63b8ff" points="388.9,-19.65 398.25,-14.66 387.84,-12.73 388.9,-19.65"/>
</g>
<!-- Node3 -->
<g id="node3" class="node">
<title>Node3</title>
<g id="a_node3"><a xlink:title=" ">
<polygon fill="#e0e0e0" stroke="#999999" points="1359.5,-74 1318.5,-74 1318.5,-55 1359.5,-55 1359.5,-74"/>
<text text-anchor="middle" x="1339" y="-62" font-family="Helvetica,sans-Serif" font-size="10.00">string</text>
</a>
</g>
</g>
<!-- Node1&#45;&gt;Node3 -->
<g id="edge2" class="edge">
<title>Node1&#45;&gt;Node3</title>
<path fill="none" stroke="#63b8ff" d="M1065.93,-335.46C1157.24,-326.75 1391,-297.88 1391,-230.5 1391,-230.5 1391,-230.5 1391,-173.5 1391,-138.96 1369.15,-103.82 1353.77,-83.37"/>
<polygon fill="#63b8ff" stroke="#63b8ff" points="1356.54,-81.22 1347.61,-75.52 1351.04,-85.55 1356.54,-81.22"/>
</g>
<!-- Node4 -->
<g id="node4" class="node">
<title>Node4</title>
<g id="a_node4"><a xlink:title=" ">
<polygon fill="#e0e0e0" stroke="#999999" points="1585,-294 1531,-294 1531,-275 1585,-275 1585,-294"/>
<text text-anchor="middle" x="1558" y="-282" font-family="Helvetica,sans-Serif" font-size="10.00">iostream</text>
</a>
</g>
</g>
<!-- Node1&#45;&gt;Node4 -->
<g id="edge3" class="edge">
<title>Node1&#45;&gt;Node4</title>
<path fill="none" stroke="#63b8ff" d="M1065.91,-336.62C1146.79,-332.07 1349.26,-318.97 1517,-294 1517.84,-293.88 1518.68,-293.74 1519.53,-293.61"/>
<polygon fill="#63b8ff" stroke="#63b8ff" points="1520.01,-297.08 1529.24,-291.87 1518.78,-290.19 1520.01,-297.08"/>
</g>
<!-- Node5 -->
<g id="node5" class="node">
<title>Node5</title>
<g id="a_node5"><a xlink:title=" ">
<polygon fill="#e0e0e0" stroke="#999999" points="342,-19 282,-19 282,0 342,0 342,-19"/>
<text text-anchor="middle" x="312" y="-7" font-family="Helvetica,sans-Serif" font-size="10.00">GL/glew.h</text>
</a>
</g>
</g>
<!-- Node1&#45;&gt;Node5 -->
<g id="edge4" class="edge">
<title>Node1&#45;&gt;Node5</title>
<path fill="none" stroke="#63b8ff" d="M994.04,-337.88C833.38,-334.96 185.32,-321.56 99,-294 49.2,-278.1 0,-282.77 0,-230.5 0,-230.5 0,-230.5 0,-118.5 0,-80.87 23.16,-73.37 56,-55 92.06,-34.83 207.6,-20.74 270.41,-14.36"/>
<polygon fill="#63b8ff" stroke="#63b8ff" points="270.75,-17.84 280.35,-13.37 270.06,-10.87 270.75,-17.84"/>
</g>
<!-- Node6 -->
<g id="node6" class="node">
<title>Node6</title>
<g id="a_node6"><a xlink:title=" ">
<polygon fill="#e0e0e0" stroke="#999999" points="1573,-129 1495,-129 1495,-110 1573,-110 1573,-129"/>
<text text-anchor="middle" x="1534" y="-117" font-family="Helvetica,sans-Serif" font-size="10.00">GLFW/glfw3.h</text>
</a>
</g>
</g>
<!-- Node1&#45;&gt;Node6 -->
<g id="edge5" class="edge">
<title>Node1&#45;&gt;Node6</title>
<path fill="none" stroke="#63b8ff" d="M1065.72,-338.42C1151.69,-337.61 1367.39,-331.78 1427,-294 1484.74,-257.41 1516.26,-177.25 1528.26,-140.11"/>
<polygon fill="#63b8ff" stroke="#63b8ff" points="1531.55,-141.32 1531.15,-130.74 1524.86,-139.27 1531.55,-141.32"/>
</g>
<!-- Node7 -->
<g id="node7" class="node">
<title>Node7</title>
<g id="a_node7"><a xlink:title=" ">
<polygon fill="#e0e0e0" stroke="#999999" points="969,-129 901,-129 901,-110 969,-110 969,-129"/>
<text text-anchor="middle" x="935" y="-117" font-family="Helvetica,sans-Serif" font-size="10.00">glm/ext.hpp</text>
</a>
</g>
</g>
<!-- Node1&#45;&gt;Node7 -->
<g id="edge6" class="edge">
<title>Node1&#45;&gt;Node7</title>
<path fill="none" stroke="#63b8ff" d="M1032.44,-329.74C1037.59,-309.91 1048.33,-260.19 1039,-220 1032.84,-193.47 1030.59,-184.9 1012,-165 999.87,-152.02 983.09,-141.72 968.28,-134.31"/>
<polygon fill="#63b8ff" stroke="#63b8ff" points="969.86,-131.18 959.32,-130.07 966.87,-137.51 969.86,-131.18"/>
</g>
<!-- Node8 -->
<g id="node8" class="node">
<title>Node8</title>
<g id="a_node8"><a xlink:href="window_8h.html" target="_top" xlink:title=" ">
<polygon fill="white" stroke="#666666" points="1475,-184 1419,-184 1419,-165 1475,-165 1475,-184"/>
<text text-anchor="middle" x="1447" y="-172" font-family="Helvetica,sans-Serif" font-size="10.00">window.h</text>
</a>
</g>
</g>
<!-- Node1&#45;&gt;Node8 -->
<g id="edge7" class="edge">
<title>Node1&#45;&gt;Node8</title>
<path fill="none" stroke="#63b8ff" d="M1065.8,-338.91C1149.19,-339.15 1353.2,-335.39 1405,-294 1435.04,-270 1443.63,-222.91 1446.06,-195.88"/>
<polygon fill="#63b8ff" stroke="#63b8ff" points="1449.55,-196.13 1446.72,-185.92 1442.56,-195.66 1449.55,-196.13"/>
</g>
<!-- Node10 -->
<g id="node10" class="node">
<title>Node10</title>
<g id="a_node10"><a xlink:href="simulation_8h.html" target="_top" xlink:title=" ">
<polygon fill="white" stroke="#666666" points="723.5,-294 654.5,-294 654.5,-275 723.5,-275 723.5,-294"/>
<text text-anchor="middle" x="689" y="-282" font-family="Helvetica,sans-Serif" font-size="10.00">simulation.h</text>
</a>
</g>
</g>
<!-- Node1&#45;&gt;Node10 -->
<g id="edge12" class="edge">
<title>Node1&#45;&gt;Node10</title>
<path fill="none" stroke="#63b8ff" d="M994.15,-332.93C931.92,-323.26 803.97,-303.37 735.18,-292.68"/>
<polygon fill="#63b8ff" stroke="#63b8ff" points="735.77,-289.23 725.36,-291.15 734.7,-296.14 735.77,-289.23"/>
</g>
<!-- Node12 -->
<g id="node12" class="node">
<title>Node12</title>
<g id="a_node12"><a xlink:href="fluidsimulator_8h.html" target="_top" xlink:title=" ">
<polygon fill="white" stroke="#666666" points="448,-239 366,-239 366,-220 448,-220 448,-239"/>
<text text-anchor="middle" x="407" y="-227" font-family="Helvetica,sans-Serif" font-size="10.00">fluidsimulator.h</text>
</a>
</g>
</g>
<!-- Node1&#45;&gt;Node12 -->
<g id="edge71" class="edge">
<title>Node1&#45;&gt;Node12</title>
<path fill="none" stroke="#63b8ff" d="M994.17,-336.11C925.82,-331.16 772.24,-318.2 645,-294 573.97,-280.49 492.96,-257.13 446.13,-242.82"/>
<polygon fill="#63b8ff" stroke="#63b8ff" points="447.3,-239.52 436.71,-239.92 445.24,-246.21 447.3,-239.52"/>
</g>
<!-- Node13 -->
<g id="node13" class="node">
<title>Node13</title>
<g id="a_node13"><a xlink:href="rendertarget_8h.html" target="_top" xlink:title=" ">
<polygon fill="white" stroke="#666666" points="359.5,-129 282.5,-129 282.5,-110 359.5,-110 359.5,-129"/>
<text text-anchor="middle" x="321" y="-117" font-family="Helvetica,sans-Serif" font-size="10.00">rendertarget.h</text>
</a>
</g>
</g>
<!-- Node1&#45;&gt;Node13 -->
<g id="edge70" class="edge">
<title>Node1&#45;&gt;Node13</title>
<path fill="none" stroke="#63b8ff" d="M994.2,-337.14C915.49,-333.7 721.64,-322.8 562,-294 425.93,-269.46 337.4,-305.28 271,-184 261.16,-166.03 278.8,-147.91 295.78,-135.65"/>
<polygon fill="#63b8ff" stroke="#63b8ff" points="297.36,-138.81 303.71,-130.33 293.46,-133 297.36,-138.81"/>
</g>
<!-- Node19 -->
<g id="node19" class="node">
<title>Node19</title>
<g id="a_node19"><a xlink:href="ui_8h.html" target="_top" xlink:title=" ">
<polygon fill="white" stroke="#666666" points="840,-184 808,-184 808,-165 840,-165 840,-184"/>
<text text-anchor="middle" x="824" y="-172" font-family="Helvetica,sans-Serif" font-size="10.00">ui.h</text>
</a>
</g>
</g>
<!-- Node1&#45;&gt;Node19 -->
<g id="edge72" class="edge">
<title>Node1&#45;&gt;Node19</title>
<path fill="none" stroke="#63b8ff" d="M1015.79,-329.56C1002.2,-320.86 981.3,-307.09 964,-294 918.54,-259.6 868.2,-215.37 842.04,-191.87"/>
<polygon fill="#63b8ff" stroke="#63b8ff" points="844.44,-189.32 834.67,-185.22 839.75,-194.52 844.44,-189.32"/>
</g>
<!-- Node23 -->
<g id="node23" class="node">
<title>Node23</title>
<g id="a_node23"><a xlink:href="core_8h.html" target="_top" xlink:title=" ">
<polygon fill="white" stroke="#666666" points="1304,-184 1260,-184 1260,-165 1304,-165 1304,-184"/>
<text text-anchor="middle" x="1282" y="-172" font-family="Helvetica,sans-Serif" font-size="10.00">core.h</text>
</a>
</g>
</g>
<!-- Node1&#45;&gt;Node23 -->
<g id="edge50" class="edge">
<title>Node1&#45;&gt;Node23</title>
<path fill="none" stroke="#63b8ff" d="M1065.81,-331.72C1094.47,-325.17 1134.88,-313.34 1166,-294 1210.03,-266.63 1249.52,-219.12 1269.07,-193.36"/>
<polygon fill="#63b8ff" stroke="#63b8ff" points="1271.71,-195.67 1274.86,-185.56 1266.09,-191.5 1271.71,-195.67"/>
</g>
<!-- Node24 -->
<g id="node24" class="node">
<title>Node24</title>
<g id="a_node24"><a xlink:href="quad_8h.html" target="_top" xlink:title=" ">
<polygon fill="white" stroke="#666666" points="150,-184 104,-184 104,-165 150,-165 150,-184"/>
<text text-anchor="middle" x="127" y="-172" font-family="Helvetica,sans-Serif" font-size="10.00">quad.h</text>
</a>
</g>
</g>
<!-- Node1&#45;&gt;Node24 -->
<g id="edge55" class="edge">
<title>Node1&#45;&gt;Node24</title>
<path fill="none" stroke="#63b8ff" d="M994.08,-337.79C834.65,-334.51 197.29,-319.82 164,-294 133.72,-270.51 127.65,-222.47 126.77,-195.33"/>
<polygon fill="#63b8ff" stroke="#63b8ff" points="130.28,-195.66 126.68,-185.69 123.28,-195.73 130.28,-195.66"/>
</g>
<!-- Node25 -->
<g id="node25" class="node">
<title>Node25</title>
<g id="a_node25"><a xlink:href="text_8h.html" target="_top" xlink:title=" ">
<polygon fill="white" stroke="#666666" points="1203.5,-239 1162.5,-239 1162.5,-220 1203.5,-220 1203.5,-239"/>
<text text-anchor="middle" x="1183" y="-227" font-family="Helvetica,sans-Serif" font-size="10.00">text.h</text>
</a>
</g>
</g>
<!-- Node1&#45;&gt;Node25 -->
<g id="edge59" class="edge">
<title>Node1&#45;&gt;Node25</title>
<path fill="none" stroke="#63b8ff" d="M1065.85,-331.13C1090.3,-324.65 1122.25,-313.18 1145,-294 1159.12,-282.1 1169.37,-263.54 1175.63,-249.55"/>
<polygon fill="#63b8ff" stroke="#63b8ff" points="1178.78,-251.1 1179.38,-240.53 1172.32,-248.42 1178.78,-251.1"/>
</g>
<!-- Node29 -->
<g id="node29" class="node">
<title>Node29</title>
<g id="a_node29"><a xlink:href="uiframe_8h.html" target="_top" xlink:title=" ">
<polygon fill="white" stroke="#666666" points="1029,-294 973,-294 973,-275 1029,-275 1029,-294"/>
<text text-anchor="middle" x="1001" y="-282" font-family="Helvetica,sans-Serif" font-size="10.00">uiframe.h</text>
</a>
</g>
</g>
<!-- Node1&#45;&gt;Node29 -->
<g id="edge73" class="edge">
<title>Node1&#45;&gt;Node29</title>
<path fill="none" stroke="#63b8ff" d="M1025.21,-329.75C1021.46,-322.88 1016.09,-313.08 1011.37,-304.45"/>
<polygon fill="#63b8ff" stroke="#63b8ff" points="1014.49,-302.86 1006.62,-295.77 1008.35,-306.22 1014.49,-302.86"/>
</g>
<!-- Node31 -->
<g id="node31" class="node">
<title>Node31</title>
<g id="a_node31"><a xlink:href="uitext_8h.html" target="_top" xlink:title=" ">
<polygon fill="white" stroke="#666666" points="1135.5,-294 1086.5,-294 1086.5,-275 1135.5,-275 1135.5,-294"/>
<text text-anchor="middle" x="1111" y="-282" font-family="Helvetica,sans-Serif" font-size="10.00">uitext.h</text>
</a>
</g>
</g>
<!-- Node1&#45;&gt;Node31 -->
<g id="edge79" class="edge">
<title>Node1&#45;&gt;Node31</title>
<path fill="none" stroke="#63b8ff" d="M1043.74,-329.51C1055.8,-321.62 1073.59,-309.98 1087.84,-300.65"/>
<polygon fill="#63b8ff" stroke="#63b8ff" points="1089.74,-303.59 1096.2,-295.19 1085.91,-297.73 1089.74,-303.59"/>
</g>
<!-- Node8&#45;&gt;Node5 -->
<g id="edge9" class="edge">
<title>Node8&#45;&gt;Node5</title>
<path fill="none" stroke="#63b8ff" d="M1444.3,-164.55C1436.78,-141.45 1413.21,-79.89 1369,-55 1274.24,-1.66 499.46,-26.82 391,-19 378.8,-18.12 365.58,-16.83 353.5,-15.52"/>
<polygon fill="#63b8ff" stroke="#63b8ff" points="354.17,-12.07 343.85,-14.44 353.39,-19.03 354.17,-12.07"/>
</g>
<!-- Node8&#45;&gt;Node6 -->
<g id="edge10" class="edge">
<title>Node8&#45;&gt;Node6</title>
<path fill="none" stroke="#63b8ff" d="M1461.76,-164.51C1474.96,-156.47 1494.56,-144.53 1510.01,-135.11"/>
<polygon fill="#63b8ff" stroke="#63b8ff" points="1511.45,-138.34 1518.17,-130.15 1507.81,-132.36 1511.45,-138.34"/>
</g>
<!-- Node8&#45;&gt;Node7 -->
<g id="edge11" class="edge">
<title>Node8&#45;&gt;Node7</title>
<path fill="none" stroke="#63b8ff" d="M1418.74,-170.57C1334.47,-161.85 1084.31,-135.96 980.72,-125.23"/>
<polygon fill="#63b8ff" stroke="#63b8ff" points="981.22,-121.77 970.92,-124.22 980.5,-128.73 981.22,-121.77"/>
</g>
<!-- Node9 -->
<g id="node9" class="node">
<title>Node9</title>
<g id="a_node9"><a xlink:title=" ">
<polygon fill="#e0e0e0" stroke="#999999" points="1401,-19 1343,-19 1343,0 1401,0 1401,-19"/>
<text text-anchor="middle" x="1372" y="-7" font-family="Helvetica,sans-Serif" font-size="10.00">functional</text>
</a>
</g>
</g>
<!-- Node8&#45;&gt;Node9 -->
<g id="edge8" class="edge">
<title>Node8&#45;&gt;Node9</title>
<path fill="none" stroke="#63b8ff" d="M1449.31,-164.72C1454.24,-143.98 1463.75,-91.04 1443,-55 1435.13,-41.34 1421.2,-31.27 1407.75,-24.2"/>
<polygon fill="#63b8ff" stroke="#63b8ff" points="1409.57,-21.18 1399.03,-20.02 1406.54,-27.5 1409.57,-21.18"/>
</g>
<!-- Node10&#45;&gt;Node7 -->
<g id="edge13" class="edge">
<title>Node10&#45;&gt;Node7</title>
<path fill="none" stroke="#63b8ff" d="M712.06,-274.51C749.28,-259.35 823.89,-226.17 878,-184 895.11,-170.66 911.3,-151.8 922.02,-138.11"/>
<polygon fill="#63b8ff" stroke="#63b8ff" points="924.61,-140.48 927.88,-130.4 919.04,-136.24 924.61,-140.48"/>
</g>
<!-- Node11 -->
<g id="node11" class="node">
<title>Node11</title>
<g id="a_node11"><a xlink:href="renderable_8h.html" target="_top" xlink:title=" ">
<polygon fill="white" stroke="#666666" points="714,-129 644,-129 644,-110 714,-110 714,-129"/>
<text text-anchor="middle" x="679" y="-117" font-family="Helvetica,sans-Serif" font-size="10.00">renderable.h</text>
</a>
</g>
</g>
<!-- Node10&#45;&gt;Node11 -->
<g id="edge14" class="edge">
<title>Node10&#45;&gt;Node11</title>
<path fill="none" stroke="#63b8ff" d="M670.09,-274.57C656.74,-267.13 639.87,-255.13 632,-239 614.94,-204.04 643.47,-161.22 663.02,-137.82"/>
<polygon fill="#63b8ff" stroke="#63b8ff" points="665.51,-140.29 669.45,-130.46 660.24,-135.68 665.51,-140.29"/>
</g>
<!-- Node10&#45;&gt;Node12 -->
<g id="edge15" class="edge">
<title>Node10&#45;&gt;Node12</title>
<path fill="none" stroke="#63b8ff" d="M654.14,-276.95C605.33,-267.78 516.26,-251.04 459.44,-240.36"/>
<polygon fill="#63b8ff" stroke="#63b8ff" points="460.14,-236.93 449.66,-238.52 458.85,-243.81 460.14,-236.93"/>
</g>
<!-- Node17 -->
<g id="node17" class="node">
<title>Node17</title>
<g id="a_node17"><a xlink:href="particlesimulator_8h.html" target="_top" xlink:title=" ">
<polygon fill="white" stroke="#666666" points="737,-239 641,-239 641,-220 737,-220 737,-239"/>
<text text-anchor="middle" x="689" y="-227" font-family="Helvetica,sans-Serif" font-size="10.00">particlesimulator.h</text>
</a>
</g>
</g>
<!-- Node10&#45;&gt;Node17 -->
<g id="edge30" class="edge">
<title>Node10&#45;&gt;Node17</title>
<path fill="none" stroke="#63b8ff" d="M689,-274.75C689,-268.27 689,-259.16 689,-250.9"/>
<polygon fill="#63b8ff" stroke="#63b8ff" points="692.5,-250.96 689,-240.96 685.5,-250.96 692.5,-250.96"/>
</g>
<!-- Node12&#45;&gt;Node2 -->
<g id="edge18" class="edge">
<title>Node12&#45;&gt;Node2</title>
<path fill="none" stroke="#63b8ff" d="M387.48,-219.5C373.94,-212.09 356.97,-200.16 349,-184 345.26,-176.43 346.97,-173.2 349,-165 353.35,-147.44 359.8,-145.13 368,-129 385.67,-94.24 405.49,-53.31 416.78,-29.78"/>
<polygon fill="#63b8ff" stroke="#63b8ff" points="419.91,-31.36 421.07,-20.83 413.6,-28.34 419.91,-31.36"/>
</g>
<!-- Node12&#45;&gt;Node5 -->
<g id="edge16" class="edge">
<title>Node12&#45;&gt;Node5</title>
<path fill="none" stroke="#63b8ff" d="M365.72,-227.97C290.41,-226.16 134.82,-218.26 95,-184 56.31,-150.71 69.41,-124.5 62,-74 60.77,-65.65 56.58,-61.47 62,-55 88.12,-23.82 206.46,-14.47 270.52,-11.68"/>
<polygon fill="#63b8ff" stroke="#63b8ff" points="270.45,-15.18 280.3,-11.29 270.17,-8.19 270.45,-15.18"/>
</g>
<!-- Node12&#45;&gt;Node7 -->
<g id="edge17" class="edge">
<title>Node12&#45;&gt;Node7</title>
<path fill="none" stroke="#63b8ff" d="M437.7,-219.58C484.33,-206.28 575.95,-181.08 655,-165 755.94,-144.47 785.13,-147.12 889.71,-129.32"/>
<polygon fill="#63b8ff" stroke="#63b8ff" points="890.01,-132.82 899.27,-127.67 888.82,-125.92 890.01,-132.82"/>
</g>
<!-- Node12&#45;&gt;Node11 -->
<g id="edge29" class="edge">
<title>Node12&#45;&gt;Node11</title>
<path fill="none" stroke="#63b8ff" d="M418.47,-219.62C436.55,-206.02 473.21,-180.04 508,-165 548.53,-147.49 597.53,-135.6 632.68,-128.55"/>
<polygon fill="#63b8ff" stroke="#63b8ff" points="632.94,-132.06 642.08,-126.72 631.6,-125.19 632.94,-132.06"/>
</g>
<!-- Node12&#45;&gt;Node13 -->
<g id="edge19" class="edge">
<title>Node12&#45;&gt;Node13</title>
<path fill="none" stroke="#63b8ff" d="M365.59,-226.31C335.88,-222.31 297.73,-211.68 278,-184 266.56,-167.96 282.71,-149.25 298.38,-136.31"/>
<polygon fill="#63b8ff" stroke="#63b8ff" points="300.34,-139.22 306.13,-130.35 296.07,-133.67 300.34,-139.22"/>
</g>
<!-- Node14 -->
<g id="node14" class="node">
<title>Node14</title>
<g id="a_node14"><a xlink:href="shader_8h.html" target="_top" xlink:title=" ">
<polygon fill="white" stroke="#666666" points="281,-74 227,-74 227,-55 281,-55 281,-74"/>
<text text-anchor="middle" x="254" y="-62" font-family="Helvetica,sans-Serif" font-size="10.00">shader.h</text>
</a>
</g>
</g>
<!-- Node12&#45;&gt;Node14 -->
<g id="edge28" class="edge">
<title>Node12&#45;&gt;Node14</title>
<path fill="none" stroke="#63b8ff" d="M365.72,-223.08C336.59,-217.46 298.08,-206.21 271,-184 243.43,-161.39 234.59,-145.24 240,-110 241.29,-101.59 243.88,-92.6 246.48,-84.91"/>
<polygon fill="#63b8ff" stroke="#63b8ff" points="249.74,-86.19 249.88,-75.6 243.16,-83.79 249.74,-86.19"/>
</g>
<!-- Node15 -->
<g id="node15" class="node">
<title>Node15</title>
<g id="a_node15"><a xlink:href="rendertargetarray_8h.html" target="_top" xlink:title=" ">
<polygon fill="white" stroke="#666666" points="456,-184 358,-184 358,-165 456,-165 456,-184"/>
<text text-anchor="middle" x="407" y="-172" font-family="Helvetica,sans-Serif" font-size="10.00">rendertargetarray.h</text>
</a>
</g>
</g>
<!-- Node12&#45;&gt;Node15 -->
<g id="edge24" class="edge">
<title>Node12&#45;&gt;Node15</title>
<path fill="none" stroke="#63b8ff" d="M407,-219.75C407,-213.27 407,-204.16 407,-195.9"/>
<polygon fill="#63b8ff" stroke="#63b8ff" points="410.5,-195.96 407,-185.96 403.5,-195.96 410.5,-195.96"/>
</g>
<!-- Node13&#45;&gt;Node2 -->
<g id="edge21" class="edge">
<title>Node13&#45;&gt;Node2</title>
<path fill="none" stroke="#63b8ff" d="M327.44,-109.9C337.01,-97.31 355.84,-73.39 374,-55 384,-44.88 396.02,-34.49 405.98,-26.3"/>
<polygon fill="#63b8ff" stroke="#63b8ff" points="408.02,-29.16 413.6,-20.15 403.62,-23.71 408.02,-29.16"/>
</g>
<!-- Node13&#45;&gt;Node5 -->
<g id="edge20" class="edge">
<title>Node13&#45;&gt;Node5</title>
<path fill="none" stroke="#63b8ff" d="M320.26,-109.66C318.84,-92.57 315.68,-54.61 313.7,-30.92"/>
<polygon fill="#63b8ff" stroke="#63b8ff" points="317.19,-30.64 312.87,-20.97 310.22,-31.22 317.19,-30.64"/>
</g>
<!-- Node13&#45;&gt;Node14 -->
<g id="edge22" class="edge">
<title>Node13&#45;&gt;Node14</title>
<path fill="none" stroke="#63b8ff" d="M309.63,-109.51C299.95,-101.85 285.8,-90.66 274.19,-81.47"/>
<polygon fill="#63b8ff" stroke="#63b8ff" points="276.4,-78.76 266.38,-75.3 272.06,-84.25 276.4,-78.76"/>
</g>
<!-- Node14&#45;&gt;Node5 -->
<g id="edge23" class="edge">
<title>Node14&#45;&gt;Node5</title>
<path fill="none" stroke="#63b8ff" d="M263.84,-54.51C272.05,-47 283.98,-36.1 293.91,-27.03"/>
<polygon fill="#63b8ff" stroke="#63b8ff" points="296.17,-29.71 301.19,-20.38 291.45,-24.54 296.17,-29.71"/>
</g>
<!-- Node15&#45;&gt;Node2 -->
<g id="edge26" class="edge">
<title>Node15&#45;&gt;Node2</title>
<path fill="none" stroke="#63b8ff" d="M408.02,-164.74C410.96,-139.53 419.49,-66.36 423.65,-30.62"/>
<polygon fill="#63b8ff" stroke="#63b8ff" points="427.12,-31.15 424.8,-20.81 420.16,-30.34 427.12,-31.15"/>
</g>
<!-- Node15&#45;&gt;Node13 -->
<g id="edge27" class="edge">
<title>Node15&#45;&gt;Node13</title>
<path fill="none" stroke="#63b8ff" d="M392.41,-164.51C379.48,-156.54 360.36,-144.75 345.15,-135.38"/>
<polygon fill="#63b8ff" stroke="#63b8ff" points="347.01,-132.42 336.66,-130.15 343.34,-138.38 347.01,-132.42"/>
</g>
<!-- Node16 -->
<g id="node16" class="node">
<title>Node16</title>
<g id="a_node16"><a xlink:title=" ">
<polygon fill="#e0e0e0" stroke="#999999" points="878,-19 836,-19 836,0 878,0 878,-19"/>
<text text-anchor="middle" x="857" y="-7" font-family="Helvetica,sans-Serif" font-size="10.00">vector</text>
</a>
</g>
</g>
<!-- Node15&#45;&gt;Node16 -->
<g id="edge25" class="edge">
<title>Node15&#45;&gt;Node16</title>
<path fill="none" stroke="#63b8ff" d="M431.83,-164.5C508.2,-136.84 739.52,-53.05 824.9,-22.13"/>
<polygon fill="#63b8ff" stroke="#63b8ff" points="826.08,-25.42 834.29,-18.73 823.7,-18.84 826.08,-25.42"/>
</g>
<!-- Node17&#45;&gt;Node2 -->
<g id="edge33" class="edge">
<title>Node17&#45;&gt;Node2</title>
<path fill="none" stroke="#63b8ff" d="M698.61,-219.69C706.87,-211.41 718.2,-198.18 723,-184 733.54,-152.85 741.8,-136.98 723,-110 664.03,-25.37 529.38,-11.53 463.58,-10.03"/>
<polygon fill="#63b8ff" stroke="#63b8ff" points="463.69,-6.54 453.65,-9.9 463.6,-13.53 463.69,-6.54"/>
</g>
<!-- Node17&#45;&gt;Node5 -->
<g id="edge31" class="edge">
<title>Node17&#45;&gt;Node5</title>
<path fill="none" stroke="#63b8ff" d="M673.75,-219.68C615.85,-186.2 409.21,-66.71 337.07,-25"/>
<polygon fill="#63b8ff" stroke="#63b8ff" points="339.15,-22.16 328.75,-20.18 335.65,-28.22 339.15,-22.16"/>
</g>
<!-- Node17&#45;&gt;Node7 -->
<g id="edge32" class="edge">
<title>Node17&#45;&gt;Node7</title>
<path fill="none" stroke="#63b8ff" d="M737.2,-219.89C769.85,-212.92 813.37,-201.37 849,-184 874.52,-171.56 900.25,-151.31 916.83,-137.03"/>
<polygon fill="#63b8ff" stroke="#63b8ff" points="919.14,-139.66 924.32,-130.42 914.51,-134.41 919.14,-139.66"/>
</g>
<!-- Node17&#45;&gt;Node11 -->
<g id="edge38" class="edge">
<title>Node17&#45;&gt;Node11</title>
<path fill="none" stroke="#63b8ff" d="M679.39,-219.69C671.13,-211.41 659.8,-198.18 655,-184 649.81,-168.65 657.12,-151.47 665,-138.85"/>
<polygon fill="#63b8ff" stroke="#63b8ff" points="667.81,-140.93 670.63,-130.72 662.06,-136.95 667.81,-140.93"/>
</g>
<!-- Node17&#45;&gt;Node14 -->
<g id="edge36" class="edge">
<title>Node17&#45;&gt;Node14</title>
<path fill="none" stroke="#63b8ff" d="M640.78,-225.12C559.99,-218.98 401,-204.67 349,-184 310.25,-168.6 297.14,-162.99 273,-129 263.81,-116.06 259.01,-98.63 256.53,-85.31"/>
<polygon fill="#63b8ff" stroke="#63b8ff" points="260.01,-84.92 255.04,-75.57 253.1,-85.98 260.01,-84.92"/>
</g>
<!-- Node17&#45;&gt;Node15 -->
<g id="edge37" class="edge">
<title>Node17&#45;&gt;Node15</title>
<path fill="none" stroke="#63b8ff" d="M641.16,-219.51C592.7,-210.4 517.67,-196.3 465.66,-186.52"/>
<polygon fill="#63b8ff" stroke="#63b8ff" points="466.56,-183.13 456.09,-184.73 465.27,-190.01 466.56,-183.13"/>
</g>
<!-- Node17&#45;&gt;Node16 -->
<g id="edge34" class="edge">
<title>Node17&#45;&gt;Node16</title>
<path fill="none" stroke="#63b8ff" d="M709.24,-219.57C724.11,-212.05 743.78,-199.97 756,-184 792.72,-136 763.93,-104.22 799,-55 807.43,-43.17 819.92,-33.02 831.15,-25.42"/>
<polygon fill="#63b8ff" stroke="#63b8ff" points="832.74,-28.55 839.29,-20.22 828.97,-22.65 832.74,-28.55"/>
</g>
<!-- Node18 -->
<g id="node18" class="node">
<title>Node18</title>
<g id="a_node18"><a xlink:title=" ">
<polygon fill="#e0e0e0" stroke="#999999" points="714,-184 664,-184 664,-165 714,-165 714,-184"/>
<text text-anchor="middle" x="689" y="-172" font-family="Helvetica,sans-Serif" font-size="10.00">optional</text>
</a>
</g>
</g>
<!-- Node17&#45;&gt;Node18 -->
<g id="edge35" class="edge">
<title>Node17&#45;&gt;Node18</title>
<path fill="none" stroke="#63b8ff" d="M689,-219.75C689,-213.27 689,-204.16 689,-195.9"/>
<polygon fill="#63b8ff" stroke="#63b8ff" points="692.5,-195.96 689,-185.96 685.5,-195.96 692.5,-195.96"/>
</g>
<!-- Node17&#45;&gt;Node19 -->
<g id="edge39" class="edge">
<title>Node17&#45;&gt;Node19</title>
<path fill="none" stroke="#63b8ff" d="M711.9,-219.51C735.52,-210.24 772.31,-195.79 797.25,-186"/>
<polygon fill="#63b8ff" stroke="#63b8ff" points="798.35,-189.33 806.38,-182.42 795.79,-182.82 798.35,-189.33"/>
</g>
<!-- Node19&#45;&gt;Node7 -->
<g id="edge40" class="edge">
<title>Node19&#45;&gt;Node7</title>
<path fill="none" stroke="#63b8ff" d="M840.38,-165.68C857.63,-157.44 885.15,-144.3 906.08,-134.31"/>
<polygon fill="#63b8ff" stroke="#63b8ff" points="907.45,-137.54 914.96,-130.07 904.43,-131.22 907.45,-137.54"/>
</g>
<!-- Node19&#45;&gt;Node11 -->
<g id="edge41" class="edge">
<title>Node19&#45;&gt;Node11</title>
<path fill="none" stroke="#63b8ff" d="M807.65,-167.52C785.12,-159.29 743.96,-144.24 714.25,-133.39"/>
<polygon fill="#63b8ff" stroke="#63b8ff" points="715.51,-130.12 704.91,-129.97 713.11,-136.69 715.51,-130.12"/>
</g>
<!-- Node20 -->
<g id="node20" class="node">
<title>Node20</title>
<g id="a_node20"><a xlink:href="instance_8h.html" target="_top" xlink:title=" ">
<polygon fill="white" stroke="#666666" points="883,-129 821,-129 821,-110 883,-110 883,-129"/>
<text text-anchor="middle" x="852" y="-117" font-family="Helvetica,sans-Serif" font-size="10.00">instance.h</text>
</a>
</g>
</g>
<!-- Node19&#45;&gt;Node20 -->
<g id="edge42" class="edge">
<title>Node19&#45;&gt;Node20</title>
<path fill="none" stroke="#63b8ff" d="M828.62,-164.75C832.25,-157.88 837.43,-148.08 841.99,-139.45"/>
<polygon fill="#63b8ff" stroke="#63b8ff" points="844.99,-141.26 846.57,-130.78 838.8,-137.99 844.99,-141.26"/>
</g>
<!-- Node20&#45;&gt;Node3 -->
<g id="edge44" class="edge">
<title>Node20&#45;&gt;Node3</title>
<path fill="none" stroke="#63b8ff" d="M883.38,-111.45C886.28,-110.91 889.19,-110.42 892,-110 1072.83,-83.1 1124.72,-107.41 1307.15,-74.19"/>
<polygon fill="#63b8ff" stroke="#63b8ff" points="1307.53,-77.68 1316.72,-72.41 1306.25,-70.79 1307.53,-77.68"/>
</g>
<!-- Node20&#45;&gt;Node16 -->
<g id="edge45" class="edge">
<title>Node20&#45;&gt;Node16</title>
<path fill="none" stroke="#63b8ff" d="M873.77,-109.62C888.34,-102.39 906.38,-90.65 915,-74 925,-54.69 904.86,-36.81 885.63,-24.97"/>
<polygon fill="#63b8ff" stroke="#63b8ff" points="887.55,-22.04 877.13,-20.11 884.07,-28.11 887.55,-22.04"/>
</g>
<!-- Node21 -->
<g id="node21" class="node">
<title>Node21</title>
<g id="a_node21"><a xlink:title=" ">
<polygon fill="#e0e0e0" stroke="#999999" points="906,-74 808,-74 808,-55 906,-55 906,-74"/>
<text text-anchor="middle" x="857" y="-62" font-family="Helvetica,sans-Serif" font-size="10.00">nlohmann/json.hpp</text>
</a>
</g>
</g>
<!-- Node20&#45;&gt;Node21 -->
<g id="edge43" class="edge">
<title>Node20&#45;&gt;Node21</title>
<path fill="none" stroke="#63b8ff" d="M852.83,-109.75C853.44,-103.27 854.3,-94.16 855.08,-85.9"/>
<polygon fill="#63b8ff" stroke="#63b8ff" points="858.56,-86.23 856.01,-75.95 851.59,-85.58 858.56,-86.23"/>
</g>
<!-- Node22 -->
<g id="node22" class="node">
<title>Node22</title>
<g id="a_node22"><a xlink:href="event_8h.html" target="_top" xlink:title=" ">
<polygon fill="white" stroke="#666666" points="1300.5,-74 1253.5,-74 1253.5,-55 1300.5,-55 1300.5,-74"/>
<text text-anchor="middle" x="1277" y="-62" font-family="Helvetica,sans-Serif" font-size="10.00">event.h</text>
</a>
</g>
</g>
<!-- Node20&#45;&gt;Node22 -->
<g id="edge46" class="edge">
<title>Node20&#45;&gt;Node22</title>
<path fill="none" stroke="#63b8ff" d="M883.39,-111.54C886.29,-110.98 889.2,-110.46 892,-110 1020.1,-89.03 1173.77,-74.4 1241.72,-68.46"/>
<polygon fill="#63b8ff" stroke="#63b8ff" points="1241.84,-71.96 1251.5,-67.61 1241.24,-64.98 1241.84,-71.96"/>
</g>
<!-- Node22&#45;&gt;Node2 -->
<g id="edge49" class="edge">
<title>Node22&#45;&gt;Node2</title>
<path fill="none" stroke="#63b8ff" d="M1253.39,-57.59C1248.65,-56.58 1243.69,-55.65 1239,-55 942.49,-14.01 580.24,-10.38 463.89,-10.36"/>
<polygon fill="#63b8ff" stroke="#63b8ff" points="463.98,-6.85 453.99,-10.36 463.99,-13.85 463.98,-6.85"/>
</g>
<!-- Node22&#45;&gt;Node9 -->
<g id="edge47" class="edge">
<title>Node22&#45;&gt;Node9</title>
<path fill="none" stroke="#63b8ff" d="M1293.12,-54.51C1307.67,-46.39 1329.34,-34.3 1346.29,-24.85"/>
<polygon fill="#63b8ff" stroke="#63b8ff" points="1347.77,-28.02 1354.8,-20.1 1344.36,-21.91 1347.77,-28.02"/>
</g>
<!-- Node22&#45;&gt;Node16 -->
<g id="edge48" class="edge">
<title>Node22&#45;&gt;Node16</title>
<path fill="none" stroke="#63b8ff" d="M1253.36,-57.81C1248.62,-56.79 1243.67,-55.79 1239,-55 1110.41,-33.19 955.64,-18.75 889.52,-13.14"/>
<polygon fill="#63b8ff" stroke="#63b8ff" points="890,-9.67 879.74,-12.32 889.41,-16.64 890,-9.67"/>
</g>
<!-- Node23&#45;&gt;Node2 -->
<g id="edge51" class="edge">
<title>Node23&#45;&gt;Node2</title>
<path fill="none" stroke="#63b8ff" d="M1275.81,-164.73C1265.69,-151.03 1244.29,-124.62 1220,-110 1145.77,-65.33 1118.24,-70.48 1033,-55 820.14,-16.35 559.5,-11.06 463.66,-10.49"/>
<polygon fill="#63b8ff" stroke="#63b8ff" points="463.81,-6.99 453.79,-10.45 463.78,-13.99 463.81,-6.99"/>
</g>
<!-- Node23&#45;&gt;Node3 -->
<g id="edge52" class="edge">
<title>Node23&#45;&gt;Node3</title>
<path fill="none" stroke="#63b8ff" d="M1286.66,-164.66C1295.85,-147.26 1316.47,-108.19 1328.91,-84.62"/>
<polygon fill="#63b8ff" stroke="#63b8ff" points="1331.99,-86.28 1333.56,-75.8 1325.8,-83.01 1331.99,-86.28"/>
</g>
<!-- Node23&#45;&gt;Node7 -->
<g id="edge53" class="edge">
<title>Node23&#45;&gt;Node7</title>
<path fill="none" stroke="#63b8ff" d="M1259.77,-170.1C1203.71,-161.54 1055.72,-138.94 980.41,-127.44"/>
<polygon fill="#63b8ff" stroke="#63b8ff" points="981.32,-124.03 970.9,-125.98 980.26,-130.95 981.32,-124.03"/>
</g>
<!-- Node23&#45;&gt;Node22 -->
<g id="edge54" class="edge">
<title>Node23&#45;&gt;Node22</title>
<path fill="none" stroke="#63b8ff" d="M1281.59,-164.66C1280.8,-147.57 1279.04,-109.61 1277.95,-85.92"/>
<polygon fill="#63b8ff" stroke="#63b8ff" points="1281.44,-85.8 1277.48,-75.97 1274.45,-86.12 1281.44,-85.8"/>
</g>
<!-- Node24&#45;&gt;Node2 -->
<g id="edge57" class="edge">
<title>Node24&#45;&gt;Node2</title>
<path fill="none" stroke="#63b8ff" d="M131.04,-164.65C141.73,-142.3 173.04,-83.4 218,-55 245.94,-37.35 336.47,-22.63 388.42,-15.37"/>
<polygon fill="#63b8ff" stroke="#63b8ff" points="388.57,-18.88 398,-14.06 387.62,-11.95 388.57,-18.88"/>
</g>
<!-- Node24&#45;&gt;Node7 -->
<g id="edge56" class="edge">
<title>Node24&#45;&gt;Node7</title>
<path fill="none" stroke="#63b8ff" d="M150.28,-172.58C259.34,-168.19 721.15,-148.88 889.44,-129.09"/>
<polygon fill="#63b8ff" stroke="#63b8ff" points="889.8,-132.58 899.3,-127.88 888.95,-125.63 889.8,-132.58"/>
</g>
<!-- Node24&#45;&gt;Node14 -->
<g id="edge58" class="edge">
<title>Node24&#45;&gt;Node14</title>
<path fill="none" stroke="#63b8ff" d="M137.39,-164.66C158.7,-146.55 207.6,-104.96 234.82,-81.81"/>
<polygon fill="#63b8ff" stroke="#63b8ff" points="236.96,-84.59 242.31,-75.44 232.43,-79.25 236.96,-84.59"/>
</g>
<!-- Node25&#45;&gt;Node3 -->
<g id="edge62" class="edge">
<title>Node25&#45;&gt;Node3</title>
<path fill="none" stroke="#63b8ff" d="M1203.98,-227.45C1232.92,-224.82 1284.73,-215.68 1313,-184 1337.47,-156.57 1340.66,-111.47 1340.21,-85.54"/>
<polygon fill="#63b8ff" stroke="#63b8ff" points="1343.72,-85.58 1339.82,-75.73 1336.72,-85.86 1343.72,-85.58"/>
</g>
<!-- Node25&#45;&gt;Node7 -->
<g id="edge61" class="edge">
<title>Node25&#45;&gt;Node7</title>
<path fill="none" stroke="#63b8ff" d="M1175.42,-219.66C1163.11,-205.87 1137.38,-179.34 1110,-165 1087.65,-153.29 1024.2,-138.71 980.19,-129.5"/>
<polygon fill="#63b8ff" stroke="#63b8ff" points="981.16,-126.13 970.66,-127.53 979.74,-132.98 981.16,-126.13"/>
</g>
<!-- Node26 -->
<g id="node26" class="node">
<title>Node26</title>
<g id="a_node26"><a xlink:title=" ">
<polygon fill="#e0e0e0" stroke="#999999" points="1211,-129 1155,-129 1155,-110 1211,-110 1211,-129"/>
<text text-anchor="middle" x="1183" y="-117" font-family="Helvetica,sans-Serif" font-size="10.00">ft2build.h</text>
</a>
</g>
</g>
<!-- Node25&#45;&gt;Node26 -->
<g id="edge60" class="edge">
<title>Node25&#45;&gt;Node26</title>
<path fill="none" stroke="#63b8ff" d="M1191.21,-219.8C1198.54,-211.38 1208.75,-197.9 1213,-184 1218,-167.65 1208.52,-150.15 1198.92,-137.68"/>
<polygon fill="#63b8ff" stroke="#63b8ff" points="1201.89,-135.77 1192.77,-130.37 1196.53,-140.28 1201.89,-135.77"/>
</g>
<!-- Node27 -->
<g id="node27" class="node">
<title>Node27</title>
<g id="a_node27"><a xlink:href="font_8h.html" target="_top" xlink:title=" ">
<polygon fill="white" stroke="#666666" points="1203.5,-184 1162.5,-184 1162.5,-165 1203.5,-165 1203.5,-184"/>
<text text-anchor="middle" x="1183" y="-172" font-family="Helvetica,sans-Serif" font-size="10.00">font.h</text>
</a>
</g>
</g>
<!-- Node25&#45;&gt;Node27 -->
<g id="edge63" class="edge">
<title>Node25&#45;&gt;Node27</title>
<path fill="none" stroke="#63b8ff" d="M1183,-219.75C1183,-213.27 1183,-204.16 1183,-195.9"/>
<polygon fill="#63b8ff" stroke="#63b8ff" points="1186.5,-195.96 1183,-185.96 1179.5,-195.96 1186.5,-195.96"/>
</g>
<!-- Node27&#45;&gt;Node2 -->
<g id="edge66" class="edge">
<title>Node27&#45;&gt;Node2</title>
<path fill="none" stroke="#63b8ff" d="M1162.04,-168.1C1130.24,-159.59 1071.72,-142.65 1055,-129 1025.36,-104.81 1043.52,-75.17 1011,-55 964.61,-26.23 585.73,-14.44 463.71,-11.37"/>
<polygon fill="#63b8ff" stroke="#63b8ff" points="463.99,-7.87 453.91,-11.12 463.82,-14.87 463.99,-7.87"/>
</g>
<!-- Node27&#45;&gt;Node3 -->
<g id="edge67" class="edge">
<title>Node27&#45;&gt;Node3</title>
<path fill="none" stroke="#63b8ff" d="M1171.09,-164.55C1155.48,-151.75 1131.69,-127.8 1146,-110 1190.58,-54.58 1233.49,-88.91 1307.06,-74.33"/>
<polygon fill="#63b8ff" stroke="#63b8ff" points="1307.69,-77.77 1316.66,-72.14 1306.14,-70.95 1307.69,-77.77"/>
</g>
<!-- Node27&#45;&gt;Node5 -->
<g id="edge69" class="edge">
<title>Node27&#45;&gt;Node5</title>
<path fill="none" stroke="#63b8ff" d="M1162.44,-169.03C1133.46,-162.34 1079.31,-148.41 1036,-129 978.48,-103.21 975.06,-74.15 915,-55 803.8,-19.53 507.27,-29.25 391,-19 378.82,-17.93 365.6,-16.58 353.52,-15.27"/>
<polygon fill="#63b8ff" stroke="#63b8ff" points="354.19,-11.82 343.86,-14.21 353.42,-18.78 354.19,-11.82"/>
</g>
<!-- Node27&#45;&gt;Node7 -->
<g id="edge65" class="edge">
<title>Node27&#45;&gt;Node7</title>
<path fill="none" stroke="#63b8ff" d="M1162.3,-168.36C1157.6,-167.22 1152.64,-166.05 1148,-165 1090.45,-152 1023.84,-138.3 980.65,-129.59"/>
<polygon fill="#63b8ff" stroke="#63b8ff" points="981.36,-126.17 970.87,-127.63 979.98,-133.03 981.36,-126.17"/>
</g>
<!-- Node27&#45;&gt;Node26 -->
<g id="edge64" class="edge">
<title>Node27&#45;&gt;Node26</title>
<path fill="none" stroke="#63b8ff" d="M1183,-164.75C1183,-158.27 1183,-149.16 1183,-140.9"/>
<polygon fill="#63b8ff" stroke="#63b8ff" points="1186.5,-140.96 1183,-130.96 1179.5,-140.96 1186.5,-140.96"/>
</g>
<!-- Node28 -->
<g id="node28" class="node">
<title>Node28</title>
<g id="a_node28"><a xlink:title=" ">
<polygon fill="#e0e0e0" stroke="#999999" points="1098.5,-129 1063.5,-129 1063.5,-110 1098.5,-110 1098.5,-129"/>
<text text-anchor="middle" x="1081" y="-117" font-family="Helvetica,sans-Serif" font-size="10.00">map</text>
</a>
</g>
</g>
<!-- Node27&#45;&gt;Node28 -->
<g id="edge68" class="edge">
<title>Node27&#45;&gt;Node28</title>
<path fill="none" stroke="#63b8ff" d="M1165.7,-164.51C1149.92,-156.31 1126.36,-144.07 1108.09,-134.58"/>
<polygon fill="#63b8ff" stroke="#63b8ff" points="1109.88,-131.56 1099.39,-130.06 1106.65,-137.77 1109.88,-131.56"/>
</g>
<!-- Node30 -->
<g id="node30" class="node">
<title>Node30</title>
<g id="a_node30"><a xlink:href="uiobject_8h.html" target="_top" xlink:title=" ">
<polygon fill="white" stroke="#666666" points="1029.5,-239 970.5,-239 970.5,-220 1029.5,-220 1029.5,-239"/>
<text text-anchor="middle" x="1000" y="-227" font-family="Helvetica,sans-Serif" font-size="10.00">uiobject.h</text>
</a>
</g>
</g>
<!-- Node29&#45;&gt;Node30 -->
<g id="edge74" class="edge">
<title>Node29&#45;&gt;Node30</title>
<path fill="none" stroke="#63b8ff" d="M1000.83,-274.75C1000.71,-268.27 1000.54,-259.16 1000.38,-250.9"/>
<polygon fill="#63b8ff" stroke="#63b8ff" points="1003.89,-250.89 1000.2,-240.96 996.89,-251.02 1003.89,-250.89"/>
</g>
<!-- Node30&#45;&gt;Node7 -->
<g id="edge75" class="edge">
<title>Node30&#45;&gt;Node7</title>
<path fill="none" stroke="#63b8ff" d="M1001.68,-219.64C1003.66,-206.74 1005.56,-182.43 996,-165 989.08,-152.38 976.87,-142.39 965.18,-135.11"/>
<polygon fill="#63b8ff" stroke="#63b8ff" points="966.92,-132.08 956.5,-130.16 963.45,-138.15 966.92,-132.08"/>
</g>
<!-- Node30&#45;&gt;Node11 -->
<g id="edge77" class="edge">
<title>Node30&#45;&gt;Node11</title>
<path fill="none" stroke="#63b8ff" d="M981.26,-219.6C953.05,-206.43 897.75,-181.54 849,-165 807.86,-151.04 759.89,-138.84 725.41,-130.77"/>
<polygon fill="#63b8ff" stroke="#63b8ff" points="726.27,-127.37 715.74,-128.53 724.7,-134.19 726.27,-127.37"/>
</g>
<!-- Node30&#45;&gt;Node19 -->
<g id="edge78" class="edge">
<title>Node30&#45;&gt;Node19</title>
<path fill="none" stroke="#63b8ff" d="M970.14,-219.51C936.78,-209.46 883.23,-193.33 851.05,-183.64"/>
<polygon fill="#63b8ff" stroke="#63b8ff" points="852.27,-180.36 841.68,-180.83 850.25,-187.06 852.27,-180.36"/>
</g>
<!-- Node30&#45;&gt;Node20 -->
<g id="edge76" class="edge">
<title>Node30&#45;&gt;Node20</title>
<path fill="none" stroke="#63b8ff" d="M989.37,-219.55C974.27,-206.96 945.59,-183.47 920,-165 905.6,-154.6 888.91,-143.67 875.68,-135.24"/>
<polygon fill="#63b8ff" stroke="#63b8ff" points="877.92,-132.52 867.6,-130.14 874.19,-138.44 877.92,-132.52"/>
</g>
<!-- Node31&#45;&gt;Node7 -->
<g id="edge80" class="edge">
<title>Node31&#45;&gt;Node7</title>
<path fill="none" stroke="#63b8ff" d="M1110.7,-274.68C1109.48,-252.92 1103.3,-196.18 1072,-165 1058.85,-151.9 1014.89,-139.03 980.27,-130.53"/>
<polygon fill="#63b8ff" stroke="#63b8ff" points="981.42,-127.21 970.88,-128.28 979.79,-134.01 981.42,-127.21"/>
</g>
<!-- Node31&#45;&gt;Node27 -->
<g id="edge82" class="edge">
<title>Node31&#45;&gt;Node27</title>
<path fill="none" stroke="#63b8ff" d="M1116.89,-274.66C1128.6,-257.1 1155.01,-217.48 1170.68,-193.98"/>
<polygon fill="#63b8ff" stroke="#63b8ff" points="1173.55,-195.98 1176.19,-185.72 1167.73,-192.1 1173.55,-195.98"/>
</g>
<!-- Node31&#45;&gt;Node30 -->
<g id="edge81" class="edge">
<title>Node31&#45;&gt;Node30</title>
<path fill="none" stroke="#63b8ff" d="M1092.17,-274.51C1074.84,-266.24 1048.89,-253.84 1028.93,-244.31"/>
<polygon fill="#63b8ff" stroke="#63b8ff" points="1030.45,-241.16 1019.92,-240.01 1027.43,-247.48 1030.45,-241.16"/>
</g>
</g>
</svg>
