<?xml version="1.0" encoding="UTF-8" standalone="no"?>
<!DOCTYPE svg PUBLIC "-//W3C//DTD SVG 1.1//EN"
 "http://www.w3.org/Graphics/SVG/1.1/DTD/svg11.dtd">
<!-- Generated by graphviz version 7.1.0 (20230121.1956)
 -->
<!-- Title: src/core.h Pages: 1 -->
<svg width="943pt" height="82pt"
 viewBox="0.00 0.00 942.50 82.00" xmlns="http://www.w3.org/2000/svg" xmlns:xlink="http://www.w3.org/1999/xlink">
<g id="graph0" class="graph" transform="scale(1 1) rotate(0) translate(4 78)">
<title>src/core.h</title>
<!-- Node1 -->
<g id="node1" class="node">
<title>Node1</title>
<g id="a_node1"><a xlink:title=" ">
<polygon fill="#999999" stroke="#666666" points="530.5,-74 470.5,-74 470.5,-55 530.5,-55 530.5,-74"/>
<text text-anchor="middle" x="500.5" y="-62" font-family="Helvetica,sans-Serif" font-size="10.00">src/core.h</text>
</a>
</g>
</g>
<!-- Node2 -->
<g id="node2" class="node">
<title>Node2</title>
<g id="a_node2"><a xlink:href="core_8cpp.html" target="_top" xlink:title=" ">
<polygon fill="white" stroke="#666666" points="71,-19 0,-19 0,0 71,0 71,-19"/>
<text text-anchor="middle" x="35.5" y="-7" font-family="Helvetica,sans-Serif" font-size="10.00">src/core.cpp</text>
</a>
</g>
</g>
<!-- Node1&#45;&gt;Node2 -->
<g id="edge1" class="edge">
<title>Node1&#45;&gt;Node2</title>
<path fill="none" stroke="#63b8ff" d="M458.62,-60.27C382.76,-54.15 217.68,-39.61 79.5,-19 76.88,-18.61 74.19,-18.17 71.48,-17.71"/>
<polygon fill="#63b8ff" stroke="#63b8ff" points="458.25,-63.75 468.5,-61.06 458.81,-56.77 458.25,-63.75"/>
</g>
<!-- Node3 -->
<g id="node3" class="node">
<title>Node3</title>
<g id="a_node3"><a xlink:href="fluidsimulator_8cpp.html" target="_top" xlink:title=" ">
<polygon fill="white" stroke="#666666" points="198,-19 89,-19 89,0 198,0 198,-19"/>
<text text-anchor="middle" x="143.5" y="-7" font-family="Helvetica,sans-Serif" font-size="10.00">src/fluidsimulator.cpp</text>
</a>
</g>
</g>
<!-- Node1&#45;&gt;Node3 -->
<g id="edge2" class="edge">
<title>Node1&#45;&gt;Node3</title>
<path fill="none" stroke="#63b8ff" d="M458.72,-57.3C394.13,-47.71 270.01,-29.28 198.29,-18.63"/>
<polygon fill="#63b8ff" stroke="#63b8ff" points="458.16,-60.75 468.57,-58.76 459.19,-53.83 458.16,-60.75"/>
</g>
<!-- Node4 -->
<g id="node4" class="node">
<title>Node4</title>
<g id="a_node4"><a xlink:href="main_8cpp.html" target="_top" xlink:title=" ">
<polygon fill="white" stroke="#666666" points="289,-19 216,-19 216,0 289,0 289,-19"/>
<text text-anchor="middle" x="252.5" y="-7" font-family="Helvetica,sans-Serif" font-size="10.00">src/main.cpp</text>
</a>
</g>
</g>
<!-- Node1&#45;&gt;Node4 -->
<g id="edge3" class="edge">
<title>Node1&#45;&gt;Node4</title>
<path fill="none" stroke="#63b8ff" d="M458.99,-54.63C411.53,-44.49 334.56,-28.04 289.21,-18.35"/>
<polygon fill="#63b8ff" stroke="#63b8ff" points="458.1,-58.02 468.61,-56.68 459.56,-51.17 458.1,-58.02"/>
</g>
<!-- Node5 -->
<g id="node5" class="node">
<title>Node5</title>
<g id="a_node5"><a xlink:href="particlesimulator_8cpp.html" target="_top" xlink:title=" ">
<polygon fill="white" stroke="#666666" points="430,-19 307,-19 307,0 430,0 430,-19"/>
<text text-anchor="middle" x="368.5" y="-7" font-family="Helvetica,sans-Serif" font-size="10.00">src/particlesimulator.cpp</text>
</a>
</g>
</g>
<!-- Node1&#45;&gt;Node5 -->
<g id="edge4" class="edge">
<title>Node1&#45;&gt;Node5</title>
<path fill="none" stroke="#63b8ff" d="M467.68,-50.32C443.63,-40.67 411.62,-27.82 390.56,-19.36"/>
<polygon fill="#63b8ff" stroke="#63b8ff" points="466.12,-53.47 476.7,-53.95 468.73,-46.97 466.12,-53.47"/>
</g>
<!-- Node6 -->
<g id="node6" class="node">
<title>Node6</title>
<g id="a_node6"><a xlink:href="rendertarget_8cpp.html" target="_top" xlink:title=" ">
<polygon fill="white" stroke="#666666" points="552.5,-19 448.5,-19 448.5,0 552.5,0 552.5,-19"/>
<text text-anchor="middle" x="500.5" y="-7" font-family="Helvetica,sans-Serif" font-size="10.00">src/rendertarget.cpp</text>
</a>
</g>
</g>
<!-- Node1&#45;&gt;Node6 -->
<g id="edge5" class="edge">
<title>Node1&#45;&gt;Node6</title>
<path fill="none" stroke="#63b8ff" d="M500.5,-43.35C500.5,-35.1 500.5,-25.97 500.5,-19.44"/>
<polygon fill="#63b8ff" stroke="#63b8ff" points="497,-43.23 500.5,-53.23 504,-43.23 497,-43.23"/>
</g>
<!-- Node7 -->
<g id="node7" class="node">
<title>Node7</title>
<g id="a_node7"><a xlink:href="simulation_8cpp.html" target="_top" xlink:title=" ">
<polygon fill="white" stroke="#666666" points="666.5,-19 570.5,-19 570.5,0 666.5,0 666.5,-19"/>
<text text-anchor="middle" x="618.5" y="-7" font-family="Helvetica,sans-Serif" font-size="10.00">src/simulation.cpp</text>
</a>
</g>
</g>
<!-- Node1&#45;&gt;Node7 -->
<g id="edge6" class="edge">
<title>Node1&#45;&gt;Node7</title>
<path fill="none" stroke="#63b8ff" d="M531.01,-49.8C552.37,-40.2 580.29,-27.66 598.78,-19.36"/>
<polygon fill="#63b8ff" stroke="#63b8ff" points="529.59,-46.6 521.9,-53.89 532.45,-52.98 529.59,-46.6"/>
</g>
<!-- Node8 -->
<g id="node8" class="node">
<title>Node8</title>
<g id="a_node8"><a xlink:href="text_8cpp.html" target="_top" xlink:title=" ">
<polygon fill="white" stroke="#666666" points="752.5,-19 684.5,-19 684.5,0 752.5,0 752.5,-19"/>
<text text-anchor="middle" x="718.5" y="-7" font-family="Helvetica,sans-Serif" font-size="10.00">src/text.cpp</text>
</a>
</g>
</g>
<!-- Node1&#45;&gt;Node8 -->
<g id="edge7" class="edge">
<title>Node1&#45;&gt;Node8</title>
<path fill="none" stroke="#63b8ff" d="M541.83,-53.45C583.03,-43.44 645.57,-28.23 684.14,-18.85"/>
<polygon fill="#63b8ff" stroke="#63b8ff" points="541.17,-50.01 532.28,-55.77 542.83,-56.81 541.17,-50.01"/>
</g>
<!-- Node9 -->
<g id="node9" class="node">
<title>Node9</title>
<g id="a_node9"><a xlink:href="ui_8cpp.html" target="_top" xlink:title=" ">
<polygon fill="white" stroke="#666666" points="830,-19 771,-19 771,0 830,0 830,-19"/>
<text text-anchor="middle" x="800.5" y="-7" font-family="Helvetica,sans-Serif" font-size="10.00">src/ui.cpp</text>
</a>
</g>
</g>
<!-- Node1&#45;&gt;Node9 -->
<g id="edge8" class="edge">
<title>Node1&#45;&gt;Node9</title>
<path fill="none" stroke="#63b8ff" d="M542.04,-57.02C593.63,-48.83 684.26,-33.99 761.5,-19 764.49,-18.42 767.61,-17.79 770.72,-17.14"/>
<polygon fill="#63b8ff" stroke="#63b8ff" points="541.55,-53.55 532.22,-58.57 542.64,-60.47 541.55,-53.55"/>
</g>
<!-- Node10 -->
<g id="node10" class="node">
<title>Node10</title>
<g id="a_node10"><a xlink:href="uiobject_8cpp.html" target="_top" xlink:title=" ">
<polygon fill="white" stroke="#666666" points="934.5,-19 848.5,-19 848.5,0 934.5,0 934.5,-19"/>
<text text-anchor="middle" x="891.5" y="-7" font-family="Helvetica,sans-Serif" font-size="10.00">src/uiobject.cpp</text>
</a>
</g>
</g>
<!-- Node1&#45;&gt;Node10 -->
<g id="edge9" class="edge">
<title>Node1&#45;&gt;Node10</title>
<path fill="none" stroke="#63b8ff" d="M542.14,-58.46C606.14,-50.62 732.53,-34.76 839.5,-19 842.31,-18.59 845.19,-18.15 848.1,-17.7"/>
<polygon fill="#63b8ff" stroke="#63b8ff" points="541.94,-54.96 532.43,-59.65 542.79,-61.91 541.94,-54.96"/>
</g>
</g>
</svg>
