<?xml version="1.0" encoding="UTF-8" standalone="no"?>
<!DOCTYPE svg PUBLIC "-//W3C//DTD SVG 1.1//EN"
 "http://www.w3.org/Graphics/SVG/1.1/DTD/svg11.dtd">
<!-- Generated by graphviz version 7.1.0 (20230121.1956)
 -->
<!-- Title: src/core.h Pages: 1 -->
<svg width="245pt" height="137pt"
 viewBox="0.00 0.00 245.04 137.00" xmlns="http://www.w3.org/2000/svg" xmlns:xlink="http://www.w3.org/1999/xlink">
<g id="graph0" class="graph" transform="scale(1 1) rotate(0) translate(4 133)">
<title>src/core.h</title>
<!-- Node1 -->
<g id="node1" class="node">
<title>Node1</title>
<g id="a_node1"><a xlink:title=" ">
<polygon fill="#999999" stroke="#666666" points="99.04,-129 39.04,-129 39.04,-110 99.04,-110 99.04,-129"/>
<text text-anchor="middle" x="69.04" y="-117" font-family="Helvetica,sans-Serif" font-size="10.00">src/core.h</text>
</a>
</g>
</g>
<!-- Node2 -->
<g id="node2" class="node">
<title>Node2</title>
<g id="a_node2"><a xlink:title=" ">
<polygon fill="#e0e0e0" stroke="#999999" points="73.04,-19 21.04,-19 21.04,0 73.04,0 73.04,-19"/>
<text text-anchor="middle" x="47.04" y="-7" font-family="Helvetica,sans-Serif" font-size="10.00">memory</text>
</a>
</g>
</g>
<!-- Node1&#45;&gt;Node2 -->
<g id="edge1" class="edge">
<title>Node1&#45;&gt;Node2</title>
<path fill="none" stroke="#63b8ff" d="M45.6,-109.58C30.47,-102.45 11.99,-90.84 3.04,-74 -6.09,-56.84 9.22,-38.76 24.22,-26.3"/>
<polygon fill="#63b8ff" stroke="#63b8ff" points="26.3,-29.11 32.1,-20.25 22.04,-23.56 26.3,-29.11"/>
</g>
<!-- Node3 -->
<g id="node3" class="node">
<title>Node3</title>
<g id="a_node3"><a xlink:title=" ">
<polygon fill="#e0e0e0" stroke="#999999" points="53.54,-74 12.54,-74 12.54,-55 53.54,-55 53.54,-74"/>
<text text-anchor="middle" x="33.04" y="-62" font-family="Helvetica,sans-Serif" font-size="10.00">string</text>
</a>
</g>
</g>
<!-- Node1&#45;&gt;Node3 -->
<g id="edge2" class="edge">
<title>Node1&#45;&gt;Node3</title>
<path fill="none" stroke="#63b8ff" d="M63.09,-109.75C58.33,-102.73 51.47,-92.64 45.52,-83.87"/>
<polygon fill="#63b8ff" stroke="#63b8ff" points="48.47,-82 39.96,-75.69 42.68,-85.93 48.47,-82"/>
</g>
<!-- Node4 -->
<g id="node4" class="node">
<title>Node4</title>
<g id="a_node4"><a xlink:title=" ">
<polygon fill="#e0e0e0" stroke="#999999" points="140.04,-74 72.04,-74 72.04,-55 140.04,-55 140.04,-74"/>
<text text-anchor="middle" x="106.04" y="-62" font-family="Helvetica,sans-Serif" font-size="10.00">glm/ext.hpp</text>
</a>
</g>
</g>
<!-- Node1&#45;&gt;Node4 -->
<g id="edge3" class="edge">
<title>Node1&#45;&gt;Node4</title>
<path fill="none" stroke="#63b8ff" d="M75.15,-109.75C80.04,-102.73 87.09,-92.64 93.21,-83.87"/>
<polygon fill="#63b8ff" stroke="#63b8ff" points="96.07,-85.89 98.93,-75.68 90.33,-81.88 96.07,-85.89"/>
</g>
<!-- Node5 -->
<g id="node5" class="node">
<title>Node5</title>
<g id="a_node5"><a xlink:href="event_8h.html" target="_top" xlink:title=" ">
<polygon fill="white" stroke="#666666" points="205.54,-74 158.54,-74 158.54,-55 205.54,-55 205.54,-74"/>
<text text-anchor="middle" x="182.04" y="-62" font-family="Helvetica,sans-Serif" font-size="10.00">event.h</text>
</a>
</g>
</g>
<!-- Node1&#45;&gt;Node5 -->
<g id="edge4" class="edge">
<title>Node1&#45;&gt;Node5</title>
<path fill="none" stroke="#63b8ff" d="M88.21,-109.51C105.93,-101.2 132.51,-88.73 152.87,-79.18"/>
<polygon fill="#63b8ff" stroke="#63b8ff" points="154.21,-82.42 161.78,-75 151.24,-76.08 154.21,-82.42"/>
</g>
<!-- Node5&#45;&gt;Node2 -->
<g id="edge7" class="edge">
<title>Node5&#45;&gt;Node2</title>
<path fill="none" stroke="#63b8ff" d="M159.14,-54.51C137.48,-46.01 104.73,-33.15 80.21,-23.53"/>
<polygon fill="#63b8ff" stroke="#63b8ff" points="81.6,-20.31 71.01,-19.91 79.04,-26.82 81.6,-20.31"/>
</g>
<!-- Node6 -->
<g id="node6" class="node">
<title>Node6</title>
<g id="a_node6"><a xlink:title=" ">
<polygon fill="#e0e0e0" stroke="#999999" points="177.04,-19 119.04,-19 119.04,0 177.04,0 177.04,-19"/>
<text text-anchor="middle" x="148.04" y="-7" font-family="Helvetica,sans-Serif" font-size="10.00">functional</text>
</a>
</g>
</g>
<!-- Node5&#45;&gt;Node6 -->
<g id="edge5" class="edge">
<title>Node5&#45;&gt;Node6</title>
<path fill="none" stroke="#63b8ff" d="M176.42,-54.75C171.92,-47.73 165.45,-37.64 159.82,-28.87"/>
<polygon fill="#63b8ff" stroke="#63b8ff" points="162.94,-27.24 154.59,-20.72 157.04,-31.02 162.94,-27.24"/>
</g>
<!-- Node7 -->
<g id="node7" class="node">
<title>Node7</title>
<g id="a_node7"><a xlink:title=" ">
<polygon fill="#e0e0e0" stroke="#999999" points="237.04,-19 195.04,-19 195.04,0 237.04,0 237.04,-19"/>
<text text-anchor="middle" x="216.04" y="-7" font-family="Helvetica,sans-Serif" font-size="10.00">vector</text>
</a>
</g>
</g>
<!-- Node5&#45;&gt;Node7 -->
<g id="edge6" class="edge">
<title>Node5&#45;&gt;Node7</title>
<path fill="none" stroke="#63b8ff" d="M187.65,-54.75C192.15,-47.73 198.62,-37.64 204.25,-28.87"/>
<polygon fill="#63b8ff" stroke="#63b8ff" points="207.03,-31.02 209.48,-20.72 201.14,-27.24 207.03,-31.02"/>
</g>
</g>
</svg>
