<?xml version="1.0" encoding="UTF-8" standalone="no"?>
<!DOCTYPE svg PUBLIC "-//W3C//DTD SVG 1.1//EN"
 "http://www.w3.org/Graphics/SVG/1.1/DTD/svg11.dtd">
<!-- Generated by graphviz version 7.1.0 (20230121.1956)
 -->
<!-- Title: src/event.h Pages: 1 -->
<!--zoomable 302 -->
<svg id="main" version="1.1" xmlns="http://www.w3.org/2000/svg" xmlns:xlink="http://www.w3.org/1999/xlink" xml:space="preserve" onload="init(evt)">
<style type="text/css"><![CDATA[
.edge:hover path { stroke: red; }
.edge:hover polygon { stroke: red; fill: red; }
]]></style>
<script type="text/javascript"><![CDATA[
var edges = document.getElementsByTagName('g');
if (edges && edges.length) {
  for (var i=0;i<edges.length;i++) {
    if (edges[i].id.substr(0,4)=='edge') {
      edges[i].setAttribute('class','edge');
    }
  }
}
]]></script>
        <defs>
                <circle id="rim" cx="0" cy="0" r="7"/>
                <circle id="rim2" cx="0" cy="0" r="3.5"/>
                <g id="zoomPlus">
                        <use xlink:href="#rim" fill="#404040">
                                <set attributeName="fill" to="#808080" begin="zoomplus.mouseover" end="zoomplus.mouseout"/>
                        </use>
                        <path d="M-4,0h8M0,-4v8" fill="none" stroke="white" stroke-width="1.5" pointer-events="none"/>
                </g>
                <g id="zoomMin">
                        <use xlink:href="#rim" fill="#404040">
                                <set attributeName="fill" to="#808080" begin="zoomminus.mouseover" end="zoomminus.mouseout"/>
                        </use>
                        <path d="M-4,0h8" fill="none" stroke="white" stroke-width="1.5" pointer-events="none"/>
                </g>
                <g id="dirArrow">
                        <path fill="none" stroke="white" stroke-width="1.5" d="M0,-3.0v7 M-2.5,-0.5L0,-3.0L2.5,-0.5"/>
                </g>
               <g id="resetDef">
                       <use xlink:href="#rim2" fill="#404040">
                               <set attributeName="fill" to="#808080" begin="reset.mouseover" end="reset.mouseout"/>
                       </use>
               </g>
        </defs>

<script type="text/javascript">
var viewWidth = 1154;
var viewHeight = 302;
var sectionId = 'dynsection-1';
</script>
<script xlink:href="svgpan.js"/>
<svg id="graph" class="graph">
<g id="viewport">
<title>src/event.h</title>
<!-- Node1 -->
<g id="node1" class="node">
<title>Node1</title>
<g id="a_node1"><a xlink:title=" ">
<polygon fill="#999999" stroke="#666666" points="660.19,-294 596.19,-294 596.19,-275 660.19,-275 660.19,-294"/>
<text text-anchor="middle" x="628.19" y="-282" font-family="Helvetica,sans-Serif" font-size="10.00">src/event.h</text>
</a>
</g>
</g>
<!-- Node2 -->
<g id="node2" class="node">
<title>Node2</title>
<g id="a_node2"><a xlink:href="core_8h.html" target="_top" xlink:title=" ">
<polygon fill="white" stroke="#666666" points="449.19,-129 389.19,-129 389.19,-110 449.19,-110 449.19,-129"/>
<text text-anchor="middle" x="419.19" y="-117" font-family="Helvetica,sans-Serif" font-size="10.00">src/core.h</text>
</a>
</g>
</g>
<!-- Node1&#45;&gt;Node2 -->
<g id="edge1" class="edge">
<title>Node1&#45;&gt;Node2</title>
<path fill="none" stroke="#63b8ff" d="M607.59,-267.44C564.19,-233.59 464.54,-155.87 430.69,-129.47"/>
<polygon fill="#63b8ff" stroke="#63b8ff" points="605.42,-270.18 615.46,-273.57 609.73,-264.66 605.42,-270.18"/>
</g>
<!-- Node12 -->
<g id="node12" class="node">
<title>Node12</title>
<g id="a_node12"><a xlink:href="instance_8h.html" target="_top" xlink:title=" ">
<polygon fill="white" stroke="#666666" points="742.19,-239 664.19,-239 664.19,-220 742.19,-220 742.19,-239"/>
<text text-anchor="middle" x="703.19" y="-227" font-family="Helvetica,sans-Serif" font-size="10.00">src/instance.h</text>
</a>
</g>
</g>
<!-- Node1&#45;&gt;Node12 -->
<g id="edge11" class="edge">
<title>Node1&#45;&gt;Node12</title>
<path fill="none" stroke="#63b8ff" d="M650.24,-267.92C663.41,-258.61 679.66,-247.13 690.65,-239.36"/>
<polygon fill="#63b8ff" stroke="#63b8ff" points="648.29,-265.01 642.15,-273.64 652.33,-270.72 648.29,-265.01"/>
</g>
<!-- Node3 -->
<g id="node3" class="node">
<title>Node3</title>
<g id="a_node3"><a xlink:href="core_8cpp.html" target="_top" xlink:title=" ">
<polygon fill="white" stroke="#666666" points="842.69,-19 771.69,-19 771.69,0 842.69,0 842.69,-19"/>
<text text-anchor="middle" x="807.19" y="-7" font-family="Helvetica,sans-Serif" font-size="10.00">src/core.cpp</text>
</a>
</g>
</g>
<!-- Node2&#45;&gt;Node3 -->
<g id="edge2" class="edge">
<title>Node2&#45;&gt;Node3</title>
<path fill="none" stroke="#63b8ff" d="M439.17,-102.53C460.63,-85.7 493.59,-60.83 508.19,-55 614.48,-12.55 650.3,-37.86 763.19,-19 765.8,-18.56 768.49,-18.09 771.2,-17.61"/>
<polygon fill="#63b8ff" stroke="#63b8ff" points="437.09,-99.71 431.42,-108.66 441.43,-105.2 437.09,-99.71"/>
</g>
<!-- Node4 -->
<g id="node4" class="node">
<title>Node4</title>
<g id="a_node4"><a xlink:href="fluidsimulator_8cpp.html" target="_top" xlink:title=" ">
<polygon fill="white" stroke="#666666" points="122.69,-74 13.69,-74 13.69,-55 122.69,-55 122.69,-74"/>
<text text-anchor="middle" x="68.19" y="-62" font-family="Helvetica,sans-Serif" font-size="10.00">src/fluidsimulator.cpp</text>
</a>
</g>
</g>
<!-- Node2&#45;&gt;Node4 -->
<g id="edge3" class="edge">
<title>Node2&#45;&gt;Node4</title>
<path fill="none" stroke="#63b8ff" d="M377.83,-112.25C314.49,-102.69 193.42,-84.41 122.89,-73.76"/>
<polygon fill="#63b8ff" stroke="#63b8ff" points="377.05,-115.68 387.46,-113.71 378.1,-108.76 377.05,-115.68"/>
</g>
<!-- Node5 -->
<g id="node5" class="node">
<title>Node5</title>
<g id="a_node5"><a xlink:href="main_8cpp.html" target="_top" xlink:title=" ">
<polygon fill="white" stroke="#666666" points="213.69,-74 140.69,-74 140.69,-55 213.69,-55 213.69,-74"/>
<text text-anchor="middle" x="177.19" y="-62" font-family="Helvetica,sans-Serif" font-size="10.00">src/main.cpp</text>
</a>
</g>
</g>
<!-- Node2&#45;&gt;Node5 -->
<g id="edge4" class="edge">
<title>Node2&#45;&gt;Node5</title>
<path fill="none" stroke="#63b8ff" d="M377.97,-109.47C331.97,-99.4 258.23,-83.25 214.07,-73.58"/>
<polygon fill="#63b8ff" stroke="#63b8ff" points="377.03,-112.85 387.55,-111.57 378.53,-106.01 377.03,-112.85"/>
</g>
<!-- Node6 -->
<g id="node6" class="node">
<title>Node6</title>
<g id="a_node6"><a xlink:href="particlesimulator_8cpp.html" target="_top" xlink:title=" ">
<polygon fill="white" stroke="#666666" points="753.69,-19 630.69,-19 630.69,0 753.69,0 753.69,-19"/>
<text text-anchor="middle" x="692.19" y="-7" font-family="Helvetica,sans-Serif" font-size="10.00">src/particlesimulator.cpp</text>
</a>
</g>
</g>
<!-- Node2&#45;&gt;Node6 -->
<g id="edge5" class="edge">
<title>Node2&#45;&gt;Node6</title>
<path fill="none" stroke="#63b8ff" d="M430.02,-100.44C439.74,-85.86 455.35,-66.02 474.19,-55 522.04,-27.02 584.74,-16.42 630.61,-12.52"/>
<polygon fill="#63b8ff" stroke="#63b8ff" points="427.22,-98.32 424.83,-108.65 433.13,-102.06 427.22,-98.32"/>
</g>
<!-- Node7 -->
<g id="node7" class="node">
<title>Node7</title>
<g id="a_node7"><a xlink:href="rendertarget_8cpp.html" target="_top" xlink:title=" ">
<polygon fill="white" stroke="#666666" points="336.19,-74 232.19,-74 232.19,-55 336.19,-55 336.19,-74"/>
<text text-anchor="middle" x="284.19" y="-62" font-family="Helvetica,sans-Serif" font-size="10.00">src/rendertarget.cpp</text>
</a>
</g>
</g>
<!-- Node2&#45;&gt;Node7 -->
<g id="edge6" class="edge">
<title>Node2&#45;&gt;Node7</title>
<path fill="none" stroke="#63b8ff" d="M385.63,-105.32C361.02,-95.67 328.29,-82.82 306.75,-74.36"/>
<polygon fill="#63b8ff" stroke="#63b8ff" points="384.29,-108.56 394.88,-108.96 386.85,-102.04 384.29,-108.56"/>
</g>
<!-- Node8 -->
<g id="node8" class="node">
<title>Node8</title>
<g id="a_node8"><a xlink:href="simulation_8cpp.html" target="_top" xlink:title=" ">
<polygon fill="white" stroke="#666666" points="323.19,-19 227.19,-19 227.19,0 323.19,0 323.19,-19"/>
<text text-anchor="middle" x="275.19" y="-7" font-family="Helvetica,sans-Serif" font-size="10.00">src/simulation.cpp</text>
</a>
</g>
</g>
<!-- Node2&#45;&gt;Node8 -->
<g id="edge7" class="edge">
<title>Node2&#45;&gt;Node8</title>
<path fill="none" stroke="#63b8ff" d="M377.42,-117.12C277.07,-113.39 28.85,-101.45 4.19,-74 -1.46,-67.72 -1.28,-61.44 4.19,-55 32.2,-22.02 156.71,-13.44 226.81,-11.23"/>
<polygon fill="#63b8ff" stroke="#63b8ff" points="377.27,-120.62 387.39,-117.49 377.52,-113.63 377.27,-120.62"/>
</g>
<!-- Node9 -->
<g id="node9" class="node">
<title>Node9</title>
<g id="a_node9"><a xlink:href="text_8cpp.html" target="_top" xlink:title=" ">
<polygon fill="white" stroke="#666666" points="422.19,-74 354.19,-74 354.19,-55 422.19,-55 422.19,-74"/>
<text text-anchor="middle" x="388.19" y="-62" font-family="Helvetica,sans-Serif" font-size="10.00">src/text.cpp</text>
</a>
</g>
</g>
<!-- Node2&#45;&gt;Node9 -->
<g id="edge8" class="edge">
<title>Node2&#45;&gt;Node9</title>
<path fill="none" stroke="#63b8ff" d="M408.41,-100.08C403.34,-91.4 397.51,-81.44 393.42,-74.44"/>
<polygon fill="#63b8ff" stroke="#63b8ff" points="405.24,-101.58 413.31,-108.44 411.28,-98.04 405.24,-101.58"/>
</g>
<!-- Node10 -->
<g id="node10" class="node">
<title>Node10</title>
<g id="a_node10"><a xlink:href="ui_8cpp.html" target="_top" xlink:title=" ">
<polygon fill="white" stroke="#666666" points="575.69,-74 516.69,-74 516.69,-55 575.69,-55 575.69,-74"/>
<text text-anchor="middle" x="546.19" y="-62" font-family="Helvetica,sans-Serif" font-size="10.00">src/ui.cpp</text>
</a>
</g>
</g>
<!-- Node2&#45;&gt;Node10 -->
<g id="edge9" class="edge">
<title>Node2&#45;&gt;Node10</title>
<path fill="none" stroke="#63b8ff" d="M451.08,-105.19C474.18,-95.55 504.79,-82.78 524.96,-74.36"/>
<polygon fill="#63b8ff" stroke="#63b8ff" points="450.01,-101.84 442.13,-108.93 452.71,-108.31 450.01,-101.84"/>
</g>
<!-- Node11 -->
<g id="node11" class="node">
<title>Node11</title>
<g id="a_node11"><a xlink:href="uiobject_8cpp.html" target="_top" xlink:title=" ">
<polygon fill="white" stroke="#666666" points="680.19,-74 594.19,-74 594.19,-55 680.19,-55 680.19,-74"/>
<text text-anchor="middle" x="637.19" y="-62" font-family="Helvetica,sans-Serif" font-size="10.00">src/uiobject.cpp</text>
</a>
</g>
</g>
<!-- Node2&#45;&gt;Node11 -->
<g id="edge10" class="edge">
<title>Node2&#45;&gt;Node11</title>
<path fill="none" stroke="#63b8ff" d="M460.54,-108.45C500.82,-98.65 561.5,-83.9 600.22,-74.49"/>
<polygon fill="#63b8ff" stroke="#63b8ff" points="459.86,-105.01 450.97,-110.77 461.51,-111.81 459.86,-105.01"/>
</g>
<!-- Node13 -->
<g id="node13" class="node">
<title>Node13</title>
<g id="a_node13"><a xlink:href="instance_8cpp.html" target="_top" xlink:title=" ">
<polygon fill="white" stroke="#666666" points="1145.69,-19 1056.69,-19 1056.69,0 1145.69,0 1145.69,-19"/>
<text text-anchor="middle" x="1101.19" y="-7" font-family="Helvetica,sans-Serif" font-size="10.00">src/instance.cpp</text>
</a>
</g>
</g>
<!-- Node12&#45;&gt;Node13 -->
<g id="edge12" class="edge">
<title>Node12&#45;&gt;Node13</title>
<path fill="none" stroke="#63b8ff" d="M753.36,-219.84C830.69,-204.02 979.35,-163.48 1068.19,-74 1084.12,-57.95 1094.08,-32.63 1098.5,-19.33"/>
<polygon fill="#63b8ff" stroke="#63b8ff" points="753.09,-216.32 743.96,-221.7 754.45,-223.19 753.09,-216.32"/>
</g>
<!-- Node14 -->
<g id="node14" class="node">
<title>Node14</title>
<g id="a_node14"><a xlink:href="ui_8h.html" target="_top" xlink:title=" ">
<polygon fill="white" stroke="#666666" points="760.69,-184 711.69,-184 711.69,-165 760.69,-165 760.69,-184"/>
<text text-anchor="middle" x="736.19" y="-172" font-family="Helvetica,sans-Serif" font-size="10.00">src/ui.h</text>
</a>
</g>
</g>
<!-- Node12&#45;&gt;Node14 -->
<g id="edge13" class="edge">
<title>Node12&#45;&gt;Node14</title>
<path fill="none" stroke="#63b8ff" d="M714.66,-210.08C720.06,-201.4 726.27,-191.44 730.62,-184.44"/>
<polygon fill="#63b8ff" stroke="#63b8ff" points="711.75,-208.12 709.44,-218.46 717.69,-211.82 711.75,-208.12"/>
</g>
<!-- Node17 -->
<g id="node17" class="node">
<title>Node17</title>
<g id="a_node17"><a xlink:href="uiobject_8h.html" target="_top" xlink:title=" ">
<polygon fill="white" stroke="#666666" points="690.69,-129 615.69,-129 615.69,-110 690.69,-110 690.69,-129"/>
<text text-anchor="middle" x="653.19" y="-117" font-family="Helvetica,sans-Serif" font-size="10.00">src/uiobject.h</text>
</a>
</g>
</g>
<!-- Node12&#45;&gt;Node17 -->
<g id="edge34" class="edge">
<title>Node12&#45;&gt;Node17</title>
<path fill="none" stroke="#63b8ff" d="M694.26,-209.22C683.37,-185.69 665.4,-146.89 657.34,-129.46"/>
<polygon fill="#63b8ff" stroke="#63b8ff" points="691.08,-210.68 698.46,-218.29 697.44,-207.74 691.08,-210.68"/>
</g>
<!-- Node14&#45;&gt;Node3 -->
<g id="edge14" class="edge">
<title>Node14&#45;&gt;Node3</title>
<path fill="none" stroke="#63b8ff" d="M771.87,-166.72C793.03,-160.67 818.18,-149.45 831.19,-129 853.94,-93.22 825.84,-40.12 812.98,-19.32"/>
<polygon fill="#63b8ff" stroke="#63b8ff" points="771.23,-163.27 762.41,-169.13 772.96,-170.05 771.23,-163.27"/>
</g>
<!-- Node14&#45;&gt;Node10 -->
<g id="edge21" class="edge">
<title>Node14&#45;&gt;Node10</title>
<path fill="none" stroke="#63b8ff" d="M700.44,-166C673.35,-159.22 636.01,-147.42 607.19,-129 583.49,-113.85 562.35,-87.67 552.33,-74.15"/>
<polygon fill="#63b8ff" stroke="#63b8ff" points="699.35,-169.34 709.89,-168.26 700.97,-162.53 699.35,-169.34"/>
</g>
<!-- Node14&#45;&gt;Node13 -->
<g id="edge15" class="edge">
<title>Node14&#45;&gt;Node13</title>
<path fill="none" stroke="#63b8ff" d="M772.01,-168.19C832.29,-157.95 956.04,-131.23 1044.19,-74 1067.05,-59.16 1086.49,-32.85 1095.62,-19.22"/>
<polygon fill="#63b8ff" stroke="#63b8ff" points="771.63,-164.7 762.33,-169.78 772.76,-171.61 771.63,-164.7"/>
</g>
<!-- Node15 -->
<g id="node15" class="node">
<title>Node15</title>
<g id="a_node15"><a xlink:href="particlesimulator_8h.html" target="_top" xlink:title=" ">
<polygon fill="white" stroke="#666666" points="821.69,-129 708.69,-129 708.69,-110 821.69,-110 821.69,-129"/>
<text text-anchor="middle" x="765.19" y="-117" font-family="Helvetica,sans-Serif" font-size="10.00">src/particlesimulator.h</text>
</a>
</g>
</g>
<!-- Node14&#45;&gt;Node15 -->
<g id="edge16" class="edge">
<title>Node14&#45;&gt;Node15</title>
<path fill="none" stroke="#63b8ff" d="M746.43,-154.79C751.14,-146.18 756.51,-136.36 760.3,-129.44"/>
<polygon fill="#63b8ff" stroke="#63b8ff" points="743.43,-152.97 741.7,-163.42 749.57,-156.33 743.43,-152.97"/>
</g>
<!-- Node14&#45;&gt;Node17 -->
<g id="edge22" class="edge">
<title>Node14&#45;&gt;Node17</title>
<path fill="none" stroke="#63b8ff" d="M712.64,-158.46C697.92,-149.06 679.47,-137.28 667.06,-129.36"/>
<polygon fill="#63b8ff" stroke="#63b8ff" points="710.52,-161.26 720.83,-163.69 714.29,-155.36 710.52,-161.26"/>
</g>
<!-- Node15&#45;&gt;Node6 -->
<g id="edge17" class="edge">
<title>Node15&#45;&gt;Node6</title>
<path fill="none" stroke="#63b8ff" d="M781.83,-101.25C792.5,-88.02 802.72,-69.62 793.19,-55 781.26,-36.7 759.92,-25.88 739.93,-19.5"/>
<polygon fill="#63b8ff" stroke="#63b8ff" points="779.25,-98.89 775.26,-108.7 784.5,-103.52 779.25,-98.89"/>
</g>
<!-- Node16 -->
<g id="node16" class="node">
<title>Node16</title>
<g id="a_node16"><a xlink:href="simulation_8h.html" target="_top" xlink:title=" ">
<polygon fill="white" stroke="#666666" points="784.19,-74 698.19,-74 698.19,-55 784.19,-55 784.19,-74"/>
<text text-anchor="middle" x="741.19" y="-62" font-family="Helvetica,sans-Serif" font-size="10.00">src/simulation.h</text>
</a>
</g>
</g>
<!-- Node15&#45;&gt;Node16 -->
<g id="edge18" class="edge">
<title>Node15&#45;&gt;Node16</title>
<path fill="none" stroke="#63b8ff" d="M756.59,-99.5C752.72,-90.96 748.34,-81.28 745.24,-74.44"/>
<polygon fill="#63b8ff" stroke="#63b8ff" points="753.29,-100.7 760.6,-108.37 759.66,-97.82 753.29,-100.7"/>
</g>
<!-- Node16&#45;&gt;Node3 -->
<g id="edge19" class="edge">
<title>Node16&#45;&gt;Node3</title>
<path fill="none" stroke="#63b8ff" d="M761.28,-47.37C772.74,-38.16 786.67,-26.98 796.16,-19.36"/>
<polygon fill="#63b8ff" stroke="#63b8ff" points="759.17,-44.57 753.56,-53.56 763.55,-50.03 759.17,-44.57"/>
</g>
<!-- Node16&#45;&gt;Node8 -->
<g id="edge20" class="edge">
<title>Node16&#45;&gt;Node8</title>
<path fill="none" stroke="#63b8ff" d="M686.65,-54.72C549,-36.34 398.71,-21.75 323.42,-14.82"/>
<polygon fill="#63b8ff" stroke="#63b8ff" points="685.93,-58.16 696.3,-56.02 686.86,-51.22 685.93,-58.16"/>
</g>
<!-- Node17&#45;&gt;Node10 -->
<g id="edge23" class="edge">
<title>Node17&#45;&gt;Node10</title>
<path fill="none" stroke="#63b8ff" d="M624.72,-104.4C605.46,-94.86 580.61,-82.55 564.07,-74.36"/>
<polygon fill="#63b8ff" stroke="#63b8ff" points="623.17,-107.54 633.68,-108.84 626.27,-101.26 623.17,-107.54"/>
</g>
<!-- Node17&#45;&gt;Node11 -->
<g id="edge28" class="edge">
<title>Node17&#45;&gt;Node11</title>
<path fill="none" stroke="#63b8ff" d="M647.28,-98.93C644.74,-90.53 641.91,-81.13 639.89,-74.44"/>
<polygon fill="#63b8ff" stroke="#63b8ff" points="643.87,-99.74 650.11,-108.3 650.57,-97.71 643.87,-99.74"/>
</g>
<!-- Node18 -->
<g id="node18" class="node">
<title>Node18</title>
<g id="a_node18"><a xlink:href="uiframe_8h.html" target="_top" xlink:title=" ">
<polygon fill="white" stroke="#666666" points="1034.69,-74 961.69,-74 961.69,-55 1034.69,-55 1034.69,-74"/>
<text text-anchor="middle" x="998.19" y="-62" font-family="Helvetica,sans-Serif" font-size="10.00">src/uiframe.h</text>
</a>
</g>
</g>
<!-- Node17&#45;&gt;Node18 -->
<g id="edge24" class="edge">
<title>Node17&#45;&gt;Node18</title>
<path fill="none" stroke="#63b8ff" d="M702.23,-109.73C814.2,-91.91 844.64,-91.97 953.19,-74 955.86,-73.56 958.61,-73.08 961.38,-72.59"/>
<polygon fill="#63b8ff" stroke="#63b8ff" points="701.95,-106.23 692.63,-111.27 703.06,-113.14 701.95,-106.23"/>
</g>
<!-- Node20 -->
<g id="node20" class="node">
<title>Node20</title>
<g id="a_node20"><a xlink:href="uitext_8h.html" target="_top" xlink:title=" ">
<polygon fill="white" stroke="#666666" points="943.69,-74 878.69,-74 878.69,-55 943.69,-55 943.69,-74"/>
<text text-anchor="middle" x="911.19" y="-62" font-family="Helvetica,sans-Serif" font-size="10.00">src/uitext.h</text>
</a>
</g>
</g>
<!-- Node17&#45;&gt;Node20 -->
<g id="edge29" class="edge">
<title>Node17&#45;&gt;Node20</title>
<path fill="none" stroke="#63b8ff" d="M702.18,-108.44C753.79,-97.83 833.63,-81.43 878.21,-72.27"/>
<polygon fill="#63b8ff" stroke="#63b8ff" points="701.55,-104.99 692.46,-110.43 702.96,-111.85 701.55,-104.99"/>
</g>
<!-- Node18&#45;&gt;Node3 -->
<g id="edge25" class="edge">
<title>Node18&#45;&gt;Node3</title>
<path fill="none" stroke="#63b8ff" d="M954.91,-51.49C919.83,-41.76 871.16,-28.25 839.43,-19.45"/>
<polygon fill="#63b8ff" stroke="#63b8ff" points="953.76,-54.8 964.33,-54.1 955.63,-48.06 953.76,-54.8"/>
</g>
<!-- Node18&#45;&gt;Node13 -->
<g id="edge26" class="edge">
<title>Node18&#45;&gt;Node13</title>
<path fill="none" stroke="#63b8ff" d="M1025.85,-49.27C1044.35,-39.74 1068.13,-27.51 1083.97,-19.36"/>
<polygon fill="#63b8ff" stroke="#63b8ff" points="1024.3,-46.13 1017.01,-53.82 1027.5,-52.35 1024.3,-46.13"/>
</g>
<!-- Node19 -->
<g id="node19" class="node">
<title>Node19</title>
<g id="a_node19"><a xlink:href="uiframe_8cpp.html" target="_top" xlink:title=" ">
<polygon fill="white" stroke="#666666" points="1038.69,-19 955.69,-19 955.69,0 1038.69,0 1038.69,-19"/>
<text text-anchor="middle" x="997.19" y="-7" font-family="Helvetica,sans-Serif" font-size="10.00">src/uiframe.cpp</text>
</a>
</g>
</g>
<!-- Node18&#45;&gt;Node19 -->
<g id="edge27" class="edge">
<title>Node18&#45;&gt;Node19</title>
<path fill="none" stroke="#63b8ff" d="M997.81,-43.35C997.65,-35.1 997.48,-25.97 997.36,-19.44"/>
<polygon fill="#63b8ff" stroke="#63b8ff" points="994.31,-43.3 997.99,-53.23 1001.31,-43.17 994.31,-43.3"/>
</g>
<!-- Node20&#45;&gt;Node3 -->
<g id="edge30" class="edge">
<title>Node20&#45;&gt;Node3</title>
<path fill="none" stroke="#63b8ff" d="M883.52,-49.4C864.8,-39.86 840.64,-27.55 824.57,-19.36"/>
<polygon fill="#63b8ff" stroke="#63b8ff" points="881.7,-52.4 892.2,-53.82 884.88,-46.16 881.7,-52.4"/>
</g>
<!-- Node20&#45;&gt;Node6 -->
<g id="edge32" class="edge">
<title>Node20&#45;&gt;Node6</title>
<path fill="none" stroke="#63b8ff" d="M867.26,-52.87C826.78,-43.07 767.37,-28.69 729.23,-19.47"/>
<polygon fill="#63b8ff" stroke="#63b8ff" points="866.39,-56.26 876.93,-55.21 868.03,-49.46 866.39,-56.26"/>
</g>
<!-- Node20&#45;&gt;Node13 -->
<g id="edge31" class="edge">
<title>Node20&#45;&gt;Node13</title>
<path fill="none" stroke="#63b8ff" d="M954.24,-51.49C989.14,-41.76 1037.55,-28.25 1069.12,-19.45"/>
<polygon fill="#63b8ff" stroke="#63b8ff" points="953.57,-48.04 944.88,-54.1 955.45,-54.79 953.57,-48.04"/>
</g>
<!-- Node21 -->
<g id="node21" class="node">
<title>Node21</title>
<g id="a_node21"><a xlink:href="uitext_8cpp.html" target="_top" xlink:title=" ">
<polygon fill="white" stroke="#666666" points="937.19,-19 861.19,-19 861.19,0 937.19,0 937.19,-19"/>
<text text-anchor="middle" x="899.19" y="-7" font-family="Helvetica,sans-Serif" font-size="10.00">src/uitext.cpp</text>
</a>
</g>
</g>
<!-- Node20&#45;&gt;Node21 -->
<g id="edge33" class="edge">
<title>Node20&#45;&gt;Node21</title>
<path fill="none" stroke="#63b8ff" d="M906.69,-43.64C904.81,-35.31 902.71,-26.05 901.21,-19.44"/>
<polygon fill="#63b8ff" stroke="#63b8ff" points="903.25,-44.29 908.87,-53.27 910.08,-42.75 903.25,-44.29"/>
</g>
</g>
</svg>
        <g id="navigator" transform="translate(0 0)" fill="#404254">
                <rect fill="#f2f5e9" fill-opacity="0.5" stroke="#606060" stroke-width=".5" x="0" y="0" width="60" height="60"/>
                <use id="zoomplus" xlink:href="#zoomPlus" x="17" y="9" onmousedown="handleZoom(evt,'in')"/>
                <use id="zoomminus" xlink:href="#zoomMin" x="42" y="9" onmousedown="handleZoom(evt,'out')"/>
                <use id="reset" xlink:href="#resetDef" x="30" y="36" onmousedown="handleReset()"/>
                <g id="arrowUp" xlink:href="#dirArrow" transform="translate(30 24)" onmousedown="handlePan(0,-1)">
                  <use xlink:href="#rim" fill="#404040">
                        <set attributeName="fill" to="#808080" begin="arrowUp.mouseover" end="arrowUp.mouseout"/>
                  </use>
                  <path fill="none" stroke="white" stroke-width="1.5" d="M0,-3.0v7 M-2.5,-0.5L0,-3.0L2.5,-0.5"/>
                </g>
                <g id="arrowRight" xlink:href="#dirArrow" transform="rotate(90) translate(36 -43)" onmousedown="handlePan(1,0)">
                  <use xlink:href="#rim" fill="#404040">
                        <set attributeName="fill" to="#808080" begin="arrowRight.mouseover" end="arrowRight.mouseout"/>
                  </use>
                  <path fill="none" stroke="white" stroke-width="1.5" d="M0,-3.0v7 M-2.5,-0.5L0,-3.0L2.5,-0.5"/>
                </g>
                <g id="arrowDown" xlink:href="#dirArrow" transform="rotate(180) translate(-30 -48)" onmousedown="handlePan(0,1)">
                  <use xlink:href="#rim" fill="#404040">
                        <set attributeName="fill" to="#808080" begin="arrowDown.mouseover" end="arrowDown.mouseout"/>
                  </use>
                  <path fill="none" stroke="white" stroke-width="1.5" d="M0,-3.0v7 M-2.5,-0.5L0,-3.0L2.5,-0.5"/>
                </g>
                <g id="arrowLeft" xlink:href="#dirArrow" transform="rotate(270) translate(-36 17)" onmousedown="handlePan(-1,0)">
                  <use xlink:href="#rim" fill="#404040">
                        <set attributeName="fill" to="#808080" begin="arrowLeft.mouseover" end="arrowLeft.mouseout"/>
                  </use>
                  <path fill="none" stroke="white" stroke-width="1.5" d="M0,-3.0v7 M-2.5,-0.5L0,-3.0L2.5,-0.5"/>
                </g>
        </g>
        <svg viewBox="0 0 15 15" width="100%" height="30px" preserveAspectRatio="xMaxYMin meet">
         <g id="arrow_out" transform="scale(0.3 0.3)">
          <a xlink:href="event_8h__dep__incl_org.svg" target="_base">
           <rect id="button" ry="5" rx="5" y="6" x="6" height="38" width="38"
                fill="#f2f5e9" fill-opacity="0.5" stroke="#606060" stroke-width="1.0"/>
           <path id="arrow"
             d="M 11.500037,31.436501 C 11.940474,20.09759 22.043105,11.32322 32.158766,21.979434 L 37.068811,17.246167 C 37.068811,17.246167 37.088388,32 37.088388,32 L 22.160133,31.978069 C 22.160133,31.978069 26.997745,27.140456 26.997745,27.140456 C 18.528582,18.264221 13.291696,25.230495 11.500037,31.436501 z"
             style="fill:#404040;"/>
          </a>
         </g>
        </svg>
</svg>
