<?xml version="1.0" encoding="UTF-8" standalone="no"?>
<!DOCTYPE svg PUBLIC "-//W3C//DTD SVG 1.1//EN"
 "http://www.w3.org/Graphics/SVG/1.1/DTD/svg11.dtd">
<!-- Generated by graphviz version 7.1.0 (20230121.1956)
 -->
<!-- Title: src/fluidsimulator.h Pages: 1 -->
<svg width="242pt" height="137pt"
 viewBox="0.00 0.00 241.50 137.00" xmlns="http://www.w3.org/2000/svg" xmlns:xlink="http://www.w3.org/1999/xlink">
<g id="graph0" class="graph" transform="scale(1 1) rotate(0) translate(4 133)">
<title>src/fluidsimulator.h</title>
<!-- Node1 -->
<g id="node1" class="node">
<title>Node1</title>
<g id="a_node1"><a xlink:title=" ">
<polygon fill="#999999" stroke="#666666" points="118.5,-129 20.5,-129 20.5,-110 118.5,-110 118.5,-129"/>
<text text-anchor="middle" x="69.5" y="-117" font-family="Helvetica,sans-Serif" font-size="10.00">src/fluidsimulator.h</text>
</a>
</g>
</g>
<!-- Node2 -->
<g id="node2" class="node">
<title>Node2</title>
<g id="a_node2"><a xlink:href="core_8cpp.html" target="_top" xlink:title=" ">
<polygon fill="white" stroke="#666666" points="71,-19 0,-19 0,0 71,0 71,-19"/>
<text text-anchor="middle" x="35.5" y="-7" font-family="Helvetica,sans-Serif" font-size="10.00">src/core.cpp</text>
</a>
</g>
</g>
<!-- Node1&#45;&gt;Node2 -->
<g id="edge1" class="edge">
<title>Node1&#45;&gt;Node2</title>
<path fill="none" stroke="#63b8ff" d="M37.05,-104.18C24.86,-97.01 12.31,-87.02 5.5,-74 -4.55,-54.77 13.88,-31.58 26.04,-19.24"/>
<polygon fill="#63b8ff" stroke="#63b8ff" points="35.27,-107.2 45.74,-108.84 38.58,-101.03 35.27,-107.2"/>
</g>
<!-- Node3 -->
<g id="node3" class="node">
<title>Node3</title>
<g id="a_node3"><a xlink:href="fluidsimulator_8cpp.html" target="_top" xlink:title=" ">
<polygon fill="white" stroke="#666666" points="124,-74 15,-74 15,-55 124,-55 124,-74"/>
<text text-anchor="middle" x="69.5" y="-62" font-family="Helvetica,sans-Serif" font-size="10.00">src/fluidsimulator.cpp</text>
</a>
</g>
</g>
<!-- Node1&#45;&gt;Node3 -->
<g id="edge2" class="edge">
<title>Node1&#45;&gt;Node3</title>
<path fill="none" stroke="#63b8ff" d="M69.5,-98.35C69.5,-90.1 69.5,-80.97 69.5,-74.44"/>
<polygon fill="#63b8ff" stroke="#63b8ff" points="66,-98.23 69.5,-108.23 73,-98.23 66,-98.23"/>
</g>
<!-- Node4 -->
<g id="node4" class="node">
<title>Node4</title>
<g id="a_node4"><a xlink:href="simulation_8h.html" target="_top" xlink:title=" ">
<polygon fill="white" stroke="#666666" points="228.5,-74 142.5,-74 142.5,-55 228.5,-55 228.5,-74"/>
<text text-anchor="middle" x="185.5" y="-62" font-family="Helvetica,sans-Serif" font-size="10.00">src/simulation.h</text>
</a>
</g>
</g>
<!-- Node1&#45;&gt;Node4 -->
<g id="edge3" class="edge">
<title>Node1&#45;&gt;Node4</title>
<path fill="none" stroke="#63b8ff" d="M99.49,-104.8C120.49,-95.2 147.94,-82.66 166.11,-74.36"/>
<polygon fill="#63b8ff" stroke="#63b8ff" points="98.2,-101.54 90.55,-108.88 101.1,-107.91 98.2,-101.54"/>
</g>
<!-- Node4&#45;&gt;Node2 -->
<g id="edge4" class="edge">
<title>Node4&#45;&gt;Node2</title>
<path fill="none" stroke="#63b8ff" d="M149.35,-50.73C121.98,-41.06 85.09,-28.02 60.82,-19.45"/>
<polygon fill="#63b8ff" stroke="#63b8ff" points="148.03,-53.97 158.63,-54.01 150.36,-47.37 148.03,-53.97"/>
</g>
<!-- Node5 -->
<g id="node5" class="node">
<title>Node5</title>
<g id="a_node5"><a xlink:href="simulation_8cpp.html" target="_top" xlink:title=" ">
<polygon fill="white" stroke="#666666" points="233.5,-19 137.5,-19 137.5,0 233.5,0 233.5,-19"/>
<text text-anchor="middle" x="185.5" y="-7" font-family="Helvetica,sans-Serif" font-size="10.00">src/simulation.cpp</text>
</a>
</g>
</g>
<!-- Node4&#45;&gt;Node5 -->
<g id="edge5" class="edge">
<title>Node4&#45;&gt;Node5</title>
<path fill="none" stroke="#63b8ff" d="M185.5,-43.35C185.5,-35.1 185.5,-25.97 185.5,-19.44"/>
<polygon fill="#63b8ff" stroke="#63b8ff" points="182,-43.23 185.5,-53.23 189,-43.23 182,-43.23"/>
</g>
</g>
</svg>
