<?xml version="1.0" encoding="UTF-8" standalone="no"?>
<!DOCTYPE svg PUBLIC "-//W3C//DTD SVG 1.1//EN"
 "http://www.w3.org/Graphics/SVG/1.1/DTD/svg11.dtd">
<!-- Generated by graphviz version 7.1.0 (20230121.1956)
 -->
<!-- Title: src/fluidsimulator.h Pages: 1 -->
<svg width="412pt" height="247pt"
 viewBox="0.00 0.00 411.68 247.00" xmlns="http://www.w3.org/2000/svg" xmlns:xlink="http://www.w3.org/1999/xlink">
<g id="graph0" class="graph" transform="scale(1 1) rotate(0) translate(4 243)">
<title>src/fluidsimulator.h</title>
<!-- Node1 -->
<g id="node1" class="node">
<title>Node1</title>
<g id="a_node1"><a xlink:title=" ">
<polygon fill="#999999" stroke="#666666" points="278.68,-239 180.68,-239 180.68,-220 278.68,-220 278.68,-239"/>
<text text-anchor="middle" x="229.68" y="-227" font-family="Helvetica,sans-Serif" font-size="10.00">src/fluidsimulator.h</text>
</a>
</g>
</g>
<!-- Node2 -->
<g id="node2" class="node">
<title>Node2</title>
<g id="a_node2"><a xlink:title=" ">
<polygon fill="#e0e0e0" stroke="#999999" points="280.68,-19 220.68,-19 220.68,0 280.68,0 280.68,-19"/>
<text text-anchor="middle" x="250.68" y="-7" font-family="Helvetica,sans-Serif" font-size="10.00">GL/glew.h</text>
</a>
</g>
</g>
<!-- Node1&#45;&gt;Node2 -->
<g id="edge1" class="edge">
<title>Node1&#45;&gt;Node2</title>
<path fill="none" stroke="#63b8ff" d="M235.76,-219.65C241.54,-210.91 250.15,-197.01 255.68,-184 275.54,-137.25 279.72,-124.31 286.68,-74 287.83,-65.64 289.49,-62.96 286.68,-55 283.01,-44.63 275.78,-34.91 268.76,-27.21"/>
<polygon fill="#63b8ff" stroke="#63b8ff" points="271.42,-24.92 261.9,-20.27 266.44,-29.84 271.42,-24.92"/>
</g>
<!-- Node3 -->
<g id="node3" class="node">
<title>Node3</title>
<g id="a_node3"><a xlink:title=" ">
<polygon fill="#e0e0e0" stroke="#999999" points="85.68,-184 17.68,-184 17.68,-165 85.68,-165 85.68,-184"/>
<text text-anchor="middle" x="51.68" y="-172" font-family="Helvetica,sans-Serif" font-size="10.00">glm/ext.hpp</text>
</a>
</g>
</g>
<!-- Node1&#45;&gt;Node3 -->
<g id="edge2" class="edge">
<title>Node1&#45;&gt;Node3</title>
<path fill="none" stroke="#63b8ff" d="M199.48,-219.51C170.11,-210.76 125.28,-197.42 92.69,-187.71"/>
<polygon fill="#63b8ff" stroke="#63b8ff" points="93.75,-184.38 83.17,-184.88 91.76,-191.09 93.75,-184.38"/>
</g>
<!-- Node4 -->
<g id="node4" class="node">
<title>Node4</title>
<g id="a_node4"><a xlink:title=" ">
<polygon fill="#e0e0e0" stroke="#999999" points="99.68,-74 47.68,-74 47.68,-55 99.68,-55 99.68,-74"/>
<text text-anchor="middle" x="73.68" y="-62" font-family="Helvetica,sans-Serif" font-size="10.00">memory</text>
</a>
</g>
</g>
<!-- Node1&#45;&gt;Node4 -->
<g id="edge3" class="edge">
<title>Node1&#45;&gt;Node4</title>
<path fill="none" stroke="#63b8ff" d="M180.29,-225.64C121.89,-221.11 29.94,-209.97 8.68,-184 -18.3,-151.05 25.64,-105.26 53.5,-81.4"/>
<polygon fill="#63b8ff" stroke="#63b8ff" points="55.57,-84.23 61.04,-75.16 51.11,-78.84 55.57,-84.23"/>
</g>
<!-- Node5 -->
<g id="node5" class="node">
<title>Node5</title>
<g id="a_node5"><a xlink:href="rendertarget_8h.html" target="_top" xlink:title=" ">
<polygon fill="white" stroke="#666666" points="239.18,-129 162.18,-129 162.18,-110 239.18,-110 239.18,-129"/>
<text text-anchor="middle" x="200.68" y="-117" font-family="Helvetica,sans-Serif" font-size="10.00">rendertarget.h</text>
</a>
</g>
</g>
<!-- Node1&#45;&gt;Node5 -->
<g id="edge4" class="edge">
<title>Node1&#45;&gt;Node5</title>
<path fill="none" stroke="#63b8ff" d="M227.3,-219.66C222.67,-202.42 212.33,-163.9 205.98,-140.27"/>
<polygon fill="#63b8ff" stroke="#63b8ff" points="209.45,-139.67 203.47,-130.92 202.69,-141.49 209.45,-139.67"/>
</g>
<!-- Node6 -->
<g id="node6" class="node">
<title>Node6</title>
<g id="a_node6"><a xlink:href="shader_8h.html" target="_top" xlink:title=" ">
<polygon fill="white" stroke="#666666" points="277.68,-74 223.68,-74 223.68,-55 277.68,-55 277.68,-74"/>
<text text-anchor="middle" x="250.68" y="-62" font-family="Helvetica,sans-Serif" font-size="10.00">shader.h</text>
</a>
</g>
</g>
<!-- Node1&#45;&gt;Node6 -->
<g id="edge13" class="edge">
<title>Node1&#45;&gt;Node6</title>
<path fill="none" stroke="#63b8ff" d="M231.71,-219.5C235.56,-202.12 243.85,-162.66 247.68,-129 249.32,-114.51 250.07,-98.07 250.4,-85.54"/>
<polygon fill="#63b8ff" stroke="#63b8ff" points="253.9,-85.74 250.6,-75.67 246.9,-85.6 253.9,-85.74"/>
</g>
<!-- Node7 -->
<g id="node7" class="node">
<title>Node7</title>
<g id="a_node7"><a xlink:href="rendertargetarray_8h.html" target="_top" xlink:title=" ">
<polygon fill="white" stroke="#666666" points="201.68,-184 103.68,-184 103.68,-165 201.68,-165 201.68,-184"/>
<text text-anchor="middle" x="152.68" y="-172" font-family="Helvetica,sans-Serif" font-size="10.00">rendertargetarray.h</text>
</a>
</g>
</g>
<!-- Node1&#45;&gt;Node7 -->
<g id="edge9" class="edge">
<title>Node1&#45;&gt;Node7</title>
<path fill="none" stroke="#63b8ff" d="M216.61,-219.51C205.15,-211.62 188.24,-199.98 174.69,-190.65"/>
<polygon fill="#63b8ff" stroke="#63b8ff" points="177.01,-188 166.79,-185.22 173.04,-193.77 177.01,-188"/>
</g>
<!-- Node9 -->
<g id="node9" class="node">
<title>Node9</title>
<g id="a_node9"><a xlink:href="renderable_8h.html" target="_top" xlink:title=" ">
<polygon fill="white" stroke="#666666" points="403.68,-184 333.68,-184 333.68,-165 403.68,-165 403.68,-184"/>
<text text-anchor="middle" x="368.68" y="-172" font-family="Helvetica,sans-Serif" font-size="10.00">renderable.h</text>
</a>
</g>
</g>
<!-- Node1&#45;&gt;Node9 -->
<g id="edge14" class="edge">
<title>Node1&#45;&gt;Node9</title>
<path fill="none" stroke="#63b8ff" d="M253.26,-219.51C275.66,-210.97 309.58,-198.03 334.85,-188.4"/>
<polygon fill="#63b8ff" stroke="#63b8ff" points="335.93,-191.73 344.03,-184.9 333.44,-185.19 335.93,-191.73"/>
</g>
<!-- Node5&#45;&gt;Node2 -->
<g id="edge5" class="edge">
<title>Node5&#45;&gt;Node2</title>
<path fill="none" stroke="#63b8ff" d="M201.31,-109.87C202.52,-97.26 205.86,-73.31 214.68,-55 219.39,-45.2 226.66,-35.64 233.43,-27.91"/>
<polygon fill="#63b8ff" stroke="#63b8ff" points="235.98,-30.32 240.22,-20.61 230.85,-25.55 235.98,-30.32"/>
</g>
<!-- Node5&#45;&gt;Node4 -->
<g id="edge6" class="edge">
<title>Node5&#45;&gt;Node4</title>
<path fill="none" stroke="#63b8ff" d="M179.13,-109.51C158.94,-101.08 128.51,-88.38 105.51,-78.79"/>
<polygon fill="#63b8ff" stroke="#63b8ff" points="106.87,-75.56 96.3,-74.94 104.18,-82.02 106.87,-75.56"/>
</g>
<!-- Node5&#45;&gt;Node6 -->
<g id="edge7" class="edge">
<title>Node5&#45;&gt;Node6</title>
<path fill="none" stroke="#63b8ff" d="M208.93,-109.75C215.84,-102.43 225.9,-91.76 234.41,-82.74"/>
<polygon fill="#63b8ff" stroke="#63b8ff" points="236.88,-85.22 241.2,-75.54 231.79,-80.42 236.88,-85.22"/>
</g>
<!-- Node6&#45;&gt;Node2 -->
<g id="edge8" class="edge">
<title>Node6&#45;&gt;Node2</title>
<path fill="none" stroke="#63b8ff" d="M250.68,-54.75C250.68,-48.27 250.68,-39.16 250.68,-30.9"/>
<polygon fill="#63b8ff" stroke="#63b8ff" points="254.18,-30.96 250.68,-20.96 247.18,-30.96 254.18,-30.96"/>
</g>
<!-- Node7&#45;&gt;Node4 -->
<g id="edge11" class="edge">
<title>Node7&#45;&gt;Node4</title>
<path fill="none" stroke="#63b8ff" d="M135.26,-164.66C121.78,-156.96 103.62,-144.61 92.68,-129 83.66,-116.15 78.86,-98.96 76.34,-85.71"/>
<polygon fill="#63b8ff" stroke="#63b8ff" points="79.82,-85.31 74.8,-75.98 72.91,-86.4 79.82,-85.31"/>
</g>
<!-- Node7&#45;&gt;Node5 -->
<g id="edge12" class="edge">
<title>Node7&#45;&gt;Node5</title>
<path fill="none" stroke="#63b8ff" d="M160.6,-164.75C167.23,-157.43 176.89,-146.76 185.07,-137.74"/>
<polygon fill="#63b8ff" stroke="#63b8ff" points="187.44,-140.33 191.56,-130.56 182.25,-135.63 187.44,-140.33"/>
</g>
<!-- Node8 -->
<g id="node8" class="node">
<title>Node8</title>
<g id="a_node8"><a xlink:title=" ">
<polygon fill="#e0e0e0" stroke="#999999" points="143.68,-129 101.68,-129 101.68,-110 143.68,-110 143.68,-129"/>
<text text-anchor="middle" x="122.68" y="-117" font-family="Helvetica,sans-Serif" font-size="10.00">vector</text>
</a>
</g>
</g>
<!-- Node7&#45;&gt;Node8 -->
<g id="edge10" class="edge">
<title>Node7&#45;&gt;Node8</title>
<path fill="none" stroke="#63b8ff" d="M147.72,-164.75C143.84,-157.88 138.29,-148.08 133.4,-139.45"/>
<polygon fill="#63b8ff" stroke="#63b8ff" points="136.45,-137.74 128.48,-130.76 130.36,-141.19 136.45,-137.74"/>
</g>
</g>
</svg>
