<?xml version="1.0" encoding="UTF-8" standalone="no"?>
<!DOCTYPE svg PUBLIC "-//W3C//DTD SVG 1.1//EN"
 "http://www.w3.org/Graphics/SVG/1.1/DTD/svg11.dtd">
<!-- Generated by graphviz version 7.1.0 (20230121.1956)
 -->
<!-- Title: src/fluidsimulator.cpp Pages: 1 -->
<!--zoomable 302 -->
<svg id="main" version="1.1" xmlns="http://www.w3.org/2000/svg" xmlns:xlink="http://www.w3.org/1999/xlink" xml:space="preserve" onload="init(evt)">
<style type="text/css"><![CDATA[
.edge:hover path { stroke: red; }
.edge:hover polygon { stroke: red; fill: red; }
]]></style>
<script type="text/javascript"><![CDATA[
var edges = document.getElementsByTagName('g');
if (edges && edges.length) {
  for (var i=0;i<edges.length;i++) {
    if (edges[i].id.substr(0,4)=='edge') {
      edges[i].setAttribute('class','edge');
    }
  }
}
]]></script>
        <defs>
                <circle id="rim" cx="0" cy="0" r="7"/>
                <circle id="rim2" cx="0" cy="0" r="3.5"/>
                <g id="zoomPlus">
                        <use xlink:href="#rim" fill="#404040">
                                <set attributeName="fill" to="#808080" begin="zoomplus.mouseover" end="zoomplus.mouseout"/>
                        </use>
                        <path d="M-4,0h8M0,-4v8" fill="none" stroke="white" stroke-width="1.5" pointer-events="none"/>
                </g>
                <g id="zoomMin">
                        <use xlink:href="#rim" fill="#404040">
                                <set attributeName="fill" to="#808080" begin="zoomminus.mouseover" end="zoomminus.mouseout"/>
                        </use>
                        <path d="M-4,0h8" fill="none" stroke="white" stroke-width="1.5" pointer-events="none"/>
                </g>
                <g id="dirArrow">
                        <path fill="none" stroke="white" stroke-width="1.5" d="M0,-3.0v7 M-2.5,-0.5L0,-3.0L2.5,-0.5"/>
                </g>
               <g id="resetDef">
                       <use xlink:href="#rim2" fill="#404040">
                               <set attributeName="fill" to="#808080" begin="reset.mouseover" end="reset.mouseout"/>
                       </use>
               </g>
        </defs>

<script type="text/javascript">
var viewWidth = 741;
var viewHeight = 302;
var sectionId = 'dynsection-0';
</script>
<script xlink:href="svgpan.js"/>
<svg id="graph" class="graph">
<g id="viewport">
<title>src/fluidsimulator.cpp</title>
<!-- Node1 -->
<g id="node1" class="node">
<title>Node1</title>
<g id="a_node1"><a xlink:title=" ">
<polygon fill="#999999" stroke="#666666" points="565.5,-294 456.5,-294 456.5,-275 565.5,-275 565.5,-294"/>
<text text-anchor="middle" x="511" y="-282" font-family="Helvetica,sans-Serif" font-size="10.00">src/fluidsimulator.cpp</text>
</a>
</g>
</g>
<!-- Node2 -->
<g id="node2" class="node">
<title>Node2</title>
<g id="a_node2"><a xlink:href="fluidsimulator_8h.html" target="_top" xlink:title=" ">
<polygon fill="white" stroke="#666666" points="321,-239 239,-239 239,-220 321,-220 321,-239"/>
<text text-anchor="middle" x="280" y="-227" font-family="Helvetica,sans-Serif" font-size="10.00">fluidsimulator.h</text>
</a>
</g>
</g>
<!-- Node1&#45;&gt;Node2 -->
<g id="edge1" class="edge">
<title>Node1&#45;&gt;Node2</title>
<path fill="none" stroke="#63b8ff" d="M471.81,-274.51C432.79,-265.55 372.71,-251.77 330.21,-242.02"/>
<polygon fill="#63b8ff" stroke="#63b8ff" points="331,-238.61 320.47,-239.78 329.43,-245.43 331,-238.61"/>
</g>
<!-- Node3 -->
<g id="node3" class="node">
<title>Node3</title>
<g id="a_node3"><a xlink:title=" ">
<polygon fill="#e0e0e0" stroke="#999999" points="145,-19 85,-19 85,0 145,0 145,-19"/>
<text text-anchor="middle" x="115" y="-7" font-family="Helvetica,sans-Serif" font-size="10.00">GL/glew.h</text>
</a>
</g>
</g>
<!-- Node1&#45;&gt;Node3 -->
<g id="edge17" class="edge">
<title>Node1&#45;&gt;Node3</title>
<path fill="none" stroke="#63b8ff" d="M456.31,-283.39C324.49,-281.65 0,-267.99 0,-175.5 0,-175.5 0,-175.5 0,-118.5 0,-72.95 48.53,-41.01 82.54,-24.21"/>
<polygon fill="#63b8ff" stroke="#63b8ff" points="83.63,-27.56 91.18,-20.13 80.65,-21.23 83.63,-27.56"/>
</g>
<!-- Node11 -->
<g id="node11" class="node">
<title>Node11</title>
<g id="a_node11"><a xlink:title=" ">
<polygon fill="#e0e0e0" stroke="#999999" points="637,-239 583,-239 583,-220 637,-220 637,-239"/>
<text text-anchor="middle" x="610" y="-227" font-family="Helvetica,sans-Serif" font-size="10.00">iostream</text>
</a>
</g>
</g>
<!-- Node1&#45;&gt;Node11 -->
<g id="edge16" class="edge">
<title>Node1&#45;&gt;Node11</title>
<path fill="none" stroke="#63b8ff" d="M527.79,-274.51C543.1,-266.31 565.97,-254.07 583.7,-244.58"/>
<polygon fill="#63b8ff" stroke="#63b8ff" points="584.96,-247.88 592.12,-240.07 581.65,-241.71 584.96,-247.88"/>
</g>
<!-- Node12 -->
<g id="node12" class="node">
<title>Node12</title>
<g id="a_node12"><a xlink:title=" ">
<polygon fill="#e0e0e0" stroke="#999999" points="733,-239 655,-239 655,-220 733,-220 733,-239"/>
<text text-anchor="middle" x="694" y="-227" font-family="Helvetica,sans-Serif" font-size="10.00">GLFW/glfw3.h</text>
</a>
</g>
</g>
<!-- Node1&#45;&gt;Node12 -->
<g id="edge18" class="edge">
<title>Node1&#45;&gt;Node12</title>
<path fill="none" stroke="#63b8ff" d="M542.04,-274.51C572.37,-265.73 618.73,-252.3 652.27,-242.59"/>
<polygon fill="#63b8ff" stroke="#63b8ff" points="653.02,-246.01 661.66,-239.87 651.08,-239.29 653.02,-246.01"/>
</g>
<!-- Node13 -->
<g id="node13" class="node">
<title>Node13</title>
<g id="a_node13"><a xlink:href="core_8h.html" target="_top" xlink:title=" ">
<polygon fill="white" stroke="#666666" points="565,-239 521,-239 521,-220 565,-220 565,-239"/>
<text text-anchor="middle" x="543" y="-227" font-family="Helvetica,sans-Serif" font-size="10.00">core.h</text>
</a>
</g>
</g>
<!-- Node1&#45;&gt;Node13 -->
<g id="edge19" class="edge">
<title>Node1&#45;&gt;Node13</title>
<path fill="none" stroke="#63b8ff" d="M516.28,-274.75C520.47,-267.81 526.48,-257.86 531.73,-249.16"/>
<polygon fill="#63b8ff" stroke="#63b8ff" points="534.65,-251.11 536.82,-240.74 528.65,-247.49 534.65,-251.11"/>
</g>
<!-- Node17 -->
<g id="node17" class="node">
<title>Node17</title>
<g id="a_node17"><a xlink:href="quad_8h.html" target="_top" xlink:title=" ">
<polygon fill="white" stroke="#666666" points="503,-239 457,-239 457,-220 503,-220 503,-239"/>
<text text-anchor="middle" x="480" y="-227" font-family="Helvetica,sans-Serif" font-size="10.00">quad.h</text>
</a>
</g>
</g>
<!-- Node1&#45;&gt;Node17 -->
<g id="edge27" class="edge">
<title>Node1&#45;&gt;Node17</title>
<path fill="none" stroke="#63b8ff" d="M505.88,-274.75C501.82,-267.81 496.01,-257.86 490.91,-249.16"/>
<polygon fill="#63b8ff" stroke="#63b8ff" points="494.06,-247.61 485.99,-240.75 488.02,-251.15 494.06,-247.61"/>
</g>
<!-- Node2&#45;&gt;Node3 -->
<g id="edge2" class="edge">
<title>Node2&#45;&gt;Node3</title>
<path fill="none" stroke="#63b8ff" d="M238.8,-224.97C187.62,-219.62 104.73,-207.51 86,-184 49.43,-138.09 84.12,-63.32 103.68,-28.9"/>
<polygon fill="#63b8ff" stroke="#63b8ff" points="106.55,-30.93 108.62,-20.54 100.52,-27.37 106.55,-30.93"/>
</g>
<!-- Node4 -->
<g id="node4" class="node">
<title>Node4</title>
<g id="a_node4"><a xlink:title=" ">
<polygon fill="#e0e0e0" stroke="#999999" points="452,-184 384,-184 384,-165 452,-165 452,-184"/>
<text text-anchor="middle" x="418" y="-172" font-family="Helvetica,sans-Serif" font-size="10.00">glm/ext.hpp</text>
</a>
</g>
</g>
<!-- Node2&#45;&gt;Node4 -->
<g id="edge3" class="edge">
<title>Node2&#45;&gt;Node4</title>
<path fill="none" stroke="#63b8ff" d="M303.41,-219.51C325.65,-210.97 359.33,-198.03 384.42,-188.4"/>
<polygon fill="#63b8ff" stroke="#63b8ff" points="385.44,-191.75 393.52,-184.9 382.93,-185.22 385.44,-191.75"/>
</g>
<!-- Node5 -->
<g id="node5" class="node">
<title>Node5</title>
<g id="a_node5"><a xlink:title=" ">
<polygon fill="#e0e0e0" stroke="#999999" points="382,-74 330,-74 330,-55 382,-55 382,-74"/>
<text text-anchor="middle" x="356" y="-62" font-family="Helvetica,sans-Serif" font-size="10.00">memory</text>
</a>
</g>
</g>
<!-- Node2&#45;&gt;Node5 -->
<g id="edge4" class="edge">
<title>Node2&#45;&gt;Node5</title>
<path fill="none" stroke="#63b8ff" d="M284.09,-219.74C295.94,-194.31 330.55,-120.08 347.05,-84.69"/>
<polygon fill="#63b8ff" stroke="#63b8ff" points="350.2,-86.22 351.25,-75.68 343.86,-83.26 350.2,-86.22"/>
</g>
<!-- Node6 -->
<g id="node6" class="node">
<title>Node6</title>
<g id="a_node6"><a xlink:href="rendertarget_8h.html" target="_top" xlink:title=" ">
<polygon fill="white" stroke="#666666" points="251.5,-129 174.5,-129 174.5,-110 251.5,-110 251.5,-129"/>
<text text-anchor="middle" x="213" y="-117" font-family="Helvetica,sans-Serif" font-size="10.00">rendertarget.h</text>
</a>
</g>
</g>
<!-- Node2&#45;&gt;Node6 -->
<g id="edge5" class="edge">
<title>Node2&#45;&gt;Node6</title>
<path fill="none" stroke="#63b8ff" d="M238.57,-224.43C189.6,-218.66 112.53,-206.25 95,-184 72.51,-155.46 121.38,-138.11 162.91,-128.92"/>
<polygon fill="#63b8ff" stroke="#63b8ff" points="163.53,-132.36 172.61,-126.9 162.1,-125.51 163.53,-132.36"/>
</g>
<!-- Node7 -->
<g id="node7" class="node">
<title>Node7</title>
<g id="a_node7"><a xlink:href="shader_8h.html" target="_top" xlink:title=" ">
<polygon fill="white" stroke="#666666" points="295,-74 241,-74 241,-55 295,-55 295,-74"/>
<text text-anchor="middle" x="268" y="-62" font-family="Helvetica,sans-Serif" font-size="10.00">shader.h</text>
</a>
</g>
</g>
<!-- Node2&#45;&gt;Node7 -->
<g id="edge14" class="edge">
<title>Node2&#45;&gt;Node7</title>
<path fill="none" stroke="#63b8ff" d="M285.05,-219.65C289.73,-210.91 296.34,-197 299,-184 306.29,-148.37 290,-107.46 278.39,-84.23"/>
<polygon fill="#63b8ff" stroke="#63b8ff" points="281.65,-82.9 273.89,-75.68 275.45,-86.16 281.65,-82.9"/>
</g>
<!-- Node8 -->
<g id="node8" class="node">
<title>Node8</title>
<g id="a_node8"><a xlink:href="rendertargetarray_8h.html" target="_top" xlink:title=" ">
<polygon fill="white" stroke="#666666" points="290,-184 192,-184 192,-165 290,-165 290,-184"/>
<text text-anchor="middle" x="241" y="-172" font-family="Helvetica,sans-Serif" font-size="10.00">rendertargetarray.h</text>
</a>
</g>
</g>
<!-- Node2&#45;&gt;Node8 -->
<g id="edge10" class="edge">
<title>Node2&#45;&gt;Node8</title>
<path fill="none" stroke="#63b8ff" d="M273.56,-219.75C268.34,-212.66 260.81,-202.42 254.31,-193.59"/>
<polygon fill="#63b8ff" stroke="#63b8ff" points="257.22,-191.64 248.48,-185.66 251.58,-195.79 257.22,-191.64"/>
</g>
<!-- Node10 -->
<g id="node10" class="node">
<title>Node10</title>
<g id="a_node10"><a xlink:href="renderable_8h.html" target="_top" xlink:title=" ">
<polygon fill="white" stroke="#666666" points="174,-184 104,-184 104,-165 174,-165 174,-184"/>
<text text-anchor="middle" x="139" y="-172" font-family="Helvetica,sans-Serif" font-size="10.00">renderable.h</text>
</a>
</g>
</g>
<!-- Node2&#45;&gt;Node10 -->
<g id="edge15" class="edge">
<title>Node2&#45;&gt;Node10</title>
<path fill="none" stroke="#63b8ff" d="M256.08,-219.51C233.36,-210.97 198.95,-198.03 173.31,-188.4"/>
<polygon fill="#63b8ff" stroke="#63b8ff" points="174.57,-185.13 163.98,-184.89 172.11,-191.69 174.57,-185.13"/>
</g>
<!-- Node6&#45;&gt;Node3 -->
<g id="edge6" class="edge">
<title>Node6&#45;&gt;Node3</title>
<path fill="none" stroke="#63b8ff" d="M204.98,-109.66C188.76,-91.78 151.79,-51.05 130.64,-27.73"/>
<polygon fill="#63b8ff" stroke="#63b8ff" points="133.46,-25.63 124.15,-20.58 128.28,-30.34 133.46,-25.63"/>
</g>
<!-- Node6&#45;&gt;Node5 -->
<g id="edge7" class="edge">
<title>Node6&#45;&gt;Node5</title>
<path fill="none" stroke="#63b8ff" d="M237.26,-109.51C260.41,-100.93 295.51,-87.92 321.56,-78.27"/>
<polygon fill="#63b8ff" stroke="#63b8ff" points="322.52,-81.64 330.68,-74.88 320.09,-75.08 322.52,-81.64"/>
</g>
<!-- Node6&#45;&gt;Node7 -->
<g id="edge8" class="edge">
<title>Node6&#45;&gt;Node7</title>
<path fill="none" stroke="#63b8ff" d="M222.08,-109.75C229.84,-102.27 241.21,-91.32 250.7,-82.17"/>
<polygon fill="#63b8ff" stroke="#63b8ff" points="252.86,-84.95 257.63,-75.49 248,-79.91 252.86,-84.95"/>
</g>
<!-- Node7&#45;&gt;Node3 -->
<g id="edge9" class="edge">
<title>Node7&#45;&gt;Node3</title>
<path fill="none" stroke="#63b8ff" d="M242.05,-54.51C217.13,-45.88 179.27,-32.76 151.36,-23.1"/>
<polygon fill="#63b8ff" stroke="#63b8ff" points="152.85,-19.91 142.26,-19.94 150.56,-26.52 152.85,-19.91"/>
</g>
<!-- Node8&#45;&gt;Node5 -->
<g id="edge12" class="edge">
<title>Node8&#45;&gt;Node5</title>
<path fill="none" stroke="#63b8ff" d="M249.34,-164.65C261.2,-152.16 283.75,-128.81 304,-110 314.42,-100.32 326.47,-89.96 336.34,-81.67"/>
<polygon fill="#63b8ff" stroke="#63b8ff" points="338.41,-84.51 343.86,-75.42 333.93,-79.13 338.41,-84.51"/>
</g>
<!-- Node8&#45;&gt;Node6 -->
<g id="edge13" class="edge">
<title>Node8&#45;&gt;Node6</title>
<path fill="none" stroke="#63b8ff" d="M236.38,-164.75C232.75,-157.88 227.57,-148.08 223.01,-139.45"/>
<polygon fill="#63b8ff" stroke="#63b8ff" points="226.2,-137.99 218.43,-130.78 220.01,-141.26 226.2,-137.99"/>
</g>
<!-- Node9 -->
<g id="node9" class="node">
<title>Node9</title>
<g id="a_node9"><a xlink:title=" ">
<polygon fill="#e0e0e0" stroke="#999999" points="439,-129 397,-129 397,-110 439,-110 439,-129"/>
<text text-anchor="middle" x="418" y="-117" font-family="Helvetica,sans-Serif" font-size="10.00">vector</text>
</a>
</g>
</g>
<!-- Node8&#45;&gt;Node9 -->
<g id="edge11" class="edge">
<title>Node8&#45;&gt;Node9</title>
<path fill="none" stroke="#63b8ff" d="M271.03,-164.51C302.96,-154.95 353.29,-139.88 385.98,-130.09"/>
<polygon fill="#63b8ff" stroke="#63b8ff" points="386.71,-133.52 395.29,-127.3 384.71,-126.82 386.71,-133.52"/>
</g>
<!-- Node13&#45;&gt;Node4 -->
<g id="edge22" class="edge">
<title>Node13&#45;&gt;Node4</title>
<path fill="none" stroke="#63b8ff" d="M521.8,-219.51C501.92,-211.08 471.97,-198.38 449.34,-188.79"/>
<polygon fill="#63b8ff" stroke="#63b8ff" points="450.86,-185.63 440.28,-184.95 448.13,-192.07 450.86,-185.63"/>
</g>
<!-- Node13&#45;&gt;Node5 -->
<g id="edge20" class="edge">
<title>Node13&#45;&gt;Node5</title>
<path fill="none" stroke="#63b8ff" d="M565.38,-221.65C598.23,-211.36 656.26,-192.27 662,-184 680.72,-157.01 643.85,-120.07 629,-110 591.31,-84.43 459.58,-72.32 393.87,-67.76"/>
<polygon fill="#63b8ff" stroke="#63b8ff" points="394.13,-64.27 383.92,-67.1 393.66,-71.26 394.13,-64.27"/>
</g>
<!-- Node14 -->
<g id="node14" class="node">
<title>Node14</title>
<g id="a_node14"><a xlink:title=" ">
<polygon fill="#e0e0e0" stroke="#999999" points="652.5,-184 611.5,-184 611.5,-165 652.5,-165 652.5,-184"/>
<text text-anchor="middle" x="632" y="-172" font-family="Helvetica,sans-Serif" font-size="10.00">string</text>
</a>
</g>
</g>
<!-- Node13&#45;&gt;Node14 -->
<g id="edge21" class="edge">
<title>Node13&#45;&gt;Node14</title>
<path fill="none" stroke="#63b8ff" d="M558.1,-219.51C571.6,-211.47 591.65,-199.53 607.46,-190.11"/>
<polygon fill="#63b8ff" stroke="#63b8ff" points="609.02,-193.26 615.82,-185.13 605.44,-187.24 609.02,-193.26"/>
</g>
<!-- Node15 -->
<g id="node15" class="node">
<title>Node15</title>
<g id="a_node15"><a xlink:href="event_8h.html" target="_top" xlink:title=" ">
<polygon fill="white" stroke="#666666" points="593.5,-184 546.5,-184 546.5,-165 593.5,-165 593.5,-184"/>
<text text-anchor="middle" x="570" y="-172" font-family="Helvetica,sans-Serif" font-size="10.00">event.h</text>
</a>
</g>
</g>
<!-- Node13&#45;&gt;Node15 -->
<g id="edge23" class="edge">
<title>Node13&#45;&gt;Node15</title>
<path fill="none" stroke="#63b8ff" d="M547.46,-219.75C550.95,-212.88 555.95,-203.08 560.35,-194.45"/>
<polygon fill="#63b8ff" stroke="#63b8ff" points="563.34,-196.29 564.76,-185.79 557.1,-193.11 563.34,-196.29"/>
</g>
<!-- Node15&#45;&gt;Node5 -->
<g id="edge26" class="edge">
<title>Node15&#45;&gt;Node5</title>
<path fill="none" stroke="#63b8ff" d="M583.5,-164.67C601.21,-152.01 628.35,-128.23 613,-110 585.41,-77.22 458.2,-68.59 393.71,-66.31"/>
<polygon fill="#63b8ff" stroke="#63b8ff" points="394.05,-62.82 383.95,-66.01 393.83,-69.82 394.05,-62.82"/>
</g>
<!-- Node15&#45;&gt;Node9 -->
<g id="edge25" class="edge">
<title>Node15&#45;&gt;Node9</title>
<path fill="none" stroke="#63b8ff" d="M546.25,-165.22C520.3,-156.17 478.61,-141.63 449.84,-131.6"/>
<polygon fill="#63b8ff" stroke="#63b8ff" points="451.16,-128.36 440.56,-128.37 448.85,-134.97 451.16,-128.36"/>
</g>
<!-- Node16 -->
<g id="node16" class="node">
<title>Node16</title>
<g id="a_node16"><a xlink:title=" ">
<polygon fill="#e0e0e0" stroke="#999999" points="604,-129 546,-129 546,-110 604,-110 604,-129"/>
<text text-anchor="middle" x="575" y="-117" font-family="Helvetica,sans-Serif" font-size="10.00">functional</text>
</a>
</g>
</g>
<!-- Node15&#45;&gt;Node16 -->
<g id="edge24" class="edge">
<title>Node15&#45;&gt;Node16</title>
<path fill="none" stroke="#63b8ff" d="M570.83,-164.75C571.44,-158.27 572.3,-149.16 573.08,-140.9"/>
<polygon fill="#63b8ff" stroke="#63b8ff" points="576.56,-141.23 574.01,-130.95 569.59,-140.58 576.56,-141.23"/>
</g>
<!-- Node17&#45;&gt;Node4 -->
<g id="edge28" class="edge">
<title>Node17&#45;&gt;Node4</title>
<path fill="none" stroke="#63b8ff" d="M469.48,-219.51C460.61,-211.93 447.69,-200.88 437.01,-191.75"/>
<polygon fill="#63b8ff" stroke="#63b8ff" points="439.39,-189.18 429.51,-185.34 434.84,-194.5 439.39,-189.18"/>
</g>
<!-- Node17&#45;&gt;Node5 -->
<g id="edge29" class="edge">
<title>Node17&#45;&gt;Node5</title>
<path fill="none" stroke="#63b8ff" d="M480,-219.65C479.55,-198.3 475.6,-143.31 448,-110 433.99,-93.1 412.04,-82.14 393.09,-75.33"/>
<polygon fill="#63b8ff" stroke="#63b8ff" points="394.39,-72.07 383.8,-72.26 392.19,-78.72 394.39,-72.07"/>
</g>
<!-- Node17&#45;&gt;Node7 -->
<g id="edge30" class="edge">
<title>Node17&#45;&gt;Node7</title>
<path fill="none" stroke="#63b8ff" d="M480.42,-219.58C480.94,-197.6 479.07,-140.41 448,-110 437.84,-100.05 355.92,-82.63 306.16,-72.8"/>
<polygon fill="#63b8ff" stroke="#63b8ff" points="307.14,-69.42 296.65,-70.93 305.8,-76.29 307.14,-69.42"/>
</g>
</g>
</svg>
        <g id="navigator" transform="translate(0 0)" fill="#404254">
                <rect fill="#f2f5e9" fill-opacity="0.5" stroke="#606060" stroke-width=".5" x="0" y="0" width="60" height="60"/>
                <use id="zoomplus" xlink:href="#zoomPlus" x="17" y="9" onmousedown="handleZoom(evt,'in')"/>
                <use id="zoomminus" xlink:href="#zoomMin" x="42" y="9" onmousedown="handleZoom(evt,'out')"/>
                <use id="reset" xlink:href="#resetDef" x="30" y="36" onmousedown="handleReset()"/>
                <g id="arrowUp" xlink:href="#dirArrow" transform="translate(30 24)" onmousedown="handlePan(0,-1)">
                  <use xlink:href="#rim" fill="#404040">
                        <set attributeName="fill" to="#808080" begin="arrowUp.mouseover" end="arrowUp.mouseout"/>
                  </use>
                  <path fill="none" stroke="white" stroke-width="1.5" d="M0,-3.0v7 M-2.5,-0.5L0,-3.0L2.5,-0.5"/>
                </g>
                <g id="arrowRight" xlink:href="#dirArrow" transform="rotate(90) translate(36 -43)" onmousedown="handlePan(1,0)">
                  <use xlink:href="#rim" fill="#404040">
                        <set attributeName="fill" to="#808080" begin="arrowRight.mouseover" end="arrowRight.mouseout"/>
                  </use>
                  <path fill="none" stroke="white" stroke-width="1.5" d="M0,-3.0v7 M-2.5,-0.5L0,-3.0L2.5,-0.5"/>
                </g>
                <g id="arrowDown" xlink:href="#dirArrow" transform="rotate(180) translate(-30 -48)" onmousedown="handlePan(0,1)">
                  <use xlink:href="#rim" fill="#404040">
                        <set attributeName="fill" to="#808080" begin="arrowDown.mouseover" end="arrowDown.mouseout"/>
                  </use>
                  <path fill="none" stroke="white" stroke-width="1.5" d="M0,-3.0v7 M-2.5,-0.5L0,-3.0L2.5,-0.5"/>
                </g>
                <g id="arrowLeft" xlink:href="#dirArrow" transform="rotate(270) translate(-36 17)" onmousedown="handlePan(-1,0)">
                  <use xlink:href="#rim" fill="#404040">
                        <set attributeName="fill" to="#808080" begin="arrowLeft.mouseover" end="arrowLeft.mouseout"/>
                  </use>
                  <path fill="none" stroke="white" stroke-width="1.5" d="M0,-3.0v7 M-2.5,-0.5L0,-3.0L2.5,-0.5"/>
                </g>
        </g>
        <svg viewBox="0 0 15 15" width="100%" height="30px" preserveAspectRatio="xMaxYMin meet">
         <g id="arrow_out" transform="scale(0.3 0.3)">
          <a xlink:href="fluidsimulator_8cpp__incl_org.svg" target="_base">
           <rect id="button" ry="5" rx="5" y="6" x="6" height="38" width="38"
                fill="#f2f5e9" fill-opacity="0.5" stroke="#606060" stroke-width="1.0"/>
           <path id="arrow"
             d="M 11.500037,31.436501 C 11.940474,20.09759 22.043105,11.32322 32.158766,21.979434 L 37.068811,17.246167 C 37.068811,17.246167 37.088388,32 37.088388,32 L 22.160133,31.978069 C 22.160133,31.978069 26.997745,27.140456 26.997745,27.140456 C 18.528582,18.264221 13.291696,25.230495 11.500037,31.436501 z"
             style="fill:#404040;"/>
          </a>
         </g>
        </svg>
</svg>
