<?xml version="1.0" encoding="UTF-8" standalone="no"?>
<!DOCTYPE svg PUBLIC "-//W3C//DTD SVG 1.1//EN"
 "http://www.w3.org/Graphics/SVG/1.1/DTD/svg11.dtd">
<!-- Generated by graphviz version 7.1.0 (20230121.1956)
 -->
<!-- Title: src/font.cpp Pages: 1 -->
<svg width="412pt" height="192pt"
 viewBox="0.00 0.00 411.50 192.00" xmlns="http://www.w3.org/2000/svg" xmlns:xlink="http://www.w3.org/1999/xlink">
<g id="graph0" class="graph" transform="scale(1 1) rotate(0) translate(4 188)">
<title>src/font.cpp</title>
<!-- Node1 -->
<g id="node1" class="node">
<title>Node1</title>
<g id="a_node1"><a xlink:title=" ">
<polygon fill="#999999" stroke="#666666" points="171,-184 103,-184 103,-165 171,-165 171,-184"/>
<text text-anchor="middle" x="137" y="-172" font-family="Helvetica,sans-Serif" font-size="10.00">src/font.cpp</text>
</a>
</g>
</g>
<!-- Node2 -->
<g id="node2" class="node">
<title>Node2</title>
<g id="a_node2"><a xlink:title=" ">
<polygon fill="#e0e0e0" stroke="#999999" points="98,-129 44,-129 44,-110 98,-110 98,-129"/>
<text text-anchor="middle" x="71" y="-117" font-family="Helvetica,sans-Serif" font-size="10.00">iostream</text>
</a>
</g>
</g>
<!-- Node1&#45;&gt;Node2 -->
<g id="edge1" class="edge">
<title>Node1&#45;&gt;Node2</title>
<path fill="none" stroke="#63b8ff" d="M125.8,-164.51C116.26,-156.85 102.33,-145.66 90.89,-136.47"/>
<polygon fill="#63b8ff" stroke="#63b8ff" points="93.2,-133.84 83.21,-130.31 88.82,-139.3 93.2,-133.84"/>
</g>
<!-- Node3 -->
<g id="node3" class="node">
<title>Node3</title>
<g id="a_node3"><a xlink:href="font_8h.html" target="_top" xlink:title=" ">
<polygon fill="white" stroke="#666666" points="206.5,-74 165.5,-74 165.5,-55 206.5,-55 206.5,-74"/>
<text text-anchor="middle" x="186" y="-62" font-family="Helvetica,sans-Serif" font-size="10.00">font.h</text>
</a>
</g>
</g>
<!-- Node1&#45;&gt;Node3 -->
<g id="edge2" class="edge">
<title>Node1&#45;&gt;Node3</title>
<path fill="none" stroke="#63b8ff" d="M143.76,-164.72C150.19,-156.04 159.78,-142.17 166,-129 172.66,-114.9 177.85,-98.03 181.28,-85.22"/>
<polygon fill="#63b8ff" stroke="#63b8ff" points="184.58,-86.43 183.64,-75.88 177.8,-84.72 184.58,-86.43"/>
</g>
<!-- Node10 -->
<g id="node10" class="node">
<title>Node10</title>
<g id="a_node10"><a xlink:href="text_8h.html" target="_top" xlink:title=" ">
<polygon fill="white" stroke="#666666" points="157.5,-129 116.5,-129 116.5,-110 157.5,-110 157.5,-129"/>
<text text-anchor="middle" x="137" y="-117" font-family="Helvetica,sans-Serif" font-size="10.00">text.h</text>
</a>
</g>
</g>
<!-- Node1&#45;&gt;Node10 -->
<g id="edge9" class="edge">
<title>Node1&#45;&gt;Node10</title>
<path fill="none" stroke="#63b8ff" d="M137,-164.75C137,-158.27 137,-149.16 137,-140.9"/>
<polygon fill="#63b8ff" stroke="#63b8ff" points="140.5,-140.96 137,-130.96 133.5,-140.96 140.5,-140.96"/>
</g>
<!-- Node4 -->
<g id="node4" class="node">
<title>Node4</title>
<g id="a_node4"><a xlink:title=" ">
<polygon fill="#e0e0e0" stroke="#999999" points="56,-19 0,-19 0,0 56,0 56,-19"/>
<text text-anchor="middle" x="28" y="-7" font-family="Helvetica,sans-Serif" font-size="10.00">ft2build.h</text>
</a>
</g>
</g>
<!-- Node3&#45;&gt;Node4 -->
<g id="edge3" class="edge">
<title>Node3&#45;&gt;Node4</title>
<path fill="none" stroke="#63b8ff" d="M165.02,-56.46C139.67,-47.96 96.57,-33.5 65.47,-23.07"/>
<polygon fill="#63b8ff" stroke="#63b8ff" points="66.64,-19.77 56.05,-19.91 64.41,-26.41 66.64,-19.77"/>
</g>
<!-- Node5 -->
<g id="node5" class="node">
<title>Node5</title>
<g id="a_node5"><a xlink:title=" ">
<polygon fill="#e0e0e0" stroke="#999999" points="142,-19 74,-19 74,0 142,0 142,-19"/>
<text text-anchor="middle" x="108" y="-7" font-family="Helvetica,sans-Serif" font-size="10.00">glm/ext.hpp</text>
</a>
</g>
</g>
<!-- Node3&#45;&gt;Node5 -->
<g id="edge4" class="edge">
<title>Node3&#45;&gt;Node5</title>
<path fill="none" stroke="#63b8ff" d="M172.77,-54.51C161.16,-46.62 144.03,-34.98 130.3,-25.65"/>
<polygon fill="#63b8ff" stroke="#63b8ff" points="132.53,-22.93 122.29,-20.21 128.59,-28.72 132.53,-22.93"/>
</g>
<!-- Node6 -->
<g id="node6" class="node">
<title>Node6</title>
<g id="a_node6"><a xlink:title=" ">
<polygon fill="#e0e0e0" stroke="#999999" points="212,-19 160,-19 160,0 212,0 212,-19"/>
<text text-anchor="middle" x="186" y="-7" font-family="Helvetica,sans-Serif" font-size="10.00">memory</text>
</a>
</g>
</g>
<!-- Node3&#45;&gt;Node6 -->
<g id="edge5" class="edge">
<title>Node3&#45;&gt;Node6</title>
<path fill="none" stroke="#63b8ff" d="M186,-54.75C186,-48.27 186,-39.16 186,-30.9"/>
<polygon fill="#63b8ff" stroke="#63b8ff" points="189.5,-30.96 186,-20.96 182.5,-30.96 189.5,-30.96"/>
</g>
<!-- Node7 -->
<g id="node7" class="node">
<title>Node7</title>
<g id="a_node7"><a xlink:title=" ">
<polygon fill="#e0e0e0" stroke="#999999" points="403.5,-19 362.5,-19 362.5,0 403.5,0 403.5,-19"/>
<text text-anchor="middle" x="383" y="-7" font-family="Helvetica,sans-Serif" font-size="10.00">string</text>
</a>
</g>
</g>
<!-- Node3&#45;&gt;Node7 -->
<g id="edge6" class="edge">
<title>Node3&#45;&gt;Node7</title>
<path fill="none" stroke="#63b8ff" d="M206.86,-58.05C236.64,-50.25 293.33,-35.32 351.21,-19.46"/>
<polygon fill="#63b8ff" stroke="#63b8ff" points="351.86,-22.91 360.57,-16.89 350,-16.16 351.86,-22.91"/>
</g>
<!-- Node8 -->
<g id="node8" class="node">
<title>Node8</title>
<g id="a_node8"><a xlink:title=" ">
<polygon fill="#e0e0e0" stroke="#999999" points="265.5,-19 230.5,-19 230.5,0 265.5,0 265.5,-19"/>
<text text-anchor="middle" x="248" y="-7" font-family="Helvetica,sans-Serif" font-size="10.00">map</text>
</a>
</g>
</g>
<!-- Node3&#45;&gt;Node8 -->
<g id="edge7" class="edge">
<title>Node3&#45;&gt;Node8</title>
<path fill="none" stroke="#63b8ff" d="M196.52,-54.51C205.39,-46.93 218.31,-35.88 228.99,-26.75"/>
<polygon fill="#63b8ff" stroke="#63b8ff" points="231.16,-29.5 236.49,-20.34 226.61,-24.18 231.16,-29.5"/>
</g>
<!-- Node9 -->
<g id="node9" class="node">
<title>Node9</title>
<g id="a_node9"><a xlink:title=" ">
<polygon fill="#e0e0e0" stroke="#999999" points="344,-19 284,-19 284,0 344,0 344,-19"/>
<text text-anchor="middle" x="314" y="-7" font-family="Helvetica,sans-Serif" font-size="10.00">GL/glew.h</text>
</a>
</g>
</g>
<!-- Node3&#45;&gt;Node9 -->
<g id="edge8" class="edge">
<title>Node3&#45;&gt;Node9</title>
<path fill="none" stroke="#63b8ff" d="M206.85,-54.87C227.15,-46.46 258.3,-33.56 281.79,-23.84"/>
<polygon fill="#63b8ff" stroke="#63b8ff" points="283,-27.12 290.9,-20.06 280.33,-20.66 283,-27.12"/>
</g>
<!-- Node10&#45;&gt;Node3 -->
<g id="edge13" class="edge">
<title>Node10&#45;&gt;Node3</title>
<path fill="none" stroke="#63b8ff" d="M145.09,-109.75C151.86,-102.43 161.72,-91.76 170.06,-82.74"/>
<polygon fill="#63b8ff" stroke="#63b8ff" points="172.49,-85.27 176.71,-75.55 167.35,-80.52 172.49,-85.27"/>
</g>
<!-- Node10&#45;&gt;Node4 -->
<g id="edge10" class="edge">
<title>Node10&#45;&gt;Node4</title>
<path fill="none" stroke="#63b8ff" d="M128.08,-109.66C109.96,-91.7 68.56,-50.69 45.08,-27.42"/>
<polygon fill="#63b8ff" stroke="#63b8ff" points="47.69,-25.08 38.12,-20.53 42.76,-30.05 47.69,-25.08"/>
</g>
<!-- Node10&#45;&gt;Node5 -->
<g id="edge11" class="edge">
<title>Node10&#45;&gt;Node5</title>
<path fill="none" stroke="#63b8ff" d="M134.63,-109.66C130,-92.42 119.65,-53.9 113.31,-30.27"/>
<polygon fill="#63b8ff" stroke="#63b8ff" points="116.77,-29.67 110.8,-20.92 110.01,-31.49 116.77,-29.67"/>
</g>
<!-- Node10&#45;&gt;Node7 -->
<g id="edge12" class="edge">
<title>Node10&#45;&gt;Node7</title>
<path fill="none" stroke="#63b8ff" d="M157.13,-109.66C200.11,-90.79 301.07,-46.47 352.19,-24.03"/>
<polygon fill="#63b8ff" stroke="#63b8ff" points="353.46,-27.29 361.2,-20.07 350.64,-20.88 353.46,-27.29"/>
</g>
</g>
</svg>
