<?xml version="1.0" encoding="UTF-8" standalone="no"?>
<!DOCTYPE svg PUBLIC "-//W3C//DTD SVG 1.1//EN"
 "http://www.w3.org/Graphics/SVG/1.1/DTD/svg11.dtd">
<!-- Generated by graphviz version 7.1.0 (20230121.1956)
 -->
<!-- Title: src/font.h Pages: 1 -->
<svg width="595pt" height="137pt"
 viewBox="0.00 0.00 594.50 137.00" xmlns="http://www.w3.org/2000/svg" xmlns:xlink="http://www.w3.org/1999/xlink">
<g id="graph0" class="graph" transform="scale(1 1) rotate(0) translate(4 133)">
<title>src/font.h</title>
<!-- Node1 -->
<g id="node1" class="node">
<title>Node1</title>
<g id="a_node1"><a xlink:title=" ">
<polygon fill="#999999" stroke="#666666" points="192.5,-129 135.5,-129 135.5,-110 192.5,-110 192.5,-129"/>
<text text-anchor="middle" x="164" y="-117" font-family="Helvetica,sans-Serif" font-size="10.00">src/font.h</text>
</a>
</g>
</g>
<!-- Node2 -->
<g id="node2" class="node">
<title>Node2</title>
<g id="a_node2"><a xlink:href="font_8cpp.html" target="_top" xlink:title=" ">
<polygon fill="white" stroke="#666666" points="68,-19 0,-19 0,0 68,0 68,-19"/>
<text text-anchor="middle" x="34" y="-7" font-family="Helvetica,sans-Serif" font-size="10.00">src/font.cpp</text>
</a>
</g>
</g>
<!-- Node1&#45;&gt;Node2 -->
<g id="edge1" class="edge">
<title>Node1&#45;&gt;Node2</title>
<path fill="none" stroke="#63b8ff" d="M144.55,-102.34C116.79,-79.28 66.72,-37.68 44.79,-19.46"/>
<polygon fill="#63b8ff" stroke="#63b8ff" points="142.27,-105 152.2,-108.69 146.74,-99.61 142.27,-105"/>
</g>
<!-- Node3 -->
<g id="node3" class="node">
<title>Node3</title>
<g id="a_node3"><a xlink:href="text_8h.html" target="_top" xlink:title=" ">
<polygon fill="white" stroke="#666666" points="193,-74 135,-74 135,-55 193,-55 193,-74"/>
<text text-anchor="middle" x="164" y="-62" font-family="Helvetica,sans-Serif" font-size="10.00">src/text.h</text>
</a>
</g>
</g>
<!-- Node1&#45;&gt;Node3 -->
<g id="edge2" class="edge">
<title>Node1&#45;&gt;Node3</title>
<path fill="none" stroke="#63b8ff" d="M164,-98.35C164,-90.1 164,-80.97 164,-74.44"/>
<polygon fill="#63b8ff" stroke="#63b8ff" points="160.5,-98.23 164,-108.23 167.5,-98.23 160.5,-98.23"/>
</g>
<!-- Node7 -->
<g id="node7" class="node">
<title>Node7</title>
<g id="a_node7"><a xlink:href="uitext_8h.html" target="_top" xlink:title=" ">
<polygon fill="white" stroke="#666666" points="332.5,-74 267.5,-74 267.5,-55 332.5,-55 332.5,-74"/>
<text text-anchor="middle" x="300" y="-62" font-family="Helvetica,sans-Serif" font-size="10.00">src/uitext.h</text>
</a>
</g>
</g>
<!-- Node1&#45;&gt;Node7 -->
<g id="edge7" class="edge">
<title>Node1&#45;&gt;Node7</title>
<path fill="none" stroke="#63b8ff" d="M197.48,-105.45C222.3,-95.78 255.47,-82.85 277.27,-74.36"/>
<polygon fill="#63b8ff" stroke="#63b8ff" points="196.53,-102.07 188.48,-108.96 199.07,-108.59 196.53,-102.07"/>
</g>
<!-- Node3&#45;&gt;Node2 -->
<g id="edge4" class="edge">
<title>Node3&#45;&gt;Node2</title>
<path fill="none" stroke="#63b8ff" d="M131.36,-50.19C107.71,-40.55 76.38,-27.78 55.73,-19.36"/>
<polygon fill="#63b8ff" stroke="#63b8ff" points="129.96,-53.4 140.55,-53.94 132.61,-46.92 129.96,-53.4"/>
</g>
<!-- Node4 -->
<g id="node4" class="node">
<title>Node4</title>
<g id="a_node4"><a xlink:href="core_8cpp.html" target="_top" xlink:title=" ">
<polygon fill="white" stroke="#666666" points="243.5,-19 172.5,-19 172.5,0 243.5,0 243.5,-19"/>
<text text-anchor="middle" x="208" y="-7" font-family="Helvetica,sans-Serif" font-size="10.00">src/core.cpp</text>
</a>
</g>
</g>
<!-- Node3&#45;&gt;Node4 -->
<g id="edge3" class="edge">
<title>Node3&#45;&gt;Node4</title>
<path fill="none" stroke="#63b8ff" d="M178.58,-45.93C185.95,-37.06 194.58,-26.67 200.58,-19.44"/>
<polygon fill="#63b8ff" stroke="#63b8ff" points="175.93,-43.65 172.23,-53.58 181.31,-48.13 175.93,-43.65"/>
</g>
<!-- Node5 -->
<g id="node5" class="node">
<title>Node5</title>
<g id="a_node5"><a xlink:href="text_8cpp.html" target="_top" xlink:title=" ">
<polygon fill="white" stroke="#666666" points="154,-19 86,-19 86,0 154,0 154,-19"/>
<text text-anchor="middle" x="120" y="-7" font-family="Helvetica,sans-Serif" font-size="10.00">src/text.cpp</text>
</a>
</g>
</g>
<!-- Node3&#45;&gt;Node5 -->
<g id="edge5" class="edge">
<title>Node3&#45;&gt;Node5</title>
<path fill="none" stroke="#63b8ff" d="M149.42,-45.93C142.05,-37.06 133.42,-26.67 127.42,-19.44"/>
<polygon fill="#63b8ff" stroke="#63b8ff" points="146.69,-48.13 155.77,-53.58 152.07,-43.65 146.69,-48.13"/>
</g>
<!-- Node6 -->
<g id="node6" class="node">
<title>Node6</title>
<g id="a_node6"><a xlink:href="uitext_8cpp.html" target="_top" xlink:title=" ">
<polygon fill="white" stroke="#666666" points="338,-19 262,-19 262,0 338,0 338,-19"/>
<text text-anchor="middle" x="300" y="-7" font-family="Helvetica,sans-Serif" font-size="10.00">src/uitext.cpp</text>
</a>
</g>
</g>
<!-- Node3&#45;&gt;Node6 -->
<g id="edge6" class="edge">
<title>Node3&#45;&gt;Node6</title>
<path fill="none" stroke="#63b8ff" d="M197.48,-50.45C222.3,-40.78 255.47,-27.85 277.27,-19.36"/>
<polygon fill="#63b8ff" stroke="#63b8ff" points="196.53,-47.07 188.48,-53.96 199.07,-53.59 196.53,-47.07"/>
</g>
<!-- Node7&#45;&gt;Node4 -->
<g id="edge8" class="edge">
<title>Node7&#45;&gt;Node4</title>
<path fill="none" stroke="#63b8ff" d="M274.83,-49C258.37,-39.52 237.4,-27.43 223.38,-19.36"/>
<polygon fill="#63b8ff" stroke="#63b8ff" points="272.67,-51.79 283.08,-53.75 276.16,-45.73 272.67,-51.79"/>
</g>
<!-- Node7&#45;&gt;Node6 -->
<g id="edge11" class="edge">
<title>Node7&#45;&gt;Node6</title>
<path fill="none" stroke="#63b8ff" d="M300,-43.35C300,-35.1 300,-25.97 300,-19.44"/>
<polygon fill="#63b8ff" stroke="#63b8ff" points="296.5,-43.23 300,-53.23 303.5,-43.23 296.5,-43.23"/>
</g>
<!-- Node8 -->
<g id="node8" class="node">
<title>Node8</title>
<g id="a_node8"><a xlink:href="instance_8cpp.html" target="_top" xlink:title=" ">
<polygon fill="white" stroke="#666666" points="445.5,-19 356.5,-19 356.5,0 445.5,0 445.5,-19"/>
<text text-anchor="middle" x="401" y="-7" font-family="Helvetica,sans-Serif" font-size="10.00">src/instance.cpp</text>
</a>
</g>
</g>
<!-- Node7&#45;&gt;Node8 -->
<g id="edge9" class="edge">
<title>Node7&#45;&gt;Node8</title>
<path fill="none" stroke="#63b8ff" d="M327.12,-49.27C345.27,-39.74 368.58,-27.51 384.12,-19.36"/>
<polygon fill="#63b8ff" stroke="#63b8ff" points="325.7,-46.06 318.47,-53.81 328.95,-52.26 325.7,-46.06"/>
</g>
<!-- Node9 -->
<g id="node9" class="node">
<title>Node9</title>
<g id="a_node9"><a xlink:href="particlesimulator_8cpp.html" target="_top" xlink:title=" ">
<polygon fill="white" stroke="#666666" points="586.5,-19 463.5,-19 463.5,0 586.5,0 586.5,-19"/>
<text text-anchor="middle" x="525" y="-7" font-family="Helvetica,sans-Serif" font-size="10.00">src/particlesimulator.cpp</text>
</a>
</g>
</g>
<!-- Node7&#45;&gt;Node9 -->
<g id="edge10" class="edge">
<title>Node7&#45;&gt;Node9</title>
<path fill="none" stroke="#63b8ff" d="M343.88,-53.16C385.51,-43.36 447.4,-28.78 486.98,-19.46"/>
<polygon fill="#63b8ff" stroke="#63b8ff" points="343.12,-49.75 334.19,-55.45 344.73,-56.56 343.12,-49.75"/>
</g>
</g>
</svg>
