<?xml version="1.0" encoding="UTF-8" standalone="no"?>
<!DOCTYPE svg PUBLIC "-//W3C//DTD SVG 1.1//EN"
 "http://www.w3.org/Graphics/SVG/1.1/DTD/svg11.dtd">
<!-- Generated by graphviz version 7.1.0 (20230121.1956)
 -->
<!-- Title: Graphical Class Hierarchy Pages: 1 -->
<svg width="289pt" height="193pt"
 viewBox="0.00 0.00 289.00 193.00" xmlns="http://www.w3.org/2000/svg" xmlns:xlink="http://www.w3.org/1999/xlink">
<g id="graph0" class="graph" transform="scale(1 1) rotate(0) translate(4 189)">
<title>Graphical Class Hierarchy</title>
<!-- Node0 -->
<g id="node1" class="node">
<title>Node0</title>
<g id="a_node1"><a xlink:href="class_instance.html" target="_top" xlink:title=" ">
<polygon fill="white" stroke="#666666" points="59,-148 6,-148 6,-129 59,-129 59,-148"/>
<text text-anchor="middle" x="32.5" y="-136" font-family="Helvetica,sans-Serif" font-size="10.00">Instance</text>
</a>
</g>
</g>
<!-- Node1 -->
<g id="node2" class="node">
<title>Node1</title>
<g id="a_node2"><a xlink:href="class_u_i.html" target="_top" xlink:title=" ">
<polygon fill="white" stroke="#666666" points="161,-130 132,-130 132,-111 161,-111 161,-130"/>
<text text-anchor="middle" x="146.5" y="-118" font-family="Helvetica,sans-Serif" font-size="10.00">UI</text>
</a>
</g>
</g>
<!-- Node0&#45;&gt;Node1 -->
<g id="edge1" class="edge">
<title>Node0&#45;&gt;Node1</title>
<path fill="none" stroke="#63b8ff" d="M70.6,-132.54C91.52,-129.17 116.43,-125.17 131.6,-122.73"/>
<polygon fill="#63b8ff" stroke="#63b8ff" points="70.29,-129.04 60.97,-134.09 71.4,-135.95 70.29,-129.04"/>
</g>
<!-- Node6 -->
<g id="node3" class="node">
<title>Node6</title>
<g id="a_node3"><a xlink:href="class_u_i_object.html" target="_top" xlink:title=" ">
<polygon fill="white" stroke="#666666" points="173.5,-167 119.5,-167 119.5,-148 173.5,-148 173.5,-167"/>
<text text-anchor="middle" x="146.5" y="-155" font-family="Helvetica,sans-Serif" font-size="10.00">UIObject</text>
</a>
</g>
</g>
<!-- Node0&#45;&gt;Node6 -->
<g id="edge2" class="edge">
<title>Node0&#45;&gt;Node6</title>
<path fill="none" stroke="#63b8ff" d="M70.59,-144.79C86.52,-147.5 104.78,-150.59 119.28,-153.05"/>
<polygon fill="#63b8ff" stroke="#63b8ff" points="71.41,-141.38 60.97,-143.16 70.24,-148.28 71.41,-141.38"/>
</g>
<!-- Node7 -->
<g id="node4" class="node">
<title>Node7</title>
<g id="a_node4"><a xlink:href="class_u_i_frame.html" target="_top" xlink:title=" ">
<polygon fill="white" stroke="#666666" points="281,-185 228,-185 228,-166 281,-166 281,-185"/>
<text text-anchor="middle" x="254.5" y="-173" font-family="Helvetica,sans-Serif" font-size="10.00">UIFrame</text>
</a>
</g>
</g>
<!-- Node6&#45;&gt;Node7 -->
<g id="edge3" class="edge">
<title>Node6&#45;&gt;Node7</title>
<path fill="none" stroke="#63b8ff" d="M185.32,-163.92C199.38,-166.31 214.99,-168.96 227.73,-171.12"/>
<polygon fill="#63b8ff" stroke="#63b8ff" points="185.91,-160.47 175.47,-162.25 184.74,-167.37 185.91,-160.47"/>
</g>
<!-- Node8 -->
<g id="node5" class="node">
<title>Node8</title>
<g id="a_node5"><a xlink:href="class_u_i_text.html" target="_top" xlink:title=" ">
<polygon fill="white" stroke="#666666" points="276.5,-148 232.5,-148 232.5,-129 276.5,-129 276.5,-148"/>
<text text-anchor="middle" x="254.5" y="-136" font-family="Helvetica,sans-Serif" font-size="10.00">UIText</text>
</a>
</g>
</g>
<!-- Node6&#45;&gt;Node8 -->
<g id="edge4" class="edge">
<title>Node6&#45;&gt;Node8</title>
<path fill="none" stroke="#63b8ff" d="M185.08,-150.76C200.94,-147.92 218.83,-144.72 232.33,-142.29"/>
<polygon fill="#63b8ff" stroke="#63b8ff" points="184.69,-147.28 175.46,-152.49 185.93,-154.17 184.69,-147.28"/>
</g>
<!-- Node2 -->
<g id="node6" class="node">
<title>Node2</title>
<g id="a_node6"><a xlink:href="class_renderable.html" target="_top" xlink:title=" ">
<polygon fill="white" stroke="#666666" points="65,-93 0,-93 0,-74 65,-74 65,-93"/>
<text text-anchor="middle" x="32.5" y="-81" font-family="Helvetica,sans-Serif" font-size="10.00">Renderable</text>
</a>
</g>
</g>
<!-- Node2&#45;&gt;Node1 -->
<g id="edge8" class="edge">
<title>Node2&#45;&gt;Node1</title>
<path fill="none" stroke="#63b8ff" d="M74.34,-96.99C94.48,-103.65 117.45,-111.23 131.72,-115.95"/>
<polygon fill="#63b8ff" stroke="#63b8ff" points="75.54,-93.7 64.95,-93.89 73.35,-100.35 75.54,-93.7"/>
</g>
<!-- Node2&#45;&gt;Node6 -->
<g id="edge9" class="edge">
<title>Node2&#45;&gt;Node6</title>
<path fill="none" stroke="#8b1a1a" d="M51.31,-100.9C64.29,-112.9 82.73,-128.59 101,-139.5 106.72,-142.92 113.22,-145.96 119.44,-148.52"/>
<polygon fill="#8b1a1a" stroke="#8b1a1a" points="54.04,-98.66 44.37,-94.33 49.23,-103.75 54.04,-98.66"/>
</g>
<!-- Node3 -->
<g id="node7" class="node">
<title>Node3</title>
<g id="a_node7"><a xlink:href="class_fluid_simulator.html" target="_top" xlink:title=" ">
<polygon fill="white" stroke="#666666" points="186,-93 107,-93 107,-74 186,-74 186,-93"/>
<text text-anchor="middle" x="146.5" y="-81" font-family="Helvetica,sans-Serif" font-size="10.00">FluidSimulator</text>
</a>
</g>
</g>
<!-- Node2&#45;&gt;Node3 -->
<g id="edge5" class="edge">
<title>Node2&#45;&gt;Node3</title>
<path fill="none" stroke="#63b8ff" d="M76.63,-83.5C86.59,-83.5 97.11,-83.5 106.86,-83.5"/>
<polygon fill="#63b8ff" stroke="#63b8ff" points="76.81,-80 66.81,-83.5 76.81,-87 76.81,-80"/>
</g>
<!-- Node4 -->
<g id="node8" class="node">
<title>Node4</title>
<g id="a_node8"><a xlink:href="class_particle_simulator.html" target="_top" xlink:title=" ">
<polygon fill="white" stroke="#666666" points="192,-56 101,-56 101,-37 192,-37 192,-56"/>
<text text-anchor="middle" x="146.5" y="-44" font-family="Helvetica,sans-Serif" font-size="10.00">ParticleSimulator</text>
</a>
</g>
</g>
<!-- Node2&#45;&gt;Node4 -->
<g id="edge6" class="edge">
<title>Node2&#45;&gt;Node4</title>
<path fill="none" stroke="#63b8ff" d="M74.1,-70.09C87.75,-65.58 102.71,-60.63 115.4,-56.44"/>
<polygon fill="#63b8ff" stroke="#63b8ff" points="73.35,-66.65 64.95,-73.11 75.54,-73.3 73.35,-66.65"/>
</g>
<!-- Node5 -->
<g id="node9" class="node">
<title>Node5</title>
<g id="a_node9"><a xlink:href="class_simulation.html" target="_top" xlink:title=" ">
<polygon fill="white" stroke="#666666" points="177.5,-19 115.5,-19 115.5,0 177.5,0 177.5,-19"/>
<text text-anchor="middle" x="146.5" y="-7" font-family="Helvetica,sans-Serif" font-size="10.00">Simulation</text>
</a>
</g>
</g>
<!-- Node2&#45;&gt;Node5 -->
<g id="edge7" class="edge">
<title>Node2&#45;&gt;Node5</title>
<path fill="none" stroke="#63b8ff" d="M52.26,-65.79C65.24,-54.17 83.3,-39.2 101,-28.5 106.61,-25.11 112.93,-22.02 119.01,-19.37"/>
<polygon fill="#63b8ff" stroke="#63b8ff" points="49.92,-63.19 44.9,-72.53 54.64,-68.35 49.92,-63.19"/>
</g>
</g>
</svg>
