<?xml version="1.0" encoding="UTF-8" standalone="no"?>
<!DOCTYPE svg PUBLIC "-//W3C//DTD SVG 1.1//EN"
 "http://www.w3.org/Graphics/SVG/1.1/DTD/svg11.dtd">
<!-- Generated by graphviz version 7.1.0 (20230121.1956)
 -->
<!-- Title: src/instance.cpp Pages: 1 -->
<!--zoomable 357 -->
<svg id="main" version="1.1" xmlns="http://www.w3.org/2000/svg" xmlns:xlink="http://www.w3.org/1999/xlink" xml:space="preserve" onload="init(evt)">
<style type="text/css"><![CDATA[
.edge:hover path { stroke: red; }
.edge:hover polygon { stroke: red; fill: red; }
]]></style>
<script type="text/javascript"><![CDATA[
var edges = document.getElementsByTagName('g');
if (edges && edges.length) {
  for (var i=0;i<edges.length;i++) {
    if (edges[i].id.substr(0,4)=='edge') {
      edges[i].setAttribute('class','edge');
    }
  }
}
]]></script>
        <defs>
                <circle id="rim" cx="0" cy="0" r="7"/>
                <circle id="rim2" cx="0" cy="0" r="3.5"/>
                <g id="zoomPlus">
                        <use xlink:href="#rim" fill="#404040">
                                <set attributeName="fill" to="#808080" begin="zoomplus.mouseover" end="zoomplus.mouseout"/>
                        </use>
                        <path d="M-4,0h8M0,-4v8" fill="none" stroke="white" stroke-width="1.5" pointer-events="none"/>
                </g>
                <g id="zoomMin">
                        <use xlink:href="#rim" fill="#404040">
                                <set attributeName="fill" to="#808080" begin="zoomminus.mouseover" end="zoomminus.mouseout"/>
                        </use>
                        <path d="M-4,0h8" fill="none" stroke="white" stroke-width="1.5" pointer-events="none"/>
                </g>
                <g id="dirArrow">
                        <path fill="none" stroke="white" stroke-width="1.5" d="M0,-3.0v7 M-2.5,-0.5L0,-3.0L2.5,-0.5"/>
                </g>
               <g id="resetDef">
                       <use xlink:href="#rim2" fill="#404040">
                               <set attributeName="fill" to="#808080" begin="reset.mouseover" end="reset.mouseout"/>
                       </use>
               </g>
        </defs>

<script type="text/javascript">
var viewWidth = 719;
var viewHeight = 357;
var sectionId = 'dynsection-0';
</script>
<script xlink:href="svgpan.js"/>
<svg id="graph" class="graph">
<g id="viewport">
<title>src/instance.cpp</title>
<!-- Node1 -->
<g id="node1" class="node">
<title>Node1</title>
<g id="a_node1"><a xlink:title=" ">
<polygon fill="#999999" stroke="#666666" points="268.5,-349 179.5,-349 179.5,-330 268.5,-330 268.5,-349"/>
<text text-anchor="middle" x="224" y="-337" font-family="Helvetica,sans-Serif" font-size="10.00">src/instance.cpp</text>
</a>
</g>
</g>
<!-- Node2 -->
<g id="node2" class="node">
<title>Node2</title>
<g id="a_node2"><a xlink:title=" ">
<polygon fill="#e0e0e0" stroke="#999999" points="56,-294 0,-294 0,-275 56,-275 56,-294"/>
<text text-anchor="middle" x="28" y="-282" font-family="Helvetica,sans-Serif" font-size="10.00">algorithm</text>
</a>
</g>
</g>
<!-- Node1&#45;&gt;Node2 -->
<g id="edge1" class="edge">
<title>Node1&#45;&gt;Node2</title>
<path fill="none" stroke="#63b8ff" d="M190.75,-329.51C156.5,-320.25 103.16,-305.82 66.96,-296.03"/>
<polygon fill="#63b8ff" stroke="#63b8ff" points="68.34,-292.78 57.77,-293.55 66.51,-299.54 68.34,-292.78"/>
</g>
<!-- Node3 -->
<g id="node3" class="node">
<title>Node3</title>
<g id="a_node3"><a xlink:title=" ">
<polygon fill="#e0e0e0" stroke="#999999" points="123.5,-294 74.5,-294 74.5,-275 123.5,-275 123.5,-294"/>
<text text-anchor="middle" x="99" y="-282" font-family="Helvetica,sans-Serif" font-size="10.00">fstream</text>
</a>
</g>
</g>
<!-- Node1&#45;&gt;Node3 -->
<g id="edge2" class="edge">
<title>Node1&#45;&gt;Node3</title>
<path fill="none" stroke="#63b8ff" d="M202.8,-329.51C182.92,-321.08 152.97,-308.38 130.34,-298.79"/>
<polygon fill="#63b8ff" stroke="#63b8ff" points="131.86,-295.63 121.28,-294.95 129.13,-302.07 131.86,-295.63"/>
</g>
<!-- Node4 -->
<g id="node4" class="node">
<title>Node4</title>
<g id="a_node4"><a xlink:title=" ">
<polygon fill="#e0e0e0" stroke="#999999" points="196,-294 142,-294 142,-275 196,-275 196,-294"/>
<text text-anchor="middle" x="169" y="-282" font-family="Helvetica,sans-Serif" font-size="10.00">iostream</text>
</a>
</g>
</g>
<!-- Node1&#45;&gt;Node4 -->
<g id="edge3" class="edge">
<title>Node1&#45;&gt;Node4</title>
<path fill="none" stroke="#63b8ff" d="M214.92,-329.75C207.16,-322.27 195.79,-311.32 186.3,-302.17"/>
<polygon fill="#63b8ff" stroke="#63b8ff" points="189,-299.91 179.37,-295.49 184.14,-304.95 189,-299.91"/>
</g>
<!-- Node5 -->
<g id="node5" class="node">
<title>Node5</title>
<g id="a_node5"><a xlink:href="instance_8h.html" target="_top" xlink:title=" ">
<polygon fill="white" stroke="#666666" points="255,-129 193,-129 193,-110 255,-110 255,-129"/>
<text text-anchor="middle" x="224" y="-117" font-family="Helvetica,sans-Serif" font-size="10.00">instance.h</text>
</a>
</g>
</g>
<!-- Node1&#45;&gt;Node5 -->
<g id="edge4" class="edge">
<title>Node1&#45;&gt;Node5</title>
<path fill="none" stroke="#63b8ff" d="M224,-329.68C224,-297.57 224,-186.33 224,-140.49"/>
<polygon fill="#63b8ff" stroke="#63b8ff" points="227.5,-140.7 224,-130.7 220.5,-140.7 227.5,-140.7"/>
</g>
<!-- Node12 -->
<g id="node12" class="node">
<title>Node12</title>
<g id="a_node12"><a xlink:href="ui_8h.html" target="_top" xlink:title=" ">
<polygon fill="white" stroke="#666666" points="322,-184 290,-184 290,-165 322,-165 322,-184"/>
<text text-anchor="middle" x="306" y="-172" font-family="Helvetica,sans-Serif" font-size="10.00">ui.h</text>
</a>
</g>
</g>
<!-- Node1&#45;&gt;Node12 -->
<g id="edge12" class="edge">
<title>Node1&#45;&gt;Node12</title>
<path fill="none" stroke="#63b8ff" d="M228.41,-329.74C241.26,-304.2 278.87,-229.43 296.58,-194.23"/>
<polygon fill="#63b8ff" stroke="#63b8ff" points="299.52,-196.17 300.89,-185.66 293.27,-193.02 299.52,-196.17"/>
</g>
<!-- Node15 -->
<g id="node15" class="node">
<title>Node15</title>
<g id="a_node15"><a xlink:href="uiframe_8h.html" target="_top" xlink:title=" ">
<polygon fill="white" stroke="#666666" points="366,-294 310,-294 310,-275 366,-275 366,-294"/>
<text text-anchor="middle" x="338" y="-282" font-family="Helvetica,sans-Serif" font-size="10.00">uiframe.h</text>
</a>
</g>
</g>
<!-- Node1&#45;&gt;Node15 -->
<g id="edge16" class="edge">
<title>Node1&#45;&gt;Node15</title>
<path fill="none" stroke="#63b8ff" d="M243.34,-329.51C261.22,-321.2 288.04,-308.73 308.57,-299.18"/>
<polygon fill="#63b8ff" stroke="#63b8ff" points="309.98,-302.39 317.57,-295 307.03,-296.04 309.98,-302.39"/>
</g>
<!-- Node17 -->
<g id="node17" class="node">
<title>Node17</title>
<g id="a_node17"><a xlink:href="uitext_8h.html" target="_top" xlink:title=" ">
<polygon fill="white" stroke="#666666" points="442.5,-294 393.5,-294 393.5,-275 442.5,-275 442.5,-294"/>
<text text-anchor="middle" x="418" y="-282" font-family="Helvetica,sans-Serif" font-size="10.00">uitext.h</text>
</a>
</g>
</g>
<!-- Node1&#45;&gt;Node17 -->
<g id="edge22" class="edge">
<title>Node1&#45;&gt;Node17</title>
<path fill="none" stroke="#63b8ff" d="M256.91,-329.51C291.73,-320 346.51,-305.03 382.34,-295.24"/>
<polygon fill="#63b8ff" stroke="#63b8ff" points="383.07,-298.67 391.8,-292.66 381.23,-291.92 383.07,-298.67"/>
</g>
<!-- Node6 -->
<g id="node6" class="node">
<title>Node6</title>
<g id="a_node6"><a xlink:title=" ">
<polygon fill="#e0e0e0" stroke="#999999" points="235,-74 137,-74 137,-55 235,-55 235,-74"/>
<text text-anchor="middle" x="186" y="-62" font-family="Helvetica,sans-Serif" font-size="10.00">nlohmann/json.hpp</text>
</a>
</g>
</g>
<!-- Node5&#45;&gt;Node6 -->
<g id="edge5" class="edge">
<title>Node5&#45;&gt;Node6</title>
<path fill="none" stroke="#63b8ff" d="M217.73,-109.75C212.64,-102.66 205.3,-92.42 198.97,-83.59"/>
<polygon fill="#63b8ff" stroke="#63b8ff" points="201.96,-81.76 193.29,-75.67 196.28,-85.84 201.96,-81.76"/>
</g>
<!-- Node7 -->
<g id="node7" class="node">
<title>Node7</title>
<g id="a_node7"><a xlink:title=" ">
<polygon fill="#e0e0e0" stroke="#999999" points="440.5,-74 399.5,-74 399.5,-55 440.5,-55 440.5,-74"/>
<text text-anchor="middle" x="420" y="-62" font-family="Helvetica,sans-Serif" font-size="10.00">string</text>
</a>
</g>
</g>
<!-- Node5&#45;&gt;Node7 -->
<g id="edge6" class="edge">
<title>Node5&#45;&gt;Node7</title>
<path fill="none" stroke="#63b8ff" d="M255.49,-109.98C291.91,-100.14 351.54,-84.01 388.12,-74.12"/>
<polygon fill="#63b8ff" stroke="#63b8ff" points="388.93,-77.53 397.67,-71.54 387.11,-70.77 388.93,-77.53"/>
</g>
<!-- Node8 -->
<g id="node8" class="node">
<title>Node8</title>
<g id="a_node8"><a xlink:title=" ">
<polygon fill="#e0e0e0" stroke="#999999" points="284,-19 242,-19 242,0 284,0 284,-19"/>
<text text-anchor="middle" x="263" y="-7" font-family="Helvetica,sans-Serif" font-size="10.00">vector</text>
</a>
</g>
</g>
<!-- Node5&#45;&gt;Node8 -->
<g id="edge7" class="edge">
<title>Node5&#45;&gt;Node8</title>
<path fill="none" stroke="#63b8ff" d="M228.33,-109.78C232.64,-100.91 239.27,-86.7 244,-74 249.36,-59.6 254.3,-42.95 257.8,-30.32"/>
<polygon fill="#63b8ff" stroke="#63b8ff" points="261.16,-31.27 260.38,-20.71 254.4,-29.46 261.16,-31.27"/>
</g>
<!-- Node9 -->
<g id="node9" class="node">
<title>Node9</title>
<g id="a_node9"><a xlink:href="event_8h.html" target="_top" xlink:title=" ">
<polygon fill="white" stroke="#666666" points="346.5,-74 299.5,-74 299.5,-55 346.5,-55 346.5,-74"/>
<text text-anchor="middle" x="323" y="-62" font-family="Helvetica,sans-Serif" font-size="10.00">event.h</text>
</a>
</g>
</g>
<!-- Node5&#45;&gt;Node9 -->
<g id="edge8" class="edge">
<title>Node5&#45;&gt;Node9</title>
<path fill="none" stroke="#63b8ff" d="M240.79,-109.51C256.1,-101.31 278.97,-89.07 296.7,-79.58"/>
<polygon fill="#63b8ff" stroke="#63b8ff" points="297.96,-82.88 305.12,-75.07 294.65,-76.71 297.96,-82.88"/>
</g>
<!-- Node9&#45;&gt;Node8 -->
<g id="edge10" class="edge">
<title>Node9&#45;&gt;Node8</title>
<path fill="none" stroke="#63b8ff" d="M312.82,-54.51C304.24,-46.93 291.73,-35.88 281.4,-26.75"/>
<polygon fill="#63b8ff" stroke="#63b8ff" points="283.97,-24.36 274.16,-20.36 279.34,-29.6 283.97,-24.36"/>
</g>
<!-- Node10 -->
<g id="node10" class="node">
<title>Node10</title>
<g id="a_node10"><a xlink:title=" ">
<polygon fill="#e0e0e0" stroke="#999999" points="360,-19 302,-19 302,0 360,0 360,-19"/>
<text text-anchor="middle" x="331" y="-7" font-family="Helvetica,sans-Serif" font-size="10.00">functional</text>
</a>
</g>
</g>
<!-- Node9&#45;&gt;Node10 -->
<g id="edge9" class="edge">
<title>Node9&#45;&gt;Node10</title>
<path fill="none" stroke="#63b8ff" d="M324.32,-54.75C325.31,-48.19 326.71,-38.95 327.97,-30.6"/>
<polygon fill="#63b8ff" stroke="#63b8ff" points="331.39,-31.35 329.42,-20.94 324.47,-30.3 331.39,-31.35"/>
</g>
<!-- Node11 -->
<g id="node11" class="node">
<title>Node11</title>
<g id="a_node11"><a xlink:title=" ">
<polygon fill="#e0e0e0" stroke="#999999" points="475,-19 423,-19 423,0 475,0 475,-19"/>
<text text-anchor="middle" x="449" y="-7" font-family="Helvetica,sans-Serif" font-size="10.00">memory</text>
</a>
</g>
</g>
<!-- Node9&#45;&gt;Node11 -->
<g id="edge11" class="edge">
<title>Node9&#45;&gt;Node11</title>
<path fill="none" stroke="#63b8ff" d="M344.37,-54.51C364.41,-46.08 394.6,-33.38 417.41,-23.79"/>
<polygon fill="#63b8ff" stroke="#63b8ff" points="418.69,-27.05 426.55,-19.94 415.97,-20.6 418.69,-27.05"/>
</g>
<!-- Node12&#45;&gt;Node5 -->
<g id="edge15" class="edge">
<title>Node12&#45;&gt;Node5</title>
<path fill="none" stroke="#63b8ff" d="M292.09,-164.51C279.76,-156.54 261.53,-144.75 247.03,-135.38"/>
<polygon fill="#63b8ff" stroke="#63b8ff" points="249.27,-132.67 238.98,-130.18 245.47,-138.55 249.27,-132.67"/>
</g>
<!-- Node13 -->
<g id="node13" class="node">
<title>Node13</title>
<g id="a_node13"><a xlink:title=" ">
<polygon fill="#e0e0e0" stroke="#999999" points="429,-129 361,-129 361,-110 429,-110 429,-129"/>
<text text-anchor="middle" x="395" y="-117" font-family="Helvetica,sans-Serif" font-size="10.00">glm/ext.hpp</text>
</a>
</g>
</g>
<!-- Node12&#45;&gt;Node13 -->
<g id="edge13" class="edge">
<title>Node12&#45;&gt;Node13</title>
<path fill="none" stroke="#63b8ff" d="M321.1,-164.51C334.6,-156.47 354.65,-144.53 370.46,-135.11"/>
<polygon fill="#63b8ff" stroke="#63b8ff" points="372.02,-138.26 378.82,-130.13 368.44,-132.24 372.02,-138.26"/>
</g>
<!-- Node14 -->
<g id="node14" class="node">
<title>Node14</title>
<g id="a_node14"><a xlink:href="renderable_8h.html" target="_top" xlink:title=" ">
<polygon fill="white" stroke="#666666" points="343,-129 273,-129 273,-110 343,-110 343,-129"/>
<text text-anchor="middle" x="308" y="-117" font-family="Helvetica,sans-Serif" font-size="10.00">renderable.h</text>
</a>
</g>
</g>
<!-- Node12&#45;&gt;Node14 -->
<g id="edge14" class="edge">
<title>Node12&#45;&gt;Node14</title>
<path fill="none" stroke="#63b8ff" d="M306.33,-164.75C306.57,-158.27 306.92,-149.16 307.23,-140.9"/>
<polygon fill="#63b8ff" stroke="#63b8ff" points="310.73,-141.08 307.61,-130.95 303.73,-140.82 310.73,-141.08"/>
</g>
<!-- Node16 -->
<g id="node16" class="node">
<title>Node16</title>
<g id="a_node16"><a xlink:href="uiobject_8h.html" target="_top" xlink:title=" ">
<polygon fill="white" stroke="#666666" points="375.5,-239 316.5,-239 316.5,-220 375.5,-220 375.5,-239"/>
<text text-anchor="middle" x="346" y="-227" font-family="Helvetica,sans-Serif" font-size="10.00">uiobject.h</text>
</a>
</g>
</g>
<!-- Node15&#45;&gt;Node16 -->
<g id="edge17" class="edge">
<title>Node15&#45;&gt;Node16</title>
<path fill="none" stroke="#63b8ff" d="M339.32,-274.75C340.31,-268.19 341.71,-258.95 342.97,-250.6"/>
<polygon fill="#63b8ff" stroke="#63b8ff" points="346.39,-251.35 344.42,-240.94 339.47,-250.3 346.39,-251.35"/>
</g>
<!-- Node16&#45;&gt;Node5 -->
<g id="edge19" class="edge">
<title>Node16&#45;&gt;Node5</title>
<path fill="none" stroke="#63b8ff" d="M330.81,-219.55C317.14,-211.17 296.84,-197.88 281,-184 264.87,-169.85 248.74,-151.39 237.78,-138.02"/>
<polygon fill="#63b8ff" stroke="#63b8ff" points="240.73,-136.1 231.74,-130.5 235.27,-140.48 240.73,-136.1"/>
</g>
<!-- Node16&#45;&gt;Node12 -->
<g id="edge21" class="edge">
<title>Node16&#45;&gt;Node12</title>
<path fill="none" stroke="#63b8ff" d="M339.39,-219.75C334.04,-212.66 326.32,-202.42 319.65,-193.59"/>
<polygon fill="#63b8ff" stroke="#63b8ff" points="322.48,-191.52 313.66,-185.65 316.89,-195.74 322.48,-191.52"/>
</g>
<!-- Node16&#45;&gt;Node13 -->
<g id="edge18" class="edge">
<title>Node16&#45;&gt;Node13</title>
<path fill="none" stroke="#63b8ff" d="M350.01,-219.66C357.91,-202.26 375.63,-163.19 386.32,-139.62"/>
<polygon fill="#63b8ff" stroke="#63b8ff" points="389.36,-141.39 390.31,-130.84 382.99,-138.5 389.36,-141.39"/>
</g>
<!-- Node16&#45;&gt;Node14 -->
<g id="edge20" class="edge">
<title>Node16&#45;&gt;Node14</title>
<path fill="none" stroke="#63b8ff" d="M344.62,-219.67C342.52,-207.22 338,-183.91 331,-165 327.76,-156.24 323.19,-147 318.98,-139.22"/>
<polygon fill="#63b8ff" stroke="#63b8ff" points="322.14,-137.71 314.18,-130.72 316.05,-141.15 322.14,-137.71"/>
</g>
<!-- Node17&#45;&gt;Node13 -->
<g id="edge23" class="edge">
<title>Node17&#45;&gt;Node13</title>
<path fill="none" stroke="#63b8ff" d="M416.76,-274.74C413.21,-249.53 402.88,-176.36 397.84,-140.62"/>
<polygon fill="#63b8ff" stroke="#63b8ff" points="401.32,-140.22 396.45,-130.81 394.39,-141.2 401.32,-140.22"/>
</g>
<!-- Node17&#45;&gt;Node16 -->
<g id="edge24" class="edge">
<title>Node17&#45;&gt;Node16</title>
<path fill="none" stroke="#63b8ff" d="M405.79,-274.51C395.17,-266.7 379.56,-255.21 366.96,-245.93"/>
<polygon fill="#63b8ff" stroke="#63b8ff" points="369.38,-243.36 359.25,-240.26 365.23,-249 369.38,-243.36"/>
</g>
<!-- Node18 -->
<g id="node18" class="node">
<title>Node18</title>
<g id="a_node18"><a xlink:href="font_8h.html" target="_top" xlink:title=" ">
<polygon fill="white" stroke="#666666" points="515.5,-184 474.5,-184 474.5,-165 515.5,-165 515.5,-184"/>
<text text-anchor="middle" x="495" y="-172" font-family="Helvetica,sans-Serif" font-size="10.00">font.h</text>
</a>
</g>
</g>
<!-- Node17&#45;&gt;Node18 -->
<g id="edge25" class="edge">
<title>Node17&#45;&gt;Node18</title>
<path fill="none" stroke="#63b8ff" d="M424.3,-274.66C436.88,-257.02 465.32,-217.12 482.05,-193.67"/>
<polygon fill="#63b8ff" stroke="#63b8ff" points="484.78,-195.87 487.73,-185.69 479.08,-191.8 484.78,-195.87"/>
</g>
<!-- Node18&#45;&gt;Node7 -->
<g id="edge29" class="edge">
<title>Node18&#45;&gt;Node7</title>
<path fill="none" stroke="#63b8ff" d="M488.86,-164.66C476.61,-147.02 448.91,-107.12 432.62,-83.67"/>
<polygon fill="#63b8ff" stroke="#63b8ff" points="435.66,-81.92 427.09,-75.7 429.91,-85.91 435.66,-81.92"/>
</g>
<!-- Node18&#45;&gt;Node11 -->
<g id="edge28" class="edge">
<title>Node18&#45;&gt;Node11</title>
<path fill="none" stroke="#63b8ff" d="M492.53,-164.74C485.38,-139.42 464.58,-65.72 454.55,-30.16"/>
<polygon fill="#63b8ff" stroke="#63b8ff" points="457.98,-29.44 451.9,-20.76 451.24,-31.34 457.98,-29.44"/>
</g>
<!-- Node18&#45;&gt;Node13 -->
<g id="edge27" class="edge">
<title>Node18&#45;&gt;Node13</title>
<path fill="none" stroke="#63b8ff" d="M478.04,-164.51C462.64,-156.35 439.69,-144.19 421.81,-134.71"/>
<polygon fill="#63b8ff" stroke="#63b8ff" points="423.53,-131.66 413.05,-130.07 420.25,-137.84 423.53,-131.66"/>
</g>
<!-- Node19 -->
<g id="node19" class="node">
<title>Node19</title>
<g id="a_node19"><a xlink:title=" ">
<polygon fill="#e0e0e0" stroke="#999999" points="579,-129 523,-129 523,-110 579,-110 579,-129"/>
<text text-anchor="middle" x="551" y="-117" font-family="Helvetica,sans-Serif" font-size="10.00">ft2build.h</text>
</a>
</g>
</g>
<!-- Node18&#45;&gt;Node19 -->
<g id="edge26" class="edge">
<title>Node18&#45;&gt;Node19</title>
<path fill="none" stroke="#63b8ff" d="M504.5,-164.51C512.43,-157 523.95,-146.1 533.54,-137.03"/>
<polygon fill="#63b8ff" stroke="#63b8ff" points="535.68,-139.81 540.54,-130.4 530.87,-134.73 535.68,-139.81"/>
</g>
<!-- Node20 -->
<g id="node20" class="node">
<title>Node20</title>
<g id="a_node20"><a xlink:title=" ">
<polygon fill="#e0e0e0" stroke="#999999" points="632.5,-129 597.5,-129 597.5,-110 632.5,-110 632.5,-129"/>
<text text-anchor="middle" x="615" y="-117" font-family="Helvetica,sans-Serif" font-size="10.00">map</text>
</a>
</g>
</g>
<!-- Node18&#45;&gt;Node20 -->
<g id="edge30" class="edge">
<title>Node18&#45;&gt;Node20</title>
<path fill="none" stroke="#63b8ff" d="M515.36,-164.51C535.03,-155.82 565.01,-142.58 586.94,-132.89"/>
<polygon fill="#63b8ff" stroke="#63b8ff" points="588.17,-136.18 595.9,-128.94 585.34,-129.77 588.17,-136.18"/>
</g>
<!-- Node21 -->
<g id="node21" class="node">
<title>Node21</title>
<g id="a_node21"><a xlink:title=" ">
<polygon fill="#e0e0e0" stroke="#999999" points="711,-129 651,-129 651,-110 711,-110 711,-129"/>
<text text-anchor="middle" x="681" y="-117" font-family="Helvetica,sans-Serif" font-size="10.00">GL/glew.h</text>
</a>
</g>
</g>
<!-- Node18&#45;&gt;Node21 -->
<g id="edge31" class="edge">
<title>Node18&#45;&gt;Node21</title>
<path fill="none" stroke="#63b8ff" d="M515.98,-167.52C545.89,-159 601.44,-143.17 639.77,-132.25"/>
<polygon fill="#63b8ff" stroke="#63b8ff" points="640.46,-135.69 649.12,-129.58 638.54,-128.96 640.46,-135.69"/>
</g>
</g>
</svg>
        <g id="navigator" transform="translate(0 0)" fill="#404254">
                <rect fill="#f2f5e9" fill-opacity="0.5" stroke="#606060" stroke-width=".5" x="0" y="0" width="60" height="60"/>
                <use id="zoomplus" xlink:href="#zoomPlus" x="17" y="9" onmousedown="handleZoom(evt,'in')"/>
                <use id="zoomminus" xlink:href="#zoomMin" x="42" y="9" onmousedown="handleZoom(evt,'out')"/>
                <use id="reset" xlink:href="#resetDef" x="30" y="36" onmousedown="handleReset()"/>
                <g id="arrowUp" xlink:href="#dirArrow" transform="translate(30 24)" onmousedown="handlePan(0,-1)">
                  <use xlink:href="#rim" fill="#404040">
                        <set attributeName="fill" to="#808080" begin="arrowUp.mouseover" end="arrowUp.mouseout"/>
                  </use>
                  <path fill="none" stroke="white" stroke-width="1.5" d="M0,-3.0v7 M-2.5,-0.5L0,-3.0L2.5,-0.5"/>
                </g>
                <g id="arrowRight" xlink:href="#dirArrow" transform="rotate(90) translate(36 -43)" onmousedown="handlePan(1,0)">
                  <use xlink:href="#rim" fill="#404040">
                        <set attributeName="fill" to="#808080" begin="arrowRight.mouseover" end="arrowRight.mouseout"/>
                  </use>
                  <path fill="none" stroke="white" stroke-width="1.5" d="M0,-3.0v7 M-2.5,-0.5L0,-3.0L2.5,-0.5"/>
                </g>
                <g id="arrowDown" xlink:href="#dirArrow" transform="rotate(180) translate(-30 -48)" onmousedown="handlePan(0,1)">
                  <use xlink:href="#rim" fill="#404040">
                        <set attributeName="fill" to="#808080" begin="arrowDown.mouseover" end="arrowDown.mouseout"/>
                  </use>
                  <path fill="none" stroke="white" stroke-width="1.5" d="M0,-3.0v7 M-2.5,-0.5L0,-3.0L2.5,-0.5"/>
                </g>
                <g id="arrowLeft" xlink:href="#dirArrow" transform="rotate(270) translate(-36 17)" onmousedown="handlePan(-1,0)">
                  <use xlink:href="#rim" fill="#404040">
                        <set attributeName="fill" to="#808080" begin="arrowLeft.mouseover" end="arrowLeft.mouseout"/>
                  </use>
                  <path fill="none" stroke="white" stroke-width="1.5" d="M0,-3.0v7 M-2.5,-0.5L0,-3.0L2.5,-0.5"/>
                </g>
        </g>
        <svg viewBox="0 0 15 15" width="100%" height="30px" preserveAspectRatio="xMaxYMin meet">
         <g id="arrow_out" transform="scale(0.3 0.3)">
          <a xlink:href="instance_8cpp__incl_org.svg" target="_base">
           <rect id="button" ry="5" rx="5" y="6" x="6" height="38" width="38"
                fill="#f2f5e9" fill-opacity="0.5" stroke="#606060" stroke-width="1.0"/>
           <path id="arrow"
             d="M 11.500037,31.436501 C 11.940474,20.09759 22.043105,11.32322 32.158766,21.979434 L 37.068811,17.246167 C 37.068811,17.246167 37.088388,32 37.088388,32 L 22.160133,31.978069 C 22.160133,31.978069 26.997745,27.140456 26.997745,27.140456 C 18.528582,18.264221 13.291696,25.230495 11.500037,31.436501 z"
             style="fill:#404040;"/>
          </a>
         </g>
        </svg>
</svg>
