<?xml version="1.0" encoding="UTF-8" standalone="no"?>
<!DOCTYPE svg PUBLIC "-//W3C//DTD SVG 1.1//EN"
 "http://www.w3.org/Graphics/SVG/1.1/DTD/svg11.dtd">
<!-- Generated by graphviz version 7.1.0 (20230121.1956)
 -->
<!-- Title: src/instance.h Pages: 1 -->
<svg width="649pt" height="247pt"
 viewBox="0.00 0.00 648.50 247.00" xmlns="http://www.w3.org/2000/svg" xmlns:xlink="http://www.w3.org/1999/xlink">
<g id="graph0" class="graph" transform="scale(1 1) rotate(0) translate(4 243)">
<title>src/instance.h</title>
<!-- Node1 -->
<g id="node1" class="node">
<title>Node1</title>
<g id="a_node1"><a xlink:title=" ">
<polygon fill="#999999" stroke="#666666" points="322.5,-239 244.5,-239 244.5,-220 322.5,-220 322.5,-239"/>
<text text-anchor="middle" x="283.5" y="-227" font-family="Helvetica,sans-Serif" font-size="10.00">src/instance.h</text>
</a>
</g>
</g>
<!-- Node2 -->
<g id="node2" class="node">
<title>Node2</title>
<g id="a_node2"><a xlink:href="instance_8cpp.html" target="_top" xlink:title=" ">
<polygon fill="white" stroke="#666666" points="89,-19 0,-19 0,0 89,0 89,-19"/>
<text text-anchor="middle" x="44.5" y="-7" font-family="Helvetica,sans-Serif" font-size="10.00">src/instance.cpp</text>
</a>
</g>
</g>
<!-- Node1&#45;&gt;Node2 -->
<g id="edge1" class="edge">
<title>Node1&#45;&gt;Node2</title>
<path fill="none" stroke="#63b8ff" d="M250,-215.23C210.06,-198.52 142.34,-167.31 91.5,-129 64.63,-108.75 51.94,-105.26 39.5,-74 32.22,-55.71 37.48,-32.16 41.36,-19.5"/>
<polygon fill="#63b8ff" stroke="#63b8ff" points="248.51,-218.4 259.09,-218.98 251.18,-211.93 248.51,-218.4"/>
</g>
<!-- Node3 -->
<g id="node3" class="node">
<title>Node3</title>
<g id="a_node3"><a xlink:href="ui_8h.html" target="_top" xlink:title=" ">
<polygon fill="white" stroke="#666666" points="367,-184 318,-184 318,-165 367,-165 367,-184"/>
<text text-anchor="middle" x="342.5" y="-172" font-family="Helvetica,sans-Serif" font-size="10.00">src/ui.h</text>
</a>
</g>
</g>
<!-- Node1&#45;&gt;Node3 -->
<g id="edge2" class="edge">
<title>Node1&#45;&gt;Node3</title>
<path fill="none" stroke="#63b8ff" d="M301.77,-212.09C311.96,-202.94 324.24,-191.9 332.64,-184.36"/>
<polygon fill="#63b8ff" stroke="#63b8ff" points="299.73,-209.21 294.63,-218.5 304.41,-214.42 299.73,-209.21"/>
</g>
<!-- Node10 -->
<g id="node10" class="node">
<title>Node10</title>
<g id="a_node10"><a xlink:href="uiobject_8h.html" target="_top" xlink:title=" ">
<polygon fill="white" stroke="#666666" points="321,-129 246,-129 246,-110 321,-110 321,-129"/>
<text text-anchor="middle" x="283.5" y="-117" font-family="Helvetica,sans-Serif" font-size="10.00">src/uiobject.h</text>
</a>
</g>
</g>
<!-- Node1&#45;&gt;Node10 -->
<g id="edge23" class="edge">
<title>Node1&#45;&gt;Node10</title>
<path fill="none" stroke="#63b8ff" d="M283.5,-208.24C283.5,-184.63 283.5,-146.65 283.5,-129.46"/>
<polygon fill="#63b8ff" stroke="#63b8ff" points="280,-208.15 283.5,-218.15 287,-208.15 280,-208.15"/>
</g>
<!-- Node3&#45;&gt;Node2 -->
<g id="edge4" class="edge">
<title>Node3&#45;&gt;Node2</title>
<path fill="none" stroke="#63b8ff" d="M306.4,-172.82C243.55,-169.51 114.7,-152.87 51.5,-74 38.88,-58.25 40.66,-32.8 42.75,-19.4"/>
<polygon fill="#63b8ff" stroke="#63b8ff" points="306.04,-176.31 316.18,-173.24 306.34,-169.31 306.04,-176.31"/>
</g>
<!-- Node4 -->
<g id="node4" class="node">
<title>Node4</title>
<g id="a_node4"><a xlink:href="core_8cpp.html" target="_top" xlink:title=" ">
<polygon fill="white" stroke="#666666" points="385,-19 314,-19 314,0 385,0 385,-19"/>
<text text-anchor="middle" x="349.5" y="-7" font-family="Helvetica,sans-Serif" font-size="10.00">src/core.cpp</text>
</a>
</g>
</g>
<!-- Node3&#45;&gt;Node4 -->
<g id="edge3" class="edge">
<title>Node3&#45;&gt;Node4</title>
<path fill="none" stroke="#63b8ff" d="M343.36,-153.44C344.89,-117.74 348.04,-44.57 349.12,-19.31"/>
<polygon fill="#63b8ff" stroke="#63b8ff" points="339.87,-153.08 342.94,-163.22 346.87,-153.38 339.87,-153.08"/>
</g>
<!-- Node5 -->
<g id="node5" class="node">
<title>Node5</title>
<g id="a_node5"><a xlink:href="particlesimulator_8h.html" target="_top" xlink:title=" ">
<polygon fill="white" stroke="#666666" points="529,-129 416,-129 416,-110 529,-110 529,-129"/>
<text text-anchor="middle" x="472.5" y="-117" font-family="Helvetica,sans-Serif" font-size="10.00">src/particlesimulator.h</text>
</a>
</g>
</g>
<!-- Node3&#45;&gt;Node5 -->
<g id="edge5" class="edge">
<title>Node3&#45;&gt;Node5</title>
<path fill="none" stroke="#63b8ff" d="M375.14,-160.19C398.79,-150.55 430.12,-137.78 450.77,-129.36"/>
<polygon fill="#63b8ff" stroke="#63b8ff" points="373.89,-156.92 365.95,-163.94 376.54,-163.4 373.89,-156.92"/>
</g>
<!-- Node9 -->
<g id="node9" class="node">
<title>Node9</title>
<g id="a_node9"><a xlink:href="ui_8cpp.html" target="_top" xlink:title=" ">
<polygon fill="white" stroke="#666666" points="437,-74 378,-74 378,-55 437,-55 437,-74"/>
<text text-anchor="middle" x="407.5" y="-62" font-family="Helvetica,sans-Serif" font-size="10.00">src/ui.cpp</text>
</a>
</g>
</g>
<!-- Node3&#45;&gt;Node9 -->
<g id="edge10" class="edge">
<title>Node3&#45;&gt;Node9</title>
<path fill="none" stroke="#63b8ff" d="M353.72,-154.86C367.84,-131.4 391.52,-92.04 402.11,-74.46"/>
<polygon fill="#63b8ff" stroke="#63b8ff" points="350.76,-152.99 348.6,-163.37 356.76,-156.6 350.76,-152.99"/>
</g>
<!-- Node3&#45;&gt;Node10 -->
<g id="edge11" class="edge">
<title>Node3&#45;&gt;Node10</title>
<path fill="none" stroke="#63b8ff" d="M324.23,-157.09C314.04,-147.94 301.76,-136.9 293.36,-129.36"/>
<polygon fill="#63b8ff" stroke="#63b8ff" points="321.59,-159.42 331.37,-163.5 326.27,-154.21 321.59,-159.42"/>
</g>
<!-- Node6 -->
<g id="node6" class="node">
<title>Node6</title>
<g id="a_node6"><a xlink:href="particlesimulator_8cpp.html" target="_top" xlink:title=" ">
<polygon fill="white" stroke="#666666" points="526,-19 403,-19 403,0 526,0 526,-19"/>
<text text-anchor="middle" x="464.5" y="-7" font-family="Helvetica,sans-Serif" font-size="10.00">src/particlesimulator.cpp</text>
</a>
</g>
</g>
<!-- Node5&#45;&gt;Node6 -->
<g id="edge6" class="edge">
<title>Node5&#45;&gt;Node6</title>
<path fill="none" stroke="#63b8ff" d="M471,-98.24C469.25,-74.63 466.44,-36.65 465.16,-19.46"/>
<polygon fill="#63b8ff" stroke="#63b8ff" points="467.5,-98.44 471.73,-108.15 474.49,-97.92 467.5,-98.44"/>
</g>
<!-- Node7 -->
<g id="node7" class="node">
<title>Node7</title>
<g id="a_node7"><a xlink:href="simulation_8h.html" target="_top" xlink:title=" ">
<polygon fill="white" stroke="#666666" points="579.5,-74 493.5,-74 493.5,-55 579.5,-55 579.5,-74"/>
<text text-anchor="middle" x="536.5" y="-62" font-family="Helvetica,sans-Serif" font-size="10.00">src/simulation.h</text>
</a>
</g>
</g>
<!-- Node5&#45;&gt;Node7 -->
<g id="edge7" class="edge">
<title>Node5&#45;&gt;Node7</title>
<path fill="none" stroke="#63b8ff" d="M491.98,-102.37C503.1,-93.16 516.6,-81.98 525.8,-74.36"/>
<polygon fill="#63b8ff" stroke="#63b8ff" points="489.99,-99.47 484.52,-108.54 494.46,-104.86 489.99,-99.47"/>
</g>
<!-- Node7&#45;&gt;Node4 -->
<g id="edge8" class="edge">
<title>Node7&#45;&gt;Node4</title>
<path fill="none" stroke="#63b8ff" d="M494.13,-51.49C459.78,-41.76 412.13,-28.25 381.07,-19.45"/>
<polygon fill="#63b8ff" stroke="#63b8ff" points="492.75,-54.74 503.32,-54.1 494.66,-48 492.75,-54.74"/>
</g>
<!-- Node8 -->
<g id="node8" class="node">
<title>Node8</title>
<g id="a_node8"><a xlink:href="simulation_8cpp.html" target="_top" xlink:title=" ">
<polygon fill="white" stroke="#666666" points="640.5,-19 544.5,-19 544.5,0 640.5,0 640.5,-19"/>
<text text-anchor="middle" x="592.5" y="-7" font-family="Helvetica,sans-Serif" font-size="10.00">src/simulation.cpp</text>
</a>
</g>
</g>
<!-- Node7&#45;&gt;Node8 -->
<g id="edge9" class="edge">
<title>Node7&#45;&gt;Node8</title>
<path fill="none" stroke="#63b8ff" d="M554.13,-46.81C563.74,-37.72 575.25,-26.82 583.14,-19.36"/>
<polygon fill="#63b8ff" stroke="#63b8ff" points="551.96,-44.05 547.1,-53.47 556.77,-49.14 551.96,-44.05"/>
</g>
<!-- Node10&#45;&gt;Node9 -->
<g id="edge12" class="edge">
<title>Node10&#45;&gt;Node9</title>
<path fill="none" stroke="#63b8ff" d="M314.94,-105.06C337.47,-95.43 367.17,-82.74 386.78,-74.36"/>
<polygon fill="#63b8ff" stroke="#63b8ff" points="313.75,-101.77 305.93,-108.91 316.5,-108.2 313.75,-101.77"/>
</g>
<!-- Node11 -->
<g id="node11" class="node">
<title>Node11</title>
<g id="a_node11"><a xlink:href="uiframe_8h.html" target="_top" xlink:title=" ">
<polygon fill="white" stroke="#666666" points="238,-74 165,-74 165,-55 238,-55 238,-74"/>
<text text-anchor="middle" x="201.5" y="-62" font-family="Helvetica,sans-Serif" font-size="10.00">src/uiframe.h</text>
</a>
</g>
</g>
<!-- Node10&#45;&gt;Node11 -->
<g id="edge13" class="edge">
<title>Node10&#45;&gt;Node11</title>
<path fill="none" stroke="#63b8ff" d="M260.23,-103.46C245.69,-94.06 227.46,-82.28 215.2,-74.36"/>
<polygon fill="#63b8ff" stroke="#63b8ff" points="258.02,-106.2 268.32,-108.69 261.82,-100.32 258.02,-106.2"/>
</g>
<!-- Node13 -->
<g id="node13" class="node">
<title>Node13</title>
<g id="a_node13"><a xlink:href="uiobject_8cpp.html" target="_top" xlink:title=" ">
<polygon fill="white" stroke="#666666" points="146.5,-74 60.5,-74 60.5,-55 146.5,-55 146.5,-74"/>
<text text-anchor="middle" x="103.5" y="-62" font-family="Helvetica,sans-Serif" font-size="10.00">src/uiobject.cpp</text>
</a>
</g>
</g>
<!-- Node10&#45;&gt;Node13 -->
<g id="edge17" class="edge">
<title>Node10&#45;&gt;Node13</title>
<path fill="none" stroke="#63b8ff" d="M242.29,-106.36C209.25,-96.64 163.66,-83.21 133.88,-74.45"/>
<polygon fill="#63b8ff" stroke="#63b8ff" points="240.93,-109.61 251.51,-109.08 242.91,-102.9 240.93,-109.61"/>
</g>
<!-- Node14 -->
<g id="node14" class="node">
<title>Node14</title>
<g id="a_node14"><a xlink:href="uitext_8h.html" target="_top" xlink:title=" ">
<polygon fill="white" stroke="#666666" points="321,-74 256,-74 256,-55 321,-55 321,-74"/>
<text text-anchor="middle" x="288.5" y="-62" font-family="Helvetica,sans-Serif" font-size="10.00">src/uitext.h</text>
</a>
</g>
</g>
<!-- Node10&#45;&gt;Node14 -->
<g id="edge18" class="edge">
<title>Node10&#45;&gt;Node14</title>
<path fill="none" stroke="#63b8ff" d="M285.4,-98.35C286.18,-90.1 287.04,-80.97 287.66,-74.44"/>
<polygon fill="#63b8ff" stroke="#63b8ff" points="281.92,-97.96 284.47,-108.24 288.89,-98.61 281.92,-97.96"/>
</g>
<!-- Node11&#45;&gt;Node2 -->
<g id="edge15" class="edge">
<title>Node11&#45;&gt;Node2</title>
<path fill="none" stroke="#63b8ff" d="M164.04,-50.85C135.36,-41.17 96.52,-28.06 71,-19.45"/>
<polygon fill="#63b8ff" stroke="#63b8ff" points="162.84,-54.14 173.43,-54.03 165.08,-47.51 162.84,-54.14"/>
</g>
<!-- Node11&#45;&gt;Node4 -->
<g id="edge14" class="edge">
<title>Node11&#45;&gt;Node4</title>
<path fill="none" stroke="#63b8ff" d="M237.21,-50.71C264.29,-41.01 300.83,-27.93 324.76,-19.36"/>
<polygon fill="#63b8ff" stroke="#63b8ff" points="236.27,-47.33 228.03,-54 238.63,-53.92 236.27,-47.33"/>
</g>
<!-- Node12 -->
<g id="node12" class="node">
<title>Node12</title>
<g id="a_node12"><a xlink:href="uiframe_8cpp.html" target="_top" xlink:title=" ">
<polygon fill="white" stroke="#666666" points="201,-19 118,-19 118,0 201,0 201,-19"/>
<text text-anchor="middle" x="159.5" y="-7" font-family="Helvetica,sans-Serif" font-size="10.00">src/uiframe.cpp</text>
</a>
</g>
</g>
<!-- Node11&#45;&gt;Node12 -->
<g id="edge16" class="edge">
<title>Node11&#45;&gt;Node12</title>
<path fill="none" stroke="#63b8ff" d="M187.58,-45.93C180.54,-37.06 172.31,-26.67 166.59,-19.44"/>
<polygon fill="#63b8ff" stroke="#63b8ff" points="184.67,-47.9 193.62,-53.56 190.16,-43.55 184.67,-47.9"/>
</g>
<!-- Node14&#45;&gt;Node2 -->
<g id="edge20" class="edge">
<title>Node14&#45;&gt;Node2</title>
<path fill="none" stroke="#63b8ff" d="M244.41,-53.92C199.34,-44.13 129.88,-29.05 85.84,-19.48"/>
<polygon fill="#63b8ff" stroke="#63b8ff" points="243.6,-57.33 254.11,-56.03 245.08,-50.49 243.6,-57.33"/>
</g>
<!-- Node14&#45;&gt;Node4 -->
<g id="edge19" class="edge">
<title>Node14&#45;&gt;Node4</title>
<path fill="none" stroke="#63b8ff" d="M307.39,-47.09C317.92,-37.94 330.62,-26.9 339.31,-19.36"/>
<polygon fill="#63b8ff" stroke="#63b8ff" points="305.24,-44.32 299.99,-53.52 309.83,-49.6 305.24,-44.32"/>
</g>
<!-- Node14&#45;&gt;Node6 -->
<g id="edge21" class="edge">
<title>Node14&#45;&gt;Node6</title>
<path fill="none" stroke="#63b8ff" d="M329.22,-51.24C361.48,-41.52 405.81,-28.18 434.79,-19.45"/>
<polygon fill="#63b8ff" stroke="#63b8ff" points="328.37,-47.84 319.81,-54.07 330.39,-54.54 328.37,-47.84"/>
</g>
<!-- Node15 -->
<g id="node15" class="node">
<title>Node15</title>
<g id="a_node15"><a xlink:href="uitext_8cpp.html" target="_top" xlink:title=" ">
<polygon fill="white" stroke="#666666" points="295.5,-19 219.5,-19 219.5,0 295.5,0 295.5,-19"/>
<text text-anchor="middle" x="257.5" y="-7" font-family="Helvetica,sans-Serif" font-size="10.00">src/uitext.cpp</text>
</a>
</g>
</g>
<!-- Node14&#45;&gt;Node15 -->
<g id="edge22" class="edge">
<title>Node14&#45;&gt;Node15</title>
<path fill="none" stroke="#63b8ff" d="M277.72,-45.08C272.65,-36.4 266.82,-26.44 262.73,-19.44"/>
<polygon fill="#63b8ff" stroke="#63b8ff" points="274.55,-46.58 282.62,-53.44 280.59,-43.04 274.55,-46.58"/>
</g>
</g>
</svg>
