<?xml version="1.0" encoding="UTF-8" standalone="no"?>
<!DOCTYPE svg PUBLIC "-//W3C//DTD SVG 1.1//EN"
 "http://www.w3.org/Graphics/SVG/1.1/DTD/svg11.dtd">
<!-- Generated by graphviz version 7.1.0 (20230121.1956)
 -->
<!-- Title: src/main.cpp Pages: 1 -->
<svg width="467pt" height="192pt"
 viewBox="0.00 0.00 467.00 192.00" xmlns="http://www.w3.org/2000/svg" xmlns:xlink="http://www.w3.org/1999/xlink">
<g id="graph0" class="graph" transform="scale(1 1) rotate(0) translate(4 188)">
<title>src/main.cpp</title>
<!-- Node1 -->
<g id="node1" class="node">
<title>Node1</title>
<g id="a_node1"><a xlink:title=" ">
<polygon fill="#999999" stroke="#666666" points="220.5,-184 147.5,-184 147.5,-165 220.5,-165 220.5,-184"/>
<text text-anchor="middle" x="184" y="-172" font-family="Helvetica,sans-Serif" font-size="10.00">src/main.cpp</text>
</a>
</g>
</g>
<!-- Node2 -->
<g id="node2" class="node">
<title>Node2</title>
<g id="a_node2"><a xlink:title=" ">
<polygon fill="#e0e0e0" stroke="#999999" points="138,-129 84,-129 84,-110 138,-110 138,-129"/>
<text text-anchor="middle" x="111" y="-117" font-family="Helvetica,sans-Serif" font-size="10.00">iostream</text>
</a>
</g>
</g>
<!-- Node1&#45;&gt;Node2 -->
<g id="edge1" class="edge">
<title>Node1&#45;&gt;Node2</title>
<path fill="none" stroke="#63b8ff" d="M171.62,-164.51C160.85,-156.7 145.03,-145.21 132.25,-135.93"/>
<polygon fill="#63b8ff" stroke="#63b8ff" points="134.57,-133.29 124.43,-130.25 130.46,-138.95 134.57,-133.29"/>
</g>
<!-- Node3 -->
<g id="node3" class="node">
<title>Node3</title>
<g id="a_node3"><a xlink:href="window_8h.html" target="_top" xlink:title=" ">
<polygon fill="white" stroke="#666666" points="212,-129 156,-129 156,-110 212,-110 212,-129"/>
<text text-anchor="middle" x="184" y="-117" font-family="Helvetica,sans-Serif" font-size="10.00">window.h</text>
</a>
</g>
</g>
<!-- Node1&#45;&gt;Node3 -->
<g id="edge2" class="edge">
<title>Node1&#45;&gt;Node3</title>
<path fill="none" stroke="#63b8ff" d="M184,-164.75C184,-158.27 184,-149.16 184,-140.9"/>
<polygon fill="#63b8ff" stroke="#63b8ff" points="187.5,-140.96 184,-130.96 180.5,-140.96 187.5,-140.96"/>
</g>
<!-- Node8 -->
<g id="node8" class="node">
<title>Node8</title>
<g id="a_node8"><a xlink:href="core_8h.html" target="_top" xlink:title=" ">
<polygon fill="white" stroke="#666666" points="341,-129 297,-129 297,-110 341,-110 341,-129"/>
<text text-anchor="middle" x="319" y="-117" font-family="Helvetica,sans-Serif" font-size="10.00">core.h</text>
</a>
</g>
</g>
<!-- Node1&#45;&gt;Node8 -->
<g id="edge7" class="edge">
<title>Node1&#45;&gt;Node8</title>
<path fill="none" stroke="#63b8ff" d="M206.9,-164.51C228.69,-155.96 261.7,-143 286.26,-133.35"/>
<polygon fill="#63b8ff" stroke="#63b8ff" points="287.45,-136.65 295.48,-129.74 284.89,-130.13 287.45,-136.65"/>
</g>
<!-- Node4 -->
<g id="node4" class="node">
<title>Node4</title>
<g id="a_node4"><a xlink:title=" ">
<polygon fill="#e0e0e0" stroke="#999999" points="271,-19 213,-19 213,0 271,0 271,-19"/>
<text text-anchor="middle" x="242" y="-7" font-family="Helvetica,sans-Serif" font-size="10.00">functional</text>
</a>
</g>
</g>
<!-- Node3&#45;&gt;Node4 -->
<g id="edge3" class="edge">
<title>Node3&#45;&gt;Node4</title>
<path fill="none" stroke="#63b8ff" d="M185.38,-109.83C187.65,-97.16 192.98,-73.13 203,-55 208.5,-45.05 216.54,-35.38 223.89,-27.62"/>
<polygon fill="#63b8ff" stroke="#63b8ff" points="226.36,-30.1 230.94,-20.54 221.4,-25.16 226.36,-30.1"/>
</g>
<!-- Node5 -->
<g id="node5" class="node">
<title>Node5</title>
<g id="a_node5"><a xlink:title=" ">
<polygon fill="#e0e0e0" stroke="#999999" points="60,-74 0,-74 0,-55 60,-55 60,-74"/>
<text text-anchor="middle" x="30" y="-62" font-family="Helvetica,sans-Serif" font-size="10.00">GL/glew.h</text>
</a>
</g>
</g>
<!-- Node3&#45;&gt;Node5 -->
<g id="edge4" class="edge">
<title>Node3&#45;&gt;Node5</title>
<path fill="none" stroke="#63b8ff" d="M157.88,-109.51C132.8,-100.88 94.69,-87.76 66.6,-78.1"/>
<polygon fill="#63b8ff" stroke="#63b8ff" points="68.02,-74.88 57.43,-74.94 65.74,-81.5 68.02,-74.88"/>
</g>
<!-- Node6 -->
<g id="node6" class="node">
<title>Node6</title>
<g id="a_node6"><a xlink:title=" ">
<polygon fill="#e0e0e0" stroke="#999999" points="156,-74 78,-74 78,-55 156,-55 156,-74"/>
<text text-anchor="middle" x="117" y="-62" font-family="Helvetica,sans-Serif" font-size="10.00">GLFW/glfw3.h</text>
</a>
</g>
</g>
<!-- Node3&#45;&gt;Node6 -->
<g id="edge5" class="edge">
<title>Node3&#45;&gt;Node6</title>
<path fill="none" stroke="#63b8ff" d="M172.63,-109.51C162.95,-101.85 148.8,-90.66 137.19,-81.47"/>
<polygon fill="#63b8ff" stroke="#63b8ff" points="139.4,-78.76 129.38,-75.3 135.06,-84.25 139.4,-78.76"/>
</g>
<!-- Node7 -->
<g id="node7" class="node">
<title>Node7</title>
<g id="a_node7"><a xlink:title=" ">
<polygon fill="#e0e0e0" stroke="#999999" points="280,-74 212,-74 212,-55 280,-55 280,-74"/>
<text text-anchor="middle" x="246" y="-62" font-family="Helvetica,sans-Serif" font-size="10.00">glm/ext.hpp</text>
</a>
</g>
</g>
<!-- Node3&#45;&gt;Node7 -->
<g id="edge6" class="edge">
<title>Node3&#45;&gt;Node7</title>
<path fill="none" stroke="#63b8ff" d="M194.52,-109.51C203.39,-101.93 216.31,-90.88 226.99,-81.75"/>
<polygon fill="#63b8ff" stroke="#63b8ff" points="229.16,-84.5 234.49,-75.34 224.61,-79.18 229.16,-84.5"/>
</g>
<!-- Node8&#45;&gt;Node7 -->
<g id="edge10" class="edge">
<title>Node8&#45;&gt;Node7</title>
<path fill="none" stroke="#63b8ff" d="M306.62,-109.51C295.85,-101.7 280.03,-90.21 267.25,-80.93"/>
<polygon fill="#63b8ff" stroke="#63b8ff" points="269.57,-78.29 259.43,-75.25 265.46,-83.95 269.57,-78.29"/>
</g>
<!-- Node9 -->
<g id="node9" class="node">
<title>Node9</title>
<g id="a_node9"><a xlink:title=" ">
<polygon fill="#e0e0e0" stroke="#999999" points="459,-19 407,-19 407,0 459,0 459,-19"/>
<text text-anchor="middle" x="433" y="-7" font-family="Helvetica,sans-Serif" font-size="10.00">memory</text>
</a>
</g>
</g>
<!-- Node8&#45;&gt;Node9 -->
<g id="edge8" class="edge">
<title>Node8&#45;&gt;Node9</title>
<path fill="none" stroke="#63b8ff" d="M341.44,-113.62C363.02,-107.78 395.09,-95.93 414,-74 424.47,-61.86 429.17,-44.12 431.28,-30.48"/>
<polygon fill="#63b8ff" stroke="#63b8ff" points="434.72,-31.22 432.41,-20.88 427.77,-30.4 434.72,-31.22"/>
</g>
<!-- Node10 -->
<g id="node10" class="node">
<title>Node10</title>
<g id="a_node10"><a xlink:title=" ">
<polygon fill="#e0e0e0" stroke="#999999" points="339.5,-74 298.5,-74 298.5,-55 339.5,-55 339.5,-74"/>
<text text-anchor="middle" x="319" y="-62" font-family="Helvetica,sans-Serif" font-size="10.00">string</text>
</a>
</g>
</g>
<!-- Node8&#45;&gt;Node10 -->
<g id="edge9" class="edge">
<title>Node8&#45;&gt;Node10</title>
<path fill="none" stroke="#63b8ff" d="M319,-109.75C319,-103.27 319,-94.16 319,-85.9"/>
<polygon fill="#63b8ff" stroke="#63b8ff" points="322.5,-85.96 319,-75.96 315.5,-85.96 322.5,-85.96"/>
</g>
<!-- Node11 -->
<g id="node11" class="node">
<title>Node11</title>
<g id="a_node11"><a xlink:href="event_8h.html" target="_top" xlink:title=" ">
<polygon fill="white" stroke="#666666" points="404.5,-74 357.5,-74 357.5,-55 404.5,-55 404.5,-74"/>
<text text-anchor="middle" x="381" y="-62" font-family="Helvetica,sans-Serif" font-size="10.00">event.h</text>
</a>
</g>
</g>
<!-- Node8&#45;&gt;Node11 -->
<g id="edge11" class="edge">
<title>Node8&#45;&gt;Node11</title>
<path fill="none" stroke="#63b8ff" d="M329.52,-109.51C338.39,-101.93 351.31,-90.88 361.99,-81.75"/>
<polygon fill="#63b8ff" stroke="#63b8ff" points="364.16,-84.5 369.49,-75.34 359.61,-79.18 364.16,-84.5"/>
</g>
<!-- Node11&#45;&gt;Node4 -->
<g id="edge12" class="edge">
<title>Node11&#45;&gt;Node4</title>
<path fill="none" stroke="#63b8ff" d="M357.42,-54.51C335.02,-45.97 301.1,-33.03 275.82,-23.4"/>
<polygon fill="#63b8ff" stroke="#63b8ff" points="277.24,-20.19 266.65,-19.9 274.74,-26.73 277.24,-20.19"/>
</g>
<!-- Node11&#45;&gt;Node9 -->
<g id="edge14" class="edge">
<title>Node11&#45;&gt;Node9</title>
<path fill="none" stroke="#63b8ff" d="M389.59,-54.75C396.84,-47.35 407.45,-36.54 416.37,-27.45"/>
<polygon fill="#63b8ff" stroke="#63b8ff" points="418.66,-30.11 423.17,-20.52 413.66,-25.21 418.66,-30.11"/>
</g>
<!-- Node12 -->
<g id="node12" class="node">
<title>Node12</title>
<g id="a_node12"><a xlink:title=" ">
<polygon fill="#e0e0e0" stroke="#999999" points="389,-19 347,-19 347,0 389,0 389,-19"/>
<text text-anchor="middle" x="368" y="-7" font-family="Helvetica,sans-Serif" font-size="10.00">vector</text>
</a>
</g>
</g>
<!-- Node11&#45;&gt;Node12 -->
<g id="edge13" class="edge">
<title>Node11&#45;&gt;Node12</title>
<path fill="none" stroke="#63b8ff" d="M378.85,-54.75C377.24,-48.19 374.98,-38.95 372.93,-30.6"/>
<polygon fill="#63b8ff" stroke="#63b8ff" points="376.34,-29.79 370.55,-20.91 369.54,-31.46 376.34,-29.79"/>
</g>
</g>
</svg>
