<?xml version="1.0" encoding="UTF-8" standalone="no"?>
<!DOCTYPE svg PUBLIC "-//W3C//DTD SVG 1.1//EN"
 "http://www.w3.org/Graphics/SVG/1.1/DTD/svg11.dtd">
<!-- Generated by graphviz version 7.1.0 (20230121.1956)
 -->
<!-- Title: src/particlesimulator.h Pages: 1 -->
<!--zoomable 247 -->
<svg id="main" version="1.1" xmlns="http://www.w3.org/2000/svg" xmlns:xlink="http://www.w3.org/1999/xlink" xml:space="preserve" onload="init(evt)">
<style type="text/css"><![CDATA[
.edge:hover path { stroke: red; }
.edge:hover polygon { stroke: red; fill: red; }
]]></style>
<script type="text/javascript"><![CDATA[
var edges = document.getElementsByTagName('g');
if (edges && edges.length) {
  for (var i=0;i<edges.length;i++) {
    if (edges[i].id.substr(0,4)=='edge') {
      edges[i].setAttribute('class','edge');
    }
  }
}
]]></script>
        <defs>
                <circle id="rim" cx="0" cy="0" r="7"/>
                <circle id="rim2" cx="0" cy="0" r="3.5"/>
                <g id="zoomPlus">
                        <use xlink:href="#rim" fill="#404040">
                                <set attributeName="fill" to="#808080" begin="zoomplus.mouseover" end="zoomplus.mouseout"/>
                        </use>
                        <path d="M-4,0h8M0,-4v8" fill="none" stroke="white" stroke-width="1.5" pointer-events="none"/>
                </g>
                <g id="zoomMin">
                        <use xlink:href="#rim" fill="#404040">
                                <set attributeName="fill" to="#808080" begin="zoomminus.mouseover" end="zoomminus.mouseout"/>
                        </use>
                        <path d="M-4,0h8" fill="none" stroke="white" stroke-width="1.5" pointer-events="none"/>
                </g>
                <g id="dirArrow">
                        <path fill="none" stroke="white" stroke-width="1.5" d="M0,-3.0v7 M-2.5,-0.5L0,-3.0L2.5,-0.5"/>
                </g>
               <g id="resetDef">
                       <use xlink:href="#rim2" fill="#404040">
                               <set attributeName="fill" to="#808080" begin="reset.mouseover" end="reset.mouseout"/>
                       </use>
               </g>
        </defs>

<script type="text/javascript">
var viewWidth = 581;
var viewHeight = 247;
var sectionId = 'dynsection-0';
</script>
<script xlink:href="svgpan.js"/>
<svg id="graph" class="graph">
<g id="viewport">
<title>src/particlesimulator.h</title>
<!-- Node1 -->
<g id="node1" class="node">
<title>Node1</title>
<g id="a_node1"><a xlink:title=" ">
<polygon fill="#999999" stroke="#666666" points="339.54,-239 226.54,-239 226.54,-220 339.54,-220 339.54,-239"/>
<text text-anchor="middle" x="283.04" y="-227" font-family="Helvetica,sans-Serif" font-size="10.00">src/particlesimulator.h</text>
</a>
</g>
</g>
<!-- Node2 -->
<g id="node2" class="node">
<title>Node2</title>
<g id="a_node2"><a xlink:title=" ">
<polygon fill="#e0e0e0" stroke="#999999" points="68.04,-19 8.04,-19 8.04,0 68.04,0 68.04,-19"/>
<text text-anchor="middle" x="38.04" y="-7" font-family="Helvetica,sans-Serif" font-size="10.00">GL/glew.h</text>
</a>
</g>
</g>
<!-- Node1&#45;&gt;Node2 -->
<g id="edge1" class="edge">
<title>Node1&#45;&gt;Node2</title>
<path fill="none" stroke="#63b8ff" d="M226.04,-227.26C182.27,-223.82 122.07,-213.48 78.04,-184 28.66,-150.94 19.73,-130.73 2.04,-74 -0.48,-65.94 -0.78,-62.96 2.04,-55 5.71,-44.63 12.93,-34.91 19.95,-27.21"/>
<polygon fill="#63b8ff" stroke="#63b8ff" points="22.28,-29.84 26.81,-20.27 17.3,-24.92 22.28,-29.84"/>
</g>
<!-- Node3 -->
<g id="node3" class="node">
<title>Node3</title>
<g id="a_node3"><a xlink:title=" ">
<polygon fill="#e0e0e0" stroke="#999999" points="379.04,-129 311.04,-129 311.04,-110 379.04,-110 379.04,-129"/>
<text text-anchor="middle" x="345.04" y="-117" font-family="Helvetica,sans-Serif" font-size="10.00">glm/ext.hpp</text>
</a>
</g>
</g>
<!-- Node1&#45;&gt;Node3 -->
<g id="edge2" class="edge">
<title>Node1&#45;&gt;Node3</title>
<path fill="none" stroke="#63b8ff" d="M288.11,-219.66C298.15,-202.18 320.73,-162.84 334.24,-139.3"/>
<polygon fill="#63b8ff" stroke="#63b8ff" points="337.2,-141.19 339.14,-130.77 331.13,-137.7 337.2,-141.19"/>
</g>
<!-- Node4 -->
<g id="node4" class="node">
<title>Node4</title>
<g id="a_node4"><a xlink:title=" ">
<polygon fill="#e0e0e0" stroke="#999999" points="219.04,-19 167.04,-19 167.04,0 219.04,0 219.04,-19"/>
<text text-anchor="middle" x="193.04" y="-7" font-family="Helvetica,sans-Serif" font-size="10.00">memory</text>
</a>
</g>
</g>
<!-- Node1&#45;&gt;Node4 -->
<g id="edge3" class="edge">
<title>Node1&#45;&gt;Node4</title>
<path fill="none" stroke="#63b8ff" d="M279.4,-219.68C266.05,-187.36 219.62,-74.9 200.93,-29.61"/>
<polygon fill="#63b8ff" stroke="#63b8ff" points="204.25,-28.49 197.2,-20.59 197.78,-31.16 204.25,-28.49"/>
</g>
<!-- Node5 -->
<g id="node5" class="node">
<title>Node5</title>
<g id="a_node5"><a xlink:title=" ">
<polygon fill="#e0e0e0" stroke="#999999" points="304.04,-19 262.04,-19 262.04,0 304.04,0 304.04,-19"/>
<text text-anchor="middle" x="283.04" y="-7" font-family="Helvetica,sans-Serif" font-size="10.00">vector</text>
</a>
</g>
</g>
<!-- Node1&#45;&gt;Node5 -->
<g id="edge4" class="edge">
<title>Node1&#45;&gt;Node5</title>
<path fill="none" stroke="#63b8ff" d="M283.04,-219.68C283.04,-187.57 283.04,-76.33 283.04,-30.49"/>
<polygon fill="#63b8ff" stroke="#63b8ff" points="286.54,-30.7 283.04,-20.7 279.54,-30.7 286.54,-30.7"/>
</g>
<!-- Node6 -->
<g id="node6" class="node">
<title>Node6</title>
<g id="a_node6"><a xlink:title=" ">
<polygon fill="#e0e0e0" stroke="#999999" points="487.04,-184 437.04,-184 437.04,-165 487.04,-165 487.04,-184"/>
<text text-anchor="middle" x="462.04" y="-172" font-family="Helvetica,sans-Serif" font-size="10.00">optional</text>
</a>
</g>
</g>
<!-- Node1&#45;&gt;Node6 -->
<g id="edge5" class="edge">
<title>Node1&#45;&gt;Node6</title>
<path fill="none" stroke="#63b8ff" d="M313.4,-219.51C344.45,-210.32 392.69,-196.03 425.74,-186.25"/>
<polygon fill="#63b8ff" stroke="#63b8ff" points="426.69,-189.61 435.29,-183.42 424.71,-182.9 426.69,-189.61"/>
</g>
<!-- Node7 -->
<g id="node7" class="node">
<title>Node7</title>
<g id="a_node7"><a xlink:href="shader_8h.html" target="_top" xlink:title=" ">
<polygon fill="white" stroke="#666666" points="65.04,-74 11.04,-74 11.04,-55 65.04,-55 65.04,-74"/>
<text text-anchor="middle" x="38.04" y="-62" font-family="Helvetica,sans-Serif" font-size="10.00">shader.h</text>
</a>
</g>
</g>
<!-- Node1&#45;&gt;Node7 -->
<g id="edge6" class="edge">
<title>Node1&#45;&gt;Node7</title>
<path fill="none" stroke="#63b8ff" d="M226.08,-221.53C190.9,-215.42 145.82,-204.21 110.04,-184 79.66,-166.85 71.39,-159.26 54.04,-129 46.32,-115.55 42.29,-98.4 40.2,-85.32"/>
<polygon fill="#63b8ff" stroke="#63b8ff" points="43.72,-85.23 38.94,-75.77 36.78,-86.15 43.72,-85.23"/>
</g>
<!-- Node8 -->
<g id="node8" class="node">
<title>Node8</title>
<g id="a_node8"><a xlink:href="rendertargetarray_8h.html" target="_top" xlink:title=" ">
<polygon fill="white" stroke="#666666" points="217.04,-184 119.04,-184 119.04,-165 217.04,-165 217.04,-184"/>
<text text-anchor="middle" x="168.04" y="-172" font-family="Helvetica,sans-Serif" font-size="10.00">rendertargetarray.h</text>
</a>
</g>
</g>
<!-- Node1&#45;&gt;Node8 -->
<g id="edge8" class="edge">
<title>Node1&#45;&gt;Node8</title>
<path fill="none" stroke="#63b8ff" d="M263.53,-219.51C245.41,-211.16 218.19,-198.61 197.44,-189.05"/>
<polygon fill="#63b8ff" stroke="#63b8ff" points="199.18,-186 188.63,-184.99 196.25,-192.36 199.18,-186"/>
</g>
<!-- Node10 -->
<g id="node10" class="node">
<title>Node10</title>
<g id="a_node10"><a xlink:href="renderable_8h.html" target="_top" xlink:title=" ">
<polygon fill="white" stroke="#666666" points="547.04,-129 477.04,-129 477.04,-110 547.04,-110 547.04,-129"/>
<text text-anchor="middle" x="512.04" y="-117" font-family="Helvetica,sans-Serif" font-size="10.00">renderable.h</text>
</a>
</g>
</g>
<!-- Node1&#45;&gt;Node10 -->
<g id="edge15" class="edge">
<title>Node1&#45;&gt;Node10</title>
<path fill="none" stroke="#63b8ff" d="M306.25,-219.52C328.09,-210.9 361.6,-197.28 390.04,-184 408.32,-175.46 455.67,-150.5 485.71,-134.54"/>
<polygon fill="#63b8ff" stroke="#63b8ff" points="487.02,-137.81 494.21,-130.02 483.73,-131.63 487.02,-137.81"/>
</g>
<!-- Node11 -->
<g id="node11" class="node">
<title>Node11</title>
<g id="a_node11"><a xlink:href="ui_8h.html" target="_top" xlink:title=" ">
<polygon fill="white" stroke="#666666" points="381.04,-184 349.04,-184 349.04,-165 381.04,-165 381.04,-184"/>
<text text-anchor="middle" x="365.04" y="-172" font-family="Helvetica,sans-Serif" font-size="10.00">ui.h</text>
</a>
</g>
</g>
<!-- Node1&#45;&gt;Node11 -->
<g id="edge16" class="edge">
<title>Node1&#45;&gt;Node11</title>
<path fill="none" stroke="#63b8ff" d="M296.95,-219.51C309.27,-211.54 327.51,-199.75 342.01,-190.38"/>
<polygon fill="#63b8ff" stroke="#63b8ff" points="343.56,-193.55 350.06,-185.18 339.76,-187.67 343.56,-193.55"/>
</g>
<!-- Node7&#45;&gt;Node2 -->
<g id="edge7" class="edge">
<title>Node7&#45;&gt;Node2</title>
<path fill="none" stroke="#63b8ff" d="M38.04,-54.75C38.04,-48.27 38.04,-39.16 38.04,-30.9"/>
<polygon fill="#63b8ff" stroke="#63b8ff" points="41.54,-30.96 38.04,-20.96 34.54,-30.96 41.54,-30.96"/>
</g>
<!-- Node8&#45;&gt;Node4 -->
<g id="edge10" class="edge">
<title>Node8&#45;&gt;Node4</title>
<path fill="none" stroke="#63b8ff" d="M169.38,-164.74C173.25,-139.53 184.47,-66.36 189.95,-30.62"/>
<polygon fill="#63b8ff" stroke="#63b8ff" points="193.4,-31.22 191.46,-20.8 186.48,-30.16 193.4,-31.22"/>
</g>
<!-- Node8&#45;&gt;Node5 -->
<g id="edge9" class="edge">
<title>Node8&#45;&gt;Node5</title>
<path fill="none" stroke="#63b8ff" d="M174.22,-164.74C192.39,-138.98 245.9,-63.13 270.46,-28.33"/>
<polygon fill="#63b8ff" stroke="#63b8ff" points="273.05,-30.73 275.95,-20.54 267.33,-26.7 273.05,-30.73"/>
</g>
<!-- Node9 -->
<g id="node9" class="node">
<title>Node9</title>
<g id="a_node9"><a xlink:href="rendertarget_8h.html" target="_top" xlink:title=" ">
<polygon fill="white" stroke="#666666" points="140.54,-129 63.54,-129 63.54,-110 140.54,-110 140.54,-129"/>
<text text-anchor="middle" x="102.04" y="-117" font-family="Helvetica,sans-Serif" font-size="10.00">rendertarget.h</text>
</a>
</g>
</g>
<!-- Node8&#45;&gt;Node9 -->
<g id="edge11" class="edge">
<title>Node8&#45;&gt;Node9</title>
<path fill="none" stroke="#63b8ff" d="M156.84,-164.51C147.3,-156.85 133.36,-145.66 121.93,-136.47"/>
<polygon fill="#63b8ff" stroke="#63b8ff" points="124.24,-133.84 114.25,-130.31 119.85,-139.3 124.24,-133.84"/>
</g>
<!-- Node9&#45;&gt;Node2 -->
<g id="edge12" class="edge">
<title>Node9&#45;&gt;Node2</title>
<path fill="none" stroke="#63b8ff" d="M98.93,-109.51C94.38,-96.86 85.21,-73.31 74.04,-55 68.22,-45.47 60.58,-35.74 53.83,-27.81"/>
<polygon fill="#63b8ff" stroke="#63b8ff" points="56.47,-25.51 47.23,-20.31 51.21,-30.13 56.47,-25.51"/>
</g>
<!-- Node9&#45;&gt;Node4 -->
<g id="edge13" class="edge">
<title>Node9&#45;&gt;Node4</title>
<path fill="none" stroke="#63b8ff" d="M109.21,-109.85C119.37,-97.6 138.55,-74.53 155.04,-55 162.57,-46.07 171.01,-36.19 178.01,-28"/>
<polygon fill="#63b8ff" stroke="#63b8ff" points="180.6,-30.36 184.45,-20.49 175.29,-25.8 180.6,-30.36"/>
</g>
<!-- Node9&#45;&gt;Node7 -->
<g id="edge14" class="edge">
<title>Node9&#45;&gt;Node7</title>
<path fill="none" stroke="#63b8ff" d="M91.18,-109.51C81.93,-101.85 68.41,-90.66 57.33,-81.47"/>
<polygon fill="#63b8ff" stroke="#63b8ff" points="59.83,-79.01 49.9,-75.32 55.37,-84.4 59.83,-79.01"/>
</g>
<!-- Node11&#45;&gt;Node3 -->
<g id="edge17" class="edge">
<title>Node11&#45;&gt;Node3</title>
<path fill="none" stroke="#63b8ff" d="M361.73,-164.75C359.2,-158.04 355.61,-148.52 352.4,-140.02"/>
<polygon fill="#63b8ff" stroke="#63b8ff" points="355.75,-138.98 348.95,-130.86 349.2,-141.45 355.75,-138.98"/>
</g>
<!-- Node11&#45;&gt;Node10 -->
<g id="edge18" class="edge">
<title>Node11&#45;&gt;Node10</title>
<path fill="none" stroke="#63b8ff" d="M381.33,-167.63C404.17,-159.39 446.28,-144.21 476.54,-133.3"/>
<polygon fill="#63b8ff" stroke="#63b8ff" points="477.45,-136.69 485.67,-130.01 475.08,-130.1 477.45,-136.69"/>
</g>
<!-- Node12 -->
<g id="node12" class="node">
<title>Node12</title>
<g id="a_node12"><a xlink:href="instance_8h.html" target="_top" xlink:title=" ">
<polygon fill="white" stroke="#666666" points="459.04,-129 397.04,-129 397.04,-110 459.04,-110 459.04,-129"/>
<text text-anchor="middle" x="428.04" y="-117" font-family="Helvetica,sans-Serif" font-size="10.00">instance.h</text>
</a>
</g>
</g>
<!-- Node11&#45;&gt;Node12 -->
<g id="edge19" class="edge">
<title>Node11&#45;&gt;Node12</title>
<path fill="none" stroke="#63b8ff" d="M375.72,-164.51C384.74,-156.93 397.87,-145.88 408.72,-136.75"/>
<polygon fill="#63b8ff" stroke="#63b8ff" points="410.95,-139.45 416.35,-130.33 406.44,-134.09 410.95,-139.45"/>
</g>
<!-- Node12&#45;&gt;Node5 -->
<g id="edge22" class="edge">
<title>Node12&#45;&gt;Node5</title>
<path fill="none" stroke="#63b8ff" d="M421.41,-109.83C411.09,-96.73 390.05,-71.66 368.04,-55 351.7,-42.63 331.43,-31.87 314.78,-24.03"/>
<polygon fill="#63b8ff" stroke="#63b8ff" points="316.37,-20.91 305.82,-19.94 313.46,-27.28 316.37,-20.91"/>
</g>
<!-- Node13 -->
<g id="node13" class="node">
<title>Node13</title>
<g id="a_node13"><a xlink:title=" ">
<polygon fill="#e0e0e0" stroke="#999999" points="513.04,-74 415.04,-74 415.04,-55 513.04,-55 513.04,-74"/>
<text text-anchor="middle" x="464.04" y="-62" font-family="Helvetica,sans-Serif" font-size="10.00">nlohmann/json.hpp</text>
</a>
</g>
</g>
<!-- Node12&#45;&gt;Node13 -->
<g id="edge20" class="edge">
<title>Node12&#45;&gt;Node13</title>
<path fill="none" stroke="#63b8ff" d="M433.98,-109.75C438.75,-102.73 445.6,-92.64 451.56,-83.87"/>
<polygon fill="#63b8ff" stroke="#63b8ff" points="454.39,-85.93 457.11,-75.69 448.6,-82 454.39,-85.93"/>
</g>
<!-- Node14 -->
<g id="node14" class="node">
<title>Node14</title>
<g id="a_node14"><a xlink:title=" ">
<polygon fill="#e0e0e0" stroke="#999999" points="572.54,-74 531.54,-74 531.54,-55 572.54,-55 572.54,-74"/>
<text text-anchor="middle" x="552.04" y="-62" font-family="Helvetica,sans-Serif" font-size="10.00">string</text>
</a>
</g>
</g>
<!-- Node12&#45;&gt;Node14 -->
<g id="edge21" class="edge">
<title>Node12&#45;&gt;Node14</title>
<path fill="none" stroke="#63b8ff" d="M449.07,-109.51C468.79,-101.08 498.5,-88.38 520.95,-78.79"/>
<polygon fill="#63b8ff" stroke="#63b8ff" points="522.1,-82.1 529.92,-74.95 519.35,-75.66 522.1,-82.1"/>
</g>
<!-- Node15 -->
<g id="node15" class="node">
<title>Node15</title>
<g id="a_node15"><a xlink:href="event_8h.html" target="_top" xlink:title=" ">
<polygon fill="white" stroke="#666666" points="358.54,-74 311.54,-74 311.54,-55 358.54,-55 358.54,-74"/>
<text text-anchor="middle" x="335.04" y="-62" font-family="Helvetica,sans-Serif" font-size="10.00">event.h</text>
</a>
</g>
</g>
<!-- Node12&#45;&gt;Node15 -->
<g id="edge23" class="edge">
<title>Node12&#45;&gt;Node15</title>
<path fill="none" stroke="#63b8ff" d="M412.26,-109.51C398.01,-101.39 376.8,-89.3 360.21,-79.85"/>
<polygon fill="#63b8ff" stroke="#63b8ff" points="362.32,-77.02 351.9,-75.11 358.85,-83.1 362.32,-77.02"/>
</g>
<!-- Node15&#45;&gt;Node4 -->
<g id="edge26" class="edge">
<title>Node15&#45;&gt;Node4</title>
<path fill="none" stroke="#63b8ff" d="M311.27,-54.63C288.33,-46.07 253.36,-33.02 227.4,-23.32"/>
<polygon fill="#63b8ff" stroke="#63b8ff" points="228.89,-20.15 218.3,-19.93 226.44,-26.71 228.89,-20.15"/>
</g>
<!-- Node15&#45;&gt;Node5 -->
<g id="edge25" class="edge">
<title>Node15&#45;&gt;Node5</title>
<path fill="none" stroke="#63b8ff" d="M326.45,-54.75C319.19,-47.35 308.58,-36.54 299.67,-27.45"/>
<polygon fill="#63b8ff" stroke="#63b8ff" points="302.37,-25.21 292.87,-20.52 297.38,-30.11 302.37,-25.21"/>
</g>
<!-- Node16 -->
<g id="node16" class="node">
<title>Node16</title>
<g id="a_node16"><a xlink:title=" ">
<polygon fill="#e0e0e0" stroke="#999999" points="380.04,-19 322.04,-19 322.04,0 380.04,0 380.04,-19"/>
<text text-anchor="middle" x="351.04" y="-7" font-family="Helvetica,sans-Serif" font-size="10.00">functional</text>
</a>
</g>
</g>
<!-- Node15&#45;&gt;Node16 -->
<g id="edge24" class="edge">
<title>Node15&#45;&gt;Node16</title>
<path fill="none" stroke="#63b8ff" d="M337.68,-54.75C339.68,-48.11 342.51,-38.73 345.06,-30.31"/>
<polygon fill="#63b8ff" stroke="#63b8ff" points="348.36,-31.48 347.9,-20.89 341.66,-29.45 348.36,-31.48"/>
</g>
</g>
</svg>
        <g id="navigator" transform="translate(0 0)" fill="#404254">
                <rect fill="#f2f5e9" fill-opacity="0.5" stroke="#606060" stroke-width=".5" x="0" y="0" width="60" height="60"/>
                <use id="zoomplus" xlink:href="#zoomPlus" x="17" y="9" onmousedown="handleZoom(evt,'in')"/>
                <use id="zoomminus" xlink:href="#zoomMin" x="42" y="9" onmousedown="handleZoom(evt,'out')"/>
                <use id="reset" xlink:href="#resetDef" x="30" y="36" onmousedown="handleReset()"/>
                <g id="arrowUp" xlink:href="#dirArrow" transform="translate(30 24)" onmousedown="handlePan(0,-1)">
                  <use xlink:href="#rim" fill="#404040">
                        <set attributeName="fill" to="#808080" begin="arrowUp.mouseover" end="arrowUp.mouseout"/>
                  </use>
                  <path fill="none" stroke="white" stroke-width="1.5" d="M0,-3.0v7 M-2.5,-0.5L0,-3.0L2.5,-0.5"/>
                </g>
                <g id="arrowRight" xlink:href="#dirArrow" transform="rotate(90) translate(36 -43)" onmousedown="handlePan(1,0)">
                  <use xlink:href="#rim" fill="#404040">
                        <set attributeName="fill" to="#808080" begin="arrowRight.mouseover" end="arrowRight.mouseout"/>
                  </use>
                  <path fill="none" stroke="white" stroke-width="1.5" d="M0,-3.0v7 M-2.5,-0.5L0,-3.0L2.5,-0.5"/>
                </g>
                <g id="arrowDown" xlink:href="#dirArrow" transform="rotate(180) translate(-30 -48)" onmousedown="handlePan(0,1)">
                  <use xlink:href="#rim" fill="#404040">
                        <set attributeName="fill" to="#808080" begin="arrowDown.mouseover" end="arrowDown.mouseout"/>
                  </use>
                  <path fill="none" stroke="white" stroke-width="1.5" d="M0,-3.0v7 M-2.5,-0.5L0,-3.0L2.5,-0.5"/>
                </g>
                <g id="arrowLeft" xlink:href="#dirArrow" transform="rotate(270) translate(-36 17)" onmousedown="handlePan(-1,0)">
                  <use xlink:href="#rim" fill="#404040">
                        <set attributeName="fill" to="#808080" begin="arrowLeft.mouseover" end="arrowLeft.mouseout"/>
                  </use>
                  <path fill="none" stroke="white" stroke-width="1.5" d="M0,-3.0v7 M-2.5,-0.5L0,-3.0L2.5,-0.5"/>
                </g>
        </g>
        <svg viewBox="0 0 15 15" width="100%" height="30px" preserveAspectRatio="xMaxYMin meet">
         <g id="arrow_out" transform="scale(0.3 0.3)">
          <a xlink:href="particlesimulator_8h__incl_org.svg" target="_base">
           <rect id="button" ry="5" rx="5" y="6" x="6" height="38" width="38"
                fill="#f2f5e9" fill-opacity="0.5" stroke="#606060" stroke-width="1.0"/>
           <path id="arrow"
             d="M 11.500037,31.436501 C 11.940474,20.09759 22.043105,11.32322 32.158766,21.979434 L 37.068811,17.246167 C 37.068811,17.246167 37.088388,32 37.088388,32 L 22.160133,31.978069 C 22.160133,31.978069 26.997745,27.140456 26.997745,27.140456 C 18.528582,18.264221 13.291696,25.230495 11.500037,31.436501 z"
             style="fill:#404040;"/>
          </a>
         </g>
        </svg>
</svg>
