<?xml version="1.0" encoding="UTF-8" standalone="no"?>
<!DOCTYPE svg PUBLIC "-//W3C//DTD SVG 1.1//EN"
 "http://www.w3.org/Graphics/SVG/1.1/DTD/svg11.dtd">
<!-- Generated by graphviz version 7.1.0 (20230121.1956)
 -->
<!-- Title: src/particlesimulator.cpp Pages: 1 -->
<!--zoomable 357 -->
<svg id="main" version="1.1" xmlns="http://www.w3.org/2000/svg" xmlns:xlink="http://www.w3.org/1999/xlink" xml:space="preserve" onload="init(evt)">
<style type="text/css"><![CDATA[
.edge:hover path { stroke: red; }
.edge:hover polygon { stroke: red; fill: red; }
]]></style>
<script type="text/javascript"><![CDATA[
var edges = document.getElementsByTagName('g');
if (edges && edges.length) {
  for (var i=0;i<edges.length;i++) {
    if (edges[i].id.substr(0,4)=='edge') {
      edges[i].setAttribute('class','edge');
    }
  }
}
]]></script>
        <defs>
                <circle id="rim" cx="0" cy="0" r="7"/>
                <circle id="rim2" cx="0" cy="0" r="3.5"/>
                <g id="zoomPlus">
                        <use xlink:href="#rim" fill="#404040">
                                <set attributeName="fill" to="#808080" begin="zoomplus.mouseover" end="zoomplus.mouseout"/>
                        </use>
                        <path d="M-4,0h8M0,-4v8" fill="none" stroke="white" stroke-width="1.5" pointer-events="none"/>
                </g>
                <g id="zoomMin">
                        <use xlink:href="#rim" fill="#404040">
                                <set attributeName="fill" to="#808080" begin="zoomminus.mouseover" end="zoomminus.mouseout"/>
                        </use>
                        <path d="M-4,0h8" fill="none" stroke="white" stroke-width="1.5" pointer-events="none"/>
                </g>
                <g id="dirArrow">
                        <path fill="none" stroke="white" stroke-width="1.5" d="M0,-3.0v7 M-2.5,-0.5L0,-3.0L2.5,-0.5"/>
                </g>
               <g id="resetDef">
                       <use xlink:href="#rim2" fill="#404040">
                               <set attributeName="fill" to="#808080" begin="reset.mouseover" end="reset.mouseout"/>
                       </use>
               </g>
        </defs>

<script type="text/javascript">
var viewWidth = 1150;
var viewHeight = 357;
var sectionId = 'dynsection-0';
</script>
<script xlink:href="svgpan.js"/>
<svg id="graph" class="graph">
<g id="viewport">
<title>src/particlesimulator.cpp</title>
<!-- Node1 -->
<g id="node1" class="node">
<title>Node1</title>
<g id="a_node1"><a xlink:title=" ">
<polygon fill="#999999" stroke="#666666" points="849.5,-349 726.5,-349 726.5,-330 849.5,-330 849.5,-349"/>
<text text-anchor="middle" x="788" y="-337" font-family="Helvetica,sans-Serif" font-size="10.00">src/particlesimulator.cpp</text>
</a>
</g>
</g>
<!-- Node2 -->
<g id="node2" class="node">
<title>Node2</title>
<g id="a_node2"><a xlink:href="particlesimulator_8h.html" target="_top" xlink:title=" ">
<polygon fill="white" stroke="#666666" points="433,-239 337,-239 337,-220 433,-220 433,-239"/>
<text text-anchor="middle" x="385" y="-227" font-family="Helvetica,sans-Serif" font-size="10.00">particlesimulator.h</text>
</a>
</g>
</g>
<!-- Node1&#45;&gt;Node2 -->
<g id="edge1" class="edge">
<title>Node1&#45;&gt;Node2</title>
<path fill="none" stroke="#63b8ff" d="M726.14,-333.83C669.58,-328.31 584.15,-316.83 513,-294 474.97,-281.8 434.15,-259.83 409.09,-245.2"/>
<polygon fill="#63b8ff" stroke="#63b8ff" points="411.05,-242.3 400.67,-240.21 407.48,-248.32 411.05,-242.3"/>
</g>
<!-- Node3 -->
<g id="node3" class="node">
<title>Node3</title>
<g id="a_node3"><a xlink:title=" ">
<polygon fill="#e0e0e0" stroke="#999999" points="161,-19 101,-19 101,0 161,0 161,-19"/>
<text text-anchor="middle" x="131" y="-7" font-family="Helvetica,sans-Serif" font-size="10.00">GL/glew.h</text>
</a>
</g>
</g>
<!-- Node1&#45;&gt;Node3 -->
<g id="edge29" class="edge">
<title>Node1&#45;&gt;Node3</title>
<path fill="none" stroke="#63b8ff" d="M726.17,-336.51C540.4,-329.72 0,-303.68 0,-230.5 0,-230.5 0,-230.5 0,-118.5 0,-70.14 53.81,-39.4 92.46,-23.57"/>
<polygon fill="#63b8ff" stroke="#63b8ff" points="93.44,-26.94 101.49,-20.04 90.9,-20.42 93.44,-26.94"/>
</g>
<!-- Node7 -->
<g id="node7" class="node">
<title>Node7</title>
<g id="a_node7"><a xlink:title=" ">
<polygon fill="#e0e0e0" stroke="#999999" points="520,-184 470,-184 470,-165 520,-165 520,-184"/>
<text text-anchor="middle" x="495" y="-172" font-family="Helvetica,sans-Serif" font-size="10.00">optional</text>
</a>
</g>
</g>
<!-- Node1&#45;&gt;Node7 -->
<g id="edge34" class="edge">
<title>Node1&#45;&gt;Node7</title>
<path fill="none" stroke="#63b8ff" d="M761.24,-329.59C737.4,-321.34 701.78,-308.22 672,-294 627.98,-272.97 617.49,-266.22 577,-239 554.64,-223.97 530.4,-204.81 514.12,-191.49"/>
<polygon fill="#63b8ff" stroke="#63b8ff" points="516.64,-189.03 506.7,-185.36 512.18,-194.43 516.64,-189.03"/>
</g>
<!-- Node15 -->
<g id="node15" class="node">
<title>Node15</title>
<g id="a_node15"><a xlink:title=" ">
<polygon fill="#e0e0e0" stroke="#999999" points="833.5,-74 792.5,-74 792.5,-55 833.5,-55 833.5,-74"/>
<text text-anchor="middle" x="813" y="-62" font-family="Helvetica,sans-Serif" font-size="10.00">string</text>
</a>
</g>
</g>
<!-- Node1&#45;&gt;Node15 -->
<g id="edge33" class="edge">
<title>Node1&#45;&gt;Node15</title>
<path fill="none" stroke="#63b8ff" d="M793.44,-329.63C803.95,-311.63 826,-269.26 826,-230.5 826,-230.5 826,-230.5 826,-173.5 826,-142.7 820.72,-107.32 816.89,-85.68"/>
<polygon fill="#63b8ff" stroke="#63b8ff" points="820.35,-85.1 815.08,-75.91 813.46,-86.38 820.35,-85.1"/>
</g>
<!-- Node18 -->
<g id="node18" class="node">
<title>Node18</title>
<g id="a_node18"><a xlink:title=" ">
<polygon fill="#e0e0e0" stroke="#999999" points="908,-294 854,-294 854,-275 908,-275 908,-294"/>
<text text-anchor="middle" x="881" y="-282" font-family="Helvetica,sans-Serif" font-size="10.00">iostream</text>
</a>
</g>
</g>
<!-- Node1&#45;&gt;Node18 -->
<g id="edge28" class="edge">
<title>Node1&#45;&gt;Node18</title>
<path fill="none" stroke="#63b8ff" d="M803.78,-329.51C818.02,-321.39 839.24,-309.3 855.83,-299.85"/>
<polygon fill="#63b8ff" stroke="#63b8ff" points="857.19,-303.1 864.14,-295.11 853.72,-297.02 857.19,-303.1"/>
</g>
<!-- Node19 -->
<g id="node19" class="node">
<title>Node19</title>
<g id="a_node19"><a xlink:title=" ">
<polygon fill="#e0e0e0" stroke="#999999" points="1004,-294 926,-294 926,-275 1004,-275 1004,-294"/>
<text text-anchor="middle" x="965" y="-282" font-family="Helvetica,sans-Serif" font-size="10.00">GLFW/glfw3.h</text>
</a>
</g>
</g>
<!-- Node1&#45;&gt;Node19 -->
<g id="edge30" class="edge">
<title>Node1&#45;&gt;Node19</title>
<path fill="none" stroke="#63b8ff" d="M818.03,-329.51C847.23,-320.76 891.81,-307.42 924.21,-297.71"/>
<polygon fill="#63b8ff" stroke="#63b8ff" points="925.1,-301.1 933.67,-294.88 923.09,-294.4 925.1,-301.1"/>
</g>
<!-- Node20 -->
<g id="node20" class="node">
<title>Node20</title>
<g id="a_node20"><a xlink:title=" ">
<polygon fill="#e0e0e0" stroke="#999999" points="1067.5,-294 1022.5,-294 1022.5,-275 1067.5,-275 1067.5,-294"/>
<text text-anchor="middle" x="1045" y="-282" font-family="Helvetica,sans-Serif" font-size="10.00">cstdlib</text>
</a>
</g>
</g>
<!-- Node1&#45;&gt;Node20 -->
<g id="edge31" class="edge">
<title>Node1&#45;&gt;Node20</title>
<path fill="none" stroke="#63b8ff" d="M838.24,-329.52C881.56,-321.57 946.02,-309.22 1011.4,-294.24"/>
<polygon fill="#63b8ff" stroke="#63b8ff" points="1011.89,-297.72 1020.84,-292.06 1010.31,-290.9 1011.89,-297.72"/>
</g>
<!-- Node21 -->
<g id="node21" class="node">
<title>Node21</title>
<g id="a_node21"><a xlink:title=" ">
<polygon fill="#e0e0e0" stroke="#999999" points="1142,-294 1086,-294 1086,-275 1142,-275 1142,-294"/>
<text text-anchor="middle" x="1114" y="-282" font-family="Helvetica,sans-Serif" font-size="10.00">algorithm</text>
</a>
</g>
</g>
<!-- Node1&#45;&gt;Node21 -->
<g id="edge32" class="edge">
<title>Node1&#45;&gt;Node21</title>
<path fill="none" stroke="#63b8ff" d="M849.96,-330.29C906.11,-322.56 991.38,-310.06 1074.57,-294.35"/>
<polygon fill="#63b8ff" stroke="#63b8ff" points="1075.11,-297.81 1084.28,-292.49 1073.8,-290.93 1075.11,-297.81"/>
</g>
<!-- Node22 -->
<g id="node22" class="node">
<title>Node22</title>
<g id="a_node22"><a xlink:href="quad_8h.html" target="_top" xlink:title=" ">
<polygon fill="white" stroke="#666666" points="284,-129 238,-129 238,-110 284,-110 284,-129"/>
<text text-anchor="middle" x="261" y="-117" font-family="Helvetica,sans-Serif" font-size="10.00">quad.h</text>
</a>
</g>
</g>
<!-- Node1&#45;&gt;Node22 -->
<g id="edge35" class="edge">
<title>Node1&#45;&gt;Node22</title>
<path fill="none" stroke="#63b8ff" d="M726.09,-334.74C659.82,-329.64 552.06,-318.2 462,-294 348.29,-263.44 282.34,-284.5 221,-184 211.11,-167.79 225.44,-149.46 239.63,-136.67"/>
<polygon fill="#63b8ff" stroke="#63b8ff" points="241.63,-139.56 247.06,-130.46 237.14,-134.19 241.63,-139.56"/>
</g>
<!-- Node23 -->
<g id="node23" class="node">
<title>Node23</title>
<g id="a_node23"><a xlink:href="core_8h.html" target="_top" xlink:title=" ">
<polygon fill="white" stroke="#666666" points="798,-129 754,-129 754,-110 798,-110 798,-129"/>
<text text-anchor="middle" x="776" y="-117" font-family="Helvetica,sans-Serif" font-size="10.00">core.h</text>
</a>
</g>
</g>
<!-- Node1&#45;&gt;Node23 -->
<g id="edge39" class="edge">
<title>Node1&#45;&gt;Node23</title>
<path fill="none" stroke="#63b8ff" d="M787.51,-329.68C785.75,-297.57 779.62,-186.33 777.1,-140.49"/>
<polygon fill="#63b8ff" stroke="#63b8ff" points="780.61,-140.49 776.56,-130.7 773.62,-140.88 780.61,-140.49"/>
</g>
<!-- Node24 -->
<g id="node24" class="node">
<title>Node24</title>
<g id="a_node24"><a xlink:href="uitext_8h.html" target="_top" xlink:title=" ">
<polygon fill="white" stroke="#666666" points="729.5,-294 680.5,-294 680.5,-275 729.5,-275 729.5,-294"/>
<text text-anchor="middle" x="705" y="-282" font-family="Helvetica,sans-Serif" font-size="10.00">uitext.h</text>
</a>
</g>
</g>
<!-- Node1&#45;&gt;Node24 -->
<g id="edge44" class="edge">
<title>Node1&#45;&gt;Node24</title>
<path fill="none" stroke="#63b8ff" d="M773.92,-329.51C761.44,-321.54 742.98,-309.75 728.31,-300.38"/>
<polygon fill="#63b8ff" stroke="#63b8ff" points="730.46,-297.6 720.15,-295.17 726.69,-303.5 730.46,-297.6"/>
</g>
<!-- Node2&#45;&gt;Node3 -->
<g id="edge2" class="edge">
<title>Node2&#45;&gt;Node3</title>
<path fill="none" stroke="#63b8ff" d="M336.64,-223.48C279.12,-216.74 187.32,-203.34 159,-184 112.29,-152.1 108.59,-128.91 95,-74 92.97,-65.8 92.18,-62.96 95,-55 98.67,-44.63 105.9,-34.91 112.92,-27.21"/>
<polygon fill="#63b8ff" stroke="#63b8ff" points="115.24,-29.84 119.78,-20.27 110.26,-24.92 115.24,-29.84"/>
</g>
<!-- Node4 -->
<g id="node4" class="node">
<title>Node4</title>
<g id="a_node4"><a xlink:title=" ">
<polygon fill="#e0e0e0" stroke="#999999" points="494,-74 426,-74 426,-55 494,-55 494,-74"/>
<text text-anchor="middle" x="460" y="-62" font-family="Helvetica,sans-Serif" font-size="10.00">glm/ext.hpp</text>
</a>
</g>
</g>
<!-- Node2&#45;&gt;Node4 -->
<g id="edge3" class="edge">
<title>Node2&#45;&gt;Node4</title>
<path fill="none" stroke="#63b8ff" d="M387.57,-219.71C391.3,-207.3 398.69,-184.03 407,-165 419.69,-135.92 437.56,-103.78 448.96,-84.11"/>
<polygon fill="#63b8ff" stroke="#63b8ff" points="451.89,-86.02 453.93,-75.63 445.85,-82.48 451.89,-86.02"/>
</g>
<!-- Node5 -->
<g id="node5" class="node">
<title>Node5</title>
<g id="a_node5"><a xlink:title=" ">
<polygon fill="#e0e0e0" stroke="#999999" points="376,-19 324,-19 324,0 376,0 376,-19"/>
<text text-anchor="middle" x="350" y="-7" font-family="Helvetica,sans-Serif" font-size="10.00">memory</text>
</a>
</g>
</g>
<!-- Node2&#45;&gt;Node5 -->
<g id="edge4" class="edge">
<title>Node2&#45;&gt;Node5</title>
<path fill="none" stroke="#63b8ff" d="M336.88,-221.02C296.65,-213.67 243.84,-201.07 231,-184 202.33,-145.87 274.77,-148.7 293,-129 320.05,-99.77 336.7,-55.35 344.57,-30.01"/>
<polygon fill="#63b8ff" stroke="#63b8ff" points="347.84,-31.29 347.3,-20.71 341.12,-29.32 347.84,-31.29"/>
</g>
<!-- Node6 -->
<g id="node6" class="node">
<title>Node6</title>
<g id="a_node6"><a xlink:title=" ">
<polygon fill="#e0e0e0" stroke="#999999" points="787,-19 745,-19 745,0 787,0 787,-19"/>
<text text-anchor="middle" x="766" y="-7" font-family="Helvetica,sans-Serif" font-size="10.00">vector</text>
</a>
</g>
</g>
<!-- Node2&#45;&gt;Node6 -->
<g id="edge5" class="edge">
<title>Node2&#45;&gt;Node6</title>
<path fill="none" stroke="#63b8ff" d="M392.39,-219.78C404.92,-205.66 431.81,-178.06 461,-165 561.86,-119.88 617.52,-193.84 707,-129 739.93,-105.13 755.53,-57.64 762.02,-30.58"/>
<polygon fill="#63b8ff" stroke="#63b8ff" points="765.41,-31.44 764.13,-20.92 758.58,-29.95 765.41,-31.44"/>
</g>
<!-- Node2&#45;&gt;Node7 -->
<g id="edge6" class="edge">
<title>Node2&#45;&gt;Node7</title>
<path fill="none" stroke="#63b8ff" d="M403.66,-219.51C420.83,-211.24 446.55,-198.84 466.33,-189.31"/>
<polygon fill="#63b8ff" stroke="#63b8ff" points="467.76,-192.51 475.25,-185.01 464.72,-186.2 467.76,-192.51"/>
</g>
<!-- Node8 -->
<g id="node8" class="node">
<title>Node8</title>
<g id="a_node8"><a xlink:href="shader_8h.html" target="_top" xlink:title=" ">
<polygon fill="white" stroke="#666666" points="158,-74 104,-74 104,-55 158,-55 158,-74"/>
<text text-anchor="middle" x="131" y="-62" font-family="Helvetica,sans-Serif" font-size="10.00">shader.h</text>
</a>
</g>
</g>
<!-- Node2&#45;&gt;Node8 -->
<g id="edge7" class="edge">
<title>Node2&#45;&gt;Node8</title>
<path fill="none" stroke="#63b8ff" d="M336.77,-223.32C297.69,-217.67 242.08,-206.28 198,-184 164.23,-166.93 149.46,-163.08 133,-129 126.46,-115.45 126.32,-98.31 127.62,-85.26"/>
<polygon fill="#63b8ff" stroke="#63b8ff" points="131.03,-86.12 128.93,-75.74 124.1,-85.17 131.03,-86.12"/>
</g>
<!-- Node9 -->
<g id="node9" class="node">
<title>Node9</title>
<g id="a_node9"><a xlink:href="rendertargetarray_8h.html" target="_top" xlink:title=" ">
<polygon fill="white" stroke="#666666" points="338,-184 240,-184 240,-165 338,-165 338,-184"/>
<text text-anchor="middle" x="289" y="-172" font-family="Helvetica,sans-Serif" font-size="10.00">rendertargetarray.h</text>
</a>
</g>
</g>
<!-- Node2&#45;&gt;Node9 -->
<g id="edge9" class="edge">
<title>Node2&#45;&gt;Node9</title>
<path fill="none" stroke="#63b8ff" d="M368.71,-219.51C354.01,-211.39 332.11,-199.3 314.98,-189.85"/>
<polygon fill="#63b8ff" stroke="#63b8ff" points="316.82,-186.86 306.37,-185.09 313.43,-192.99 316.82,-186.86"/>
</g>
<!-- Node11 -->
<g id="node11" class="node">
<title>Node11</title>
<g id="a_node11"><a xlink:href="renderable_8h.html" target="_top" xlink:title=" ">
<polygon fill="white" stroke="#666666" points="562,-129 492,-129 492,-110 562,-110 562,-129"/>
<text text-anchor="middle" x="527" y="-117" font-family="Helvetica,sans-Serif" font-size="10.00">renderable.h</text>
</a>
</g>
</g>
<!-- Node2&#45;&gt;Node11 -->
<g id="edge16" class="edge">
<title>Node2&#45;&gt;Node11</title>
<path fill="none" stroke="#63b8ff" d="M389.05,-219.56C395.54,-206.11 409.45,-180.59 428,-165 444.64,-151.01 466.39,-140.59 485.26,-133.37"/>
<polygon fill="#63b8ff" stroke="#63b8ff" points="486.35,-136.7 494.55,-130 483.96,-130.12 486.35,-136.7"/>
</g>
<!-- Node12 -->
<g id="node12" class="node">
<title>Node12</title>
<g id="a_node12"><a xlink:href="ui_8h.html" target="_top" xlink:title=" ">
<polygon fill="white" stroke="#666666" points="646,-184 614,-184 614,-165 646,-165 646,-184"/>
<text text-anchor="middle" x="630" y="-172" font-family="Helvetica,sans-Serif" font-size="10.00">ui.h</text>
</a>
</g>
</g>
<!-- Node2&#45;&gt;Node12 -->
<g id="edge17" class="edge">
<title>Node2&#45;&gt;Node12</title>
<path fill="none" stroke="#63b8ff" d="M426.56,-219.51C476.74,-208.65 559.73,-190.7 602.55,-181.44"/>
<polygon fill="#63b8ff" stroke="#63b8ff" points="603.23,-184.87 612.27,-179.34 601.75,-178.03 603.23,-184.87"/>
</g>
<!-- Node8&#45;&gt;Node3 -->
<g id="edge8" class="edge">
<title>Node8&#45;&gt;Node3</title>
<path fill="none" stroke="#63b8ff" d="M131,-54.75C131,-48.27 131,-39.16 131,-30.9"/>
<polygon fill="#63b8ff" stroke="#63b8ff" points="134.5,-30.96 131,-20.96 127.5,-30.96 134.5,-30.96"/>
</g>
<!-- Node9&#45;&gt;Node5 -->
<g id="edge11" class="edge">
<title>Node9&#45;&gt;Node5</title>
<path fill="none" stroke="#63b8ff" d="M298.76,-164.58C307.28,-156.22 319.32,-142.95 326,-129 341.45,-96.75 346.97,-54.94 348.93,-30.58"/>
<polygon fill="#63b8ff" stroke="#63b8ff" points="352.41,-31.01 349.58,-20.8 345.42,-30.55 352.41,-31.01"/>
</g>
<!-- Node9&#45;&gt;Node6 -->
<g id="edge10" class="edge">
<title>Node9&#45;&gt;Node6</title>
<path fill="none" stroke="#63b8ff" d="M300.69,-164.66C312.04,-155.93 329.62,-142.03 344,-129 378.23,-97.98 375.59,-75.49 417,-55 472.34,-27.61 657.96,-15.73 733.55,-11.94"/>
<polygon fill="#63b8ff" stroke="#63b8ff" points="733.37,-15.46 743.19,-11.48 733.03,-8.46 733.37,-15.46"/>
</g>
<!-- Node10 -->
<g id="node10" class="node">
<title>Node10</title>
<g id="a_node10"><a xlink:href="rendertarget_8h.html" target="_top" xlink:title=" ">
<polygon fill="white" stroke="#666666" points="219.5,-129 142.5,-129 142.5,-110 219.5,-110 219.5,-129"/>
<text text-anchor="middle" x="181" y="-117" font-family="Helvetica,sans-Serif" font-size="10.00">rendertarget.h</text>
</a>
</g>
</g>
<!-- Node9&#45;&gt;Node10 -->
<g id="edge12" class="edge">
<title>Node9&#45;&gt;Node10</title>
<path fill="none" stroke="#63b8ff" d="M270.68,-164.51C253.82,-156.24 228.57,-143.84 209.15,-134.31"/>
<polygon fill="#63b8ff" stroke="#63b8ff" points="210.93,-131.29 200.41,-130.02 207.84,-137.57 210.93,-131.29"/>
</g>
<!-- Node10&#45;&gt;Node3 -->
<g id="edge13" class="edge">
<title>Node10&#45;&gt;Node3</title>
<path fill="none" stroke="#63b8ff" d="M180.36,-109.87C179.15,-97.26 175.81,-73.31 167,-55 162.28,-45.2 155.01,-35.64 148.24,-27.91"/>
<polygon fill="#63b8ff" stroke="#63b8ff" points="150.83,-25.55 141.46,-20.61 145.7,-30.32 150.83,-25.55"/>
</g>
<!-- Node10&#45;&gt;Node5 -->
<g id="edge14" class="edge">
<title>Node10&#45;&gt;Node5</title>
<path fill="none" stroke="#63b8ff" d="M194.83,-109.66C223.67,-91.23 290.53,-48.5 326.35,-25.62"/>
<polygon fill="#63b8ff" stroke="#63b8ff" points="328.16,-28.61 334.7,-20.28 324.39,-22.71 328.16,-28.61"/>
</g>
<!-- Node10&#45;&gt;Node8 -->
<g id="edge15" class="edge">
<title>Node10&#45;&gt;Node8</title>
<path fill="none" stroke="#63b8ff" d="M172.74,-109.75C165.84,-102.43 155.78,-91.76 147.26,-82.74"/>
<polygon fill="#63b8ff" stroke="#63b8ff" points="149.88,-80.42 140.47,-75.54 144.79,-85.22 149.88,-80.42"/>
</g>
<!-- Node12&#45;&gt;Node4 -->
<g id="edge18" class="edge">
<title>Node12&#45;&gt;Node4</title>
<path fill="none" stroke="#63b8ff" d="M623.72,-164.54C613.87,-151.06 593.58,-125.5 571,-110 550.6,-95.99 525.12,-85.38 503.73,-78.04"/>
<polygon fill="#63b8ff" stroke="#63b8ff" points="504.99,-74.77 494.4,-74.97 502.8,-81.42 504.99,-74.77"/>
</g>
<!-- Node12&#45;&gt;Node11 -->
<g id="edge19" class="edge">
<title>Node12&#45;&gt;Node11</title>
<path fill="none" stroke="#63b8ff" d="M613.91,-165.22C598.04,-157.05 573.47,-144.41 554.5,-134.65"/>
<polygon fill="#63b8ff" stroke="#63b8ff" points="556.2,-131.59 545.7,-130.12 552.99,-137.81 556.2,-131.59"/>
</g>
<!-- Node13 -->
<g id="node13" class="node">
<title>Node13</title>
<g id="a_node13"><a xlink:href="instance_8h.html" target="_top" xlink:title=" ">
<polygon fill="white" stroke="#666666" points="916,-129 854,-129 854,-110 916,-110 916,-129"/>
<text text-anchor="middle" x="885" y="-117" font-family="Helvetica,sans-Serif" font-size="10.00">instance.h</text>
</a>
</g>
</g>
<!-- Node12&#45;&gt;Node13 -->
<g id="edge20" class="edge">
<title>Node12&#45;&gt;Node13</title>
<path fill="none" stroke="#63b8ff" d="M646.34,-170.1C685.42,-161.98 785.29,-141.22 842.69,-129.29"/>
<polygon fill="#63b8ff" stroke="#63b8ff" points="843.36,-132.73 852.44,-127.27 841.93,-125.88 843.36,-132.73"/>
</g>
<!-- Node13&#45;&gt;Node6 -->
<g id="edge23" class="edge">
<title>Node13&#45;&gt;Node6</title>
<path fill="none" stroke="#63b8ff" d="M916.41,-115.47C966.58,-109.43 1056.05,-93.05 1024,-55 1016.75,-46.39 866.22,-24.46 798.5,-14.98"/>
<polygon fill="#63b8ff" stroke="#63b8ff" points="799.14,-11.53 788.75,-13.62 798.17,-18.47 799.14,-11.53"/>
</g>
<!-- Node14 -->
<g id="node14" class="node">
<title>Node14</title>
<g id="a_node14"><a xlink:title=" ">
<polygon fill="#e0e0e0" stroke="#999999" points="1015,-74 917,-74 917,-55 1015,-55 1015,-74"/>
<text text-anchor="middle" x="966" y="-62" font-family="Helvetica,sans-Serif" font-size="10.00">nlohmann/json.hpp</text>
</a>
</g>
</g>
<!-- Node13&#45;&gt;Node14 -->
<g id="edge21" class="edge">
<title>Node13&#45;&gt;Node14</title>
<path fill="none" stroke="#63b8ff" d="M898.74,-109.51C910.8,-101.62 928.59,-89.98 942.84,-80.65"/>
<polygon fill="#63b8ff" stroke="#63b8ff" points="944.74,-83.59 951.2,-75.19 940.91,-77.73 944.74,-83.59"/>
</g>
<!-- Node13&#45;&gt;Node15 -->
<g id="edge22" class="edge">
<title>Node13&#45;&gt;Node15</title>
<path fill="none" stroke="#63b8ff" d="M872.79,-109.51C862.17,-101.7 846.56,-90.21 833.96,-80.93"/>
<polygon fill="#63b8ff" stroke="#63b8ff" points="836.38,-78.36 826.25,-75.26 832.23,-84 836.38,-78.36"/>
</g>
<!-- Node16 -->
<g id="node16" class="node">
<title>Node16</title>
<g id="a_node16"><a xlink:href="event_8h.html" target="_top" xlink:title=" ">
<polygon fill="white" stroke="#666666" points="898.5,-74 851.5,-74 851.5,-55 898.5,-55 898.5,-74"/>
<text text-anchor="middle" x="875" y="-62" font-family="Helvetica,sans-Serif" font-size="10.00">event.h</text>
</a>
</g>
</g>
<!-- Node13&#45;&gt;Node16 -->
<g id="edge24" class="edge">
<title>Node13&#45;&gt;Node16</title>
<path fill="none" stroke="#63b8ff" d="M883.35,-109.75C882.11,-103.19 880.37,-93.95 878.79,-85.6"/>
<polygon fill="#63b8ff" stroke="#63b8ff" points="882.26,-85.11 876.97,-75.93 875.38,-86.4 882.26,-85.11"/>
</g>
<!-- Node16&#45;&gt;Node5 -->
<g id="edge27" class="edge">
<title>Node16&#45;&gt;Node5</title>
<path fill="none" stroke="#63b8ff" d="M851.33,-56.73C848.54,-56.08 845.72,-55.48 843,-55 674.82,-25.29 470.66,-14.89 387.73,-11.72"/>
<polygon fill="#63b8ff" stroke="#63b8ff" points="388.03,-8.23 377.91,-11.36 387.77,-15.23 388.03,-8.23"/>
</g>
<!-- Node16&#45;&gt;Node6 -->
<g id="edge26" class="edge">
<title>Node16&#45;&gt;Node6</title>
<path fill="none" stroke="#63b8ff" d="M856.51,-54.51C839.5,-46.24 814.01,-33.84 794.41,-24.31"/>
<polygon fill="#63b8ff" stroke="#63b8ff" points="796.1,-21.25 785.58,-20.02 793.04,-27.54 796.1,-21.25"/>
</g>
<!-- Node17 -->
<g id="node17" class="node">
<title>Node17</title>
<g id="a_node17"><a xlink:title=" ">
<polygon fill="#e0e0e0" stroke="#999999" points="904,-19 846,-19 846,0 904,0 904,-19"/>
<text text-anchor="middle" x="875" y="-7" font-family="Helvetica,sans-Serif" font-size="10.00">functional</text>
</a>
</g>
</g>
<!-- Node16&#45;&gt;Node17 -->
<g id="edge25" class="edge">
<title>Node16&#45;&gt;Node17</title>
<path fill="none" stroke="#63b8ff" d="M875,-54.75C875,-48.27 875,-39.16 875,-30.9"/>
<polygon fill="#63b8ff" stroke="#63b8ff" points="878.5,-30.96 875,-20.96 871.5,-30.96 878.5,-30.96"/>
</g>
<!-- Node22&#45;&gt;Node4 -->
<g id="edge36" class="edge">
<title>Node22&#45;&gt;Node4</title>
<path fill="none" stroke="#63b8ff" d="M284.22,-112.32C316.27,-103.78 374.71,-88.22 415.37,-77.39"/>
<polygon fill="#63b8ff" stroke="#63b8ff" points="416.1,-80.81 424.87,-74.86 414.3,-74.05 416.1,-80.81"/>
</g>
<!-- Node22&#45;&gt;Node5 -->
<g id="edge37" class="edge">
<title>Node22&#45;&gt;Node5</title>
<path fill="none" stroke="#63b8ff" d="M264.96,-109.7C270.97,-96.86 283.29,-72.64 298,-55 306.88,-44.35 318.47,-34.16 328.46,-26.23"/>
<polygon fill="#63b8ff" stroke="#63b8ff" points="330.39,-29.16 336.19,-20.29 326.13,-23.6 330.39,-29.16"/>
</g>
<!-- Node22&#45;&gt;Node8 -->
<g id="edge38" class="edge">
<title>Node22&#45;&gt;Node8</title>
<path fill="none" stroke="#63b8ff" d="M238.95,-109.51C218.19,-101.04 186.84,-88.27 163.27,-78.66"/>
<polygon fill="#63b8ff" stroke="#63b8ff" points="164.71,-75.46 154.13,-74.93 162.07,-81.95 164.71,-75.46"/>
</g>
<!-- Node23&#45;&gt;Node4 -->
<g id="edge42" class="edge">
<title>Node23&#45;&gt;Node4</title>
<path fill="none" stroke="#63b8ff" d="M753.53,-114.73C702.01,-106.09 574.55,-84.71 505.76,-73.18"/>
<polygon fill="#63b8ff" stroke="#63b8ff" points="506.37,-69.73 495.93,-71.53 505.21,-76.63 506.37,-69.73"/>
</g>
<!-- Node23&#45;&gt;Node5 -->
<g id="edge40" class="edge">
<title>Node23&#45;&gt;Node5</title>
<path fill="none" stroke="#63b8ff" d="M769.51,-109.71C758.45,-95.48 734.47,-67.73 707,-55 650.87,-28.99 467.87,-16.59 387.93,-12.31"/>
<polygon fill="#63b8ff" stroke="#63b8ff" points="388.15,-8.82 377.98,-11.79 387.79,-15.81 388.15,-8.82"/>
</g>
<!-- Node23&#45;&gt;Node15 -->
<g id="edge41" class="edge">
<title>Node23&#45;&gt;Node15</title>
<path fill="none" stroke="#63b8ff" d="M782.11,-109.75C787.01,-102.73 794.05,-92.64 800.17,-83.87"/>
<polygon fill="#63b8ff" stroke="#63b8ff" points="803.04,-85.89 805.89,-75.68 797.3,-81.88 803.04,-85.89"/>
</g>
<!-- Node23&#45;&gt;Node16 -->
<g id="edge43" class="edge">
<title>Node23&#45;&gt;Node16</title>
<path fill="none" stroke="#63b8ff" d="M792.79,-109.51C808.1,-101.31 830.97,-89.07 848.7,-79.58"/>
<polygon fill="#63b8ff" stroke="#63b8ff" points="849.96,-82.88 857.12,-75.07 846.65,-76.71 849.96,-82.88"/>
</g>
<!-- Node24&#45;&gt;Node4 -->
<g id="edge45" class="edge">
<title>Node24&#45;&gt;Node4</title>
<path fill="none" stroke="#63b8ff" d="M702.63,-274.54C696.87,-253.86 680.71,-201.79 655,-165 634.47,-135.61 626.87,-128.22 596,-110 580.14,-100.64 537.05,-87.2 503.58,-77.54"/>
<polygon fill="#63b8ff" stroke="#63b8ff" points="504.68,-74.22 494.1,-74.84 502.76,-80.95 504.68,-74.22"/>
</g>
<!-- Node25 -->
<g id="node25" class="node">
<title>Node25</title>
<g id="a_node25"><a xlink:href="uiobject_8h.html" target="_top" xlink:title=" ">
<polygon fill="white" stroke="#666666" points="645.5,-239 586.5,-239 586.5,-220 645.5,-220 645.5,-239"/>
<text text-anchor="middle" x="616" y="-227" font-family="Helvetica,sans-Serif" font-size="10.00">uiobject.h</text>
</a>
</g>
</g>
<!-- Node24&#45;&gt;Node25 -->
<g id="edge46" class="edge">
<title>Node24&#45;&gt;Node25</title>
<path fill="none" stroke="#63b8ff" d="M689.9,-274.51C676.4,-266.47 656.35,-254.53 640.54,-245.11"/>
<polygon fill="#63b8ff" stroke="#63b8ff" points="642.56,-242.24 632.18,-240.13 638.98,-248.26 642.56,-242.24"/>
</g>
<!-- Node26 -->
<g id="node26" class="node">
<title>Node26</title>
<g id="a_node26"><a xlink:href="font_8h.html" target="_top" xlink:title=" ">
<polygon fill="white" stroke="#666666" points="697.5,-129 656.5,-129 656.5,-110 697.5,-110 697.5,-129"/>
<text text-anchor="middle" x="677" y="-117" font-family="Helvetica,sans-Serif" font-size="10.00">font.h</text>
</a>
</g>
</g>
<!-- Node24&#45;&gt;Node26 -->
<g id="edge51" class="edge">
<title>Node24&#45;&gt;Node26</title>
<path fill="none" stroke="#63b8ff" d="M704.02,-274.53C701.79,-254.68 695.91,-205.6 688,-165 686.42,-156.9 684.32,-148.05 682.37,-140.4"/>
<polygon fill="#63b8ff" stroke="#63b8ff" points="685.77,-139.55 679.84,-130.77 679,-141.33 685.77,-139.55"/>
</g>
<!-- Node25&#45;&gt;Node4 -->
<g id="edge47" class="edge">
<title>Node25&#45;&gt;Node4</title>
<path fill="none" stroke="#63b8ff" d="M603.74,-219.62C571.66,-196.35 487.44,-134.99 483,-129 473.38,-116.02 467.45,-98.61 464.03,-85.31"/>
<polygon fill="#63b8ff" stroke="#63b8ff" points="467.53,-84.93 461.89,-75.96 460.71,-86.49 467.53,-84.93"/>
</g>
<!-- Node25&#45;&gt;Node11 -->
<g id="edge49" class="edge">
<title>Node25&#45;&gt;Node11</title>
<path fill="none" stroke="#63b8ff" d="M608.72,-219.66C594.05,-201.86 560.71,-161.41 541.46,-138.04"/>
<polygon fill="#63b8ff" stroke="#63b8ff" points="544.41,-136.12 535.35,-130.63 539,-140.57 544.41,-136.12"/>
</g>
<!-- Node25&#45;&gt;Node12 -->
<g id="edge50" class="edge">
<title>Node25&#45;&gt;Node12</title>
<path fill="none" stroke="#63b8ff" d="M618.31,-219.75C620.06,-213.11 622.54,-203.73 624.77,-195.31"/>
<polygon fill="#63b8ff" stroke="#63b8ff" points="628.08,-196.47 627.25,-185.91 621.31,-194.68 628.08,-196.47"/>
</g>
<!-- Node25&#45;&gt;Node13 -->
<g id="edge48" class="edge">
<title>Node25&#45;&gt;Node13</title>
<path fill="none" stroke="#63b8ff" d="M638.01,-219.66C685.2,-200.72 796.33,-156.1 852,-133.75"/>
<polygon fill="#63b8ff" stroke="#63b8ff" points="853.3,-137 861.28,-130.02 850.69,-130.5 853.3,-137"/>
</g>
<!-- Node26&#45;&gt;Node3 -->
<g id="edge57" class="edge">
<title>Node26&#45;&gt;Node3</title>
<path fill="none" stroke="#63b8ff" d="M656.41,-113.5C628.49,-106.39 577.36,-92.18 536,-74 520.51,-67.19 519.06,-60.34 503,-55 442.49,-34.9 256.46,-19.48 172.67,-13.37"/>
<polygon fill="#63b8ff" stroke="#63b8ff" points="173.05,-9.89 162.82,-12.66 172.54,-16.87 173.05,-9.89"/>
</g>
<!-- Node26&#45;&gt;Node4 -->
<g id="edge53" class="edge">
<title>Node26&#45;&gt;Node4</title>
<path fill="none" stroke="#63b8ff" d="M656.19,-113.42C621.6,-104.97 551.48,-87.84 505.13,-76.52"/>
<polygon fill="#63b8ff" stroke="#63b8ff" points="506.19,-73.18 495.65,-74.21 504.53,-79.98 506.19,-73.18"/>
</g>
<!-- Node26&#45;&gt;Node5 -->
<g id="edge54" class="edge">
<title>Node26&#45;&gt;Node5</title>
<path fill="none" stroke="#63b8ff" d="M657.33,-109.58C619.29,-92.35 539.1,-56.06 536,-55 485.6,-37.79 425.33,-24.68 387.35,-17.28"/>
<polygon fill="#63b8ff" stroke="#63b8ff" points="388.28,-13.9 377.8,-15.46 386.97,-20.77 388.28,-13.9"/>
</g>
<!-- Node26&#45;&gt;Node15 -->
<g id="edge55" class="edge">
<title>Node26&#45;&gt;Node15</title>
<path fill="none" stroke="#63b8ff" d="M697.95,-110.33C720.28,-101.63 755.88,-87.76 781.57,-77.75"/>
<polygon fill="#63b8ff" stroke="#63b8ff" points="782.79,-81.03 790.84,-74.14 780.25,-74.51 782.79,-81.03"/>
</g>
<!-- Node27 -->
<g id="node27" class="node">
<title>Node27</title>
<g id="a_node27"><a xlink:title=" ">
<polygon fill="#e0e0e0" stroke="#999999" points="644,-74 588,-74 588,-55 644,-55 644,-74"/>
<text text-anchor="middle" x="616" y="-62" font-family="Helvetica,sans-Serif" font-size="10.00">ft2build.h</text>
</a>
</g>
</g>
<!-- Node26&#45;&gt;Node27 -->
<g id="edge52" class="edge">
<title>Node26&#45;&gt;Node27</title>
<path fill="none" stroke="#63b8ff" d="M666.65,-109.51C657.92,-101.93 645.21,-90.88 634.7,-81.75"/>
<polygon fill="#63b8ff" stroke="#63b8ff" points="637.18,-79.27 627.34,-75.35 632.59,-84.55 637.18,-79.27"/>
</g>
<!-- Node28 -->
<g id="node28" class="node">
<title>Node28</title>
<g id="a_node28"><a xlink:title=" ">
<polygon fill="#e0e0e0" stroke="#999999" points="697.5,-74 662.5,-74 662.5,-55 697.5,-55 697.5,-74"/>
<text text-anchor="middle" x="680" y="-62" font-family="Helvetica,sans-Serif" font-size="10.00">map</text>
</a>
</g>
</g>
<!-- Node26&#45;&gt;Node28 -->
<g id="edge56" class="edge">
<title>Node26&#45;&gt;Node28</title>
<path fill="none" stroke="#63b8ff" d="M677.5,-109.75C677.86,-103.27 678.38,-94.16 678.85,-85.9"/>
<polygon fill="#63b8ff" stroke="#63b8ff" points="682.34,-86.13 679.41,-75.95 675.35,-85.74 682.34,-86.13"/>
</g>
</g>
</svg>
        <g id="navigator" transform="translate(0 0)" fill="#404254">
                <rect fill="#f2f5e9" fill-opacity="0.5" stroke="#606060" stroke-width=".5" x="0" y="0" width="60" height="60"/>
                <use id="zoomplus" xlink:href="#zoomPlus" x="17" y="9" onmousedown="handleZoom(evt,'in')"/>
                <use id="zoomminus" xlink:href="#zoomMin" x="42" y="9" onmousedown="handleZoom(evt,'out')"/>
                <use id="reset" xlink:href="#resetDef" x="30" y="36" onmousedown="handleReset()"/>
                <g id="arrowUp" xlink:href="#dirArrow" transform="translate(30 24)" onmousedown="handlePan(0,-1)">
                  <use xlink:href="#rim" fill="#404040">
                        <set attributeName="fill" to="#808080" begin="arrowUp.mouseover" end="arrowUp.mouseout"/>
                  </use>
                  <path fill="none" stroke="white" stroke-width="1.5" d="M0,-3.0v7 M-2.5,-0.5L0,-3.0L2.5,-0.5"/>
                </g>
                <g id="arrowRight" xlink:href="#dirArrow" transform="rotate(90) translate(36 -43)" onmousedown="handlePan(1,0)">
                  <use xlink:href="#rim" fill="#404040">
                        <set attributeName="fill" to="#808080" begin="arrowRight.mouseover" end="arrowRight.mouseout"/>
                  </use>
                  <path fill="none" stroke="white" stroke-width="1.5" d="M0,-3.0v7 M-2.5,-0.5L0,-3.0L2.5,-0.5"/>
                </g>
                <g id="arrowDown" xlink:href="#dirArrow" transform="rotate(180) translate(-30 -48)" onmousedown="handlePan(0,1)">
                  <use xlink:href="#rim" fill="#404040">
                        <set attributeName="fill" to="#808080" begin="arrowDown.mouseover" end="arrowDown.mouseout"/>
                  </use>
                  <path fill="none" stroke="white" stroke-width="1.5" d="M0,-3.0v7 M-2.5,-0.5L0,-3.0L2.5,-0.5"/>
                </g>
                <g id="arrowLeft" xlink:href="#dirArrow" transform="rotate(270) translate(-36 17)" onmousedown="handlePan(-1,0)">
                  <use xlink:href="#rim" fill="#404040">
                        <set attributeName="fill" to="#808080" begin="arrowLeft.mouseover" end="arrowLeft.mouseout"/>
                  </use>
                  <path fill="none" stroke="white" stroke-width="1.5" d="M0,-3.0v7 M-2.5,-0.5L0,-3.0L2.5,-0.5"/>
                </g>
        </g>
        <svg viewBox="0 0 15 15" width="100%" height="30px" preserveAspectRatio="xMaxYMin meet">
         <g id="arrow_out" transform="scale(0.3 0.3)">
          <a xlink:href="particlesimulator_8cpp__incl_org.svg" target="_base">
           <rect id="button" ry="5" rx="5" y="6" x="6" height="38" width="38"
                fill="#f2f5e9" fill-opacity="0.5" stroke="#606060" stroke-width="1.0"/>
           <path id="arrow"
             d="M 11.500037,31.436501 C 11.940474,20.09759 22.043105,11.32322 32.158766,21.979434 L 37.068811,17.246167 C 37.068811,17.246167 37.088388,32 37.088388,32 L 22.160133,31.978069 C 22.160133,31.978069 26.997745,27.140456 26.997745,27.140456 C 18.528582,18.264221 13.291696,25.230495 11.500037,31.436501 z"
             style="fill:#404040;"/>
          </a>
         </g>
        </svg>
</svg>
