<?xml version="1.0" encoding="UTF-8" standalone="no"?>
<!DOCTYPE svg PUBLIC "-//W3C//DTD SVG 1.1//EN"
 "http://www.w3.org/Graphics/SVG/1.1/DTD/svg11.dtd">
<!-- Generated by graphviz version 7.1.0 (20230121.1956)
 -->
<!-- Title: src/quad.h Pages: 1 -->
<svg width="751pt" height="82pt"
 viewBox="0.00 0.00 750.50 82.00" xmlns="http://www.w3.org/2000/svg" xmlns:xlink="http://www.w3.org/1999/xlink">
<g id="graph0" class="graph" transform="scale(1 1) rotate(0) translate(4 78)">
<title>src/quad.h</title>
<!-- Node1 -->
<g id="node1" class="node">
<title>Node1</title>
<g id="a_node1"><a xlink:title=" ">
<polygon fill="#999999" stroke="#666666" points="424.5,-74 362.5,-74 362.5,-55 424.5,-55 424.5,-74"/>
<text text-anchor="middle" x="393.5" y="-62" font-family="Helvetica,sans-Serif" font-size="10.00">src/quad.h</text>
</a>
</g>
</g>
<!-- Node2 -->
<g id="node2" class="node">
<title>Node2</title>
<g id="a_node2"><a xlink:href="core_8cpp.html" target="_top" xlink:title=" ">
<polygon fill="white" stroke="#666666" points="71,-19 0,-19 0,0 71,0 71,-19"/>
<text text-anchor="middle" x="35.5" y="-7" font-family="Helvetica,sans-Serif" font-size="10.00">src/core.cpp</text>
</a>
</g>
</g>
<!-- Node1&#45;&gt;Node2 -->
<g id="edge1" class="edge">
<title>Node1&#45;&gt;Node2</title>
<path fill="none" stroke="#63b8ff" d="M350.86,-58.15C290.37,-50.39 176.23,-35.19 79.5,-19 76.89,-18.56 74.2,-18.09 71.49,-17.61"/>
<polygon fill="#63b8ff" stroke="#63b8ff" points="350.36,-61.61 360.72,-59.4 351.24,-54.67 350.36,-61.61"/>
</g>
<!-- Node3 -->
<g id="node3" class="node">
<title>Node3</title>
<g id="a_node3"><a xlink:href="fluidsimulator_8cpp.html" target="_top" xlink:title=" ">
<polygon fill="white" stroke="#666666" points="198,-19 89,-19 89,0 198,0 198,-19"/>
<text text-anchor="middle" x="143.5" y="-7" font-family="Helvetica,sans-Serif" font-size="10.00">src/fluidsimulator.cpp</text>
</a>
</g>
</g>
<!-- Node1&#45;&gt;Node3 -->
<g id="edge2" class="edge">
<title>Node1&#45;&gt;Node3</title>
<path fill="none" stroke="#63b8ff" d="M350.99,-54.49C304.92,-44.72 231.84,-29.23 185.84,-19.48"/>
<polygon fill="#63b8ff" stroke="#63b8ff" points="350.1,-57.88 360.61,-56.53 351.55,-51.03 350.1,-57.88"/>
</g>
<!-- Node4 -->
<g id="node4" class="node">
<title>Node4</title>
<g id="a_node4"><a xlink:href="particlesimulator_8cpp.html" target="_top" xlink:title=" ">
<polygon fill="white" stroke="#666666" points="339,-19 216,-19 216,0 339,0 339,-19"/>
<text text-anchor="middle" x="277.5" y="-7" font-family="Helvetica,sans-Serif" font-size="10.00">src/particlesimulator.cpp</text>
</a>
</g>
</g>
<!-- Node1&#45;&gt;Node4 -->
<g id="edge3" class="edge">
<title>Node1&#45;&gt;Node4</title>
<path fill="none" stroke="#63b8ff" d="M363.51,-49.8C342.51,-40.2 315.06,-27.66 296.89,-19.36"/>
<polygon fill="#63b8ff" stroke="#63b8ff" points="361.9,-52.91 372.45,-53.88 364.8,-46.54 361.9,-52.91"/>
</g>
<!-- Node5 -->
<g id="node5" class="node">
<title>Node5</title>
<g id="a_node5"><a xlink:href="quad_8cpp.html" target="_top" xlink:title=" ">
<polygon fill="white" stroke="#666666" points="430,-19 357,-19 357,0 430,0 430,-19"/>
<text text-anchor="middle" x="393.5" y="-7" font-family="Helvetica,sans-Serif" font-size="10.00">src/quad.cpp</text>
</a>
</g>
</g>
<!-- Node1&#45;&gt;Node5 -->
<g id="edge4" class="edge">
<title>Node1&#45;&gt;Node5</title>
<path fill="none" stroke="#63b8ff" d="M393.5,-43.35C393.5,-35.1 393.5,-25.97 393.5,-19.44"/>
<polygon fill="#63b8ff" stroke="#63b8ff" points="390,-43.23 393.5,-53.23 397,-43.23 390,-43.23"/>
</g>
<!-- Node6 -->
<g id="node6" class="node">
<title>Node6</title>
<g id="a_node6"><a xlink:href="rendertarget_8cpp.html" target="_top" xlink:title=" ">
<polygon fill="white" stroke="#666666" points="552.5,-19 448.5,-19 448.5,0 552.5,0 552.5,-19"/>
<text text-anchor="middle" x="500.5" y="-7" font-family="Helvetica,sans-Serif" font-size="10.00">src/rendertarget.cpp</text>
</a>
</g>
</g>
<!-- Node1&#45;&gt;Node6 -->
<g id="edge5" class="edge">
<title>Node1&#45;&gt;Node6</title>
<path fill="none" stroke="#63b8ff" d="M421.96,-49.4C441.23,-39.86 466.08,-27.55 482.62,-19.36"/>
<polygon fill="#63b8ff" stroke="#63b8ff" points="420.41,-46.26 413.01,-53.84 423.52,-52.54 420.41,-46.26"/>
</g>
<!-- Node7 -->
<g id="node7" class="node">
<title>Node7</title>
<g id="a_node7"><a xlink:href="text_8cpp.html" target="_top" xlink:title=" ">
<polygon fill="white" stroke="#666666" points="638.5,-19 570.5,-19 570.5,0 638.5,0 638.5,-19"/>
<text text-anchor="middle" x="604.5" y="-7" font-family="Helvetica,sans-Serif" font-size="10.00">src/text.cpp</text>
</a>
</g>
</g>
<!-- Node1&#45;&gt;Node7 -->
<g id="edge6" class="edge">
<title>Node1&#45;&gt;Node7</title>
<path fill="none" stroke="#63b8ff" d="M435.73,-52.89C475.19,-42.98 533.37,-28.37 570.08,-19.15"/>
<polygon fill="#63b8ff" stroke="#63b8ff" points="434.95,-49.48 426.1,-55.31 436.65,-56.27 434.95,-49.48"/>
</g>
<!-- Node8 -->
<g id="node8" class="node">
<title>Node8</title>
<g id="a_node8"><a xlink:href="uiobject_8cpp.html" target="_top" xlink:title=" ">
<polygon fill="white" stroke="#666666" points="742.5,-19 656.5,-19 656.5,0 742.5,0 742.5,-19"/>
<text text-anchor="middle" x="699.5" y="-7" font-family="Helvetica,sans-Serif" font-size="10.00">src/uiobject.cpp</text>
</a>
</g>
</g>
<!-- Node1&#45;&gt;Node8 -->
<g id="edge7" class="edge">
<title>Node1&#45;&gt;Node8</title>
<path fill="none" stroke="#63b8ff" d="M436.13,-56.12C494.17,-46.06 597.52,-28.16 656,-18.03"/>
<polygon fill="#63b8ff" stroke="#63b8ff" points="435.56,-52.66 426.3,-57.82 436.75,-59.56 435.56,-52.66"/>
</g>
</g>
</svg>
