<?xml version="1.0" encoding="UTF-8" standalone="no"?>
<!DOCTYPE svg PUBLIC "-//W3C//DTD SVG 1.1//EN"
 "http://www.w3.org/Graphics/SVG/1.1/DTD/svg11.dtd">
<!-- Generated by graphviz version 7.1.0 (20230121.1956)
 -->
<!-- Title: src/quad.cpp Pages: 1 -->
<svg width="251pt" height="192pt"
 viewBox="0.00 0.00 250.50 192.00" xmlns="http://www.w3.org/2000/svg" xmlns:xlink="http://www.w3.org/1999/xlink">
<g id="graph0" class="graph" transform="scale(1 1) rotate(0) translate(4 188)">
<title>src/quad.cpp</title>
<!-- Node1 -->
<g id="node1" class="node">
<title>Node1</title>
<g id="a_node1"><a xlink:title=" ">
<polygon fill="#999999" stroke="#666666" points="242.5,-184 169.5,-184 169.5,-165 242.5,-165 242.5,-184"/>
<text text-anchor="middle" x="206" y="-172" font-family="Helvetica,sans-Serif" font-size="10.00">src/quad.cpp</text>
</a>
</g>
</g>
<!-- Node2 -->
<g id="node2" class="node">
<title>Node2</title>
<g id="a_node2"><a xlink:href="quad_8h.html" target="_top" xlink:title=" ">
<polygon fill="white" stroke="#666666" points="166,-129 120,-129 120,-110 166,-110 166,-129"/>
<text text-anchor="middle" x="143" y="-117" font-family="Helvetica,sans-Serif" font-size="10.00">quad.h</text>
</a>
</g>
</g>
<!-- Node1&#45;&gt;Node2 -->
<g id="edge1" class="edge">
<title>Node1&#45;&gt;Node2</title>
<path fill="none" stroke="#63b8ff" d="M195.31,-164.51C186.3,-156.93 173.17,-145.88 162.32,-136.75"/>
<polygon fill="#63b8ff" stroke="#63b8ff" points="164.59,-134.09 154.69,-130.33 160.09,-139.45 164.59,-134.09"/>
</g>
<!-- Node6 -->
<g id="node6" class="node">
<title>Node6</title>
<g id="a_node6"><a xlink:title=" ">
<polygon fill="#e0e0e0" stroke="#999999" points="240,-19 180,-19 180,0 240,0 240,-19"/>
<text text-anchor="middle" x="210" y="-7" font-family="Helvetica,sans-Serif" font-size="10.00">GL/glew.h</text>
</a>
</g>
</g>
<!-- Node1&#45;&gt;Node6 -->
<g id="edge6" class="edge">
<title>Node1&#45;&gt;Node6</title>
<path fill="none" stroke="#63b8ff" d="M208.26,-164.59C212.97,-144.85 223.1,-95.98 219,-55 218.19,-46.86 216.55,-38.01 214.9,-30.36"/>
<polygon fill="#63b8ff" stroke="#63b8ff" points="218.34,-29.7 212.66,-20.76 211.52,-31.29 218.34,-29.7"/>
</g>
<!-- Node3 -->
<g id="node3" class="node">
<title>Node3</title>
<g id="a_node3"><a xlink:title=" ">
<polygon fill="#e0e0e0" stroke="#999999" points="68,-74 0,-74 0,-55 68,-55 68,-74"/>
<text text-anchor="middle" x="34" y="-62" font-family="Helvetica,sans-Serif" font-size="10.00">glm/ext.hpp</text>
</a>
</g>
</g>
<!-- Node2&#45;&gt;Node3 -->
<g id="edge2" class="edge">
<title>Node2&#45;&gt;Node3</title>
<path fill="none" stroke="#63b8ff" d="M124.51,-109.51C107.5,-101.24 82.01,-88.84 62.41,-79.31"/>
<polygon fill="#63b8ff" stroke="#63b8ff" points="64.1,-76.25 53.58,-75.02 61.04,-82.54 64.1,-76.25"/>
</g>
<!-- Node4 -->
<g id="node4" class="node">
<title>Node4</title>
<g id="a_node4"><a xlink:title=" ">
<polygon fill="#e0e0e0" stroke="#999999" points="138,-74 86,-74 86,-55 138,-55 138,-74"/>
<text text-anchor="middle" x="112" y="-62" font-family="Helvetica,sans-Serif" font-size="10.00">memory</text>
</a>
</g>
</g>
<!-- Node2&#45;&gt;Node4 -->
<g id="edge3" class="edge">
<title>Node2&#45;&gt;Node4</title>
<path fill="none" stroke="#63b8ff" d="M137.88,-109.75C133.82,-102.81 128.01,-92.86 122.91,-84.16"/>
<polygon fill="#63b8ff" stroke="#63b8ff" points="126.06,-82.61 117.99,-75.75 120.02,-86.15 126.06,-82.61"/>
</g>
<!-- Node5 -->
<g id="node5" class="node">
<title>Node5</title>
<g id="a_node5"><a xlink:href="shader_8h.html" target="_top" xlink:title=" ">
<polygon fill="white" stroke="#666666" points="210,-74 156,-74 156,-55 210,-55 210,-74"/>
<text text-anchor="middle" x="183" y="-62" font-family="Helvetica,sans-Serif" font-size="10.00">shader.h</text>
</a>
</g>
</g>
<!-- Node2&#45;&gt;Node5 -->
<g id="edge4" class="edge">
<title>Node2&#45;&gt;Node5</title>
<path fill="none" stroke="#63b8ff" d="M149.61,-109.75C154.96,-102.66 162.68,-92.42 169.35,-83.59"/>
<polygon fill="#63b8ff" stroke="#63b8ff" points="172.11,-85.74 175.34,-75.65 166.52,-81.52 172.11,-85.74"/>
</g>
<!-- Node5&#45;&gt;Node6 -->
<g id="edge5" class="edge">
<title>Node5&#45;&gt;Node6</title>
<path fill="none" stroke="#63b8ff" d="M187.46,-54.75C190.95,-47.88 195.95,-38.08 200.35,-29.45"/>
<polygon fill="#63b8ff" stroke="#63b8ff" points="203.34,-31.29 204.76,-20.79 197.1,-28.11 203.34,-31.29"/>
</g>
</g>
</svg>
