<?xml version="1.0" encoding="UTF-8" standalone="no"?>
<!DOCTYPE svg PUBLIC "-//W3C//DTD SVG 1.1//EN"
 "http://www.w3.org/Graphics/SVG/1.1/DTD/svg11.dtd">
<!-- Generated by graphviz version 7.1.0 (20230121.1956)
 -->
<!-- Title: src/rendertargetarray.h Pages: 1 -->
<svg width="223pt" height="192pt"
 viewBox="0.00 0.00 223.00 192.00" xmlns="http://www.w3.org/2000/svg" xmlns:xlink="http://www.w3.org/1999/xlink">
<g id="graph0" class="graph" transform="scale(1 1) rotate(0) translate(4 188)">
<title>src/rendertargetarray.h</title>
<!-- Node1 -->
<g id="node1" class="node">
<title>Node1</title>
<g id="a_node1"><a xlink:title=" ">
<polygon fill="#999999" stroke="#666666" points="127.5,-184 12.5,-184 12.5,-165 127.5,-165 127.5,-184"/>
<text text-anchor="middle" x="70" y="-172" font-family="Helvetica,sans-Serif" font-size="10.00">src/rendertargetarray.h</text>
</a>
</g>
</g>
<!-- Node2 -->
<g id="node2" class="node">
<title>Node2</title>
<g id="a_node2"><a xlink:title=" ">
<polygon fill="#e0e0e0" stroke="#999999" points="42,-129 0,-129 0,-110 42,-110 42,-129"/>
<text text-anchor="middle" x="21" y="-117" font-family="Helvetica,sans-Serif" font-size="10.00">vector</text>
</a>
</g>
</g>
<!-- Node1&#45;&gt;Node2 -->
<g id="edge1" class="edge">
<title>Node1&#45;&gt;Node2</title>
<path fill="none" stroke="#63b8ff" d="M61.91,-164.75C55.14,-157.43 45.28,-146.76 36.94,-137.74"/>
<polygon fill="#63b8ff" stroke="#63b8ff" points="39.65,-135.52 30.29,-130.55 34.51,-140.27 39.65,-135.52"/>
</g>
<!-- Node3 -->
<g id="node3" class="node">
<title>Node3</title>
<g id="a_node3"><a xlink:title=" ">
<polygon fill="#e0e0e0" stroke="#999999" points="102,-74 50,-74 50,-55 102,-55 102,-74"/>
<text text-anchor="middle" x="76" y="-62" font-family="Helvetica,sans-Serif" font-size="10.00">memory</text>
</a>
</g>
</g>
<!-- Node1&#45;&gt;Node3 -->
<g id="edge2" class="edge">
<title>Node1&#45;&gt;Node3</title>
<path fill="none" stroke="#63b8ff" d="M70.49,-164.66C71.44,-147.57 73.55,-109.61 74.87,-85.92"/>
<polygon fill="#63b8ff" stroke="#63b8ff" points="78.36,-86.15 75.42,-75.97 71.37,-85.76 78.36,-86.15"/>
</g>
<!-- Node4 -->
<g id="node4" class="node">
<title>Node4</title>
<g id="a_node4"><a xlink:href="rendertarget_8h.html" target="_top" xlink:title=" ">
<polygon fill="white" stroke="#666666" points="175.5,-129 98.5,-129 98.5,-110 175.5,-110 175.5,-129"/>
<text text-anchor="middle" x="137" y="-117" font-family="Helvetica,sans-Serif" font-size="10.00">rendertarget.h</text>
</a>
</g>
</g>
<!-- Node1&#45;&gt;Node4 -->
<g id="edge3" class="edge">
<title>Node1&#45;&gt;Node4</title>
<path fill="none" stroke="#63b8ff" d="M81.37,-164.51C91.05,-156.85 105.2,-145.66 116.81,-136.47"/>
<polygon fill="#63b8ff" stroke="#63b8ff" points="118.94,-139.25 124.62,-130.3 114.6,-133.76 118.94,-139.25"/>
</g>
<!-- Node4&#45;&gt;Node3 -->
<g id="edge5" class="edge">
<title>Node4&#45;&gt;Node3</title>
<path fill="none" stroke="#63b8ff" d="M126.65,-109.51C117.92,-101.93 105.21,-90.88 94.7,-81.75"/>
<polygon fill="#63b8ff" stroke="#63b8ff" points="97.18,-79.27 87.34,-75.35 92.59,-84.55 97.18,-79.27"/>
</g>
<!-- Node5 -->
<g id="node5" class="node">
<title>Node5</title>
<g id="a_node5"><a xlink:title=" ">
<polygon fill="#e0e0e0" stroke="#999999" points="190,-19 130,-19 130,0 190,0 190,-19"/>
<text text-anchor="middle" x="160" y="-7" font-family="Helvetica,sans-Serif" font-size="10.00">GL/glew.h</text>
</a>
</g>
</g>
<!-- Node4&#45;&gt;Node5 -->
<g id="edge4" class="edge">
<title>Node4&#45;&gt;Node5</title>
<path fill="none" stroke="#63b8ff" d="M138.88,-109.66C142.54,-92.5 150.68,-54.26 155.72,-30.6"/>
<polygon fill="#63b8ff" stroke="#63b8ff" points="159.12,-31.45 157.78,-20.94 152.27,-29.99 159.12,-31.45"/>
</g>
<!-- Node6 -->
<g id="node6" class="node">
<title>Node6</title>
<g id="a_node6"><a xlink:href="shader_8h.html" target="_top" xlink:title=" ">
<polygon fill="white" stroke="#666666" points="215,-74 161,-74 161,-55 215,-55 215,-74"/>
<text text-anchor="middle" x="188" y="-62" font-family="Helvetica,sans-Serif" font-size="10.00">shader.h</text>
</a>
</g>
</g>
<!-- Node4&#45;&gt;Node6 -->
<g id="edge6" class="edge">
<title>Node4&#45;&gt;Node6</title>
<path fill="none" stroke="#63b8ff" d="M145.42,-109.75C152.47,-102.43 162.73,-91.76 171.41,-82.74"/>
<polygon fill="#63b8ff" stroke="#63b8ff" points="173.93,-85.17 178.35,-75.53 168.89,-80.31 173.93,-85.17"/>
</g>
<!-- Node6&#45;&gt;Node5 -->
<g id="edge7" class="edge">
<title>Node6&#45;&gt;Node5</title>
<path fill="none" stroke="#63b8ff" d="M183.38,-54.75C179.75,-47.88 174.57,-38.08 170.01,-29.45"/>
<polygon fill="#63b8ff" stroke="#63b8ff" points="173.2,-27.99 165.43,-20.78 167.01,-31.26 173.2,-27.99"/>
</g>
</g>
</svg>
