<?xml version="1.0" encoding="UTF-8" standalone="no"?>
<!DOCTYPE svg PUBLIC "-//W3C//DTD SVG 1.1//EN"
 "http://www.w3.org/Graphics/SVG/1.1/DTD/svg11.dtd">
<!-- Generated by graphviz version 7.1.0 (20230121.1956)
 -->
<!-- Title: src/rendertargetarray.h Pages: 1 -->
<svg width="401pt" height="192pt"
 viewBox="0.00 0.00 401.00 192.00" xmlns="http://www.w3.org/2000/svg" xmlns:xlink="http://www.w3.org/1999/xlink">
<g id="graph0" class="graph" transform="scale(1 1) rotate(0) translate(4 188)">
<title>src/rendertargetarray.h</title>
<!-- Node1 -->
<g id="node1" class="node">
<title>Node1</title>
<g id="a_node1"><a xlink:title=" ">
<polygon fill="#999999" stroke="#666666" points="251,-184 136,-184 136,-165 251,-165 251,-184"/>
<text text-anchor="middle" x="193.5" y="-172" font-family="Helvetica,sans-Serif" font-size="10.00">src/rendertargetarray.h</text>
</a>
</g>
</g>
<!-- Node2 -->
<g id="node2" class="node">
<title>Node2</title>
<g id="a_node2"><a xlink:href="fluidsimulator_8h.html" target="_top" xlink:title=" ">
<polygon fill="white" stroke="#666666" points="118.5,-129 20.5,-129 20.5,-110 118.5,-110 118.5,-129"/>
<text text-anchor="middle" x="69.5" y="-117" font-family="Helvetica,sans-Serif" font-size="10.00">src/fluidsimulator.h</text>
</a>
</g>
</g>
<!-- Node1&#45;&gt;Node2 -->
<g id="edge1" class="edge">
<title>Node1&#45;&gt;Node2</title>
<path fill="none" stroke="#63b8ff" d="M162.06,-160.06C139.53,-150.43 109.83,-137.74 90.22,-129.36"/>
<polygon fill="#63b8ff" stroke="#63b8ff" points="160.5,-163.2 171.07,-163.91 163.25,-156.77 160.5,-163.2"/>
</g>
<!-- Node7 -->
<g id="node7" class="node">
<title>Node7</title>
<g id="a_node7"><a xlink:href="particlesimulator_8h.html" target="_top" xlink:title=" ">
<polygon fill="white" stroke="#666666" points="250,-129 137,-129 137,-110 250,-110 250,-129"/>
<text text-anchor="middle" x="193.5" y="-117" font-family="Helvetica,sans-Serif" font-size="10.00">src/particlesimulator.h</text>
</a>
</g>
</g>
<!-- Node1&#45;&gt;Node7 -->
<g id="edge7" class="edge">
<title>Node1&#45;&gt;Node7</title>
<path fill="none" stroke="#63b8ff" d="M193.5,-153.35C193.5,-145.1 193.5,-135.97 193.5,-129.44"/>
<polygon fill="#63b8ff" stroke="#63b8ff" points="190,-153.23 193.5,-163.23 197,-153.23 190,-153.23"/>
</g>
<!-- Node9 -->
<g id="node9" class="node">
<title>Node9</title>
<g id="a_node9"><a xlink:href="rendertargetarray_8cpp.html" target="_top" xlink:title=" ">
<polygon fill="white" stroke="#666666" points="393,-129 268,-129 268,-110 393,-110 393,-129"/>
<text text-anchor="middle" x="330.5" y="-117" font-family="Helvetica,sans-Serif" font-size="10.00">src/rendertargetarray.cpp</text>
</a>
</g>
</g>
<!-- Node1&#45;&gt;Node9 -->
<g id="edge10" class="edge">
<title>Node1&#45;&gt;Node9</title>
<path fill="none" stroke="#63b8ff" d="M227.22,-160.45C252.23,-150.78 285.64,-137.85 307.6,-129.36"/>
<polygon fill="#63b8ff" stroke="#63b8ff" points="226.22,-157.09 218.15,-163.96 228.74,-163.62 226.22,-157.09"/>
</g>
<!-- Node3 -->
<g id="node3" class="node">
<title>Node3</title>
<g id="a_node3"><a xlink:href="core_8cpp.html" target="_top" xlink:title=" ">
<polygon fill="white" stroke="#666666" points="71,-19 0,-19 0,0 71,0 71,-19"/>
<text text-anchor="middle" x="35.5" y="-7" font-family="Helvetica,sans-Serif" font-size="10.00">src/core.cpp</text>
</a>
</g>
</g>
<!-- Node2&#45;&gt;Node3 -->
<g id="edge2" class="edge">
<title>Node2&#45;&gt;Node3</title>
<path fill="none" stroke="#63b8ff" d="M37.05,-104.18C24.86,-97.01 12.31,-87.02 5.5,-74 -4.55,-54.77 13.88,-31.58 26.04,-19.24"/>
<polygon fill="#63b8ff" stroke="#63b8ff" points="35.27,-107.2 45.74,-108.84 38.58,-101.03 35.27,-107.2"/>
</g>
<!-- Node4 -->
<g id="node4" class="node">
<title>Node4</title>
<g id="a_node4"><a xlink:href="fluidsimulator_8cpp.html" target="_top" xlink:title=" ">
<polygon fill="white" stroke="#666666" points="124,-74 15,-74 15,-55 124,-55 124,-74"/>
<text text-anchor="middle" x="69.5" y="-62" font-family="Helvetica,sans-Serif" font-size="10.00">src/fluidsimulator.cpp</text>
</a>
</g>
</g>
<!-- Node2&#45;&gt;Node4 -->
<g id="edge3" class="edge">
<title>Node2&#45;&gt;Node4</title>
<path fill="none" stroke="#63b8ff" d="M69.5,-98.35C69.5,-90.1 69.5,-80.97 69.5,-74.44"/>
<polygon fill="#63b8ff" stroke="#63b8ff" points="66,-98.23 69.5,-108.23 73,-98.23 66,-98.23"/>
</g>
<!-- Node5 -->
<g id="node5" class="node">
<title>Node5</title>
<g id="a_node5"><a xlink:href="simulation_8h.html" target="_top" xlink:title=" ">
<polygon fill="white" stroke="#666666" points="228.5,-74 142.5,-74 142.5,-55 228.5,-55 228.5,-74"/>
<text text-anchor="middle" x="185.5" y="-62" font-family="Helvetica,sans-Serif" font-size="10.00">src/simulation.h</text>
</a>
</g>
</g>
<!-- Node2&#45;&gt;Node5 -->
<g id="edge4" class="edge">
<title>Node2&#45;&gt;Node5</title>
<path fill="none" stroke="#63b8ff" d="M99.49,-104.8C120.49,-95.2 147.94,-82.66 166.11,-74.36"/>
<polygon fill="#63b8ff" stroke="#63b8ff" points="98.2,-101.54 90.55,-108.88 101.1,-107.91 98.2,-101.54"/>
</g>
<!-- Node5&#45;&gt;Node3 -->
<g id="edge5" class="edge">
<title>Node5&#45;&gt;Node3</title>
<path fill="none" stroke="#63b8ff" d="M149.35,-50.73C121.98,-41.06 85.09,-28.02 60.82,-19.45"/>
<polygon fill="#63b8ff" stroke="#63b8ff" points="148.03,-53.97 158.63,-54.01 150.36,-47.37 148.03,-53.97"/>
</g>
<!-- Node6 -->
<g id="node6" class="node">
<title>Node6</title>
<g id="a_node6"><a xlink:href="simulation_8cpp.html" target="_top" xlink:title=" ">
<polygon fill="white" stroke="#666666" points="233.5,-19 137.5,-19 137.5,0 233.5,0 233.5,-19"/>
<text text-anchor="middle" x="185.5" y="-7" font-family="Helvetica,sans-Serif" font-size="10.00">src/simulation.cpp</text>
</a>
</g>
</g>
<!-- Node5&#45;&gt;Node6 -->
<g id="edge6" class="edge">
<title>Node5&#45;&gt;Node6</title>
<path fill="none" stroke="#63b8ff" d="M185.5,-43.35C185.5,-35.1 185.5,-25.97 185.5,-19.44"/>
<polygon fill="#63b8ff" stroke="#63b8ff" points="182,-43.23 185.5,-53.23 189,-43.23 182,-43.23"/>
</g>
<!-- Node7&#45;&gt;Node5 -->
<g id="edge9" class="edge">
<title>Node7&#45;&gt;Node5</title>
<path fill="none" stroke="#63b8ff" d="M190.5,-98.64C189.25,-90.31 187.85,-81.05 186.85,-74.44"/>
<polygon fill="#63b8ff" stroke="#63b8ff" points="187,-98.89 191.95,-108.25 193.92,-97.84 187,-98.89"/>
</g>
<!-- Node8 -->
<g id="node8" class="node">
<title>Node8</title>
<g id="a_node8"><a xlink:href="particlesimulator_8cpp.html" target="_top" xlink:title=" ">
<polygon fill="white" stroke="#666666" points="370,-74 247,-74 247,-55 370,-55 370,-74"/>
<text text-anchor="middle" x="308.5" y="-62" font-family="Helvetica,sans-Serif" font-size="10.00">src/particlesimulator.cpp</text>
</a>
</g>
</g>
<!-- Node7&#45;&gt;Node8 -->
<g id="edge8" class="edge">
<title>Node7&#45;&gt;Node8</title>
<path fill="none" stroke="#63b8ff" d="M223.23,-104.8C244.05,-95.2 271.26,-82.66 289.28,-74.36"/>
<polygon fill="#63b8ff" stroke="#63b8ff" points="222,-101.51 214.38,-108.88 224.93,-107.87 222,-101.51"/>
</g>
</g>
</svg>
