<?xml version="1.0" encoding="UTF-8" standalone="no"?>
<!DOCTYPE svg PUBLIC "-//W3C//DTD SVG 1.1//EN"
 "http://www.w3.org/Graphics/SVG/1.1/DTD/svg11.dtd">
<!-- Generated by graphviz version 7.1.0 (20230121.1956)
 -->
<!-- Title: src/rendertarget.cpp Pages: 1 -->
<svg width="429pt" height="192pt"
 viewBox="0.00 0.00 428.50 192.00" xmlns="http://www.w3.org/2000/svg" xmlns:xlink="http://www.w3.org/1999/xlink">
<g id="graph0" class="graph" transform="scale(1 1) rotate(0) translate(4 188)">
<title>src/rendertarget.cpp</title>
<!-- Node1 -->
<g id="node1" class="node">
<title>Node1</title>
<g id="a_node1"><a xlink:title=" ">
<polygon fill="#999999" stroke="#666666" points="280,-184 176,-184 176,-165 280,-165 280,-184"/>
<text text-anchor="middle" x="228" y="-172" font-family="Helvetica,sans-Serif" font-size="10.00">src/rendertarget.cpp</text>
</a>
</g>
</g>
<!-- Node2 -->
<g id="node2" class="node">
<title>Node2</title>
<g id="a_node2"><a xlink:title=" ">
<polygon fill="#e0e0e0" stroke="#999999" points="132,-129 78,-129 78,-110 132,-110 132,-129"/>
<text text-anchor="middle" x="105" y="-117" font-family="Helvetica,sans-Serif" font-size="10.00">iostream</text>
</a>
</g>
</g>
<!-- Node1&#45;&gt;Node2 -->
<g id="edge1" class="edge">
<title>Node1&#45;&gt;Node2</title>
<path fill="none" stroke="#63b8ff" d="M207.13,-164.51C187.58,-156.08 158.1,-143.38 135.83,-133.79"/>
<polygon fill="#63b8ff" stroke="#63b8ff" points="137.52,-130.7 126.95,-129.96 134.75,-137.13 137.52,-130.7"/>
</g>
<!-- Node3 -->
<g id="node3" class="node">
<title>Node3</title>
<g id="a_node3"><a xlink:title=" ">
<polygon fill="#e0e0e0" stroke="#999999" points="262,-74 194,-74 194,-55 262,-55 262,-74"/>
<text text-anchor="middle" x="228" y="-62" font-family="Helvetica,sans-Serif" font-size="10.00">glm/ext.hpp</text>
</a>
</g>
</g>
<!-- Node1&#45;&gt;Node3 -->
<g id="edge2" class="edge">
<title>Node1&#45;&gt;Node3</title>
<path fill="none" stroke="#63b8ff" d="M228,-164.66C228,-147.57 228,-109.61 228,-85.92"/>
<polygon fill="#63b8ff" stroke="#63b8ff" points="231.5,-85.97 228,-75.97 224.5,-85.97 231.5,-85.97"/>
</g>
<!-- Node4 -->
<g id="node4" class="node">
<title>Node4</title>
<g id="a_node4"><a xlink:href="core_8h.html" target="_top" xlink:title=" ">
<polygon fill="white" stroke="#666666" points="194,-129 150,-129 150,-110 194,-110 194,-129"/>
<text text-anchor="middle" x="172" y="-117" font-family="Helvetica,sans-Serif" font-size="10.00">core.h</text>
</a>
</g>
</g>
<!-- Node1&#45;&gt;Node4 -->
<g id="edge3" class="edge">
<title>Node1&#45;&gt;Node4</title>
<path fill="none" stroke="#63b8ff" d="M218.5,-164.51C210.57,-157 199.05,-146.1 189.46,-137.03"/>
<polygon fill="#63b8ff" stroke="#63b8ff" points="192.13,-134.73 182.46,-130.4 187.32,-139.81 192.13,-134.73"/>
</g>
<!-- Node10 -->
<g id="node10" class="node">
<title>Node10</title>
<g id="a_node10"><a xlink:href="rendertarget_8h.html" target="_top" xlink:title=" ">
<polygon fill="white" stroke="#666666" points="420.5,-129 343.5,-129 343.5,-110 420.5,-110 420.5,-129"/>
<text text-anchor="middle" x="382" y="-117" font-family="Helvetica,sans-Serif" font-size="10.00">rendertarget.h</text>
</a>
</g>
</g>
<!-- Node1&#45;&gt;Node10 -->
<g id="edge11" class="edge">
<title>Node1&#45;&gt;Node10</title>
<path fill="none" stroke="#63b8ff" d="M254.12,-164.51C279.2,-155.88 317.31,-142.76 345.4,-133.1"/>
<polygon fill="#63b8ff" stroke="#63b8ff" points="346.26,-136.5 354.57,-129.94 343.98,-129.88 346.26,-136.5"/>
</g>
<!-- Node13 -->
<g id="node13" class="node">
<title>Node13</title>
<g id="a_node13"><a xlink:href="quad_8h.html" target="_top" xlink:title=" ">
<polygon fill="white" stroke="#666666" points="307,-129 261,-129 261,-110 307,-110 307,-129"/>
<text text-anchor="middle" x="284" y="-117" font-family="Helvetica,sans-Serif" font-size="10.00">quad.h</text>
</a>
</g>
</g>
<!-- Node1&#45;&gt;Node13 -->
<g id="edge16" class="edge">
<title>Node1&#45;&gt;Node13</title>
<path fill="none" stroke="#63b8ff" d="M237.5,-164.51C245.43,-157 256.95,-146.1 266.54,-137.03"/>
<polygon fill="#63b8ff" stroke="#63b8ff" points="268.68,-139.81 273.54,-130.4 263.87,-134.73 268.68,-139.81"/>
</g>
<!-- Node4&#45;&gt;Node3 -->
<g id="edge6" class="edge">
<title>Node4&#45;&gt;Node3</title>
<path fill="none" stroke="#63b8ff" d="M181.5,-109.51C189.43,-102 200.95,-91.1 210.54,-82.03"/>
<polygon fill="#63b8ff" stroke="#63b8ff" points="212.68,-84.81 217.54,-75.4 207.87,-79.73 212.68,-84.81"/>
</g>
<!-- Node5 -->
<g id="node5" class="node">
<title>Node5</title>
<g id="a_node5"><a xlink:title=" ">
<polygon fill="#e0e0e0" stroke="#999999" points="280,-19 228,-19 228,0 280,0 280,-19"/>
<text text-anchor="middle" x="254" y="-7" font-family="Helvetica,sans-Serif" font-size="10.00">memory</text>
</a>
</g>
</g>
<!-- Node4&#45;&gt;Node5 -->
<g id="edge4" class="edge">
<title>Node4&#45;&gt;Node5</title>
<path fill="none" stroke="#63b8ff" d="M171.73,-109.89C171.74,-96.87 173.44,-71.9 185,-55 193.89,-42 207.96,-31.94 221.08,-24.69"/>
<polygon fill="#63b8ff" stroke="#63b8ff" points="222.61,-27.84 229.93,-20.17 219.43,-21.6 222.61,-27.84"/>
</g>
<!-- Node6 -->
<g id="node6" class="node">
<title>Node6</title>
<g id="a_node6"><a xlink:title=" ">
<polygon fill="#e0e0e0" stroke="#999999" points="137.5,-74 96.5,-74 96.5,-55 137.5,-55 137.5,-74"/>
<text text-anchor="middle" x="117" y="-62" font-family="Helvetica,sans-Serif" font-size="10.00">string</text>
</a>
</g>
</g>
<!-- Node4&#45;&gt;Node6 -->
<g id="edge5" class="edge">
<title>Node4&#45;&gt;Node6</title>
<path fill="none" stroke="#63b8ff" d="M162.92,-109.75C155.16,-102.27 143.79,-91.32 134.3,-82.17"/>
<polygon fill="#63b8ff" stroke="#63b8ff" points="137,-79.91 127.37,-75.49 132.14,-84.95 137,-79.91"/>
</g>
<!-- Node7 -->
<g id="node7" class="node">
<title>Node7</title>
<g id="a_node7"><a xlink:href="event_8h.html" target="_top" xlink:title=" ">
<polygon fill="white" stroke="#666666" points="78.5,-74 31.5,-74 31.5,-55 78.5,-55 78.5,-74"/>
<text text-anchor="middle" x="55" y="-62" font-family="Helvetica,sans-Serif" font-size="10.00">event.h</text>
</a>
</g>
</g>
<!-- Node4&#45;&gt;Node7 -->
<g id="edge7" class="edge">
<title>Node4&#45;&gt;Node7</title>
<path fill="none" stroke="#63b8ff" d="M152.15,-109.51C133.72,-101.16 106.02,-88.61 84.91,-79.05"/>
<polygon fill="#63b8ff" stroke="#63b8ff" points="86.49,-75.92 75.93,-74.98 83.6,-82.3 86.49,-75.92"/>
</g>
<!-- Node7&#45;&gt;Node5 -->
<g id="edge10" class="edge">
<title>Node7&#45;&gt;Node5</title>
<path fill="none" stroke="#63b8ff" d="M78.61,-57.21C112.7,-48.13 176.04,-31.26 216.55,-20.47"/>
<polygon fill="#63b8ff" stroke="#63b8ff" points="217.35,-23.88 226.12,-17.93 215.55,-17.12 217.35,-23.88"/>
</g>
<!-- Node8 -->
<g id="node8" class="node">
<title>Node8</title>
<g id="a_node8"><a xlink:title=" ">
<polygon fill="#e0e0e0" stroke="#999999" points="118,-19 60,-19 60,0 118,0 118,-19"/>
<text text-anchor="middle" x="89" y="-7" font-family="Helvetica,sans-Serif" font-size="10.00">functional</text>
</a>
</g>
</g>
<!-- Node7&#45;&gt;Node8 -->
<g id="edge8" class="edge">
<title>Node7&#45;&gt;Node8</title>
<path fill="none" stroke="#63b8ff" d="M60.61,-54.75C65.12,-47.73 71.59,-37.64 77.21,-28.87"/>
<polygon fill="#63b8ff" stroke="#63b8ff" points="79.99,-31.02 82.45,-20.72 74.1,-27.24 79.99,-31.02"/>
</g>
<!-- Node9 -->
<g id="node9" class="node">
<title>Node9</title>
<g id="a_node9"><a xlink:title=" ">
<polygon fill="#e0e0e0" stroke="#999999" points="42,-19 0,-19 0,0 42,0 42,-19"/>
<text text-anchor="middle" x="21" y="-7" font-family="Helvetica,sans-Serif" font-size="10.00">vector</text>
</a>
</g>
</g>
<!-- Node7&#45;&gt;Node9 -->
<g id="edge9" class="edge">
<title>Node7&#45;&gt;Node9</title>
<path fill="none" stroke="#63b8ff" d="M49.39,-54.75C44.88,-47.73 38.41,-37.64 32.79,-28.87"/>
<polygon fill="#63b8ff" stroke="#63b8ff" points="35.9,-27.24 27.55,-20.72 30.01,-31.02 35.9,-27.24"/>
</g>
<!-- Node10&#45;&gt;Node5 -->
<g id="edge13" class="edge">
<title>Node10&#45;&gt;Node5</title>
<path fill="none" stroke="#63b8ff" d="M384.74,-109.73C388.29,-96.5 392.74,-71.28 381,-55 360.67,-26.81 321.09,-16.36 291.49,-12.54"/>
<polygon fill="#63b8ff" stroke="#63b8ff" points="292.12,-9.09 281.8,-11.51 291.38,-16.05 292.12,-9.09"/>
</g>
<!-- Node11 -->
<g id="node11" class="node">
<title>Node11</title>
<g id="a_node11"><a xlink:title=" ">
<polygon fill="#e0e0e0" stroke="#999999" points="410,-19 350,-19 350,0 410,0 410,-19"/>
<text text-anchor="middle" x="380" y="-7" font-family="Helvetica,sans-Serif" font-size="10.00">GL/glew.h</text>
</a>
</g>
</g>
<!-- Node10&#45;&gt;Node11 -->
<g id="edge12" class="edge">
<title>Node10&#45;&gt;Node11</title>
<path fill="none" stroke="#63b8ff" d="M391.46,-109.8C403.23,-97.88 420.96,-75.58 414,-55 410.59,-44.92 403.88,-35.32 397.31,-27.64"/>
<polygon fill="#63b8ff" stroke="#63b8ff" points="399.99,-25.38 390.63,-20.42 394.86,-30.14 399.99,-25.38"/>
</g>
<!-- Node12 -->
<g id="node12" class="node">
<title>Node12</title>
<g id="a_node12"><a xlink:href="shader_8h.html" target="_top" xlink:title=" ">
<polygon fill="white" stroke="#666666" points="372,-74 318,-74 318,-55 372,-55 372,-74"/>
<text text-anchor="middle" x="345" y="-62" font-family="Helvetica,sans-Serif" font-size="10.00">shader.h</text>
</a>
</g>
</g>
<!-- Node10&#45;&gt;Node12 -->
<g id="edge14" class="edge">
<title>Node10&#45;&gt;Node12</title>
<path fill="none" stroke="#63b8ff" d="M375.89,-109.75C370.99,-102.73 363.95,-92.64 357.83,-83.87"/>
<polygon fill="#63b8ff" stroke="#63b8ff" points="360.7,-81.88 352.11,-75.68 354.96,-85.89 360.7,-81.88"/>
</g>
<!-- Node12&#45;&gt;Node11 -->
<g id="edge15" class="edge">
<title>Node12&#45;&gt;Node11</title>
<path fill="none" stroke="#63b8ff" d="M350.78,-54.75C355.41,-47.73 362.07,-37.64 367.87,-28.87"/>
<polygon fill="#63b8ff" stroke="#63b8ff" points="370.67,-30.98 373.26,-20.71 364.83,-27.12 370.67,-30.98"/>
</g>
<!-- Node13&#45;&gt;Node3 -->
<g id="edge17" class="edge">
<title>Node13&#45;&gt;Node3</title>
<path fill="none" stroke="#63b8ff" d="M274.5,-109.51C266.57,-102 255.05,-91.1 245.46,-82.03"/>
<polygon fill="#63b8ff" stroke="#63b8ff" points="248.13,-79.73 238.46,-75.4 243.32,-84.81 248.13,-79.73"/>
</g>
<!-- Node13&#45;&gt;Node5 -->
<g id="edge18" class="edge">
<title>Node13&#45;&gt;Node5</title>
<path fill="none" stroke="#63b8ff" d="M282.67,-109.76C280.7,-97.42 276.6,-74.23 271,-55 268.54,-46.56 265.2,-37.46 262.12,-29.71"/>
<polygon fill="#63b8ff" stroke="#63b8ff" points="265.43,-28.54 258.39,-20.62 258.95,-31.2 265.43,-28.54"/>
</g>
<!-- Node13&#45;&gt;Node12 -->
<g id="edge19" class="edge">
<title>Node13&#45;&gt;Node12</title>
<path fill="none" stroke="#63b8ff" d="M294.35,-109.51C303.08,-101.93 315.79,-90.88 326.3,-81.75"/>
<polygon fill="#63b8ff" stroke="#63b8ff" points="328.41,-84.55 333.66,-75.35 323.82,-79.27 328.41,-84.55"/>
</g>
</g>
</svg>
