<?xml version="1.0" encoding="UTF-8" standalone="no"?>
<!DOCTYPE svg PUBLIC "-//W3C//DTD SVG 1.1//EN"
 "http://www.w3.org/Graphics/SVG/1.1/DTD/svg11.dtd">
<!-- Generated by graphviz version 7.1.0 (20230121.1956)
 -->
<!-- Title: src/rendertargetarray.cpp Pages: 1 -->
<svg width="270pt" height="247pt"
 viewBox="0.00 0.00 269.50 247.00" xmlns="http://www.w3.org/2000/svg" xmlns:xlink="http://www.w3.org/1999/xlink">
<g id="graph0" class="graph" transform="scale(1 1) rotate(0) translate(4 243)">
<title>src/rendertargetarray.cpp</title>
<!-- Node1 -->
<g id="node1" class="node">
<title>Node1</title>
<g id="a_node1"><a xlink:title=" ">
<polygon fill="#999999" stroke="#666666" points="133,-239 8,-239 8,-220 133,-220 133,-239"/>
<text text-anchor="middle" x="70.5" y="-227" font-family="Helvetica,sans-Serif" font-size="10.00">src/rendertargetarray.cpp</text>
</a>
</g>
</g>
<!-- Node2 -->
<g id="node2" class="node">
<title>Node2</title>
<g id="a_node2"><a xlink:title=" ">
<polygon fill="#e0e0e0" stroke="#999999" points="49,-184 0,-184 0,-165 49,-165 49,-184"/>
<text text-anchor="middle" x="24.5" y="-172" font-family="Helvetica,sans-Serif" font-size="10.00">cassert</text>
</a>
</g>
</g>
<!-- Node1&#45;&gt;Node2 -->
<g id="edge1" class="edge">
<title>Node1&#45;&gt;Node2</title>
<path fill="none" stroke="#63b8ff" d="M62.9,-219.75C56.62,-212.5 47.49,-201.98 39.7,-193.02"/>
<polygon fill="#63b8ff" stroke="#63b8ff" points="42.45,-190.84 33.25,-185.59 37.16,-195.43 42.45,-190.84"/>
</g>
<!-- Node3 -->
<g id="node3" class="node">
<title>Node3</title>
<g id="a_node3"><a xlink:href="rendertargetarray_8h.html" target="_top" xlink:title=" ">
<polygon fill="white" stroke="#666666" points="165.5,-184 67.5,-184 67.5,-165 165.5,-165 165.5,-184"/>
<text text-anchor="middle" x="116.5" y="-172" font-family="Helvetica,sans-Serif" font-size="10.00">rendertargetarray.h</text>
</a>
</g>
</g>
<!-- Node1&#45;&gt;Node3 -->
<g id="edge2" class="edge">
<title>Node1&#45;&gt;Node3</title>
<path fill="none" stroke="#63b8ff" d="M78.1,-219.75C84.38,-212.5 93.51,-201.98 101.3,-193.02"/>
<polygon fill="#63b8ff" stroke="#63b8ff" points="103.84,-195.43 107.75,-185.59 98.55,-190.84 103.84,-195.43"/>
</g>
<!-- Node4 -->
<g id="node4" class="node">
<title>Node4</title>
<g id="a_node4"><a xlink:title=" ">
<polygon fill="#e0e0e0" stroke="#999999" points="88.5,-129 46.5,-129 46.5,-110 88.5,-110 88.5,-129"/>
<text text-anchor="middle" x="67.5" y="-117" font-family="Helvetica,sans-Serif" font-size="10.00">vector</text>
</a>
</g>
</g>
<!-- Node3&#45;&gt;Node4 -->
<g id="edge3" class="edge">
<title>Node3&#45;&gt;Node4</title>
<path fill="none" stroke="#63b8ff" d="M108.41,-164.75C101.64,-157.43 91.78,-146.76 83.44,-137.74"/>
<polygon fill="#63b8ff" stroke="#63b8ff" points="86.15,-135.52 76.79,-130.55 81.01,-140.27 86.15,-135.52"/>
</g>
<!-- Node5 -->
<g id="node5" class="node">
<title>Node5</title>
<g id="a_node5"><a xlink:title=" ">
<polygon fill="#e0e0e0" stroke="#999999" points="148.5,-74 96.5,-74 96.5,-55 148.5,-55 148.5,-74"/>
<text text-anchor="middle" x="122.5" y="-62" font-family="Helvetica,sans-Serif" font-size="10.00">memory</text>
</a>
</g>
</g>
<!-- Node3&#45;&gt;Node5 -->
<g id="edge4" class="edge">
<title>Node3&#45;&gt;Node5</title>
<path fill="none" stroke="#63b8ff" d="M116.99,-164.66C117.94,-147.57 120.05,-109.61 121.37,-85.92"/>
<polygon fill="#63b8ff" stroke="#63b8ff" points="124.86,-86.15 121.92,-75.97 117.87,-85.76 124.86,-86.15"/>
</g>
<!-- Node6 -->
<g id="node6" class="node">
<title>Node6</title>
<g id="a_node6"><a xlink:href="rendertarget_8h.html" target="_top" xlink:title=" ">
<polygon fill="white" stroke="#666666" points="222,-129 145,-129 145,-110 222,-110 222,-129"/>
<text text-anchor="middle" x="183.5" y="-117" font-family="Helvetica,sans-Serif" font-size="10.00">rendertarget.h</text>
</a>
</g>
</g>
<!-- Node3&#45;&gt;Node6 -->
<g id="edge5" class="edge">
<title>Node3&#45;&gt;Node6</title>
<path fill="none" stroke="#63b8ff" d="M127.87,-164.51C137.55,-156.85 151.7,-145.66 163.31,-136.47"/>
<polygon fill="#63b8ff" stroke="#63b8ff" points="165.44,-139.25 171.12,-130.3 161.1,-133.76 165.44,-139.25"/>
</g>
<!-- Node6&#45;&gt;Node5 -->
<g id="edge7" class="edge">
<title>Node6&#45;&gt;Node5</title>
<path fill="none" stroke="#63b8ff" d="M173.15,-109.51C164.42,-101.93 151.71,-90.88 141.2,-81.75"/>
<polygon fill="#63b8ff" stroke="#63b8ff" points="143.68,-79.27 133.84,-75.35 139.09,-84.55 143.68,-79.27"/>
</g>
<!-- Node7 -->
<g id="node7" class="node">
<title>Node7</title>
<g id="a_node7"><a xlink:title=" ">
<polygon fill="#e0e0e0" stroke="#999999" points="236.5,-19 176.5,-19 176.5,0 236.5,0 236.5,-19"/>
<text text-anchor="middle" x="206.5" y="-7" font-family="Helvetica,sans-Serif" font-size="10.00">GL/glew.h</text>
</a>
</g>
</g>
<!-- Node6&#45;&gt;Node7 -->
<g id="edge6" class="edge">
<title>Node6&#45;&gt;Node7</title>
<path fill="none" stroke="#63b8ff" d="M185.38,-109.66C189.04,-92.5 197.18,-54.26 202.22,-30.6"/>
<polygon fill="#63b8ff" stroke="#63b8ff" points="205.62,-31.45 204.28,-20.94 198.77,-29.99 205.62,-31.45"/>
</g>
<!-- Node8 -->
<g id="node8" class="node">
<title>Node8</title>
<g id="a_node8"><a xlink:href="shader_8h.html" target="_top" xlink:title=" ">
<polygon fill="white" stroke="#666666" points="261.5,-74 207.5,-74 207.5,-55 261.5,-55 261.5,-74"/>
<text text-anchor="middle" x="234.5" y="-62" font-family="Helvetica,sans-Serif" font-size="10.00">shader.h</text>
</a>
</g>
</g>
<!-- Node6&#45;&gt;Node8 -->
<g id="edge8" class="edge">
<title>Node6&#45;&gt;Node8</title>
<path fill="none" stroke="#63b8ff" d="M191.92,-109.75C198.97,-102.43 209.23,-91.76 217.91,-82.74"/>
<polygon fill="#63b8ff" stroke="#63b8ff" points="220.43,-85.17 224.85,-75.53 215.39,-80.31 220.43,-85.17"/>
</g>
<!-- Node8&#45;&gt;Node7 -->
<g id="edge9" class="edge">
<title>Node8&#45;&gt;Node7</title>
<path fill="none" stroke="#63b8ff" d="M229.88,-54.75C226.25,-47.88 221.07,-38.08 216.51,-29.45"/>
<polygon fill="#63b8ff" stroke="#63b8ff" points="219.7,-27.99 211.93,-20.78 213.51,-31.26 219.7,-27.99"/>
</g>
</g>
</svg>
