<?xml version="1.0" encoding="UTF-8" standalone="no"?>
<!DOCTYPE svg PUBLIC "-//W3C//DTD SVG 1.1//EN"
 "http://www.w3.org/Graphics/SVG/1.1/DTD/svg11.dtd">
<!-- Generated by graphviz version 7.1.0 (20230121.1956)
 -->
<!-- Title: src/rendertarget.h Pages: 1 -->
<svg width="450pt" height="247pt"
 viewBox="0.00 0.00 450.00 247.00" xmlns="http://www.w3.org/2000/svg" xmlns:xlink="http://www.w3.org/1999/xlink">
<g id="graph0" class="graph" transform="scale(1 1) rotate(0) translate(4 243)">
<title>src/rendertarget.h</title>
<!-- Node1 -->
<g id="node1" class="node">
<title>Node1</title>
<g id="a_node1"><a xlink:title=" ">
<polygon fill="#999999" stroke="#666666" points="122,-239 29,-239 29,-220 122,-220 122,-239"/>
<text text-anchor="middle" x="75.5" y="-227" font-family="Helvetica,sans-Serif" font-size="10.00">src/rendertarget.h</text>
</a>
</g>
</g>
<!-- Node2 -->
<g id="node2" class="node">
<title>Node2</title>
<g id="a_node2"><a xlink:href="core_8cpp.html" target="_top" xlink:title=" ">
<polygon fill="white" stroke="#666666" points="71,-19 0,-19 0,0 71,0 71,-19"/>
<text text-anchor="middle" x="35.5" y="-7" font-family="Helvetica,sans-Serif" font-size="10.00">src/core.cpp</text>
</a>
</g>
</g>
<!-- Node1&#45;&gt;Node2 -->
<g id="edge1" class="edge">
<title>Node1&#45;&gt;Node2</title>
<path fill="none" stroke="#63b8ff" d="M61.38,-210.58C56.07,-202.84 50.57,-193.41 47.5,-184 27.84,-123.72 32.36,-45.59 34.62,-19.45"/>
<polygon fill="#63b8ff" stroke="#63b8ff" points="58.4,-212.43 67.15,-218.41 64.04,-208.28 58.4,-212.43"/>
</g>
<!-- Node3 -->
<g id="node3" class="node">
<title>Node3</title>
<g id="a_node3"><a xlink:href="fluidsimulator_8h.html" target="_top" xlink:title=" ">
<polygon fill="white" stroke="#666666" points="167.5,-129 69.5,-129 69.5,-110 167.5,-110 167.5,-129"/>
<text text-anchor="middle" x="118.5" y="-117" font-family="Helvetica,sans-Serif" font-size="10.00">src/fluidsimulator.h</text>
</a>
</g>
</g>
<!-- Node1&#45;&gt;Node3 -->
<g id="edge2" class="edge">
<title>Node1&#45;&gt;Node3</title>
<path fill="none" stroke="#63b8ff" d="M61.91,-210.2C54,-197.16 46.95,-179.45 54.5,-165 63.21,-148.33 81.33,-136.64 96.07,-129.44"/>
<polygon fill="#63b8ff" stroke="#63b8ff" points="58.84,-211.91 67.33,-218.25 64.65,-208 58.84,-211.91"/>
</g>
<!-- Node7 -->
<g id="node7" class="node">
<title>Node7</title>
<g id="a_node7"><a xlink:href="rendertarget_8cpp.html" target="_top" xlink:title=" ">
<polygon fill="white" stroke="#666666" points="167.5,-184 63.5,-184 63.5,-165 167.5,-165 167.5,-184"/>
<text text-anchor="middle" x="115.5" y="-172" font-family="Helvetica,sans-Serif" font-size="10.00">src/rendertarget.cpp</text>
</a>
</g>
</g>
<!-- Node1&#45;&gt;Node7 -->
<g id="edge8" class="edge">
<title>Node1&#45;&gt;Node7</title>
<path fill="none" stroke="#63b8ff" d="M88.97,-210.65C95.62,-201.84 103.36,-191.59 108.75,-184.44"/>
<polygon fill="#63b8ff" stroke="#63b8ff" points="86.25,-208.45 83.02,-218.54 91.83,-212.67 86.25,-208.45"/>
</g>
<!-- Node8 -->
<g id="node8" class="node">
<title>Node8</title>
<g id="a_node8"><a xlink:href="rendertargetarray_8h.html" target="_top" xlink:title=" ">
<polygon fill="white" stroke="#666666" points="301,-184 186,-184 186,-165 301,-165 301,-184"/>
<text text-anchor="middle" x="243.5" y="-172" font-family="Helvetica,sans-Serif" font-size="10.00">src/rendertargetarray.h</text>
</a>
</g>
</g>
<!-- Node1&#45;&gt;Node8 -->
<g id="edge9" class="edge">
<title>Node1&#45;&gt;Node8</title>
<path fill="none" stroke="#63b8ff" d="M114.77,-216.11C145.53,-206.41 187.59,-193.14 215.14,-184.45"/>
<polygon fill="#63b8ff" stroke="#63b8ff" points="113.93,-212.71 105.44,-219.05 116.03,-219.38 113.93,-212.71"/>
</g>
<!-- Node3&#45;&gt;Node2 -->
<g id="edge3" class="edge">
<title>Node3&#45;&gt;Node2</title>
<path fill="none" stroke="#63b8ff" d="M89.39,-104C77.06,-96.56 63.49,-86.41 54.5,-74 42.21,-57.04 37.79,-32.1 36.26,-19.1"/>
<polygon fill="#63b8ff" stroke="#63b8ff" points="87.58,-107 98.01,-108.87 91.03,-100.91 87.58,-107"/>
</g>
<!-- Node4 -->
<g id="node4" class="node">
<title>Node4</title>
<g id="a_node4"><a xlink:href="fluidsimulator_8cpp.html" target="_top" xlink:title=" ">
<polygon fill="white" stroke="#666666" points="173,-74 64,-74 64,-55 173,-55 173,-74"/>
<text text-anchor="middle" x="118.5" y="-62" font-family="Helvetica,sans-Serif" font-size="10.00">src/fluidsimulator.cpp</text>
</a>
</g>
</g>
<!-- Node3&#45;&gt;Node4 -->
<g id="edge4" class="edge">
<title>Node3&#45;&gt;Node4</title>
<path fill="none" stroke="#63b8ff" d="M118.5,-98.35C118.5,-90.1 118.5,-80.97 118.5,-74.44"/>
<polygon fill="#63b8ff" stroke="#63b8ff" points="115,-98.23 118.5,-108.23 122,-98.23 115,-98.23"/>
</g>
<!-- Node5 -->
<g id="node5" class="node">
<title>Node5</title>
<g id="a_node5"><a xlink:href="simulation_8h.html" target="_top" xlink:title=" ">
<polygon fill="white" stroke="#666666" points="277.5,-74 191.5,-74 191.5,-55 277.5,-55 277.5,-74"/>
<text text-anchor="middle" x="234.5" y="-62" font-family="Helvetica,sans-Serif" font-size="10.00">src/simulation.h</text>
</a>
</g>
</g>
<!-- Node3&#45;&gt;Node5 -->
<g id="edge5" class="edge">
<title>Node3&#45;&gt;Node5</title>
<path fill="none" stroke="#63b8ff" d="M148.49,-104.8C169.49,-95.2 196.94,-82.66 215.11,-74.36"/>
<polygon fill="#63b8ff" stroke="#63b8ff" points="147.2,-101.54 139.55,-108.88 150.1,-107.91 147.2,-101.54"/>
</g>
<!-- Node5&#45;&gt;Node2 -->
<g id="edge6" class="edge">
<title>Node5&#45;&gt;Node2</title>
<path fill="none" stroke="#63b8ff" d="M189.89,-51.62C153.3,-41.87 102.29,-28.29 69.09,-19.45"/>
<polygon fill="#63b8ff" stroke="#63b8ff" points="188.72,-54.93 199.28,-54.12 190.52,-48.16 188.72,-54.93"/>
</g>
<!-- Node6 -->
<g id="node6" class="node">
<title>Node6</title>
<g id="a_node6"><a xlink:href="simulation_8cpp.html" target="_top" xlink:title=" ">
<polygon fill="white" stroke="#666666" points="282.5,-19 186.5,-19 186.5,0 282.5,0 282.5,-19"/>
<text text-anchor="middle" x="234.5" y="-7" font-family="Helvetica,sans-Serif" font-size="10.00">src/simulation.cpp</text>
</a>
</g>
</g>
<!-- Node5&#45;&gt;Node6 -->
<g id="edge7" class="edge">
<title>Node5&#45;&gt;Node6</title>
<path fill="none" stroke="#63b8ff" d="M234.5,-43.35C234.5,-35.1 234.5,-25.97 234.5,-19.44"/>
<polygon fill="#63b8ff" stroke="#63b8ff" points="231,-43.23 234.5,-53.23 238,-43.23 231,-43.23"/>
</g>
<!-- Node8&#45;&gt;Node3 -->
<g id="edge10" class="edge">
<title>Node8&#45;&gt;Node3</title>
<path fill="none" stroke="#63b8ff" d="M211.81,-160.06C189.1,-150.43 159.16,-137.74 139.39,-129.36"/>
<polygon fill="#63b8ff" stroke="#63b8ff" points="210.33,-163.24 220.9,-163.92 213.06,-156.79 210.33,-163.24"/>
</g>
<!-- Node9 -->
<g id="node9" class="node">
<title>Node9</title>
<g id="a_node9"><a xlink:href="particlesimulator_8h.html" target="_top" xlink:title=" ">
<polygon fill="white" stroke="#666666" points="299,-129 186,-129 186,-110 299,-110 299,-129"/>
<text text-anchor="middle" x="242.5" y="-117" font-family="Helvetica,sans-Serif" font-size="10.00">src/particlesimulator.h</text>
</a>
</g>
</g>
<!-- Node8&#45;&gt;Node9 -->
<g id="edge11" class="edge">
<title>Node8&#45;&gt;Node9</title>
<path fill="none" stroke="#63b8ff" d="M243.12,-153.35C242.96,-145.1 242.79,-135.97 242.67,-129.44"/>
<polygon fill="#63b8ff" stroke="#63b8ff" points="239.62,-153.3 243.31,-163.23 246.62,-153.17 239.62,-153.3"/>
</g>
<!-- Node11 -->
<g id="node11" class="node">
<title>Node11</title>
<g id="a_node11"><a xlink:href="rendertargetarray_8cpp.html" target="_top" xlink:title=" ">
<polygon fill="white" stroke="#666666" points="442,-129 317,-129 317,-110 442,-110 442,-129"/>
<text text-anchor="middle" x="379.5" y="-117" font-family="Helvetica,sans-Serif" font-size="10.00">src/rendertargetarray.cpp</text>
</a>
</g>
</g>
<!-- Node8&#45;&gt;Node11 -->
<g id="edge14" class="edge">
<title>Node8&#45;&gt;Node11</title>
<path fill="none" stroke="#63b8ff" d="M276.98,-160.45C301.8,-150.78 334.97,-137.85 356.77,-129.36"/>
<polygon fill="#63b8ff" stroke="#63b8ff" points="276.03,-157.07 267.98,-163.96 278.57,-163.59 276.03,-157.07"/>
</g>
<!-- Node9&#45;&gt;Node5 -->
<g id="edge13" class="edge">
<title>Node9&#45;&gt;Node5</title>
<path fill="none" stroke="#63b8ff" d="M239.5,-98.64C238.25,-90.31 236.85,-81.05 235.85,-74.44"/>
<polygon fill="#63b8ff" stroke="#63b8ff" points="236,-98.89 240.95,-108.25 242.92,-97.84 236,-98.89"/>
</g>
<!-- Node10 -->
<g id="node10" class="node">
<title>Node10</title>
<g id="a_node10"><a xlink:href="particlesimulator_8cpp.html" target="_top" xlink:title=" ">
<polygon fill="white" stroke="#666666" points="419,-74 296,-74 296,-55 419,-55 419,-74"/>
<text text-anchor="middle" x="357.5" y="-62" font-family="Helvetica,sans-Serif" font-size="10.00">src/particlesimulator.cpp</text>
</a>
</g>
</g>
<!-- Node9&#45;&gt;Node10 -->
<g id="edge12" class="edge">
<title>Node9&#45;&gt;Node10</title>
<path fill="none" stroke="#63b8ff" d="M272.23,-104.8C293.05,-95.2 320.26,-82.66 338.28,-74.36"/>
<polygon fill="#63b8ff" stroke="#63b8ff" points="271,-101.51 263.38,-108.88 273.93,-107.87 271,-101.51"/>
</g>
</g>
</svg>
