<?xml version="1.0" encoding="UTF-8" standalone="no"?>
<!DOCTYPE svg PUBLIC "-//W3C//DTD SVG 1.1//EN"
 "http://www.w3.org/Graphics/SVG/1.1/DTD/svg11.dtd">
<!-- Generated by graphviz version 7.1.0 (20230121.1956)
 -->
<!-- Title: src/rendertarget.h Pages: 1 -->
<svg width="153pt" height="137pt"
 viewBox="0.00 0.00 152.50 137.00" xmlns="http://www.w3.org/2000/svg" xmlns:xlink="http://www.w3.org/1999/xlink">
<g id="graph0" class="graph" transform="scale(1 1) rotate(0) translate(4 133)">
<title>src/rendertarget.h</title>
<!-- Node1 -->
<g id="node1" class="node">
<title>Node1</title>
<g id="a_node1"><a xlink:title=" ">
<polygon fill="#999999" stroke="#666666" points="93,-129 0,-129 0,-110 93,-110 93,-129"/>
<text text-anchor="middle" x="46.5" y="-117" font-family="Helvetica,sans-Serif" font-size="10.00">src/rendertarget.h</text>
</a>
</g>
</g>
<!-- Node2 -->
<g id="node2" class="node">
<title>Node2</title>
<g id="a_node2"><a xlink:title=" ">
<polygon fill="#e0e0e0" stroke="#999999" points="84.5,-19 24.5,-19 24.5,0 84.5,0 84.5,-19"/>
<text text-anchor="middle" x="54.5" y="-7" font-family="Helvetica,sans-Serif" font-size="10.00">GL/glew.h</text>
</a>
</g>
</g>
<!-- Node1&#45;&gt;Node2 -->
<g id="edge1" class="edge">
<title>Node1&#45;&gt;Node2</title>
<path fill="none" stroke="#63b8ff" d="M35.95,-109.79C22.85,-97.85 3.2,-75.54 11.5,-55 15.93,-44.03 24.51,-34.26 32.85,-26.69"/>
<polygon fill="#63b8ff" stroke="#63b8ff" points="35,-29.45 40.43,-20.36 30.51,-24.08 35,-29.45"/>
</g>
<!-- Node3 -->
<g id="node3" class="node">
<title>Node3</title>
<g id="a_node3"><a xlink:title=" ">
<polygon fill="#e0e0e0" stroke="#999999" points="72.5,-74 20.5,-74 20.5,-55 72.5,-55 72.5,-74"/>
<text text-anchor="middle" x="46.5" y="-62" font-family="Helvetica,sans-Serif" font-size="10.00">memory</text>
</a>
</g>
</g>
<!-- Node1&#45;&gt;Node3 -->
<g id="edge2" class="edge">
<title>Node1&#45;&gt;Node3</title>
<path fill="none" stroke="#63b8ff" d="M46.5,-109.75C46.5,-103.27 46.5,-94.16 46.5,-85.9"/>
<polygon fill="#63b8ff" stroke="#63b8ff" points="50,-85.96 46.5,-75.96 43,-85.96 50,-85.96"/>
</g>
<!-- Node4 -->
<g id="node4" class="node">
<title>Node4</title>
<g id="a_node4"><a xlink:href="shader_8h.html" target="_top" xlink:title=" ">
<polygon fill="white" stroke="#666666" points="144.5,-74 90.5,-74 90.5,-55 144.5,-55 144.5,-74"/>
<text text-anchor="middle" x="117.5" y="-62" font-family="Helvetica,sans-Serif" font-size="10.00">shader.h</text>
</a>
</g>
</g>
<!-- Node1&#45;&gt;Node4 -->
<g id="edge3" class="edge">
<title>Node1&#45;&gt;Node4</title>
<path fill="none" stroke="#63b8ff" d="M58.54,-109.51C68.91,-101.77 84.1,-90.43 96.47,-81.2"/>
<polygon fill="#63b8ff" stroke="#63b8ff" points="98.5,-84.05 104.42,-75.26 94.31,-78.44 98.5,-84.05"/>
</g>
<!-- Node4&#45;&gt;Node2 -->
<g id="edge4" class="edge">
<title>Node4&#45;&gt;Node2</title>
<path fill="none" stroke="#63b8ff" d="M106.81,-54.51C97.8,-46.93 84.67,-35.88 73.82,-26.75"/>
<polygon fill="#63b8ff" stroke="#63b8ff" points="76.09,-24.09 66.19,-20.33 71.59,-29.45 76.09,-24.09"/>
</g>
</g>
</svg>
