<?xml version="1.0" encoding="UTF-8" standalone="no"?>
<!DOCTYPE svg PUBLIC "-//W3C//DTD SVG 1.1//EN"
 "http://www.w3.org/Graphics/SVG/1.1/DTD/svg11.dtd">
<!-- Generated by graphviz version 7.1.0 (20230121.1956)
 -->
<!-- Title: src/shader.cpp Pages: 1 -->
<svg width="395pt" height="137pt"
 viewBox="0.00 0.00 394.50 137.00" xmlns="http://www.w3.org/2000/svg" xmlns:xlink="http://www.w3.org/1999/xlink">
<g id="graph0" class="graph" transform="scale(1 1) rotate(0) translate(4 133)">
<title>src/shader.cpp</title>
<!-- Node1 -->
<g id="node1" class="node">
<title>Node1</title>
<g id="a_node1"><a xlink:title=" ">
<polygon fill="#999999" stroke="#666666" points="237.5,-129 156.5,-129 156.5,-110 237.5,-110 237.5,-129"/>
<text text-anchor="middle" x="197" y="-117" font-family="Helvetica,sans-Serif" font-size="10.00">src/shader.cpp</text>
</a>
</g>
</g>
<!-- Node2 -->
<g id="node2" class="node">
<title>Node2</title>
<g id="a_node2"><a xlink:href="shader_8h.html" target="_top" xlink:title=" ">
<polygon fill="white" stroke="#666666" points="57,-74 3,-74 3,-55 57,-55 57,-74"/>
<text text-anchor="middle" x="30" y="-62" font-family="Helvetica,sans-Serif" font-size="10.00">shader.h</text>
</a>
</g>
</g>
<!-- Node1&#45;&gt;Node2 -->
<g id="edge1" class="edge">
<title>Node1&#45;&gt;Node2</title>
<path fill="none" stroke="#63b8ff" d="M168.67,-109.51C140.99,-100.72 98.66,-87.29 68.06,-77.58"/>
<polygon fill="#63b8ff" stroke="#63b8ff" points="69.39,-74.33 58.8,-74.64 67.27,-81 69.39,-74.33"/>
</g>
<!-- Node4 -->
<g id="node4" class="node">
<title>Node4</title>
<g id="a_node4"><a xlink:title=" ">
<polygon fill="#e0e0e0" stroke="#999999" points="124.5,-74 75.5,-74 75.5,-55 124.5,-55 124.5,-74"/>
<text text-anchor="middle" x="100" y="-62" font-family="Helvetica,sans-Serif" font-size="10.00">fstream</text>
</a>
</g>
</g>
<!-- Node1&#45;&gt;Node4 -->
<g id="edge3" class="edge">
<title>Node1&#45;&gt;Node4</title>
<path fill="none" stroke="#63b8ff" d="M180.55,-109.51C165.68,-101.39 143.56,-89.3 126.25,-79.85"/>
<polygon fill="#63b8ff" stroke="#63b8ff" points="127.99,-76.81 117.54,-75.08 124.64,-82.95 127.99,-76.81"/>
</g>
<!-- Node5 -->
<g id="node5" class="node">
<title>Node5</title>
<g id="a_node5"><a xlink:title=" ">
<polygon fill="#e0e0e0" stroke="#999999" points="185,-74 143,-74 143,-55 185,-55 185,-74"/>
<text text-anchor="middle" x="164" y="-62" font-family="Helvetica,sans-Serif" font-size="10.00">vector</text>
</a>
</g>
</g>
<!-- Node1&#45;&gt;Node5 -->
<g id="edge4" class="edge">
<title>Node1&#45;&gt;Node5</title>
<path fill="none" stroke="#63b8ff" d="M191.55,-109.75C187.23,-102.81 181.04,-92.86 175.62,-84.16"/>
<polygon fill="#63b8ff" stroke="#63b8ff" points="178.62,-82.37 170.37,-75.73 172.68,-86.07 178.62,-82.37"/>
</g>
<!-- Node6 -->
<g id="node6" class="node">
<title>Node6</title>
<g id="a_node6"><a xlink:title=" ">
<polygon fill="#e0e0e0" stroke="#999999" points="257,-74 203,-74 203,-55 257,-55 257,-74"/>
<text text-anchor="middle" x="230" y="-62" font-family="Helvetica,sans-Serif" font-size="10.00">iostream</text>
</a>
</g>
</g>
<!-- Node1&#45;&gt;Node6 -->
<g id="edge5" class="edge">
<title>Node1&#45;&gt;Node6</title>
<path fill="none" stroke="#63b8ff" d="M202.45,-109.75C206.77,-102.81 212.96,-92.86 218.38,-84.16"/>
<polygon fill="#63b8ff" stroke="#63b8ff" points="221.32,-86.07 223.63,-75.73 215.38,-82.37 221.32,-86.07"/>
</g>
<!-- Node7 -->
<g id="node7" class="node">
<title>Node7</title>
<g id="a_node7"><a xlink:title=" ">
<polygon fill="#e0e0e0" stroke="#999999" points="327,-74 275,-74 275,-55 327,-55 327,-74"/>
<text text-anchor="middle" x="301" y="-62" font-family="Helvetica,sans-Serif" font-size="10.00">sstream</text>
</a>
</g>
</g>
<!-- Node1&#45;&gt;Node7 -->
<g id="edge6" class="edge">
<title>Node1&#45;&gt;Node7</title>
<path fill="none" stroke="#63b8ff" d="M214.64,-109.51C230.73,-101.31 254.75,-89.07 273.37,-79.58"/>
<polygon fill="#63b8ff" stroke="#63b8ff" points="274.95,-82.7 282.27,-75.05 271.77,-76.47 274.95,-82.7"/>
</g>
<!-- Node8 -->
<g id="node8" class="node">
<title>Node8</title>
<g id="a_node8"><a xlink:title=" ">
<polygon fill="#e0e0e0" stroke="#999999" points="386.5,-74 345.5,-74 345.5,-55 386.5,-55 386.5,-74"/>
<text text-anchor="middle" x="366" y="-62" font-family="Helvetica,sans-Serif" font-size="10.00">string</text>
</a>
</g>
</g>
<!-- Node1&#45;&gt;Node8 -->
<g id="edge7" class="edge">
<title>Node1&#45;&gt;Node8</title>
<path fill="none" stroke="#63b8ff" d="M225.67,-109.51C255.86,-100.04 303.27,-85.17 334.49,-75.38"/>
<polygon fill="#63b8ff" stroke="#63b8ff" points="335.26,-78.81 343.76,-72.47 333.17,-72.13 335.26,-78.81"/>
</g>
<!-- Node3 -->
<g id="node3" class="node">
<title>Node3</title>
<g id="a_node3"><a xlink:title=" ">
<polygon fill="#e0e0e0" stroke="#999999" points="60,-19 0,-19 0,0 60,0 60,-19"/>
<text text-anchor="middle" x="30" y="-7" font-family="Helvetica,sans-Serif" font-size="10.00">GL/glew.h</text>
</a>
</g>
</g>
<!-- Node2&#45;&gt;Node3 -->
<g id="edge2" class="edge">
<title>Node2&#45;&gt;Node3</title>
<path fill="none" stroke="#63b8ff" d="M30,-54.75C30,-48.27 30,-39.16 30,-30.9"/>
<polygon fill="#63b8ff" stroke="#63b8ff" points="33.5,-30.96 30,-20.96 26.5,-30.96 33.5,-30.96"/>
</g>
</g>
</svg>
