<?xml version="1.0" encoding="UTF-8" standalone="no"?>
<!DOCTYPE svg PUBLIC "-//W3C//DTD SVG 1.1//EN"
 "http://www.w3.org/Graphics/SVG/1.1/DTD/svg11.dtd">
<!-- Generated by graphviz version 7.1.0 (20230121.1956)
 -->
<!-- Title: src/shader.h Pages: 1 -->
<svg width="792pt" height="302pt"
 viewBox="0.00 0.00 791.61 302.00" xmlns="http://www.w3.org/2000/svg" xmlns:xlink="http://www.w3.org/1999/xlink">
<g id="graph0" class="graph" transform="scale(1 1) rotate(0) translate(4 298)">
<title>src/shader.h</title>
<!-- Node1 -->
<g id="node1" class="node">
<title>Node1</title>
<g id="a_node1"><a xlink:title=" ">
<polygon fill="#999999" stroke="#666666" points="508.11,-294 437.11,-294 437.11,-275 508.11,-275 508.11,-294"/>
<text text-anchor="middle" x="472.61" y="-282" font-family="Helvetica,sans-Serif" font-size="10.00">src/shader.h</text>
</a>
</g>
</g>
<!-- Node2 -->
<g id="node2" class="node">
<title>Node2</title>
<g id="a_node2"><a xlink:href="fluidsimulator_8h.html" target="_top" xlink:title=" ">
<polygon fill="white" stroke="#666666" points="112.61,-129 14.61,-129 14.61,-110 112.61,-110 112.61,-129"/>
<text text-anchor="middle" x="63.61" y="-117" font-family="Helvetica,sans-Serif" font-size="10.00">src/fluidsimulator.h</text>
</a>
</g>
</g>
<!-- Node1&#45;&gt;Node2 -->
<g id="edge1" class="edge">
<title>Node1&#45;&gt;Node2</title>
<path fill="none" stroke="#63b8ff" d="M425.14,-282.96C339.42,-281.12 163.09,-273.17 113.61,-239 75.76,-212.86 66.45,-152.06 64.26,-129.3"/>
<polygon fill="#63b8ff" stroke="#63b8ff" points="425.03,-286.46 435.1,-283.15 425.17,-279.46 425.03,-286.46"/>
</g>
<!-- Node7 -->
<g id="node7" class="node">
<title>Node7</title>
<g id="a_node7"><a xlink:href="particlesimulator_8h.html" target="_top" xlink:title=" ">
<polygon fill="white" stroke="#666666" points="387.11,-129 274.11,-129 274.11,-110 387.11,-110 387.11,-129"/>
<text text-anchor="middle" x="330.61" y="-117" font-family="Helvetica,sans-Serif" font-size="10.00">src/particlesimulator.h</text>
</a>
</g>
</g>
<!-- Node1&#45;&gt;Node7 -->
<g id="edge7" class="edge">
<title>Node1&#45;&gt;Node7</title>
<path fill="none" stroke="#63b8ff" d="M457,-266.3C449.57,-258.08 440.59,-248.07 432.61,-239 396.93,-198.44 355.09,-149.33 338.22,-129.48"/>
<polygon fill="#63b8ff" stroke="#63b8ff" points="454.26,-268.5 463.57,-273.56 459.45,-263.8 454.26,-268.5"/>
</g>
<!-- Node9 -->
<g id="node9" class="node">
<title>Node9</title>
<g id="a_node9"><a xlink:href="quad_8h.html" target="_top" xlink:title=" ">
<polygon fill="white" stroke="#666666" points="503.61,-239 441.61,-239 441.61,-220 503.61,-220 503.61,-239"/>
<text text-anchor="middle" x="472.61" y="-227" font-family="Helvetica,sans-Serif" font-size="10.00">src/quad.h</text>
</a>
</g>
</g>
<!-- Node1&#45;&gt;Node9 -->
<g id="edge10" class="edge">
<title>Node1&#45;&gt;Node9</title>
<path fill="none" stroke="#63b8ff" d="M472.61,-263.35C472.61,-255.1 472.61,-245.97 472.61,-239.44"/>
<polygon fill="#63b8ff" stroke="#63b8ff" points="469.11,-263.23 472.61,-273.23 476.11,-263.23 469.11,-263.23"/>
</g>
<!-- Node12 -->
<g id="node12" class="node">
<title>Node12</title>
<g id="a_node12"><a xlink:href="text_8cpp.html" target="_top" xlink:title=" ">
<polygon fill="white" stroke="#666666" points="679.61,-184 611.61,-184 611.61,-165 679.61,-165 679.61,-184"/>
<text text-anchor="middle" x="645.61" y="-172" font-family="Helvetica,sans-Serif" font-size="10.00">src/text.cpp</text>
</a>
</g>
</g>
<!-- Node1&#45;&gt;Node12 -->
<g id="edge27" class="edge">
<title>Node1&#45;&gt;Node12</title>
<path fill="none" stroke="#63b8ff" d="M491.48,-267.37C507.82,-253.82 532.43,-234.41 555.61,-220 578.26,-205.92 605.99,-192.78 624.63,-184.48"/>
<polygon fill="#63b8ff" stroke="#63b8ff" points="489.45,-264.51 484.04,-273.62 493.95,-269.87 489.45,-264.51"/>
</g>
<!-- Node13 -->
<g id="node13" class="node">
<title>Node13</title>
<g id="a_node13"><a xlink:href="uiobject_8cpp.html" target="_top" xlink:title=" ">
<polygon fill="white" stroke="#666666" points="783.61,-184 697.61,-184 697.61,-165 783.61,-165 783.61,-184"/>
<text text-anchor="middle" x="740.61" y="-172" font-family="Helvetica,sans-Serif" font-size="10.00">src/uiobject.cpp</text>
</a>
</g>
</g>
<!-- Node1&#45;&gt;Node13 -->
<g id="edge28" class="edge">
<title>Node1&#45;&gt;Node13</title>
<path fill="none" stroke="#63b8ff" d="M499.48,-269.36C515.78,-260.71 536.97,-249.36 555.61,-239 570.4,-230.78 573.05,-226.65 588.61,-220 625.4,-204.29 669.48,-192.06 700.67,-184.43"/>
<polygon fill="#63b8ff" stroke="#63b8ff" points="498.08,-266.14 490.88,-273.91 501.36,-272.33 498.08,-266.14"/>
</g>
<!-- Node14 -->
<g id="node14" class="node">
<title>Node14</title>
<g id="a_node14"><a xlink:href="rendertarget_8h.html" target="_top" xlink:title=" ">
<polygon fill="white" stroke="#666666" points="216.11,-239 123.11,-239 123.11,-220 216.11,-220 216.11,-239"/>
<text text-anchor="middle" x="169.61" y="-227" font-family="Helvetica,sans-Serif" font-size="10.00">src/rendertarget.h</text>
</a>
</g>
</g>
<!-- Node1&#45;&gt;Node14 -->
<g id="edge18" class="edge">
<title>Node1&#45;&gt;Node14</title>
<path fill="none" stroke="#63b8ff" d="M425.46,-275.25C368.49,-265.29 273.24,-248.63 216.42,-238.69"/>
<polygon fill="#63b8ff" stroke="#63b8ff" points="424.72,-278.68 435.17,-276.95 425.93,-271.78 424.72,-278.68"/>
</g>
<!-- Node17 -->
<g id="node17" class="node">
<title>Node17</title>
<g id="a_node17"><a xlink:href="shader_8cpp.html" target="_top" xlink:title=" ">
<polygon fill="white" stroke="#666666" points="679.11,-239 598.11,-239 598.11,-220 679.11,-220 679.11,-239"/>
<text text-anchor="middle" x="638.61" y="-227" font-family="Helvetica,sans-Serif" font-size="10.00">src/shader.cpp</text>
</a>
</g>
</g>
<!-- Node1&#45;&gt;Node17 -->
<g id="edge26" class="edge">
<title>Node1&#45;&gt;Node17</title>
<path fill="none" stroke="#63b8ff" d="M511.42,-271.11C541.81,-261.41 583.37,-248.14 610.59,-239.45"/>
<polygon fill="#63b8ff" stroke="#63b8ff" points="510.68,-267.67 502.21,-274.05 512.8,-274.34 510.68,-267.67"/>
</g>
<!-- Node3 -->
<g id="node3" class="node">
<title>Node3</title>
<g id="a_node3"><a xlink:href="core_8cpp.html" target="_top" xlink:title=" ">
<polygon fill="white" stroke="#666666" points="99.11,-19 28.11,-19 28.11,0 99.11,0 99.11,-19"/>
<text text-anchor="middle" x="63.61" y="-7" font-family="Helvetica,sans-Serif" font-size="10.00">src/core.cpp</text>
</a>
</g>
</g>
<!-- Node2&#45;&gt;Node3 -->
<g id="edge2" class="edge">
<title>Node2&#45;&gt;Node3</title>
<path fill="none" stroke="#63b8ff" d="M63.61,-98.24C63.61,-74.63 63.61,-36.65 63.61,-19.46"/>
<polygon fill="#63b8ff" stroke="#63b8ff" points="60.11,-98.15 63.61,-108.15 67.11,-98.15 60.11,-98.15"/>
</g>
<!-- Node4 -->
<g id="node4" class="node">
<title>Node4</title>
<g id="a_node4"><a xlink:href="fluidsimulator_8cpp.html" target="_top" xlink:title=" ">
<polygon fill="white" stroke="#666666" points="316.11,-74 207.11,-74 207.11,-55 316.11,-55 316.11,-74"/>
<text text-anchor="middle" x="261.61" y="-62" font-family="Helvetica,sans-Serif" font-size="10.00">src/fluidsimulator.cpp</text>
</a>
</g>
</g>
<!-- Node2&#45;&gt;Node4 -->
<g id="edge3" class="edge">
<title>Node2&#45;&gt;Node4</title>
<path fill="none" stroke="#63b8ff" d="M108,-106.62C144.41,-96.87 195.15,-83.29 228.19,-74.45"/>
<polygon fill="#63b8ff" stroke="#63b8ff" points="107.42,-103.15 98.66,-109.12 109.23,-109.91 107.42,-103.15"/>
</g>
<!-- Node5 -->
<g id="node5" class="node">
<title>Node5</title>
<g id="a_node5"><a xlink:href="simulation_8h.html" target="_top" xlink:title=" ">
<polygon fill="white" stroke="#666666" points="180.61,-74 94.61,-74 94.61,-55 180.61,-55 180.61,-74"/>
<text text-anchor="middle" x="137.61" y="-62" font-family="Helvetica,sans-Serif" font-size="10.00">src/simulation.h</text>
</a>
</g>
</g>
<!-- Node2&#45;&gt;Node5 -->
<g id="edge4" class="edge">
<title>Node2&#45;&gt;Node5</title>
<path fill="none" stroke="#63b8ff" d="M85.37,-102.92C98.36,-93.61 114.39,-82.13 125.24,-74.36"/>
<polygon fill="#63b8ff" stroke="#63b8ff" points="83.49,-99.96 77.4,-108.63 87.56,-105.65 83.49,-99.96"/>
</g>
<!-- Node5&#45;&gt;Node3 -->
<g id="edge5" class="edge">
<title>Node5&#45;&gt;Node3</title>
<path fill="none" stroke="#63b8ff" d="M115.85,-47.92C102.86,-38.61 86.83,-27.13 75.98,-19.36"/>
<polygon fill="#63b8ff" stroke="#63b8ff" points="113.66,-50.65 123.83,-53.63 117.74,-44.96 113.66,-50.65"/>
</g>
<!-- Node6 -->
<g id="node6" class="node">
<title>Node6</title>
<g id="a_node6"><a xlink:href="simulation_8cpp.html" target="_top" xlink:title=" ">
<polygon fill="white" stroke="#666666" points="213.61,-19 117.61,-19 117.61,0 213.61,0 213.61,-19"/>
<text text-anchor="middle" x="165.61" y="-7" font-family="Helvetica,sans-Serif" font-size="10.00">src/simulation.cpp</text>
</a>
</g>
</g>
<!-- Node5&#45;&gt;Node6 -->
<g id="edge6" class="edge">
<title>Node5&#45;&gt;Node6</title>
<path fill="none" stroke="#63b8ff" d="M147.5,-44.79C152.05,-36.18 157.23,-26.36 160.89,-19.44"/>
<polygon fill="#63b8ff" stroke="#63b8ff" points="144.52,-42.93 142.94,-53.41 150.71,-46.2 144.52,-42.93"/>
</g>
<!-- Node7&#45;&gt;Node5 -->
<g id="edge9" class="edge">
<title>Node7&#45;&gt;Node5</title>
<path fill="none" stroke="#63b8ff" d="M286.88,-106.49C251.43,-96.76 202.25,-83.25 170.19,-74.45"/>
<polygon fill="#63b8ff" stroke="#63b8ff" points="285.84,-109.84 296.41,-109.11 287.7,-103.09 285.84,-109.84"/>
</g>
<!-- Node8 -->
<g id="node8" class="node">
<title>Node8</title>
<g id="a_node8"><a xlink:href="particlesimulator_8cpp.html" target="_top" xlink:title=" ">
<polygon fill="white" stroke="#666666" points="461.11,-74 338.11,-74 338.11,-55 461.11,-55 461.11,-74"/>
<text text-anchor="middle" x="399.61" y="-62" font-family="Helvetica,sans-Serif" font-size="10.00">src/particlesimulator.cpp</text>
</a>
</g>
</g>
<!-- Node7&#45;&gt;Node8 -->
<g id="edge8" class="edge">
<title>Node7&#45;&gt;Node8</title>
<path fill="none" stroke="#63b8ff" d="M351.26,-102.64C363.31,-93.39 378.06,-82.05 388.08,-74.36"/>
<polygon fill="#63b8ff" stroke="#63b8ff" points="349.32,-99.72 343.52,-108.59 353.58,-105.27 349.32,-99.72"/>
</g>
<!-- Node9&#45;&gt;Node3 -->
<g id="edge11" class="edge">
<title>Node9&#45;&gt;Node3</title>
<path fill="none" stroke="#63b8ff" d="M479.59,-209.05C491,-173.41 508.68,-97.42 469.61,-55 414.99,4.3 188.41,-30.49 108.61,-19 105.62,-18.57 102.53,-18.08 99.43,-17.56"/>
<polygon fill="#63b8ff" stroke="#63b8ff" points="476.31,-207.82 476.41,-218.42 482.94,-210.08 476.31,-207.82"/>
</g>
<!-- Node9&#45;&gt;Node4 -->
<g id="edge12" class="edge">
<title>Node9&#45;&gt;Node4</title>
<path fill="none" stroke="#63b8ff" d="M462.36,-209.57C445.9,-179.77 413.61,-123.9 395.61,-110 372.14,-91.87 340.92,-80.94 314.52,-74.45"/>
<polygon fill="#63b8ff" stroke="#63b8ff" points="459.23,-211.15 467.1,-218.24 465.38,-207.79 459.23,-211.15"/>
</g>
<!-- Node9&#45;&gt;Node8 -->
<g id="edge13" class="edge">
<title>Node9&#45;&gt;Node8</title>
<path fill="none" stroke="#63b8ff" d="M467.07,-208.72C459.96,-184.69 446.51,-143.22 429.61,-110 422.94,-96.88 413.07,-83 406.5,-74.3"/>
<polygon fill="#63b8ff" stroke="#63b8ff" points="463.64,-209.47 469.77,-218.12 470.37,-207.54 463.64,-209.47"/>
</g>
<!-- Node10 -->
<g id="node10" class="node">
<title>Node10</title>
<g id="a_node10"><a xlink:href="quad_8cpp.html" target="_top" xlink:title=" ">
<polygon fill="white" stroke="#666666" points="593.11,-184 520.11,-184 520.11,-165 593.11,-165 593.11,-184"/>
<text text-anchor="middle" x="556.61" y="-172" font-family="Helvetica,sans-Serif" font-size="10.00">src/quad.cpp</text>
</a>
</g>
</g>
<!-- Node9&#45;&gt;Node10 -->
<g id="edge14" class="edge">
<title>Node9&#45;&gt;Node10</title>
<path fill="none" stroke="#63b8ff" d="M496.45,-213.46C511.34,-204.06 530.01,-192.28 542.57,-184.36"/>
<polygon fill="#63b8ff" stroke="#63b8ff" points="494.73,-210.41 488.14,-218.7 498.47,-216.33 494.73,-210.41"/>
</g>
<!-- Node11 -->
<g id="node11" class="node">
<title>Node11</title>
<g id="a_node11"><a xlink:href="rendertarget_8cpp.html" target="_top" xlink:title=" ">
<polygon fill="white" stroke="#666666" points="349.61,-184 245.61,-184 245.61,-165 349.61,-165 349.61,-184"/>
<text text-anchor="middle" x="297.61" y="-172" font-family="Helvetica,sans-Serif" font-size="10.00">src/rendertarget.cpp</text>
</a>
</g>
</g>
<!-- Node9&#45;&gt;Node11 -->
<g id="edge15" class="edge">
<title>Node9&#45;&gt;Node11</title>
<path fill="none" stroke="#63b8ff" d="M432.12,-216.24C400.04,-206.52 355.97,-193.18 327.15,-184.45"/>
<polygon fill="#63b8ff" stroke="#63b8ff" points="430.89,-219.52 441.48,-219.07 432.92,-212.82 430.89,-219.52"/>
</g>
<!-- Node9&#45;&gt;Node12 -->
<g id="edge16" class="edge">
<title>Node9&#45;&gt;Node12</title>
<path fill="none" stroke="#63b8ff" d="M512.64,-216.24C544.35,-206.52 587.92,-193.18 616.41,-184.45"/>
<polygon fill="#63b8ff" stroke="#63b8ff" points="511.94,-212.79 503.41,-219.07 513.99,-219.48 511.94,-212.79"/>
</g>
<!-- Node9&#45;&gt;Node13 -->
<g id="edge17" class="edge">
<title>Node9&#45;&gt;Node13</title>
<path fill="none" stroke="#63b8ff" d="M514.89,-220.14C564.66,-210.3 646.89,-194.04 697.16,-184.09"/>
<polygon fill="#63b8ff" stroke="#63b8ff" points="514.5,-216.65 505.36,-222.02 515.85,-223.52 514.5,-216.65"/>
</g>
<!-- Node14&#45;&gt;Node2 -->
<g id="edge20" class="edge">
<title>Node14&#45;&gt;Node2</title>
<path fill="none" stroke="#63b8ff" d="M142.03,-213.9C129.07,-206.16 114.01,-195.81 102.61,-184 86.26,-167.06 73.45,-142.11 67.41,-129.1"/>
<polygon fill="#63b8ff" stroke="#63b8ff" points="140.12,-216.84 150.54,-218.77 143.6,-210.77 140.12,-216.84"/>
</g>
<!-- Node14&#45;&gt;Node3 -->
<g id="edge19" class="edge">
<title>Node14&#45;&gt;Node3</title>
<path fill="none" stroke="#63b8ff" d="M125.33,-215.98C85.52,-202.03 29.71,-175.14 5.61,-129 -15.49,-88.6 31.26,-39.4 53.13,-19.5"/>
<polygon fill="#63b8ff" stroke="#63b8ff" points="124.07,-219.24 134.66,-219.09 126.29,-212.6 124.07,-219.24"/>
</g>
<!-- Node14&#45;&gt;Node11 -->
<g id="edge21" class="edge">
<title>Node14&#45;&gt;Node11</title>
<path fill="none" stroke="#63b8ff" d="M201.75,-215.19C225.04,-205.55 255.89,-192.78 276.22,-184.36"/>
<polygon fill="#63b8ff" stroke="#63b8ff" points="200.62,-211.87 192.72,-218.93 203.3,-218.34 200.62,-211.87"/>
</g>
<!-- Node15 -->
<g id="node15" class="node">
<title>Node15</title>
<g id="a_node15"><a xlink:href="rendertargetarray_8h.html" target="_top" xlink:title=" ">
<polygon fill="white" stroke="#666666" points="227.11,-184 112.11,-184 112.11,-165 227.11,-165 227.11,-184"/>
<text text-anchor="middle" x="169.61" y="-172" font-family="Helvetica,sans-Serif" font-size="10.00">src/rendertargetarray.h</text>
</a>
</g>
</g>
<!-- Node14&#45;&gt;Node15 -->
<g id="edge22" class="edge">
<title>Node14&#45;&gt;Node15</title>
<path fill="none" stroke="#63b8ff" d="M169.61,-208.35C169.61,-200.1 169.61,-190.97 169.61,-184.44"/>
<polygon fill="#63b8ff" stroke="#63b8ff" points="166.11,-208.23 169.61,-218.23 173.11,-208.23 166.11,-208.23"/>
</g>
<!-- Node15&#45;&gt;Node2 -->
<g id="edge23" class="edge">
<title>Node15&#45;&gt;Node2</title>
<path fill="none" stroke="#63b8ff" d="M141.41,-159.4C122.33,-149.86 97.71,-137.55 81.33,-129.36"/>
<polygon fill="#63b8ff" stroke="#63b8ff" points="139.77,-162.49 150.28,-163.83 142.9,-156.23 139.77,-162.49"/>
</g>
<!-- Node15&#45;&gt;Node7 -->
<g id="edge24" class="edge">
<title>Node15&#45;&gt;Node7</title>
<path fill="none" stroke="#63b8ff" d="M207.64,-160.98C237.08,-151.29 277.15,-138.1 303.44,-129.45"/>
<polygon fill="#63b8ff" stroke="#63b8ff" points="206.77,-157.58 198.36,-164.04 208.95,-164.23 206.77,-157.58"/>
</g>
<!-- Node16 -->
<g id="node16" class="node">
<title>Node16</title>
<g id="a_node16"><a xlink:href="rendertargetarray_8cpp.html" target="_top" xlink:title=" ">
<polygon fill="white" stroke="#666666" points="256.11,-129 131.11,-129 131.11,-110 256.11,-110 256.11,-129"/>
<text text-anchor="middle" x="193.61" y="-117" font-family="Helvetica,sans-Serif" font-size="10.00">src/rendertargetarray.cpp</text>
</a>
</g>
</g>
<!-- Node15&#45;&gt;Node16 -->
<g id="edge25" class="edge">
<title>Node15&#45;&gt;Node16</title>
<path fill="none" stroke="#63b8ff" d="M178.21,-154.5C182.08,-145.96 186.47,-136.28 189.56,-129.44"/>
<polygon fill="#63b8ff" stroke="#63b8ff" points="175.14,-152.82 174.2,-163.37 181.51,-155.7 175.14,-152.82"/>
</g>
</g>
</svg>
