<?xml version="1.0" encoding="UTF-8" standalone="no"?>
<!DOCTYPE svg PUBLIC "-//W3C//DTD SVG 1.1//EN"
 "http://www.w3.org/Graphics/SVG/1.1/DTD/svg11.dtd">
<!-- Generated by graphviz version 7.1.0 (20230121.1956)
 -->
<!-- Title: src/simulation.cpp Pages: 1 -->
<svg width="778pt" height="412pt"
 viewBox="0.00 0.00 778.22 412.00" xmlns="http://www.w3.org/2000/svg" xmlns:xlink="http://www.w3.org/1999/xlink">
<g id="graph0" class="graph" transform="scale(1 1) rotate(0) translate(4 408)">
<title>src/simulation.cpp</title>
<!-- Node1 -->
<g id="node1" class="node">
<title>Node1</title>
<g id="a_node1"><a xlink:title=" ">
<polygon fill="#999999" stroke="#666666" points="566,-404 470,-404 470,-385 566,-385 566,-404"/>
<text text-anchor="middle" x="518" y="-392" font-family="Helvetica,sans-Serif" font-size="10.00">src/simulation.cpp</text>
</a>
</g>
</g>
<!-- Node2 -->
<g id="node2" class="node">
<title>Node2</title>
<g id="a_node2"><a xlink:href="simulation_8h.html" target="_top" xlink:title=" ">
<polygon fill="white" stroke="#666666" points="436.5,-349 367.5,-349 367.5,-330 436.5,-330 436.5,-349"/>
<text text-anchor="middle" x="402" y="-337" font-family="Helvetica,sans-Serif" font-size="10.00">simulation.h</text>
</a>
</g>
</g>
<!-- Node1&#45;&gt;Node2 -->
<g id="edge1" class="edge">
<title>Node1&#45;&gt;Node2</title>
<path fill="none" stroke="#63b8ff" d="M498.32,-384.51C480.05,-376.16 452.59,-363.61 431.65,-354.05"/>
<polygon fill="#63b8ff" stroke="#63b8ff" points="433.31,-350.96 422.76,-349.99 430.4,-357.33 433.31,-350.96"/>
</g>
<!-- Node20 -->
<g id="node20" class="node">
<title>Node20</title>
<g id="a_node20"><a xlink:href="core_8h.html" target="_top" xlink:title=" ">
<polygon fill="white" stroke="#666666" points="668,-239 624,-239 624,-220 668,-220 668,-239"/>
<text text-anchor="middle" x="646" y="-227" font-family="Helvetica,sans-Serif" font-size="10.00">core.h</text>
</a>
</g>
</g>
<!-- Node1&#45;&gt;Node20 -->
<g id="edge39" class="edge">
<title>Node1&#45;&gt;Node20</title>
<path fill="none" stroke="#63b8ff" d="M524.88,-384.74C545.11,-358.98 604.67,-283.13 632,-248.33"/>
<polygon fill="#63b8ff" stroke="#63b8ff" points="634.73,-250.52 638.15,-240.5 629.22,-246.2 634.73,-250.52"/>
</g>
<!-- Node3 -->
<g id="node3" class="node">
<title>Node3</title>
<g id="a_node3"><a xlink:title=" ">
<polygon fill="#e0e0e0" stroke="#999999" points="529,-184 461,-184 461,-165 529,-165 529,-184"/>
<text text-anchor="middle" x="495" y="-172" font-family="Helvetica,sans-Serif" font-size="10.00">glm/ext.hpp</text>
</a>
</g>
</g>
<!-- Node2&#45;&gt;Node3 -->
<g id="edge2" class="edge">
<title>Node2&#45;&gt;Node3</title>
<path fill="none" stroke="#63b8ff" d="M436.76,-330.07C478.56,-317.86 546.86,-290.81 577,-239 590.07,-216.54 562.33,-199.22 535.65,-188.38"/>
<polygon fill="#63b8ff" stroke="#63b8ff" points="537.19,-185.22 526.59,-184.95 534.7,-191.77 537.19,-185.22"/>
</g>
<!-- Node4 -->
<g id="node4" class="node">
<title>Node4</title>
<g id="a_node4"><a xlink:href="renderable_8h.html" target="_top" xlink:title=" ">
<polygon fill="white" stroke="#666666" points="404,-184 334,-184 334,-165 404,-165 404,-184"/>
<text text-anchor="middle" x="369" y="-172" font-family="Helvetica,sans-Serif" font-size="10.00">renderable.h</text>
</a>
</g>
</g>
<!-- Node2&#45;&gt;Node4 -->
<g id="edge3" class="edge">
<title>Node2&#45;&gt;Node4</title>
<path fill="none" stroke="#63b8ff" d="M383.09,-329.57C369.74,-322.13 352.87,-310.13 345,-294 329.03,-261.27 345.73,-218.46 358.16,-194.28"/>
<polygon fill="#63b8ff" stroke="#63b8ff" points="361.16,-196.09 362.87,-185.64 355.01,-192.74 361.16,-196.09"/>
</g>
<!-- Node5 -->
<g id="node5" class="node">
<title>Node5</title>
<g id="a_node5"><a xlink:href="fluidsimulator_8h.html" target="_top" xlink:title=" ">
<polygon fill="white" stroke="#666666" points="241,-239 159,-239 159,-220 241,-220 241,-239"/>
<text text-anchor="middle" x="200" y="-227" font-family="Helvetica,sans-Serif" font-size="10.00">fluidsimulator.h</text>
</a>
</g>
</g>
<!-- Node2&#45;&gt;Node5 -->
<g id="edge4" class="edge">
<title>Node2&#45;&gt;Node5</title>
<path fill="none" stroke="#63b8ff" d="M383.23,-329.6C364.91,-320.83 336.33,-306.9 312,-294 281.65,-277.91 247.38,-258.26 224.84,-245.12"/>
<polygon fill="#63b8ff" stroke="#63b8ff" points="226.77,-242.19 216.37,-240.17 223.24,-248.24 226.77,-242.19"/>
</g>
<!-- Node12 -->
<g id="node12" class="node">
<title>Node12</title>
<g id="a_node12"><a xlink:href="particlesimulator_8h.html" target="_top" xlink:title=" ">
<polygon fill="white" stroke="#666666" points="450,-294 354,-294 354,-275 450,-275 450,-294"/>
<text text-anchor="middle" x="402" y="-282" font-family="Helvetica,sans-Serif" font-size="10.00">particlesimulator.h</text>
</a>
</g>
</g>
<!-- Node2&#45;&gt;Node12 -->
<g id="edge19" class="edge">
<title>Node2&#45;&gt;Node12</title>
<path fill="none" stroke="#63b8ff" d="M402,-329.75C402,-323.27 402,-314.16 402,-305.9"/>
<polygon fill="#63b8ff" stroke="#63b8ff" points="405.5,-305.96 402,-295.96 398.5,-305.96 405.5,-305.96"/>
</g>
<!-- Node5&#45;&gt;Node3 -->
<g id="edge6" class="edge">
<title>Node5&#45;&gt;Node3</title>
<path fill="none" stroke="#63b8ff" d="M241.33,-221.07C296.22,-211.21 392.84,-193.85 449.67,-183.64"/>
<polygon fill="#63b8ff" stroke="#63b8ff" points="450.11,-187.12 459.34,-181.91 448.87,-180.23 450.11,-187.12"/>
</g>
<!-- Node5&#45;&gt;Node4 -->
<g id="edge18" class="edge">
<title>Node5&#45;&gt;Node4</title>
<path fill="none" stroke="#63b8ff" d="M228.67,-219.51C256.43,-210.8 298.75,-197.53 329.65,-187.84"/>
<polygon fill="#63b8ff" stroke="#63b8ff" points="330.53,-191.23 339.03,-184.9 328.44,-184.55 330.53,-191.23"/>
</g>
<!-- Node6 -->
<g id="node6" class="node">
<title>Node6</title>
<g id="a_node6"><a xlink:title=" ">
<polygon fill="#e0e0e0" stroke="#999999" points="100,-19 40,-19 40,0 100,0 100,-19"/>
<text text-anchor="middle" x="70" y="-7" font-family="Helvetica,sans-Serif" font-size="10.00">GL/glew.h</text>
</a>
</g>
</g>
<!-- Node5&#45;&gt;Node6 -->
<g id="edge5" class="edge">
<title>Node5&#45;&gt;Node6</title>
<path fill="none" stroke="#63b8ff" d="M187.85,-219.8C159.63,-198.71 90.29,-141.59 67,-74 62.2,-60.07 63.22,-43.4 65.3,-30.64"/>
<polygon fill="#63b8ff" stroke="#63b8ff" points="68.72,-31.4 67.25,-20.9 61.85,-30.02 68.72,-31.4"/>
</g>
<!-- Node7 -->
<g id="node7" class="node">
<title>Node7</title>
<g id="a_node7"><a xlink:title=" ">
<polygon fill="#e0e0e0" stroke="#999999" points="393,-74 341,-74 341,-55 393,-55 393,-74"/>
<text text-anchor="middle" x="367" y="-62" font-family="Helvetica,sans-Serif" font-size="10.00">memory</text>
</a>
</g>
</g>
<!-- Node5&#45;&gt;Node7 -->
<g id="edge7" class="edge">
<title>Node5&#45;&gt;Node7</title>
<path fill="none" stroke="#63b8ff" d="M199.06,-219.91C198.08,-206.93 197.98,-182.01 209,-165 237.55,-120.92 293.24,-92.78 330.29,-78.06"/>
<polygon fill="#63b8ff" stroke="#63b8ff" points="331.17,-81.48 339.26,-74.64 328.67,-74.94 331.17,-81.48"/>
</g>
<!-- Node8 -->
<g id="node8" class="node">
<title>Node8</title>
<g id="a_node8"><a xlink:href="rendertarget_8h.html" target="_top" xlink:title=" ">
<polygon fill="white" stroke="#666666" points="219.5,-129 142.5,-129 142.5,-110 219.5,-110 219.5,-129"/>
<text text-anchor="middle" x="181" y="-117" font-family="Helvetica,sans-Serif" font-size="10.00">rendertarget.h</text>
</a>
</g>
</g>
<!-- Node5&#45;&gt;Node8 -->
<g id="edge8" class="edge">
<title>Node5&#45;&gt;Node8</title>
<path fill="none" stroke="#63b8ff" d="M193.41,-219.51C187.53,-210.9 179.35,-197.28 176,-184 172.39,-169.69 173.9,-153.03 176.18,-140.37"/>
<polygon fill="#63b8ff" stroke="#63b8ff" points="179.57,-141.27 178.23,-130.76 172.72,-139.81 179.57,-141.27"/>
</g>
<!-- Node9 -->
<g id="node9" class="node">
<title>Node9</title>
<g id="a_node9"><a xlink:href="shader_8h.html" target="_top" xlink:title=" ">
<polygon fill="white" stroke="#666666" points="130,-74 76,-74 76,-55 130,-55 130,-74"/>
<text text-anchor="middle" x="103" y="-62" font-family="Helvetica,sans-Serif" font-size="10.00">shader.h</text>
</a>
</g>
</g>
<!-- Node5&#45;&gt;Node9 -->
<g id="edge17" class="edge">
<title>Node5&#45;&gt;Node9</title>
<path fill="none" stroke="#63b8ff" d="M194.02,-219.64C187.96,-210.66 178.33,-196.37 170,-184 153.54,-159.56 147.56,-154.61 133,-129 124.79,-114.55 116.82,-97.49 111.16,-84.69"/>
<polygon fill="#63b8ff" stroke="#63b8ff" points="114.46,-83.51 107.27,-75.73 108.04,-86.29 114.46,-83.51"/>
</g>
<!-- Node10 -->
<g id="node10" class="node">
<title>Node10</title>
<g id="a_node10"><a xlink:href="rendertargetarray_8h.html" target="_top" xlink:title=" ">
<polygon fill="white" stroke="#666666" points="316,-184 218,-184 218,-165 316,-165 316,-184"/>
<text text-anchor="middle" x="267" y="-172" font-family="Helvetica,sans-Serif" font-size="10.00">rendertargetarray.h</text>
</a>
</g>
</g>
<!-- Node5&#45;&gt;Node10 -->
<g id="edge13" class="edge">
<title>Node5&#45;&gt;Node10</title>
<path fill="none" stroke="#63b8ff" d="M211.37,-219.51C221.05,-211.85 235.2,-200.66 246.81,-191.47"/>
<polygon fill="#63b8ff" stroke="#63b8ff" points="248.94,-194.25 254.62,-185.3 244.6,-188.76 248.94,-194.25"/>
</g>
<!-- Node8&#45;&gt;Node6 -->
<g id="edge9" class="edge">
<title>Node8&#45;&gt;Node6</title>
<path fill="none" stroke="#63b8ff" d="M176.79,-109.89C170.12,-96.87 156.11,-71.91 139,-55 126.96,-43.1 111.25,-32.67 97.86,-24.9"/>
<polygon fill="#63b8ff" stroke="#63b8ff" points="99.93,-22.05 89.49,-20.24 96.52,-28.16 99.93,-22.05"/>
</g>
<!-- Node8&#45;&gt;Node7 -->
<g id="edge10" class="edge">
<title>Node8&#45;&gt;Node7</title>
<path fill="none" stroke="#63b8ff" d="M212.55,-109.51C244.96,-100.28 295.38,-85.91 329.73,-76.12"/>
<polygon fill="#63b8ff" stroke="#63b8ff" points="330.6,-79.51 339.26,-73.4 328.68,-72.78 330.6,-79.51"/>
</g>
<!-- Node8&#45;&gt;Node9 -->
<g id="edge11" class="edge">
<title>Node8&#45;&gt;Node9</title>
<path fill="none" stroke="#63b8ff" d="M167.77,-109.51C156.16,-101.62 139.03,-89.98 125.3,-80.65"/>
<polygon fill="#63b8ff" stroke="#63b8ff" points="127.53,-77.93 117.29,-75.21 123.59,-83.72 127.53,-77.93"/>
</g>
<!-- Node9&#45;&gt;Node6 -->
<g id="edge12" class="edge">
<title>Node9&#45;&gt;Node6</title>
<path fill="none" stroke="#63b8ff" d="M97.55,-54.75C93.23,-47.81 87.04,-37.86 81.62,-29.16"/>
<polygon fill="#63b8ff" stroke="#63b8ff" points="84.62,-27.37 76.37,-20.73 78.68,-31.07 84.62,-27.37"/>
</g>
<!-- Node10&#45;&gt;Node7 -->
<g id="edge15" class="edge">
<title>Node10&#45;&gt;Node7</title>
<path fill="none" stroke="#63b8ff" d="M275.18,-164.66C291.74,-146.78 329.46,-106.05 351.05,-82.73"/>
<polygon fill="#63b8ff" stroke="#63b8ff" points="353.45,-85.29 357.68,-75.57 348.31,-80.53 353.45,-85.29"/>
</g>
<!-- Node10&#45;&gt;Node8 -->
<g id="edge16" class="edge">
<title>Node10&#45;&gt;Node8</title>
<path fill="none" stroke="#63b8ff" d="M252.41,-164.51C239.48,-156.54 220.36,-144.75 205.15,-135.38"/>
<polygon fill="#63b8ff" stroke="#63b8ff" points="207.01,-132.42 196.66,-130.15 203.34,-138.38 207.01,-132.42"/>
</g>
<!-- Node11 -->
<g id="node11" class="node">
<title>Node11</title>
<g id="a_node11"><a xlink:title=" ">
<polygon fill="#e0e0e0" stroke="#999999" points="644,-74 602,-74 602,-55 644,-55 644,-74"/>
<text text-anchor="middle" x="623" y="-62" font-family="Helvetica,sans-Serif" font-size="10.00">vector</text>
</a>
</g>
</g>
<!-- Node10&#45;&gt;Node11 -->
<g id="edge14" class="edge">
<title>Node10&#45;&gt;Node11</title>
<path fill="none" stroke="#63b8ff" d="M296.44,-164.57C362.58,-144.5 522.51,-95.99 591,-75.21"/>
<polygon fill="#63b8ff" stroke="#63b8ff" points="591.93,-78.58 600.49,-72.33 589.9,-71.88 591.93,-78.58"/>
</g>
<!-- Node12&#45;&gt;Node3 -->
<g id="edge21" class="edge">
<title>Node12&#45;&gt;Node3</title>
<path fill="none" stroke="#63b8ff" d="M436.8,-274.57C455.4,-267.92 476.9,-256.83 489,-239 497.57,-226.36 498.65,-208.91 497.82,-195.5"/>
<polygon fill="#63b8ff" stroke="#63b8ff" points="501.31,-195.25 496.78,-185.67 494.35,-195.99 501.31,-195.25"/>
</g>
<!-- Node12&#45;&gt;Node4 -->
<g id="edge27" class="edge">
<title>Node12&#45;&gt;Node4</title>
<path fill="none" stroke="#63b8ff" d="M399.17,-274.65C396.32,-265.67 391.8,-251.39 388,-239 383.49,-224.31 378.52,-207.68 374.79,-195.12"/>
<polygon fill="#63b8ff" stroke="#63b8ff" points="378.17,-194.19 371.97,-185.59 371.45,-196.17 378.17,-194.19"/>
</g>
<!-- Node12&#45;&gt;Node6 -->
<g id="edge20" class="edge">
<title>Node12&#45;&gt;Node6</title>
<path fill="none" stroke="#63b8ff" d="M353.51,-280.69C246.59,-273.16 0,-247.95 0,-175.5 0,-175.5 0,-175.5 0,-118.5 0,-81.13 29.88,-46.49 50.59,-26.97"/>
<polygon fill="#63b8ff" stroke="#63b8ff" points="52.86,-29.64 57.94,-20.34 48.17,-24.44 52.86,-29.64"/>
</g>
<!-- Node12&#45;&gt;Node7 -->
<g id="edge22" class="edge">
<title>Node12&#45;&gt;Node7</title>
<path fill="none" stroke="#63b8ff" d="M404.62,-274.76C410.17,-254.98 421.88,-205.36 413,-165 406.41,-135.03 389.87,-103.34 378.53,-83.98"/>
<polygon fill="#63b8ff" stroke="#63b8ff" points="381.66,-82.4 373.5,-75.65 375.67,-86.02 381.66,-82.4"/>
</g>
<!-- Node12&#45;&gt;Node9 -->
<g id="edge25" class="edge">
<title>Node12&#45;&gt;Node9</title>
<path fill="none" stroke="#63b8ff" d="M353.66,-281.01C289.01,-276.69 179.13,-265.58 150,-239 106.06,-198.91 101.5,-122.34 102.03,-85.84"/>
<polygon fill="#63b8ff" stroke="#63b8ff" points="105.53,-85.96 102.35,-75.86 98.53,-85.74 105.53,-85.96"/>
</g>
<!-- Node12&#45;&gt;Node10 -->
<g id="edge26" class="edge">
<title>Node12&#45;&gt;Node10</title>
<path fill="none" stroke="#63b8ff" d="M390.95,-274.66C368.21,-256.47 315.87,-214.6 287.01,-191.51"/>
<polygon fill="#63b8ff" stroke="#63b8ff" points="289.38,-188.92 279.38,-185.41 285,-194.39 289.38,-188.92"/>
</g>
<!-- Node12&#45;&gt;Node11 -->
<g id="edge23" class="edge">
<title>Node12&#45;&gt;Node11</title>
<path fill="none" stroke="#63b8ff" d="M450.35,-279.81C518.65,-273.9 639.29,-260.73 677,-239 731.73,-207.46 745.76,-188.49 767,-129 769.84,-121.05 772.01,-116.8 767,-110 765.28,-107.67 696.91,-87.23 655.01,-74.88"/>
<polygon fill="#63b8ff" stroke="#63b8ff" points="656.26,-71.6 645.67,-72.13 654.28,-78.31 656.26,-71.6"/>
</g>
<!-- Node13 -->
<g id="node13" class="node">
<title>Node13</title>
<g id="a_node13"><a xlink:title=" ">
<polygon fill="#e0e0e0" stroke="#999999" points="480,-239 430,-239 430,-220 480,-220 480,-239"/>
<text text-anchor="middle" x="455" y="-227" font-family="Helvetica,sans-Serif" font-size="10.00">optional</text>
</a>
</g>
</g>
<!-- Node12&#45;&gt;Node13 -->
<g id="edge24" class="edge">
<title>Node12&#45;&gt;Node13</title>
<path fill="none" stroke="#63b8ff" d="M410.75,-274.75C418.15,-267.35 428.96,-256.54 438.05,-247.45"/>
<polygon fill="#63b8ff" stroke="#63b8ff" points="440.39,-250.06 444.99,-240.51 435.44,-245.11 440.39,-250.06"/>
</g>
<!-- Node14 -->
<g id="node14" class="node">
<title>Node14</title>
<g id="a_node14"><a xlink:href="ui_8h.html" target="_top" xlink:title=" ">
<polygon fill="white" stroke="#666666" points="568,-239 536,-239 536,-220 568,-220 568,-239"/>
<text text-anchor="middle" x="552" y="-227" font-family="Helvetica,sans-Serif" font-size="10.00">ui.h</text>
</a>
</g>
</g>
<!-- Node12&#45;&gt;Node14 -->
<g id="edge28" class="edge">
<title>Node12&#45;&gt;Node14</title>
<path fill="none" stroke="#63b8ff" d="M427.45,-274.51C454.63,-264.91 497.53,-249.75 525.21,-239.96"/>
<polygon fill="#63b8ff" stroke="#63b8ff" points="526.02,-243.39 534.28,-236.76 523.69,-236.79 526.02,-243.39"/>
</g>
<!-- Node14&#45;&gt;Node3 -->
<g id="edge29" class="edge">
<title>Node14&#45;&gt;Node3</title>
<path fill="none" stroke="#63b8ff" d="M542.33,-219.51C534.26,-212 522.53,-201.1 512.78,-192.03"/>
<polygon fill="#63b8ff" stroke="#63b8ff" points="515.34,-189.63 505.63,-185.39 510.57,-194.76 515.34,-189.63"/>
</g>
<!-- Node14&#45;&gt;Node4 -->
<g id="edge30" class="edge">
<title>Node14&#45;&gt;Node4</title>
<path fill="none" stroke="#63b8ff" d="M535.76,-223.8C507.99,-215.76 450.56,-199.12 410.92,-187.64"/>
<polygon fill="#63b8ff" stroke="#63b8ff" points="412.03,-184.32 401.45,-184.9 410.08,-191.04 412.03,-184.32"/>
</g>
<!-- Node15 -->
<g id="node15" class="node">
<title>Node15</title>
<g id="a_node15"><a xlink:href="instance_8h.html" target="_top" xlink:title=" ">
<polygon fill="white" stroke="#666666" points="647,-184 585,-184 585,-165 647,-165 647,-184"/>
<text text-anchor="middle" x="616" y="-172" font-family="Helvetica,sans-Serif" font-size="10.00">instance.h</text>
</a>
</g>
</g>
<!-- Node14&#45;&gt;Node15 -->
<g id="edge31" class="edge">
<title>Node14&#45;&gt;Node15</title>
<path fill="none" stroke="#63b8ff" d="M562.86,-219.51C572.11,-211.85 585.62,-200.66 596.71,-191.47"/>
<polygon fill="#63b8ff" stroke="#63b8ff" points="598.67,-194.4 604.14,-185.32 594.2,-189.01 598.67,-194.4"/>
</g>
<!-- Node15&#45;&gt;Node11 -->
<g id="edge34" class="edge">
<title>Node15&#45;&gt;Node11</title>
<path fill="none" stroke="#63b8ff" d="M616.57,-164.66C617.68,-147.57 620.14,-109.61 621.68,-85.92"/>
<polygon fill="#63b8ff" stroke="#63b8ff" points="625.17,-86.18 622.32,-75.97 618.18,-85.72 625.17,-86.18"/>
</g>
<!-- Node16 -->
<g id="node16" class="node">
<title>Node16</title>
<g id="a_node16"><a xlink:title=" ">
<polygon fill="#e0e0e0" stroke="#999999" points="595,-129 497,-129 497,-110 595,-110 595,-129"/>
<text text-anchor="middle" x="546" y="-117" font-family="Helvetica,sans-Serif" font-size="10.00">nlohmann/json.hpp</text>
</a>
</g>
</g>
<!-- Node15&#45;&gt;Node16 -->
<g id="edge32" class="edge">
<title>Node15&#45;&gt;Node16</title>
<path fill="none" stroke="#63b8ff" d="M604.13,-164.51C593.91,-156.77 578.93,-145.43 566.74,-136.2"/>
<polygon fill="#63b8ff" stroke="#63b8ff" points="568.99,-133.52 558.91,-130.27 564.77,-139.1 568.99,-133.52"/>
</g>
<!-- Node17 -->
<g id="node17" class="node">
<title>Node17</title>
<g id="a_node17"><a xlink:title=" ">
<polygon fill="#e0e0e0" stroke="#999999" points="757.5,-129 716.5,-129 716.5,-110 757.5,-110 757.5,-129"/>
<text text-anchor="middle" x="737" y="-117" font-family="Helvetica,sans-Serif" font-size="10.00">string</text>
</a>
</g>
</g>
<!-- Node15&#45;&gt;Node17 -->
<g id="edge33" class="edge">
<title>Node15&#45;&gt;Node17</title>
<path fill="none" stroke="#63b8ff" d="M636.53,-164.51C655.68,-156.12 684.5,-143.5 706.37,-133.92"/>
<polygon fill="#63b8ff" stroke="#63b8ff" points="707.64,-137.18 715.39,-129.97 704.83,-130.77 707.64,-137.18"/>
</g>
<!-- Node18 -->
<g id="node18" class="node">
<title>Node18</title>
<g id="a_node18"><a xlink:href="event_8h.html" target="_top" xlink:title=" ">
<polygon fill="white" stroke="#666666" points="698.5,-129 651.5,-129 651.5,-110 698.5,-110 698.5,-129"/>
<text text-anchor="middle" x="675" y="-117" font-family="Helvetica,sans-Serif" font-size="10.00">event.h</text>
</a>
</g>
</g>
<!-- Node15&#45;&gt;Node18 -->
<g id="edge35" class="edge">
<title>Node15&#45;&gt;Node18</title>
<path fill="none" stroke="#63b8ff" d="M626.01,-164.51C634.37,-157 646.5,-146.1 656.6,-137.03"/>
<polygon fill="#63b8ff" stroke="#63b8ff" points="658.91,-139.66 664.01,-130.37 654.24,-134.45 658.91,-139.66"/>
</g>
<!-- Node18&#45;&gt;Node7 -->
<g id="edge38" class="edge">
<title>Node18&#45;&gt;Node7</title>
<path fill="none" stroke="#63b8ff" d="M651.09,-114.39C597.73,-105.2 468.62,-82.99 404.47,-71.95"/>
<polygon fill="#63b8ff" stroke="#63b8ff" points="405.22,-68.52 394.77,-70.28 404.03,-75.42 405.22,-68.52"/>
</g>
<!-- Node18&#45;&gt;Node11 -->
<g id="edge37" class="edge">
<title>Node18&#45;&gt;Node11</title>
<path fill="none" stroke="#63b8ff" d="M666.41,-109.75C659.16,-102.35 648.55,-91.54 639.63,-82.45"/>
<polygon fill="#63b8ff" stroke="#63b8ff" points="642.34,-80.21 632.83,-75.52 637.34,-85.11 642.34,-80.21"/>
</g>
<!-- Node19 -->
<g id="node19" class="node">
<title>Node19</title>
<g id="a_node19"><a xlink:title=" ">
<polygon fill="#e0e0e0" stroke="#999999" points="720,-74 662,-74 662,-55 720,-55 720,-74"/>
<text text-anchor="middle" x="691" y="-62" font-family="Helvetica,sans-Serif" font-size="10.00">functional</text>
</a>
</g>
</g>
<!-- Node18&#45;&gt;Node19 -->
<g id="edge36" class="edge">
<title>Node18&#45;&gt;Node19</title>
<path fill="none" stroke="#63b8ff" d="M677.64,-109.75C679.64,-103.11 682.48,-93.73 685.02,-85.31"/>
<polygon fill="#63b8ff" stroke="#63b8ff" points="688.32,-86.48 687.86,-75.89 681.62,-84.45 688.32,-86.48"/>
</g>
<!-- Node20&#45;&gt;Node3 -->
<g id="edge42" class="edge">
<title>Node20&#45;&gt;Node3</title>
<path fill="none" stroke="#63b8ff" d="M623.72,-220.68C599.39,-212.14 560.04,-198.33 531.25,-188.22"/>
<polygon fill="#63b8ff" stroke="#63b8ff" points="532.42,-184.93 521.83,-184.92 530.11,-191.53 532.42,-184.93"/>
</g>
<!-- Node20&#45;&gt;Node7 -->
<g id="edge40" class="edge">
<title>Node20&#45;&gt;Node7</title>
<path fill="none" stroke="#63b8ff" d="M630.91,-219.51C597.51,-199.62 514.73,-150.44 445,-110 427.58,-99.9 407.88,-88.66 392.63,-80"/>
<polygon fill="#63b8ff" stroke="#63b8ff" points="394.62,-77.1 384.19,-75.21 391.16,-83.19 394.62,-77.1"/>
</g>
<!-- Node20&#45;&gt;Node17 -->
<g id="edge41" class="edge">
<title>Node20&#45;&gt;Node17</title>
<path fill="none" stroke="#63b8ff" d="M653.45,-219.66C668.44,-201.86 702.53,-161.41 722.22,-138.04"/>
<polygon fill="#63b8ff" stroke="#63b8ff" points="724.71,-140.52 728.47,-130.62 719.35,-136.01 724.71,-140.52"/>
</g>
<!-- Node20&#45;&gt;Node18 -->
<g id="edge43" class="edge">
<title>Node20&#45;&gt;Node18</title>
<path fill="none" stroke="#63b8ff" d="M648.37,-219.66C653,-202.42 663.35,-163.9 669.69,-140.27"/>
<polygon fill="#63b8ff" stroke="#63b8ff" points="672.99,-141.49 672.2,-130.92 666.23,-139.67 672.99,-141.49"/>
</g>
</g>
</svg>
