<?xml version="1.0" encoding="UTF-8" standalone="no"?>
<!DOCTYPE svg PUBLIC "-//W3C//DTD SVG 1.1//EN"
 "http://www.w3.org/Graphics/SVG/1.1/DTD/svg11.dtd">
<!-- Generated by graphviz version 7.1.0 (20230121.1956)
 -->
<!-- Title: src/simulation.h Pages: 1 -->
<svg width="658pt" height="357pt"
 viewBox="0.00 0.00 658.00 357.00" xmlns="http://www.w3.org/2000/svg" xmlns:xlink="http://www.w3.org/1999/xlink">
<g id="graph0" class="graph" transform="scale(1 1) rotate(0) translate(4 353)">
<title>src/simulation.h</title>
<!-- Node1 -->
<g id="node1" class="node">
<title>Node1</title>
<g id="a_node1"><a xlink:title=" ">
<polygon fill="#999999" stroke="#666666" points="407,-349 321,-349 321,-330 407,-330 407,-349"/>
<text text-anchor="middle" x="364" y="-337" font-family="Helvetica,sans-Serif" font-size="10.00">src/simulation.h</text>
</a>
</g>
</g>
<!-- Node2 -->
<g id="node2" class="node">
<title>Node2</title>
<g id="a_node2"><a xlink:title=" ">
<polygon fill="#e0e0e0" stroke="#999999" points="627,-184 559,-184 559,-165 627,-165 627,-184"/>
<text text-anchor="middle" x="593" y="-172" font-family="Helvetica,sans-Serif" font-size="10.00">glm/ext.hpp</text>
</a>
</g>
</g>
<!-- Node1&#45;&gt;Node2 -->
<g id="edge1" class="edge">
<title>Node1&#45;&gt;Node2</title>
<path fill="none" stroke="#63b8ff" d="M391.73,-329.56C431.49,-315.58 505.17,-285.29 553,-239 566.31,-226.12 577.18,-207.96 584.21,-194.35"/>
<polygon fill="#63b8ff" stroke="#63b8ff" points="587.25,-196.09 588.51,-185.58 580.96,-193.01 587.25,-196.09"/>
</g>
<!-- Node3 -->
<g id="node3" class="node">
<title>Node3</title>
<g id="a_node3"><a xlink:href="renderable_8h.html" target="_top" xlink:title=" ">
<polygon fill="white" stroke="#666666" points="423,-184 353,-184 353,-165 423,-165 423,-184"/>
<text text-anchor="middle" x="388" y="-172" font-family="Helvetica,sans-Serif" font-size="10.00">renderable.h</text>
</a>
</g>
</g>
<!-- Node1&#45;&gt;Node3 -->
<g id="edge2" class="edge">
<title>Node1&#45;&gt;Node3</title>
<path fill="none" stroke="#63b8ff" d="M357.33,-329.78C342.78,-309.63 310.97,-258.58 330,-220 336.17,-207.5 347.72,-197.53 358.9,-190.23"/>
<polygon fill="#63b8ff" stroke="#63b8ff" points="360.4,-193.41 367.18,-185.28 356.8,-187.4 360.4,-193.41"/>
</g>
<!-- Node4 -->
<g id="node4" class="node">
<title>Node4</title>
<g id="a_node4"><a xlink:href="fluidsimulator_8h.html" target="_top" xlink:title=" ">
<polygon fill="white" stroke="#666666" points="245,-239 163,-239 163,-220 245,-220 245,-239"/>
<text text-anchor="middle" x="204" y="-227" font-family="Helvetica,sans-Serif" font-size="10.00">fluidsimulator.h</text>
</a>
</g>
</g>
<!-- Node1&#45;&gt;Node4 -->
<g id="edge3" class="edge">
<title>Node1&#45;&gt;Node4</title>
<path fill="none" stroke="#63b8ff" d="M350.36,-329.52C336.8,-320.56 315.42,-306.4 297,-294 272.78,-277.69 245.17,-258.8 226.37,-245.89"/>
<polygon fill="#63b8ff" stroke="#63b8ff" points="228.37,-243.02 218.15,-240.24 224.41,-248.79 228.37,-243.02"/>
</g>
<!-- Node11 -->
<g id="node11" class="node">
<title>Node11</title>
<g id="a_node11"><a xlink:href="particlesimulator_8h.html" target="_top" xlink:title=" ">
<polygon fill="white" stroke="#666666" points="450,-294 354,-294 354,-275 450,-275 450,-294"/>
<text text-anchor="middle" x="402" y="-282" font-family="Helvetica,sans-Serif" font-size="10.00">particlesimulator.h</text>
</a>
</g>
</g>
<!-- Node1&#45;&gt;Node11 -->
<g id="edge18" class="edge">
<title>Node1&#45;&gt;Node11</title>
<path fill="none" stroke="#63b8ff" d="M370.27,-329.75C375.36,-322.66 382.7,-312.42 389.03,-303.59"/>
<polygon fill="#63b8ff" stroke="#63b8ff" points="391.72,-305.84 394.71,-295.67 386.04,-301.76 391.72,-305.84"/>
</g>
<!-- Node4&#45;&gt;Node2 -->
<g id="edge5" class="edge">
<title>Node4&#45;&gt;Node2</title>
<path fill="none" stroke="#63b8ff" d="M245.41,-224.09C308.42,-217.17 432.4,-202.79 547.65,-184.29"/>
<polygon fill="#63b8ff" stroke="#63b8ff" points="547.96,-187.78 557.28,-182.72 546.84,-180.87 547.96,-187.78"/>
</g>
<!-- Node4&#45;&gt;Node3 -->
<g id="edge17" class="edge">
<title>Node4&#45;&gt;Node3</title>
<path fill="none" stroke="#63b8ff" d="M235.21,-219.51C265.7,-210.73 312.32,-197.3 346.04,-187.59"/>
<polygon fill="#63b8ff" stroke="#63b8ff" points="346.85,-191 355.49,-184.87 344.91,-184.27 346.85,-191"/>
</g>
<!-- Node5 -->
<g id="node5" class="node">
<title>Node5</title>
<g id="a_node5"><a xlink:title=" ">
<polygon fill="#e0e0e0" stroke="#999999" points="101,-19 41,-19 41,0 101,0 101,-19"/>
<text text-anchor="middle" x="71" y="-7" font-family="Helvetica,sans-Serif" font-size="10.00">GL/glew.h</text>
</a>
</g>
</g>
<!-- Node4&#45;&gt;Node5 -->
<g id="edge4" class="edge">
<title>Node4&#45;&gt;Node5</title>
<path fill="none" stroke="#63b8ff" d="M191.08,-219.58C161.81,-198.45 91.2,-141.98 68,-74 63.24,-60.06 64.26,-43.39 66.33,-30.63"/>
<polygon fill="#63b8ff" stroke="#63b8ff" points="69.74,-31.39 68.27,-20.9 62.88,-30.02 69.74,-31.39"/>
</g>
<!-- Node6 -->
<g id="node6" class="node">
<title>Node6</title>
<g id="a_node6"><a xlink:title=" ">
<polygon fill="#e0e0e0" stroke="#999999" points="312,-74 260,-74 260,-55 312,-55 312,-74"/>
<text text-anchor="middle" x="286" y="-62" font-family="Helvetica,sans-Serif" font-size="10.00">memory</text>
</a>
</g>
</g>
<!-- Node4&#45;&gt;Node6 -->
<g id="edge6" class="edge">
<title>Node4&#45;&gt;Node6</title>
<path fill="none" stroke="#63b8ff" d="M206.81,-219.68C210.9,-207.24 218.98,-183.94 228,-165 242,-135.6 261.66,-103.35 274.11,-83.76"/>
<polygon fill="#63b8ff" stroke="#63b8ff" points="276.92,-85.86 279.39,-75.56 271.04,-82.07 276.92,-85.86"/>
</g>
<!-- Node7 -->
<g id="node7" class="node">
<title>Node7</title>
<g id="a_node7"><a xlink:href="rendertarget_8h.html" target="_top" xlink:title=" ">
<polygon fill="white" stroke="#666666" points="219.5,-129 142.5,-129 142.5,-110 219.5,-110 219.5,-129"/>
<text text-anchor="middle" x="181" y="-117" font-family="Helvetica,sans-Serif" font-size="10.00">rendertarget.h</text>
</a>
</g>
</g>
<!-- Node4&#45;&gt;Node7 -->
<g id="edge7" class="edge">
<title>Node4&#45;&gt;Node7</title>
<path fill="none" stroke="#63b8ff" d="M202.12,-219.66C198.46,-202.5 190.32,-164.26 185.28,-140.6"/>
<polygon fill="#63b8ff" stroke="#63b8ff" points="188.73,-139.99 183.22,-130.94 181.88,-141.45 188.73,-139.99"/>
</g>
<!-- Node8 -->
<g id="node8" class="node">
<title>Node8</title>
<g id="a_node8"><a xlink:href="shader_8h.html" target="_top" xlink:title=" ">
<polygon fill="white" stroke="#666666" points="131,-74 77,-74 77,-55 131,-55 131,-74"/>
<text text-anchor="middle" x="104" y="-62" font-family="Helvetica,sans-Serif" font-size="10.00">shader.h</text>
</a>
</g>
</g>
<!-- Node4&#45;&gt;Node8 -->
<g id="edge16" class="edge">
<title>Node4&#45;&gt;Node8</title>
<path fill="none" stroke="#63b8ff" d="M196.73,-219.57C183.13,-202.61 153.39,-164.28 133,-129 124.73,-114.7 117.05,-97.63 111.67,-84.79"/>
<polygon fill="#63b8ff" stroke="#63b8ff" points="115.02,-83.73 108,-75.79 108.54,-86.37 115.02,-83.73"/>
</g>
<!-- Node9 -->
<g id="node9" class="node">
<title>Node9</title>
<g id="a_node9"><a xlink:href="rendertargetarray_8h.html" target="_top" xlink:title=" ">
<polygon fill="white" stroke="#666666" points="335,-184 237,-184 237,-165 335,-165 335,-184"/>
<text text-anchor="middle" x="286" y="-172" font-family="Helvetica,sans-Serif" font-size="10.00">rendertargetarray.h</text>
</a>
</g>
</g>
<!-- Node4&#45;&gt;Node9 -->
<g id="edge12" class="edge">
<title>Node4&#45;&gt;Node9</title>
<path fill="none" stroke="#63b8ff" d="M217.91,-219.51C230.24,-211.54 248.47,-199.75 262.97,-190.38"/>
<polygon fill="#63b8ff" stroke="#63b8ff" points="264.53,-193.55 271.02,-185.18 260.73,-187.67 264.53,-193.55"/>
</g>
<!-- Node7&#45;&gt;Node5 -->
<g id="edge8" class="edge">
<title>Node7&#45;&gt;Node5</title>
<path fill="none" stroke="#63b8ff" d="M176.94,-109.88C170.49,-96.86 156.89,-71.88 140,-55 128.03,-43.04 112.32,-32.6 98.91,-24.84"/>
<polygon fill="#63b8ff" stroke="#63b8ff" points="100.98,-21.98 90.54,-20.19 97.58,-28.1 100.98,-21.98"/>
</g>
<!-- Node7&#45;&gt;Node6 -->
<g id="edge9" class="edge">
<title>Node7&#45;&gt;Node6</title>
<path fill="none" stroke="#63b8ff" d="M198.81,-109.51C215.13,-101.27 239.53,-88.96 258.37,-79.45"/>
<polygon fill="#63b8ff" stroke="#63b8ff" points="259.75,-82.67 267.1,-75.04 256.6,-76.42 259.75,-82.67"/>
</g>
<!-- Node7&#45;&gt;Node8 -->
<g id="edge10" class="edge">
<title>Node7&#45;&gt;Node8</title>
<path fill="none" stroke="#63b8ff" d="M167.94,-109.51C156.48,-101.62 139.57,-89.98 126.02,-80.65"/>
<polygon fill="#63b8ff" stroke="#63b8ff" points="128.34,-78 118.12,-75.22 124.37,-83.77 128.34,-78"/>
</g>
<!-- Node8&#45;&gt;Node5 -->
<g id="edge11" class="edge">
<title>Node8&#45;&gt;Node5</title>
<path fill="none" stroke="#63b8ff" d="M98.55,-54.75C94.23,-47.81 88.04,-37.86 82.62,-29.16"/>
<polygon fill="#63b8ff" stroke="#63b8ff" points="85.62,-27.37 77.37,-20.73 79.68,-31.07 85.62,-27.37"/>
</g>
<!-- Node9&#45;&gt;Node6 -->
<g id="edge14" class="edge">
<title>Node9&#45;&gt;Node6</title>
<path fill="none" stroke="#63b8ff" d="M286,-164.66C286,-147.57 286,-109.61 286,-85.92"/>
<polygon fill="#63b8ff" stroke="#63b8ff" points="289.5,-85.97 286,-75.97 282.5,-85.97 289.5,-85.97"/>
</g>
<!-- Node9&#45;&gt;Node7 -->
<g id="edge15" class="edge">
<title>Node9&#45;&gt;Node7</title>
<path fill="none" stroke="#63b8ff" d="M268.19,-164.51C251.87,-156.27 227.47,-143.96 208.63,-134.45"/>
<polygon fill="#63b8ff" stroke="#63b8ff" points="210.4,-131.42 199.9,-130.04 207.25,-137.67 210.4,-131.42"/>
</g>
<!-- Node10 -->
<g id="node10" class="node">
<title>Node10</title>
<g id="a_node10"><a xlink:title=" ">
<polygon fill="#e0e0e0" stroke="#999999" points="564,-74 522,-74 522,-55 564,-55 564,-74"/>
<text text-anchor="middle" x="543" y="-62" font-family="Helvetica,sans-Serif" font-size="10.00">vector</text>
</a>
</g>
</g>
<!-- Node9&#45;&gt;Node10 -->
<g id="edge13" class="edge">
<title>Node9&#45;&gt;Node10</title>
<path fill="none" stroke="#63b8ff" d="M312.97,-164.56C337.89,-156.09 375.83,-142.66 408,-129 425.75,-121.46 429.59,-118.28 447,-110 469.05,-99.52 494.08,-87.93 513.06,-79.2"/>
<polygon fill="#63b8ff" stroke="#63b8ff" points="514.46,-82.41 522.08,-75.06 511.53,-76.05 514.46,-82.41"/>
</g>
<!-- Node11&#45;&gt;Node2 -->
<g id="edge20" class="edge">
<title>Node11&#45;&gt;Node2</title>
<path fill="none" stroke="#63b8ff" d="M440.59,-274.56C466.58,-267.44 500.92,-255.85 528,-239 548.02,-226.54 566.83,-206.98 579.01,-192.86"/>
<polygon fill="#63b8ff" stroke="#63b8ff" points="581.62,-195.19 585.35,-185.27 576.25,-190.7 581.62,-195.19"/>
</g>
<!-- Node11&#45;&gt;Node3 -->
<g id="edge26" class="edge">
<title>Node11&#45;&gt;Node3</title>
<path fill="none" stroke="#63b8ff" d="M401.89,-274.83C401.63,-262.56 400.78,-239.46 398,-220 396.84,-211.87 394.97,-203.02 393.17,-195.37"/>
<polygon fill="#63b8ff" stroke="#63b8ff" points="396.59,-194.61 390.77,-185.76 389.8,-196.31 396.59,-194.61"/>
</g>
<!-- Node11&#45;&gt;Node5 -->
<g id="edge19" class="edge">
<title>Node11&#45;&gt;Node5</title>
<path fill="none" stroke="#63b8ff" d="M353.51,-280.69C246.59,-273.16 0,-247.95 0,-175.5 0,-175.5 0,-175.5 0,-118.5 0,-80.97 30.3,-46.38 51.32,-26.91"/>
<polygon fill="#63b8ff" stroke="#63b8ff" points="53.61,-29.55 58.77,-20.3 48.97,-24.31 53.61,-29.55"/>
</g>
<!-- Node11&#45;&gt;Node6 -->
<g id="edge21" class="edge">
<title>Node11&#45;&gt;Node6</title>
<path fill="none" stroke="#63b8ff" d="M408.64,-274.65C423.43,-253.78 455.96,-200.54 432,-165 408.15,-129.62 377.93,-153.51 343,-129 325.24,-116.54 309.15,-97.55 298.62,-83.59"/>
<polygon fill="#63b8ff" stroke="#63b8ff" points="301.6,-81.73 292.89,-75.69 295.94,-85.84 301.6,-81.73"/>
</g>
<!-- Node11&#45;&gt;Node8 -->
<g id="edge24" class="edge">
<title>Node11&#45;&gt;Node8</title>
<path fill="none" stroke="#63b8ff" d="M353.74,-280.71C290.15,-276.07 182.95,-264.61 154,-239 109.06,-199.24 103.37,-121.93 103.36,-85.46"/>
<polygon fill="#63b8ff" stroke="#63b8ff" points="106.85,-85.96 103.51,-75.9 99.85,-85.84 106.85,-85.96"/>
</g>
<!-- Node11&#45;&gt;Node9 -->
<g id="edge25" class="edge">
<title>Node11&#45;&gt;Node9</title>
<path fill="none" stroke="#63b8ff" d="M383.1,-274.58C367.67,-266.67 345.88,-254.07 330,-239 316.03,-225.74 303.89,-207.38 295.92,-193.8"/>
<polygon fill="#63b8ff" stroke="#63b8ff" points="299.17,-192.45 291.21,-185.46 293.07,-195.89 299.17,-192.45"/>
</g>
<!-- Node11&#45;&gt;Node10 -->
<g id="edge22" class="edge">
<title>Node11&#45;&gt;Node10</title>
<path fill="none" stroke="#63b8ff" d="M450.3,-279.62C507.35,-272.06 599.14,-249.75 636,-184 652.09,-155.3 655.65,-137.76 638,-110 624.33,-88.5 597.24,-77.21 575.48,-71.39"/>
<polygon fill="#63b8ff" stroke="#63b8ff" points="576.38,-68.01 565.84,-69.11 574.76,-74.82 576.38,-68.01"/>
</g>
<!-- Node12 -->
<g id="node12" class="node">
<title>Node12</title>
<g id="a_node12"><a xlink:title=" ">
<polygon fill="#e0e0e0" stroke="#999999" points="389,-239 339,-239 339,-220 389,-220 389,-239"/>
<text text-anchor="middle" x="364" y="-227" font-family="Helvetica,sans-Serif" font-size="10.00">optional</text>
</a>
</g>
</g>
<!-- Node11&#45;&gt;Node12 -->
<g id="edge23" class="edge">
<title>Node11&#45;&gt;Node12</title>
<path fill="none" stroke="#63b8ff" d="M395.73,-274.75C390.64,-267.66 383.3,-257.42 376.97,-248.59"/>
<polygon fill="#63b8ff" stroke="#63b8ff" points="379.96,-246.76 371.29,-240.67 374.28,-250.84 379.96,-246.76"/>
</g>
<!-- Node13 -->
<g id="node13" class="node">
<title>Node13</title>
<g id="a_node13"><a xlink:href="ui_8h.html" target="_top" xlink:title=" ">
<polygon fill="white" stroke="#666666" points="519,-239 487,-239 487,-220 519,-220 519,-239"/>
<text text-anchor="middle" x="503" y="-227" font-family="Helvetica,sans-Serif" font-size="10.00">ui.h</text>
</a>
</g>
</g>
<!-- Node11&#45;&gt;Node13 -->
<g id="edge27" class="edge">
<title>Node11&#45;&gt;Node13</title>
<path fill="none" stroke="#63b8ff" d="M419.13,-274.51C434.94,-266.21 458.64,-253.78 476.82,-244.24"/>
<polygon fill="#63b8ff" stroke="#63b8ff" points="478.22,-247.46 485.45,-239.71 474.97,-241.26 478.22,-247.46"/>
</g>
<!-- Node13&#45;&gt;Node2 -->
<g id="edge28" class="edge">
<title>Node13&#45;&gt;Node2</title>
<path fill="none" stroke="#63b8ff" d="M518.27,-219.51C531.93,-211.47 552.2,-199.53 568.18,-190.11"/>
<polygon fill="#63b8ff" stroke="#63b8ff" points="569.81,-193.22 576.65,-185.13 566.26,-187.18 569.81,-193.22"/>
</g>
<!-- Node13&#45;&gt;Node3 -->
<g id="edge29" class="edge">
<title>Node13&#45;&gt;Node3</title>
<path fill="none" stroke="#63b8ff" d="M486.52,-220.91C468.67,-212.68 439.81,-199.38 417.93,-189.29"/>
<polygon fill="#63b8ff" stroke="#63b8ff" points="419.45,-186.14 408.9,-185.13 416.52,-192.5 419.45,-186.14"/>
</g>
<!-- Node14 -->
<g id="node14" class="node">
<title>Node14</title>
<g id="a_node14"><a xlink:href="instance_8h.html" target="_top" xlink:title=" ">
<polygon fill="white" stroke="#666666" points="541,-184 479,-184 479,-165 541,-165 541,-184"/>
<text text-anchor="middle" x="510" y="-172" font-family="Helvetica,sans-Serif" font-size="10.00">instance.h</text>
</a>
</g>
</g>
<!-- Node13&#45;&gt;Node14 -->
<g id="edge30" class="edge">
<title>Node13&#45;&gt;Node14</title>
<path fill="none" stroke="#63b8ff" d="M504.16,-219.75C505.02,-213.19 506.24,-203.95 507.34,-195.6"/>
<polygon fill="#63b8ff" stroke="#63b8ff" points="510.78,-196.31 508.62,-185.94 503.84,-195.4 510.78,-196.31"/>
</g>
<!-- Node14&#45;&gt;Node10 -->
<g id="edge33" class="edge">
<title>Node14&#45;&gt;Node10</title>
<path fill="none" stroke="#63b8ff" d="M541.47,-165.38C571.48,-156.93 613.48,-142.99 623,-129 639.02,-105.48 603.51,-86.49 574.78,-75.6"/>
<polygon fill="#63b8ff" stroke="#63b8ff" points="576.25,-72.4 565.65,-72.34 573.89,-79 576.25,-72.4"/>
</g>
<!-- Node15 -->
<g id="node15" class="node">
<title>Node15</title>
<g id="a_node15"><a xlink:title=" ">
<polygon fill="#e0e0e0" stroke="#999999" points="614,-129 516,-129 516,-110 614,-110 614,-129"/>
<text text-anchor="middle" x="565" y="-117" font-family="Helvetica,sans-Serif" font-size="10.00">nlohmann/json.hpp</text>
</a>
</g>
</g>
<!-- Node14&#45;&gt;Node15 -->
<g id="edge31" class="edge">
<title>Node14&#45;&gt;Node15</title>
<path fill="none" stroke="#63b8ff" d="M519.08,-164.75C526.84,-157.27 538.21,-146.32 547.7,-137.17"/>
<polygon fill="#63b8ff" stroke="#63b8ff" points="549.86,-139.95 554.63,-130.49 545,-134.91 549.86,-139.95"/>
</g>
<!-- Node16 -->
<g id="node16" class="node">
<title>Node16</title>
<g id="a_node16"><a xlink:title=" ">
<polygon fill="#e0e0e0" stroke="#999999" points="497.5,-129 456.5,-129 456.5,-110 497.5,-110 497.5,-129"/>
<text text-anchor="middle" x="477" y="-117" font-family="Helvetica,sans-Serif" font-size="10.00">string</text>
</a>
</g>
</g>
<!-- Node14&#45;&gt;Node16 -->
<g id="edge32" class="edge">
<title>Node14&#45;&gt;Node16</title>
<path fill="none" stroke="#63b8ff" d="M504.55,-164.75C500.23,-157.81 494.04,-147.86 488.62,-139.16"/>
<polygon fill="#63b8ff" stroke="#63b8ff" points="491.62,-137.37 483.37,-130.73 485.68,-141.07 491.62,-137.37"/>
</g>
<!-- Node17 -->
<g id="node17" class="node">
<title>Node17</title>
<g id="a_node17"><a xlink:href="event_8h.html" target="_top" xlink:title=" ">
<polygon fill="white" stroke="#666666" points="399.5,-129 352.5,-129 352.5,-110 399.5,-110 399.5,-129"/>
<text text-anchor="middle" x="376" y="-117" font-family="Helvetica,sans-Serif" font-size="10.00">event.h</text>
</a>
</g>
</g>
<!-- Node14&#45;&gt;Node17 -->
<g id="edge34" class="edge">
<title>Node14&#45;&gt;Node17</title>
<path fill="none" stroke="#63b8ff" d="M487.27,-164.51C465.77,-156.01 433.27,-143.15 408.93,-133.53"/>
<polygon fill="#63b8ff" stroke="#63b8ff" points="410.39,-130.34 399.8,-129.91 407.81,-136.85 410.39,-130.34"/>
</g>
<!-- Node17&#45;&gt;Node6 -->
<g id="edge37" class="edge">
<title>Node17&#45;&gt;Node6</title>
<path fill="none" stroke="#63b8ff" d="M360.73,-109.51C347.07,-101.47 326.8,-89.53 310.82,-80.11"/>
<polygon fill="#63b8ff" stroke="#63b8ff" points="312.74,-77.18 302.35,-75.13 309.19,-83.22 312.74,-77.18"/>
</g>
<!-- Node17&#45;&gt;Node10 -->
<g id="edge36" class="edge">
<title>Node17&#45;&gt;Node10</title>
<path fill="none" stroke="#63b8ff" d="M399.93,-110.91C429.05,-101.66 478.35,-86.02 510.79,-75.72"/>
<polygon fill="#63b8ff" stroke="#63b8ff" points="511.59,-79.14 520.06,-72.78 509.47,-72.47 511.59,-79.14"/>
</g>
<!-- Node18 -->
<g id="node18" class="node">
<title>Node18</title>
<g id="a_node18"><a xlink:title=" ">
<polygon fill="#e0e0e0" stroke="#999999" points="405,-74 347,-74 347,-55 405,-55 405,-74"/>
<text text-anchor="middle" x="376" y="-62" font-family="Helvetica,sans-Serif" font-size="10.00">functional</text>
</a>
</g>
</g>
<!-- Node17&#45;&gt;Node18 -->
<g id="edge35" class="edge">
<title>Node17&#45;&gt;Node18</title>
<path fill="none" stroke="#63b8ff" d="M376,-109.75C376,-103.27 376,-94.16 376,-85.9"/>
<polygon fill="#63b8ff" stroke="#63b8ff" points="379.5,-85.96 376,-75.96 372.5,-85.96 379.5,-85.96"/>
</g>
</g>
</svg>
