<?xml version="1.0" encoding="UTF-8" standalone="no"?>
<!DOCTYPE svg PUBLIC "-//W3C//DTD SVG 1.1//EN"
 "http://www.w3.org/Graphics/SVG/1.1/DTD/svg11.dtd">
<!-- Generated by graphviz version 7.1.0 (20230121.1956)
 -->
<!-- Title: src/text.h Pages: 1 -->
<svg width="412pt" height="137pt"
 viewBox="0.00 0.00 412.00 137.00" xmlns="http://www.w3.org/2000/svg" xmlns:xlink="http://www.w3.org/1999/xlink">
<g id="graph0" class="graph" transform="scale(1 1) rotate(0) translate(4 133)">
<title>src/text.h</title>
<!-- Node1 -->
<g id="node1" class="node">
<title>Node1</title>
<g id="a_node1"><a xlink:title=" ">
<polygon fill="#999999" stroke="#666666" points="156,-129 98,-129 98,-110 156,-110 156,-129"/>
<text text-anchor="middle" x="127" y="-117" font-family="Helvetica,sans-Serif" font-size="10.00">src/text.h</text>
</a>
</g>
</g>
<!-- Node2 -->
<g id="node2" class="node">
<title>Node2</title>
<g id="a_node2"><a xlink:title=" ">
<polygon fill="#e0e0e0" stroke="#999999" points="56,-19 0,-19 0,0 56,0 56,-19"/>
<text text-anchor="middle" x="28" y="-7" font-family="Helvetica,sans-Serif" font-size="10.00">ft2build.h</text>
</a>
</g>
</g>
<!-- Node1&#45;&gt;Node2 -->
<g id="edge1" class="edge">
<title>Node1&#45;&gt;Node2</title>
<path fill="none" stroke="#63b8ff" d="M118.9,-109.66C102.51,-91.78 65.17,-51.05 43.79,-27.73"/>
<polygon fill="#63b8ff" stroke="#63b8ff" points="46.57,-25.58 37.24,-20.58 41.41,-30.31 46.57,-25.58"/>
</g>
<!-- Node3 -->
<g id="node3" class="node">
<title>Node3</title>
<g id="a_node3"><a xlink:title=" ">
<polygon fill="#e0e0e0" stroke="#999999" points="142,-19 74,-19 74,0 142,0 142,-19"/>
<text text-anchor="middle" x="108" y="-7" font-family="Helvetica,sans-Serif" font-size="10.00">glm/ext.hpp</text>
</a>
</g>
</g>
<!-- Node1&#45;&gt;Node3 -->
<g id="edge2" class="edge">
<title>Node1&#45;&gt;Node3</title>
<path fill="none" stroke="#63b8ff" d="M125.45,-109.66C122.43,-92.5 115.7,-54.26 111.54,-30.6"/>
<polygon fill="#63b8ff" stroke="#63b8ff" points="115.02,-30.19 109.84,-20.95 108.12,-31.41 115.02,-30.19"/>
</g>
<!-- Node4 -->
<g id="node4" class="node">
<title>Node4</title>
<g id="a_node4"><a xlink:title=" ">
<polygon fill="#e0e0e0" stroke="#999999" points="201.5,-19 160.5,-19 160.5,0 201.5,0 201.5,-19"/>
<text text-anchor="middle" x="181" y="-7" font-family="Helvetica,sans-Serif" font-size="10.00">string</text>
</a>
</g>
</g>
<!-- Node1&#45;&gt;Node4 -->
<g id="edge3" class="edge">
<title>Node1&#45;&gt;Node4</title>
<path fill="none" stroke="#63b8ff" d="M131.42,-109.66C140.12,-92.26 159.65,-53.19 171.44,-29.62"/>
<polygon fill="#63b8ff" stroke="#63b8ff" points="174.5,-31.32 175.84,-20.81 168.24,-28.19 174.5,-31.32"/>
</g>
<!-- Node5 -->
<g id="node5" class="node">
<title>Node5</title>
<g id="a_node5"><a xlink:href="font_8h.html" target="_top" xlink:title=" ">
<polygon fill="white" stroke="#666666" points="215.5,-74 174.5,-74 174.5,-55 215.5,-55 215.5,-74"/>
<text text-anchor="middle" x="195" y="-62" font-family="Helvetica,sans-Serif" font-size="10.00">font.h</text>
</a>
</g>
</g>
<!-- Node1&#45;&gt;Node5 -->
<g id="edge4" class="edge">
<title>Node1&#45;&gt;Node5</title>
<path fill="none" stroke="#63b8ff" d="M138.54,-109.51C148.46,-101.77 163.01,-90.43 174.86,-81.2"/>
<polygon fill="#63b8ff" stroke="#63b8ff" points="176.71,-84.2 182.44,-75.29 172.4,-78.68 176.71,-84.2"/>
</g>
<!-- Node5&#45;&gt;Node2 -->
<g id="edge5" class="edge">
<title>Node5&#45;&gt;Node2</title>
<path fill="none" stroke="#63b8ff" d="M174.19,-56.89C147.48,-48.42 100.6,-33.54 67.13,-22.92"/>
<polygon fill="#63b8ff" stroke="#63b8ff" points="68.38,-19.64 57.79,-19.95 66.26,-26.31 68.38,-19.64"/>
</g>
<!-- Node5&#45;&gt;Node3 -->
<g id="edge6" class="edge">
<title>Node5&#45;&gt;Node3</title>
<path fill="none" stroke="#63b8ff" d="M180.24,-54.51C167.04,-46.47 147.44,-34.53 131.99,-25.11"/>
<polygon fill="#63b8ff" stroke="#63b8ff" points="134.19,-22.36 123.83,-20.15 130.55,-28.34 134.19,-22.36"/>
</g>
<!-- Node5&#45;&gt;Node4 -->
<g id="edge8" class="edge">
<title>Node5&#45;&gt;Node4</title>
<path fill="none" stroke="#63b8ff" d="M192.69,-54.75C190.94,-48.11 188.46,-38.73 186.23,-30.31"/>
<polygon fill="#63b8ff" stroke="#63b8ff" points="189.69,-29.68 183.75,-20.91 182.92,-31.47 189.69,-29.68"/>
</g>
<!-- Node6 -->
<g id="node6" class="node">
<title>Node6</title>
<g id="a_node6"><a xlink:title=" ">
<polygon fill="#e0e0e0" stroke="#999999" points="272,-19 220,-19 220,0 272,0 272,-19"/>
<text text-anchor="middle" x="246" y="-7" font-family="Helvetica,sans-Serif" font-size="10.00">memory</text>
</a>
</g>
</g>
<!-- Node5&#45;&gt;Node6 -->
<g id="edge7" class="edge">
<title>Node5&#45;&gt;Node6</title>
<path fill="none" stroke="#63b8ff" d="M203.42,-54.75C210.47,-47.43 220.73,-36.76 229.41,-27.74"/>
<polygon fill="#63b8ff" stroke="#63b8ff" points="231.93,-30.17 236.35,-20.53 226.89,-25.31 231.93,-30.17"/>
</g>
<!-- Node7 -->
<g id="node7" class="node">
<title>Node7</title>
<g id="a_node7"><a xlink:title=" ">
<polygon fill="#e0e0e0" stroke="#999999" points="325.5,-19 290.5,-19 290.5,0 325.5,0 325.5,-19"/>
<text text-anchor="middle" x="308" y="-7" font-family="Helvetica,sans-Serif" font-size="10.00">map</text>
</a>
</g>
</g>
<!-- Node5&#45;&gt;Node7 -->
<g id="edge9" class="edge">
<title>Node5&#45;&gt;Node7</title>
<path fill="none" stroke="#63b8ff" d="M214.17,-54.51C232.21,-46.05 259.44,-33.28 279.93,-23.67"/>
<polygon fill="#63b8ff" stroke="#63b8ff" points="281.29,-26.89 288.86,-19.48 278.32,-20.56 281.29,-26.89"/>
</g>
<!-- Node8 -->
<g id="node8" class="node">
<title>Node8</title>
<g id="a_node8"><a xlink:title=" ">
<polygon fill="#e0e0e0" stroke="#999999" points="404,-19 344,-19 344,0 404,0 404,-19"/>
<text text-anchor="middle" x="374" y="-7" font-family="Helvetica,sans-Serif" font-size="10.00">GL/glew.h</text>
</a>
</g>
</g>
<!-- Node5&#45;&gt;Node8 -->
<g id="edge10" class="edge">
<title>Node5&#45;&gt;Node8</title>
<path fill="none" stroke="#63b8ff" d="M215.88,-57.32C244.47,-48.85 296.39,-33.48 332.91,-22.67"/>
<polygon fill="#63b8ff" stroke="#63b8ff" points="333.67,-26.09 342.26,-19.9 331.68,-19.38 333.67,-26.09"/>
</g>
</g>
</svg>
