<?xml version="1.0" encoding="UTF-8" standalone="no"?>
<!DOCTYPE svg PUBLIC "-//W3C//DTD SVG 1.1//EN"
 "http://www.w3.org/Graphics/SVG/1.1/DTD/svg11.dtd">
<!-- Generated by graphviz version 7.1.0 (20230121.1956)
 -->
<!-- Title: src/ui.h Pages: 1 -->
<svg width="401pt" height="192pt"
 viewBox="0.00 0.00 401.00 192.00" xmlns="http://www.w3.org/2000/svg" xmlns:xlink="http://www.w3.org/1999/xlink">
<g id="graph0" class="graph" transform="scale(1 1) rotate(0) translate(4 188)">
<title>src/ui.h</title>
<!-- Node1 -->
<g id="node1" class="node">
<title>Node1</title>
<g id="a_node1"><a xlink:title=" ">
<polygon fill="#999999" stroke="#666666" points="145.5,-184 96.5,-184 96.5,-165 145.5,-165 145.5,-184"/>
<text text-anchor="middle" x="121" y="-172" font-family="Helvetica,sans-Serif" font-size="10.00">src/ui.h</text>
</a>
</g>
</g>
<!-- Node2 -->
<g id="node2" class="node">
<title>Node2</title>
<g id="a_node2"><a xlink:title=" ">
<polygon fill="#e0e0e0" stroke="#999999" points="68,-129 0,-129 0,-110 68,-110 68,-129"/>
<text text-anchor="middle" x="34" y="-117" font-family="Helvetica,sans-Serif" font-size="10.00">glm/ext.hpp</text>
</a>
</g>
</g>
<!-- Node1&#45;&gt;Node2 -->
<g id="edge1" class="edge">
<title>Node1&#45;&gt;Node2</title>
<path fill="none" stroke="#63b8ff" d="M106.24,-164.51C93.04,-156.47 73.44,-144.53 57.99,-135.11"/>
<polygon fill="#63b8ff" stroke="#63b8ff" points="60.19,-132.36 49.83,-130.15 56.55,-138.34 60.19,-132.36"/>
</g>
<!-- Node3 -->
<g id="node3" class="node">
<title>Node3</title>
<g id="a_node3"><a xlink:href="renderable_8h.html" target="_top" xlink:title=" ">
<polygon fill="white" stroke="#666666" points="156,-129 86,-129 86,-110 156,-110 156,-129"/>
<text text-anchor="middle" x="121" y="-117" font-family="Helvetica,sans-Serif" font-size="10.00">renderable.h</text>
</a>
</g>
</g>
<!-- Node1&#45;&gt;Node3 -->
<g id="edge2" class="edge">
<title>Node1&#45;&gt;Node3</title>
<path fill="none" stroke="#63b8ff" d="M121,-164.75C121,-158.27 121,-149.16 121,-140.9"/>
<polygon fill="#63b8ff" stroke="#63b8ff" points="124.5,-140.96 121,-130.96 117.5,-140.96 124.5,-140.96"/>
</g>
<!-- Node4 -->
<g id="node4" class="node">
<title>Node4</title>
<g id="a_node4"><a xlink:href="instance_8h.html" target="_top" xlink:title=" ">
<polygon fill="white" stroke="#666666" points="236,-129 174,-129 174,-110 236,-110 236,-129"/>
<text text-anchor="middle" x="205" y="-117" font-family="Helvetica,sans-Serif" font-size="10.00">instance.h</text>
</a>
</g>
</g>
<!-- Node1&#45;&gt;Node4 -->
<g id="edge3" class="edge">
<title>Node1&#45;&gt;Node4</title>
<path fill="none" stroke="#63b8ff" d="M135.25,-164.51C147.88,-156.54 166.56,-144.75 181.41,-135.38"/>
<polygon fill="#63b8ff" stroke="#63b8ff" points="183.09,-138.46 189.68,-130.17 179.36,-132.54 183.09,-138.46"/>
</g>
<!-- Node5 -->
<g id="node5" class="node">
<title>Node5</title>
<g id="a_node5"><a xlink:title=" ">
<polygon fill="#e0e0e0" stroke="#999999" points="142,-74 44,-74 44,-55 142,-55 142,-74"/>
<text text-anchor="middle" x="93" y="-62" font-family="Helvetica,sans-Serif" font-size="10.00">nlohmann/json.hpp</text>
</a>
</g>
</g>
<!-- Node4&#45;&gt;Node5 -->
<g id="edge4" class="edge">
<title>Node4&#45;&gt;Node5</title>
<path fill="none" stroke="#63b8ff" d="M186,-109.51C168.44,-101.2 142.08,-88.73 121.91,-79.18"/>
<polygon fill="#63b8ff" stroke="#63b8ff" points="123.62,-76.12 113.09,-75.01 120.63,-82.45 123.62,-76.12"/>
</g>
<!-- Node6 -->
<g id="node6" class="node">
<title>Node6</title>
<g id="a_node6"><a xlink:title=" ">
<polygon fill="#e0e0e0" stroke="#999999" points="201.5,-74 160.5,-74 160.5,-55 201.5,-55 201.5,-74"/>
<text text-anchor="middle" x="181" y="-62" font-family="Helvetica,sans-Serif" font-size="10.00">string</text>
</a>
</g>
</g>
<!-- Node4&#45;&gt;Node6 -->
<g id="edge5" class="edge">
<title>Node4&#45;&gt;Node6</title>
<path fill="none" stroke="#63b8ff" d="M201.04,-109.75C197.96,-102.96 193.59,-93.3 189.71,-84.73"/>
<polygon fill="#63b8ff" stroke="#63b8ff" points="192.99,-83.49 185.67,-75.82 186.61,-86.37 192.99,-83.49"/>
</g>
<!-- Node7 -->
<g id="node7" class="node">
<title>Node7</title>
<g id="a_node7"><a xlink:title=" ">
<polygon fill="#e0e0e0" stroke="#999999" points="247,-19 205,-19 205,0 247,0 247,-19"/>
<text text-anchor="middle" x="226" y="-7" font-family="Helvetica,sans-Serif" font-size="10.00">vector</text>
</a>
</g>
</g>
<!-- Node4&#45;&gt;Node7 -->
<g id="edge6" class="edge">
<title>Node4&#45;&gt;Node7</title>
<path fill="none" stroke="#63b8ff" d="M206.72,-109.66C210.06,-92.5 217.49,-54.26 222.09,-30.6"/>
<polygon fill="#63b8ff" stroke="#63b8ff" points="225.5,-31.43 223.97,-20.95 218.62,-30.09 225.5,-31.43"/>
</g>
<!-- Node8 -->
<g id="node8" class="node">
<title>Node8</title>
<g id="a_node8"><a xlink:href="event_8h.html" target="_top" xlink:title=" ">
<polygon fill="white" stroke="#666666" points="313.5,-74 266.5,-74 266.5,-55 313.5,-55 313.5,-74"/>
<text text-anchor="middle" x="290" y="-62" font-family="Helvetica,sans-Serif" font-size="10.00">event.h</text>
</a>
</g>
</g>
<!-- Node4&#45;&gt;Node8 -->
<g id="edge7" class="edge">
<title>Node4&#45;&gt;Node8</title>
<path fill="none" stroke="#63b8ff" d="M219.42,-109.51C232.2,-101.54 251.1,-89.75 266.13,-80.38"/>
<polygon fill="#63b8ff" stroke="#63b8ff" points="267.88,-83.42 274.51,-75.16 264.17,-77.48 267.88,-83.42"/>
</g>
<!-- Node8&#45;&gt;Node7 -->
<g id="edge9" class="edge">
<title>Node8&#45;&gt;Node7</title>
<path fill="none" stroke="#63b8ff" d="M279.14,-54.51C269.89,-46.85 256.38,-35.66 245.29,-26.47"/>
<polygon fill="#63b8ff" stroke="#63b8ff" points="247.8,-24.01 237.86,-20.32 243.33,-29.4 247.8,-24.01"/>
</g>
<!-- Node9 -->
<g id="node9" class="node">
<title>Node9</title>
<g id="a_node9"><a xlink:title=" ">
<polygon fill="#e0e0e0" stroke="#999999" points="323,-19 265,-19 265,0 323,0 323,-19"/>
<text text-anchor="middle" x="294" y="-7" font-family="Helvetica,sans-Serif" font-size="10.00">functional</text>
</a>
</g>
</g>
<!-- Node8&#45;&gt;Node9 -->
<g id="edge8" class="edge">
<title>Node8&#45;&gt;Node9</title>
<path fill="none" stroke="#63b8ff" d="M290.66,-54.75C291.15,-48.27 291.84,-39.16 292.46,-30.9"/>
<polygon fill="#63b8ff" stroke="#63b8ff" points="295.95,-31.19 293.21,-20.95 288.97,-30.66 295.95,-31.19"/>
</g>
<!-- Node10 -->
<g id="node10" class="node">
<title>Node10</title>
<g id="a_node10"><a xlink:title=" ">
<polygon fill="#e0e0e0" stroke="#999999" points="393,-19 341,-19 341,0 393,0 393,-19"/>
<text text-anchor="middle" x="367" y="-7" font-family="Helvetica,sans-Serif" font-size="10.00">memory</text>
</a>
</g>
</g>
<!-- Node8&#45;&gt;Node10 -->
<g id="edge10" class="edge">
<title>Node8&#45;&gt;Node10</title>
<path fill="none" stroke="#63b8ff" d="M303.06,-54.51C314.52,-46.62 331.43,-34.98 344.98,-25.65"/>
<polygon fill="#63b8ff" stroke="#63b8ff" points="346.63,-28.77 352.88,-20.22 342.66,-23 346.63,-28.77"/>
</g>
</g>
</svg>
