<?xml version="1.0" encoding="UTF-8" standalone="no"?>
<!DOCTYPE svg PUBLIC "-//W3C//DTD SVG 1.1//EN"
 "http://www.w3.org/Graphics/SVG/1.1/DTD/svg11.dtd">
<!-- Generated by graphviz version 7.1.0 (20230121.1956)
 -->
<!-- Title: src/ui.cpp Pages: 1 -->
<svg width="372pt" height="302pt"
 viewBox="0.00 0.00 372.00 302.00" xmlns="http://www.w3.org/2000/svg" xmlns:xlink="http://www.w3.org/1999/xlink">
<g id="graph0" class="graph" transform="scale(1 1) rotate(0) translate(4 298)">
<title>src/ui.cpp</title>
<!-- Node1 -->
<g id="node1" class="node">
<title>Node1</title>
<g id="a_node1"><a xlink:title=" ">
<polygon fill="#999999" stroke="#666666" points="194.5,-294 135.5,-294 135.5,-275 194.5,-275 194.5,-294"/>
<text text-anchor="middle" x="165" y="-282" font-family="Helvetica,sans-Serif" font-size="10.00">src/ui.cpp</text>
</a>
</g>
</g>
<!-- Node2 -->
<g id="node2" class="node">
<title>Node2</title>
<g id="a_node2"><a xlink:title=" ">
<polygon fill="#e0e0e0" stroke="#999999" points="88,-239 34,-239 34,-220 88,-220 88,-239"/>
<text text-anchor="middle" x="61" y="-227" font-family="Helvetica,sans-Serif" font-size="10.00">iostream</text>
</a>
</g>
</g>
<!-- Node1&#45;&gt;Node2 -->
<g id="edge1" class="edge">
<title>Node1&#45;&gt;Node2</title>
<path fill="none" stroke="#63b8ff" d="M147.36,-274.51C131.27,-266.31 107.25,-254.07 88.63,-244.58"/>
<polygon fill="#63b8ff" stroke="#63b8ff" points="90.23,-241.47 79.73,-240.05 87.05,-247.7 90.23,-241.47"/>
</g>
<!-- Node3 -->
<g id="node3" class="node">
<title>Node3</title>
<g id="a_node3"><a xlink:href="ui_8h.html" target="_top" xlink:title=" ">
<polygon fill="white" stroke="#666666" points="174,-184 142,-184 142,-165 174,-165 174,-184"/>
<text text-anchor="middle" x="158" y="-172" font-family="Helvetica,sans-Serif" font-size="10.00">ui.h</text>
</a>
</g>
</g>
<!-- Node1&#45;&gt;Node3 -->
<g id="edge2" class="edge">
<title>Node1&#45;&gt;Node3</title>
<path fill="none" stroke="#63b8ff" d="M167.95,-274.85C171.72,-262.6 177.4,-239.52 174,-220 172.52,-211.51 169.57,-202.51 166.59,-194.84"/>
<polygon fill="#63b8ff" stroke="#63b8ff" points="169.93,-193.73 162.84,-185.85 163.47,-196.43 169.93,-193.73"/>
</g>
<!-- Node13 -->
<g id="node13" class="node">
<title>Node13</title>
<g id="a_node13"><a xlink:href="uiobject_8h.html" target="_top" xlink:title=" ">
<polygon fill="white" stroke="#666666" points="165.5,-239 106.5,-239 106.5,-220 165.5,-220 165.5,-239"/>
<text text-anchor="middle" x="136" y="-227" font-family="Helvetica,sans-Serif" font-size="10.00">uiobject.h</text>
</a>
</g>
</g>
<!-- Node1&#45;&gt;Node13 -->
<g id="edge13" class="edge">
<title>Node1&#45;&gt;Node13</title>
<path fill="none" stroke="#63b8ff" d="M160.21,-274.75C156.46,-267.88 151.09,-258.08 146.37,-249.45"/>
<polygon fill="#63b8ff" stroke="#63b8ff" points="149.49,-247.86 141.62,-240.77 143.35,-251.22 149.49,-247.86"/>
</g>
<!-- Node14 -->
<g id="node14" class="node">
<title>Node14</title>
<g id="a_node14"><a xlink:href="core_8h.html" target="_top" xlink:title=" ">
<polygon fill="white" stroke="#666666" points="286,-184 242,-184 242,-165 286,-165 286,-184"/>
<text text-anchor="middle" x="264" y="-172" font-family="Helvetica,sans-Serif" font-size="10.00">core.h</text>
</a>
</g>
</g>
<!-- Node1&#45;&gt;Node14 -->
<g id="edge18" class="edge">
<title>Node1&#45;&gt;Node14</title>
<path fill="none" stroke="#63b8ff" d="M173.1,-274.66C189.49,-256.78 226.83,-216.05 248.21,-192.73"/>
<polygon fill="#63b8ff" stroke="#63b8ff" points="250.59,-195.31 254.76,-185.58 245.43,-190.58 250.59,-195.31"/>
</g>
<!-- Node4 -->
<g id="node4" class="node">
<title>Node4</title>
<g id="a_node4"><a xlink:title=" ">
<polygon fill="#e0e0e0" stroke="#999999" points="236,-129 168,-129 168,-110 236,-110 236,-129"/>
<text text-anchor="middle" x="202" y="-117" font-family="Helvetica,sans-Serif" font-size="10.00">glm/ext.hpp</text>
</a>
</g>
</g>
<!-- Node3&#45;&gt;Node4 -->
<g id="edge3" class="edge">
<title>Node3&#45;&gt;Node4</title>
<path fill="none" stroke="#63b8ff" d="M165.27,-164.75C171.28,-157.5 180.01,-146.98 187.46,-138.02"/>
<polygon fill="#63b8ff" stroke="#63b8ff" points="189.92,-140.54 193.61,-130.61 184.53,-136.07 189.92,-140.54"/>
</g>
<!-- Node5 -->
<g id="node5" class="node">
<title>Node5</title>
<g id="a_node5"><a xlink:href="renderable_8h.html" target="_top" xlink:title=" ">
<polygon fill="white" stroke="#666666" points="150,-129 80,-129 80,-110 150,-110 150,-129"/>
<text text-anchor="middle" x="115" y="-117" font-family="Helvetica,sans-Serif" font-size="10.00">renderable.h</text>
</a>
</g>
</g>
<!-- Node3&#45;&gt;Node5 -->
<g id="edge4" class="edge">
<title>Node3&#45;&gt;Node5</title>
<path fill="none" stroke="#63b8ff" d="M150.9,-164.75C145.08,-157.58 136.67,-147.2 129.44,-138.3"/>
<polygon fill="#63b8ff" stroke="#63b8ff" points="132.23,-136.18 123.21,-130.62 126.79,-140.59 132.23,-136.18"/>
</g>
<!-- Node6 -->
<g id="node6" class="node">
<title>Node6</title>
<g id="a_node6"><a xlink:href="instance_8h.html" target="_top" xlink:title=" ">
<polygon fill="white" stroke="#666666" points="62,-129 0,-129 0,-110 62,-110 62,-129"/>
<text text-anchor="middle" x="31" y="-117" font-family="Helvetica,sans-Serif" font-size="10.00">instance.h</text>
</a>
</g>
</g>
<!-- Node3&#45;&gt;Node6 -->
<g id="edge5" class="edge">
<title>Node3&#45;&gt;Node6</title>
<path fill="none" stroke="#63b8ff" d="M141.66,-166.68C121.82,-158.4 87.9,-144.25 62.83,-133.79"/>
<polygon fill="#63b8ff" stroke="#63b8ff" points="64.34,-130.62 53.76,-130 61.64,-137.08 64.34,-130.62"/>
</g>
<!-- Node7 -->
<g id="node7" class="node">
<title>Node7</title>
<g id="a_node7"><a xlink:title=" ">
<polygon fill="#e0e0e0" stroke="#999999" points="157,-74 59,-74 59,-55 157,-55 157,-74"/>
<text text-anchor="middle" x="108" y="-62" font-family="Helvetica,sans-Serif" font-size="10.00">nlohmann/json.hpp</text>
</a>
</g>
</g>
<!-- Node6&#45;&gt;Node7 -->
<g id="edge6" class="edge">
<title>Node6&#45;&gt;Node7</title>
<path fill="none" stroke="#63b8ff" d="M44.06,-109.51C55.52,-101.62 72.43,-89.98 85.98,-80.65"/>
<polygon fill="#63b8ff" stroke="#63b8ff" points="87.63,-83.77 93.88,-75.22 83.66,-78 87.63,-83.77"/>
</g>
<!-- Node8 -->
<g id="node8" class="node">
<title>Node8</title>
<g id="a_node8"><a xlink:title=" ">
<polygon fill="#e0e0e0" stroke="#999999" points="220.5,-74 179.5,-74 179.5,-55 220.5,-55 220.5,-74"/>
<text text-anchor="middle" x="200" y="-62" font-family="Helvetica,sans-Serif" font-size="10.00">string</text>
</a>
</g>
</g>
<!-- Node6&#45;&gt;Node8 -->
<g id="edge7" class="edge">
<title>Node6&#45;&gt;Node8</title>
<path fill="none" stroke="#63b8ff" d="M59.67,-109.51C89.86,-100.04 137.27,-85.17 168.49,-75.38"/>
<polygon fill="#63b8ff" stroke="#63b8ff" points="169.26,-78.81 177.76,-72.47 167.17,-72.13 169.26,-78.81"/>
</g>
<!-- Node9 -->
<g id="node9" class="node">
<title>Node9</title>
<g id="a_node9"><a xlink:title=" ">
<polygon fill="#e0e0e0" stroke="#999999" points="135,-19 93,-19 93,0 135,0 135,-19"/>
<text text-anchor="middle" x="114" y="-7" font-family="Helvetica,sans-Serif" font-size="10.00">vector</text>
</a>
</g>
</g>
<!-- Node6&#45;&gt;Node9 -->
<g id="edge8" class="edge">
<title>Node6&#45;&gt;Node9</title>
<path fill="none" stroke="#63b8ff" d="M31.76,-109.9C33.29,-96.9 37.71,-71.96 50,-55 58.99,-42.59 72.56,-32.44 84.89,-25"/>
<polygon fill="#63b8ff" stroke="#63b8ff" points="86.53,-28.09 93.51,-20.13 83.08,-22 86.53,-28.09"/>
</g>
<!-- Node10 -->
<g id="node10" class="node">
<title>Node10</title>
<g id="a_node10"><a xlink:href="event_8h.html" target="_top" xlink:title=" ">
<polygon fill="white" stroke="#666666" points="287.5,-74 240.5,-74 240.5,-55 287.5,-55 287.5,-74"/>
<text text-anchor="middle" x="264" y="-62" font-family="Helvetica,sans-Serif" font-size="10.00">event.h</text>
</a>
</g>
</g>
<!-- Node6&#45;&gt;Node10 -->
<g id="edge9" class="edge">
<title>Node6&#45;&gt;Node10</title>
<path fill="none" stroke="#63b8ff" d="M62.24,-111.65C101.3,-103.05 170.16,-87.76 229,-74 229.11,-73.97 229.23,-73.95 229.34,-73.92"/>
<polygon fill="#63b8ff" stroke="#63b8ff" points="229.9,-77.39 238.82,-71.67 228.28,-70.57 229.9,-77.39"/>
</g>
<!-- Node10&#45;&gt;Node9 -->
<g id="edge11" class="edge">
<title>Node10&#45;&gt;Node9</title>
<path fill="none" stroke="#63b8ff" d="M240.23,-55.1C214.71,-46.08 174.02,-31.71 145.76,-21.72"/>
<polygon fill="#63b8ff" stroke="#63b8ff" points="147.25,-18.54 136.66,-18.51 144.92,-25.14 147.25,-18.54"/>
</g>
<!-- Node11 -->
<g id="node11" class="node">
<title>Node11</title>
<g id="a_node11"><a xlink:title=" ">
<polygon fill="#e0e0e0" stroke="#999999" points="293,-19 235,-19 235,0 293,0 293,-19"/>
<text text-anchor="middle" x="264" y="-7" font-family="Helvetica,sans-Serif" font-size="10.00">functional</text>
</a>
</g>
</g>
<!-- Node10&#45;&gt;Node11 -->
<g id="edge10" class="edge">
<title>Node10&#45;&gt;Node11</title>
<path fill="none" stroke="#63b8ff" d="M264,-54.75C264,-48.27 264,-39.16 264,-30.9"/>
<polygon fill="#63b8ff" stroke="#63b8ff" points="267.5,-30.96 264,-20.96 260.5,-30.96 267.5,-30.96"/>
</g>
<!-- Node12 -->
<g id="node12" class="node">
<title>Node12</title>
<g id="a_node12"><a xlink:title=" ">
<polygon fill="#e0e0e0" stroke="#999999" points="364,-19 312,-19 312,0 364,0 364,-19"/>
<text text-anchor="middle" x="338" y="-7" font-family="Helvetica,sans-Serif" font-size="10.00">memory</text>
</a>
</g>
</g>
<!-- Node10&#45;&gt;Node12 -->
<g id="edge12" class="edge">
<title>Node10&#45;&gt;Node12</title>
<path fill="none" stroke="#63b8ff" d="M276.55,-54.51C287.46,-46.7 303.5,-35.21 316.46,-25.93"/>
<polygon fill="#63b8ff" stroke="#63b8ff" points="318.31,-28.91 324.4,-20.24 314.23,-23.22 318.31,-28.91"/>
</g>
<!-- Node13&#45;&gt;Node3 -->
<g id="edge17" class="edge">
<title>Node13&#45;&gt;Node3</title>
<path fill="none" stroke="#63b8ff" d="M139.63,-219.75C142.42,-213.04 146.37,-203.52 149.9,-195.02"/>
<polygon fill="#63b8ff" stroke="#63b8ff" points="153.11,-196.42 153.71,-185.84 146.64,-193.73 153.11,-196.42"/>
</g>
<!-- Node13&#45;&gt;Node4 -->
<g id="edge14" class="edge">
<title>Node13&#45;&gt;Node4</title>
<path fill="none" stroke="#63b8ff" d="M148.54,-219.64C159.16,-211.51 174.05,-198.55 183,-184 191.23,-170.63 196.08,-153.48 198.82,-140.37"/>
<polygon fill="#63b8ff" stroke="#63b8ff" points="202.22,-141.26 200.57,-130.79 195.33,-140 202.22,-141.26"/>
</g>
<!-- Node13&#45;&gt;Node5 -->
<g id="edge16" class="edge">
<title>Node13&#45;&gt;Node5</title>
<path fill="none" stroke="#63b8ff" d="M134.28,-219.66C130.94,-202.5 123.51,-164.26 118.91,-140.6"/>
<polygon fill="#63b8ff" stroke="#63b8ff" points="122.38,-140.09 117.03,-130.95 115.5,-141.43 122.38,-140.09"/>
</g>
<!-- Node13&#45;&gt;Node6 -->
<g id="edge15" class="edge">
<title>Node13&#45;&gt;Node6</title>
<path fill="none" stroke="#63b8ff" d="M127.41,-219.66C109.95,-201.7 70.07,-160.69 47.45,-137.42"/>
<polygon fill="#63b8ff" stroke="#63b8ff" points="50.25,-135.28 40.77,-130.55 45.23,-140.16 50.25,-135.28"/>
</g>
<!-- Node14&#45;&gt;Node4 -->
<g id="edge21" class="edge">
<title>Node14&#45;&gt;Node4</title>
<path fill="none" stroke="#63b8ff" d="M253.48,-164.51C244.61,-156.93 231.69,-145.88 221.01,-136.75"/>
<polygon fill="#63b8ff" stroke="#63b8ff" points="223.39,-134.18 213.51,-130.34 218.84,-139.5 223.39,-134.18"/>
</g>
<!-- Node14&#45;&gt;Node8 -->
<g id="edge20" class="edge">
<title>Node14&#45;&gt;Node8</title>
<path fill="none" stroke="#63b8ff" d="M262.79,-164.73C260.73,-151.94 255.66,-127.76 245,-110 238.62,-99.37 229.12,-89.47 220.5,-81.72"/>
<polygon fill="#63b8ff" stroke="#63b8ff" points="223.02,-79.27 213.14,-75.46 218.49,-84.61 223.02,-79.27"/>
</g>
<!-- Node14&#45;&gt;Node10 -->
<g id="edge22" class="edge">
<title>Node14&#45;&gt;Node10</title>
<path fill="none" stroke="#63b8ff" d="M267.6,-164.82C271.06,-155.99 276.03,-141.81 278,-129 280.29,-114.12 276.39,-97.51 272.13,-85.01"/>
<polygon fill="#63b8ff" stroke="#63b8ff" points="275.49,-83.99 268.67,-75.89 268.95,-86.48 275.49,-83.99"/>
</g>
<!-- Node14&#45;&gt;Node12 -->
<g id="edge19" class="edge">
<title>Node14&#45;&gt;Node12</title>
<path fill="none" stroke="#63b8ff" d="M270.59,-164.64C276.9,-155.9 286.4,-141.99 293,-129 309.98,-95.59 324.29,-54.18 331.96,-30.21"/>
<polygon fill="#63b8ff" stroke="#63b8ff" points="335.24,-31.43 334.89,-20.84 328.56,-29.34 335.24,-31.43"/>
</g>
</g>
</svg>
