<?xml version="1.0" encoding="UTF-8" standalone="no"?>
<!DOCTYPE svg PUBLIC "-//W3C//DTD SVG 1.1//EN"
 "http://www.w3.org/Graphics/SVG/1.1/DTD/svg11.dtd">
<!-- Generated by graphviz version 7.1.0 (20230121.1956)
 -->
<!-- Title: src/uiframe.cpp Pages: 1 -->
<svg width="339pt" height="357pt"
 viewBox="0.00 0.00 339.00 357.00" xmlns="http://www.w3.org/2000/svg" xmlns:xlink="http://www.w3.org/1999/xlink">
<g id="graph0" class="graph" transform="scale(1 1) rotate(0) translate(4 353)">
<title>src/uiframe.cpp</title>
<!-- Node1 -->
<g id="node1" class="node">
<title>Node1</title>
<g id="a_node1"><a xlink:title=" ">
<polygon fill="#999999" stroke="#666666" points="159.5,-349 76.5,-349 76.5,-330 159.5,-330 159.5,-349"/>
<text text-anchor="middle" x="118" y="-337" font-family="Helvetica,sans-Serif" font-size="10.00">src/uiframe.cpp</text>
</a>
</g>
</g>
<!-- Node2 -->
<g id="node2" class="node">
<title>Node2</title>
<g id="a_node2"><a xlink:title=" ">
<polygon fill="#e0e0e0" stroke="#999999" points="52,-19 0,-19 0,0 52,0 52,-19"/>
<text text-anchor="middle" x="26" y="-7" font-family="Helvetica,sans-Serif" font-size="10.00">memory</text>
</a>
</g>
</g>
<!-- Node1&#45;&gt;Node2 -->
<g id="edge1" class="edge">
<title>Node1&#45;&gt;Node2</title>
<path fill="none" stroke="#63b8ff" d="M99.11,-329.5C69.37,-313.87 15,-278.69 15,-230.5 15,-230.5 15,-230.5 15,-118.5 15,-87.76 19.46,-52.36 22.7,-30.71"/>
<polygon fill="#63b8ff" stroke="#63b8ff" points="26.15,-31.35 24.24,-20.92 19.23,-30.26 26.15,-31.35"/>
</g>
<!-- Node3 -->
<g id="node3" class="node">
<title>Node3</title>
<g id="a_node3"><a xlink:title=" ">
<polygon fill="#e0e0e0" stroke="#999999" points="218,-294 164,-294 164,-275 218,-275 218,-294"/>
<text text-anchor="middle" x="191" y="-282" font-family="Helvetica,sans-Serif" font-size="10.00">iostream</text>
</a>
</g>
</g>
<!-- Node1&#45;&gt;Node3 -->
<g id="edge2" class="edge">
<title>Node1&#45;&gt;Node3</title>
<path fill="none" stroke="#63b8ff" d="M130.38,-329.51C141.15,-321.7 156.97,-310.21 169.75,-300.93"/>
<polygon fill="#63b8ff" stroke="#63b8ff" points="171.54,-303.95 177.57,-295.25 167.43,-298.29 171.54,-303.95"/>
</g>
<!-- Node4 -->
<g id="node4" class="node">
<title>Node4</title>
<g id="a_node4"><a xlink:href="uiframe_8h.html" target="_top" xlink:title=" ">
<polygon fill="white" stroke="#666666" points="146,-294 90,-294 90,-275 146,-275 146,-294"/>
<text text-anchor="middle" x="118" y="-282" font-family="Helvetica,sans-Serif" font-size="10.00">uiframe.h</text>
</a>
</g>
</g>
<!-- Node1&#45;&gt;Node4 -->
<g id="edge3" class="edge">
<title>Node1&#45;&gt;Node4</title>
<path fill="none" stroke="#63b8ff" d="M118,-329.75C118,-323.27 118,-314.16 118,-305.9"/>
<polygon fill="#63b8ff" stroke="#63b8ff" points="121.5,-305.96 118,-295.96 114.5,-305.96 121.5,-305.96"/>
</g>
<!-- Node5 -->
<g id="node5" class="node">
<title>Node5</title>
<g id="a_node5"><a xlink:href="uiobject_8h.html" target="_top" xlink:title=" ">
<polygon fill="white" stroke="#666666" points="194.5,-239 135.5,-239 135.5,-220 194.5,-220 194.5,-239"/>
<text text-anchor="middle" x="165" y="-227" font-family="Helvetica,sans-Serif" font-size="10.00">uiobject.h</text>
</a>
</g>
</g>
<!-- Node4&#45;&gt;Node5 -->
<g id="edge4" class="edge">
<title>Node4&#45;&gt;Node5</title>
<path fill="none" stroke="#63b8ff" d="M125.76,-274.75C132.19,-267.5 141.51,-256.98 149.46,-248.02"/>
<polygon fill="#63b8ff" stroke="#63b8ff" points="152.05,-250.38 156.07,-240.57 146.81,-245.73 152.05,-250.38"/>
</g>
<!-- Node6 -->
<g id="node6" class="node">
<title>Node6</title>
<g id="a_node6"><a xlink:title=" ">
<polygon fill="#e0e0e0" stroke="#999999" points="243,-129 175,-129 175,-110 243,-110 243,-129"/>
<text text-anchor="middle" x="209" y="-117" font-family="Helvetica,sans-Serif" font-size="10.00">glm/ext.hpp</text>
</a>
</g>
</g>
<!-- Node5&#45;&gt;Node6 -->
<g id="edge5" class="edge">
<title>Node5&#45;&gt;Node6</title>
<path fill="none" stroke="#63b8ff" d="M166.99,-219.66C169.94,-207.19 176,-183.86 184,-165 187.72,-156.24 192.72,-147 197.27,-139.22"/>
<polygon fill="#63b8ff" stroke="#63b8ff" points="200.24,-141.06 202.43,-130.7 194.26,-137.43 200.24,-141.06"/>
</g>
<!-- Node7 -->
<g id="node7" class="node">
<title>Node7</title>
<g id="a_node7"><a xlink:href="instance_8h.html" target="_top" xlink:title=" ">
<polygon fill="white" stroke="#666666" points="157,-129 95,-129 95,-110 157,-110 157,-129"/>
<text text-anchor="middle" x="126" y="-117" font-family="Helvetica,sans-Serif" font-size="10.00">instance.h</text>
</a>
</g>
</g>
<!-- Node5&#45;&gt;Node7 -->
<g id="edge6" class="edge">
<title>Node5&#45;&gt;Node7</title>
<path fill="none" stroke="#63b8ff" d="M161.81,-219.66C155.58,-202.42 141.67,-163.9 133.14,-140.27"/>
<polygon fill="#63b8ff" stroke="#63b8ff" points="136.44,-139.1 129.75,-130.88 129.85,-141.48 136.44,-139.1"/>
</g>
<!-- Node13 -->
<g id="node13" class="node">
<title>Node13</title>
<g id="a_node13"><a xlink:href="renderable_8h.html" target="_top" xlink:title=" ">
<polygon fill="white" stroke="#666666" points="331,-129 261,-129 261,-110 331,-110 331,-129"/>
<text text-anchor="middle" x="296" y="-117" font-family="Helvetica,sans-Serif" font-size="10.00">renderable.h</text>
</a>
</g>
</g>
<!-- Node5&#45;&gt;Node13 -->
<g id="edge14" class="edge">
<title>Node5&#45;&gt;Node13</title>
<path fill="none" stroke="#63b8ff" d="M181.04,-219.55C195.48,-211.17 217,-197.89 234,-184 251.45,-169.74 269.2,-151.05 281.21,-137.64"/>
<polygon fill="#63b8ff" stroke="#63b8ff" points="283.55,-140.28 287.53,-130.46 278.29,-135.66 283.55,-140.28"/>
</g>
<!-- Node14 -->
<g id="node14" class="node">
<title>Node14</title>
<g id="a_node14"><a xlink:href="ui_8h.html" target="_top" xlink:title=" ">
<polygon fill="white" stroke="#666666" points="225,-184 193,-184 193,-165 225,-165 225,-184"/>
<text text-anchor="middle" x="209" y="-172" font-family="Helvetica,sans-Serif" font-size="10.00">ui.h</text>
</a>
</g>
</g>
<!-- Node5&#45;&gt;Node14 -->
<g id="edge15" class="edge">
<title>Node5&#45;&gt;Node14</title>
<path fill="none" stroke="#63b8ff" d="M172.27,-219.75C178.28,-212.5 187.01,-201.98 194.46,-193.02"/>
<polygon fill="#63b8ff" stroke="#63b8ff" points="196.92,-195.54 200.61,-185.61 191.53,-191.07 196.92,-195.54"/>
</g>
<!-- Node8 -->
<g id="node8" class="node">
<title>Node8</title>
<g id="a_node8"><a xlink:title=" ">
<polygon fill="#e0e0e0" stroke="#999999" points="304,-74 206,-74 206,-55 304,-55 304,-74"/>
<text text-anchor="middle" x="255" y="-62" font-family="Helvetica,sans-Serif" font-size="10.00">nlohmann/json.hpp</text>
</a>
</g>
</g>
<!-- Node7&#45;&gt;Node8 -->
<g id="edge7" class="edge">
<title>Node7&#45;&gt;Node8</title>
<path fill="none" stroke="#63b8ff" d="M147.88,-109.51C168.49,-101.04 199.59,-88.27 222.98,-78.66"/>
<polygon fill="#63b8ff" stroke="#63b8ff" points="224.12,-81.97 232.04,-74.93 221.46,-75.5 224.12,-81.97"/>
</g>
<!-- Node9 -->
<g id="node9" class="node">
<title>Node9</title>
<g id="a_node9"><a xlink:title=" ">
<polygon fill="#e0e0e0" stroke="#999999" points="84.5,-74 43.5,-74 43.5,-55 84.5,-55 84.5,-74"/>
<text text-anchor="middle" x="64" y="-62" font-family="Helvetica,sans-Serif" font-size="10.00">string</text>
</a>
</g>
</g>
<!-- Node7&#45;&gt;Node9 -->
<g id="edge8" class="edge">
<title>Node7&#45;&gt;Node9</title>
<path fill="none" stroke="#63b8ff" d="M115.48,-109.51C106.61,-101.93 93.69,-90.88 83.01,-81.75"/>
<polygon fill="#63b8ff" stroke="#63b8ff" points="85.39,-79.18 75.51,-75.34 80.84,-84.5 85.39,-79.18"/>
</g>
<!-- Node10 -->
<g id="node10" class="node">
<title>Node10</title>
<g id="a_node10"><a xlink:title=" ">
<polygon fill="#e0e0e0" stroke="#999999" points="199,-19 157,-19 157,0 199,0 199,-19"/>
<text text-anchor="middle" x="178" y="-7" font-family="Helvetica,sans-Serif" font-size="10.00">vector</text>
</a>
</g>
</g>
<!-- Node7&#45;&gt;Node10 -->
<g id="edge9" class="edge">
<title>Node7&#45;&gt;Node10</title>
<path fill="none" stroke="#63b8ff" d="M133.79,-109.51C140.92,-100.89 151.35,-87.27 158,-74 164.98,-60.06 170.16,-43.18 173.49,-30.33"/>
<polygon fill="#63b8ff" stroke="#63b8ff" points="176.82,-31.48 175.77,-20.94 170.01,-29.83 176.82,-31.48"/>
</g>
<!-- Node11 -->
<g id="node11" class="node">
<title>Node11</title>
<g id="a_node11"><a xlink:href="event_8h.html" target="_top" xlink:title=" ">
<polygon fill="white" stroke="#666666" points="149.5,-74 102.5,-74 102.5,-55 149.5,-55 149.5,-74"/>
<text text-anchor="middle" x="126" y="-62" font-family="Helvetica,sans-Serif" font-size="10.00">event.h</text>
</a>
</g>
</g>
<!-- Node7&#45;&gt;Node11 -->
<g id="edge10" class="edge">
<title>Node7&#45;&gt;Node11</title>
<path fill="none" stroke="#63b8ff" d="M126,-109.75C126,-103.27 126,-94.16 126,-85.9"/>
<polygon fill="#63b8ff" stroke="#63b8ff" points="129.5,-85.96 126,-75.96 122.5,-85.96 129.5,-85.96"/>
</g>
<!-- Node11&#45;&gt;Node2 -->
<g id="edge13" class="edge">
<title>Node11&#45;&gt;Node2</title>
<path fill="none" stroke="#63b8ff" d="M109.04,-54.51C93.64,-46.35 70.69,-34.19 52.81,-24.71"/>
<polygon fill="#63b8ff" stroke="#63b8ff" points="54.53,-21.66 44.05,-20.07 51.25,-27.84 54.53,-21.66"/>
</g>
<!-- Node11&#45;&gt;Node10 -->
<g id="edge12" class="edge">
<title>Node11&#45;&gt;Node10</title>
<path fill="none" stroke="#63b8ff" d="M134.59,-54.75C141.84,-47.35 152.45,-36.54 161.37,-27.45"/>
<polygon fill="#63b8ff" stroke="#63b8ff" points="163.66,-30.11 168.17,-20.52 158.66,-25.21 163.66,-30.11"/>
</g>
<!-- Node12 -->
<g id="node12" class="node">
<title>Node12</title>
<g id="a_node12"><a xlink:title=" ">
<polygon fill="#e0e0e0" stroke="#999999" points="139,-19 81,-19 81,0 139,0 139,-19"/>
<text text-anchor="middle" x="110" y="-7" font-family="Helvetica,sans-Serif" font-size="10.00">functional</text>
</a>
</g>
</g>
<!-- Node11&#45;&gt;Node12 -->
<g id="edge11" class="edge">
<title>Node11&#45;&gt;Node12</title>
<path fill="none" stroke="#63b8ff" d="M123.36,-54.75C121.36,-48.11 118.52,-38.73 115.98,-30.31"/>
<polygon fill="#63b8ff" stroke="#63b8ff" points="119.38,-29.45 113.14,-20.89 112.68,-31.48 119.38,-29.45"/>
</g>
<!-- Node14&#45;&gt;Node6 -->
<g id="edge16" class="edge">
<title>Node14&#45;&gt;Node6</title>
<path fill="none" stroke="#63b8ff" d="M209,-164.75C209,-158.27 209,-149.16 209,-140.9"/>
<polygon fill="#63b8ff" stroke="#63b8ff" points="212.5,-140.96 209,-130.96 205.5,-140.96 212.5,-140.96"/>
</g>
<!-- Node14&#45;&gt;Node7 -->
<g id="edge18" class="edge">
<title>Node14&#45;&gt;Node7</title>
<path fill="none" stroke="#63b8ff" d="M194.92,-164.51C182.44,-156.54 163.98,-144.75 149.31,-135.38"/>
<polygon fill="#63b8ff" stroke="#63b8ff" points="151.46,-132.6 141.15,-130.17 147.69,-138.5 151.46,-132.6"/>
</g>
<!-- Node14&#45;&gt;Node13 -->
<g id="edge17" class="edge">
<title>Node14&#45;&gt;Node13</title>
<path fill="none" stroke="#63b8ff" d="M223.76,-164.51C236.96,-156.47 256.56,-144.53 272.01,-135.11"/>
<polygon fill="#63b8ff" stroke="#63b8ff" points="273.45,-138.34 280.17,-130.15 269.81,-132.36 273.45,-138.34"/>
</g>
</g>
</svg>
