<?xml version="1.0" encoding="UTF-8" standalone="no"?>
<!DOCTYPE svg PUBLIC "-//W3C//DTD SVG 1.1//EN"
 "http://www.w3.org/Graphics/SVG/1.1/DTD/svg11.dtd">
<!-- Generated by graphviz version 7.1.0 (20230121.1956)
 -->
<!-- Title: src/uiframe.h Pages: 1 -->
<svg width="357pt" height="302pt"
 viewBox="0.00 0.00 357.00 302.00" xmlns="http://www.w3.org/2000/svg" xmlns:xlink="http://www.w3.org/1999/xlink">
<g id="graph0" class="graph" transform="scale(1 1) rotate(0) translate(4 298)">
<title>src/uiframe.h</title>
<!-- Node1 -->
<g id="node1" class="node">
<title>Node1</title>
<g id="a_node1"><a xlink:title=" ">
<polygon fill="#999999" stroke="#666666" points="209.5,-294 136.5,-294 136.5,-275 209.5,-275 209.5,-294"/>
<text text-anchor="middle" x="173" y="-282" font-family="Helvetica,sans-Serif" font-size="10.00">src/uiframe.h</text>
</a>
</g>
</g>
<!-- Node2 -->
<g id="node2" class="node">
<title>Node2</title>
<g id="a_node2"><a xlink:href="uiobject_8h.html" target="_top" xlink:title=" ">
<polygon fill="white" stroke="#666666" points="202.5,-239 143.5,-239 143.5,-220 202.5,-220 202.5,-239"/>
<text text-anchor="middle" x="173" y="-227" font-family="Helvetica,sans-Serif" font-size="10.00">uiobject.h</text>
</a>
</g>
</g>
<!-- Node1&#45;&gt;Node2 -->
<g id="edge1" class="edge">
<title>Node1&#45;&gt;Node2</title>
<path fill="none" stroke="#63b8ff" d="M173,-274.75C173,-268.27 173,-259.16 173,-250.9"/>
<polygon fill="#63b8ff" stroke="#63b8ff" points="176.5,-250.96 173,-240.96 169.5,-250.96 176.5,-250.96"/>
</g>
<!-- Node3 -->
<g id="node3" class="node">
<title>Node3</title>
<g id="a_node3"><a xlink:title=" ">
<polygon fill="#e0e0e0" stroke="#999999" points="112,-129 44,-129 44,-110 112,-110 112,-129"/>
<text text-anchor="middle" x="78" y="-117" font-family="Helvetica,sans-Serif" font-size="10.00">glm/ext.hpp</text>
</a>
</g>
</g>
<!-- Node2&#45;&gt;Node3 -->
<g id="edge2" class="edge">
<title>Node2&#45;&gt;Node3</title>
<path fill="none" stroke="#63b8ff" d="M162.82,-219.75C152.97,-211.08 137.84,-197.23 126,-184 113.06,-169.54 99.87,-151.83 90.6,-138.79"/>
<polygon fill="#63b8ff" stroke="#63b8ff" points="93.55,-136.91 84.95,-130.73 87.82,-140.93 93.55,-136.91"/>
</g>
<!-- Node4 -->
<g id="node4" class="node">
<title>Node4</title>
<g id="a_node4"><a xlink:href="instance_8h.html" target="_top" xlink:title=" ">
<polygon fill="white" stroke="#666666" points="192,-129 130,-129 130,-110 192,-110 192,-129"/>
<text text-anchor="middle" x="161" y="-117" font-family="Helvetica,sans-Serif" font-size="10.00">instance.h</text>
</a>
</g>
</g>
<!-- Node2&#45;&gt;Node4 -->
<g id="edge3" class="edge">
<title>Node2&#45;&gt;Node4</title>
<path fill="none" stroke="#63b8ff" d="M174.55,-219.81C176.49,-207.51 179.18,-184.39 176,-165 174.63,-156.66 171.91,-147.77 169.16,-140.15"/>
<polygon fill="#63b8ff" stroke="#63b8ff" points="172.44,-138.94 165.55,-130.89 165.92,-141.48 172.44,-138.94"/>
</g>
<!-- Node11 -->
<g id="node11" class="node">
<title>Node11</title>
<g id="a_node11"><a xlink:href="renderable_8h.html" target="_top" xlink:title=" ">
<polygon fill="white" stroke="#666666" points="280,-129 210,-129 210,-110 280,-110 280,-129"/>
<text text-anchor="middle" x="245" y="-117" font-family="Helvetica,sans-Serif" font-size="10.00">renderable.h</text>
</a>
</g>
</g>
<!-- Node2&#45;&gt;Node11 -->
<g id="edge11" class="edge">
<title>Node2&#45;&gt;Node11</title>
<path fill="none" stroke="#63b8ff" d="M178.89,-219.66C190.6,-202.1 217.01,-162.48 232.68,-138.98"/>
<polygon fill="#63b8ff" stroke="#63b8ff" points="235.55,-140.98 238.19,-130.72 229.73,-137.1 235.55,-140.98"/>
</g>
<!-- Node12 -->
<g id="node12" class="node">
<title>Node12</title>
<g id="a_node12"><a xlink:href="ui_8h.html" target="_top" xlink:title=" ">
<polygon fill="white" stroke="#666666" points="167,-184 135,-184 135,-165 167,-165 167,-184"/>
<text text-anchor="middle" x="151" y="-172" font-family="Helvetica,sans-Serif" font-size="10.00">ui.h</text>
</a>
</g>
</g>
<!-- Node2&#45;&gt;Node12 -->
<g id="edge12" class="edge">
<title>Node2&#45;&gt;Node12</title>
<path fill="none" stroke="#63b8ff" d="M169.37,-219.75C166.58,-213.04 162.63,-203.52 159.1,-195.02"/>
<polygon fill="#63b8ff" stroke="#63b8ff" points="162.36,-193.73 155.29,-185.84 155.89,-196.42 162.36,-193.73"/>
</g>
<!-- Node5 -->
<g id="node5" class="node">
<title>Node5</title>
<g id="a_node5"><a xlink:title=" ">
<polygon fill="#e0e0e0" stroke="#999999" points="98,-74 0,-74 0,-55 98,-55 98,-74"/>
<text text-anchor="middle" x="49" y="-62" font-family="Helvetica,sans-Serif" font-size="10.00">nlohmann/json.hpp</text>
</a>
</g>
</g>
<!-- Node4&#45;&gt;Node5 -->
<g id="edge4" class="edge">
<title>Node4&#45;&gt;Node5</title>
<path fill="none" stroke="#63b8ff" d="M142,-109.51C124.44,-101.2 98.08,-88.73 77.91,-79.18"/>
<polygon fill="#63b8ff" stroke="#63b8ff" points="79.62,-76.12 69.09,-75.01 76.63,-82.45 79.62,-76.12"/>
</g>
<!-- Node6 -->
<g id="node6" class="node">
<title>Node6</title>
<g id="a_node6"><a xlink:title=" ">
<polygon fill="#e0e0e0" stroke="#999999" points="157.5,-74 116.5,-74 116.5,-55 157.5,-55 157.5,-74"/>
<text text-anchor="middle" x="137" y="-62" font-family="Helvetica,sans-Serif" font-size="10.00">string</text>
</a>
</g>
</g>
<!-- Node4&#45;&gt;Node6 -->
<g id="edge5" class="edge">
<title>Node4&#45;&gt;Node6</title>
<path fill="none" stroke="#63b8ff" d="M157.04,-109.75C153.96,-102.96 149.59,-93.3 145.71,-84.73"/>
<polygon fill="#63b8ff" stroke="#63b8ff" points="148.99,-83.49 141.67,-75.82 142.61,-86.37 148.99,-83.49"/>
</g>
<!-- Node7 -->
<g id="node7" class="node">
<title>Node7</title>
<g id="a_node7"><a xlink:title=" ">
<polygon fill="#e0e0e0" stroke="#999999" points="203,-19 161,-19 161,0 203,0 203,-19"/>
<text text-anchor="middle" x="182" y="-7" font-family="Helvetica,sans-Serif" font-size="10.00">vector</text>
</a>
</g>
</g>
<!-- Node4&#45;&gt;Node7 -->
<g id="edge6" class="edge">
<title>Node4&#45;&gt;Node7</title>
<path fill="none" stroke="#63b8ff" d="M162.72,-109.66C166.06,-92.5 173.49,-54.26 178.09,-30.6"/>
<polygon fill="#63b8ff" stroke="#63b8ff" points="181.5,-31.43 179.97,-20.95 174.62,-30.09 181.5,-31.43"/>
</g>
<!-- Node8 -->
<g id="node8" class="node">
<title>Node8</title>
<g id="a_node8"><a xlink:href="event_8h.html" target="_top" xlink:title=" ">
<polygon fill="white" stroke="#666666" points="267.5,-74 220.5,-74 220.5,-55 267.5,-55 267.5,-74"/>
<text text-anchor="middle" x="244" y="-62" font-family="Helvetica,sans-Serif" font-size="10.00">event.h</text>
</a>
</g>
</g>
<!-- Node4&#45;&gt;Node8 -->
<g id="edge7" class="edge">
<title>Node4&#45;&gt;Node8</title>
<path fill="none" stroke="#63b8ff" d="M175.08,-109.51C187.56,-101.54 206.02,-89.75 220.69,-80.38"/>
<polygon fill="#63b8ff" stroke="#63b8ff" points="222.31,-83.5 228.85,-75.17 218.54,-77.6 222.31,-83.5"/>
</g>
<!-- Node8&#45;&gt;Node7 -->
<g id="edge9" class="edge">
<title>Node8&#45;&gt;Node7</title>
<path fill="none" stroke="#63b8ff" d="M233.48,-54.51C224.61,-46.93 211.69,-35.88 201.01,-26.75"/>
<polygon fill="#63b8ff" stroke="#63b8ff" points="203.39,-24.18 193.51,-20.34 198.84,-29.5 203.39,-24.18"/>
</g>
<!-- Node9 -->
<g id="node9" class="node">
<title>Node9</title>
<g id="a_node9"><a xlink:title=" ">
<polygon fill="#e0e0e0" stroke="#999999" points="349,-19 291,-19 291,0 349,0 349,-19"/>
<text text-anchor="middle" x="320" y="-7" font-family="Helvetica,sans-Serif" font-size="10.00">functional</text>
</a>
</g>
</g>
<!-- Node8&#45;&gt;Node9 -->
<g id="edge8" class="edge">
<title>Node8&#45;&gt;Node9</title>
<path fill="none" stroke="#63b8ff" d="M256.89,-54.51C268.1,-46.7 284.57,-35.21 297.88,-25.93"/>
<polygon fill="#63b8ff" stroke="#63b8ff" points="299.86,-28.81 306.06,-20.22 295.85,-23.07 299.86,-28.81"/>
</g>
<!-- Node10 -->
<g id="node10" class="node">
<title>Node10</title>
<g id="a_node10"><a xlink:title=" ">
<polygon fill="#e0e0e0" stroke="#999999" points="273,-19 221,-19 221,0 273,0 273,-19"/>
<text text-anchor="middle" x="247" y="-7" font-family="Helvetica,sans-Serif" font-size="10.00">memory</text>
</a>
</g>
</g>
<!-- Node8&#45;&gt;Node10 -->
<g id="edge10" class="edge">
<title>Node8&#45;&gt;Node10</title>
<path fill="none" stroke="#63b8ff" d="M244.5,-54.75C244.86,-48.27 245.38,-39.16 245.85,-30.9"/>
<polygon fill="#63b8ff" stroke="#63b8ff" points="249.34,-31.13 246.41,-20.95 242.35,-30.74 249.34,-31.13"/>
</g>
<!-- Node12&#45;&gt;Node3 -->
<g id="edge13" class="edge">
<title>Node12&#45;&gt;Node3</title>
<path fill="none" stroke="#63b8ff" d="M138.62,-164.51C127.85,-156.7 112.03,-145.21 99.25,-135.93"/>
<polygon fill="#63b8ff" stroke="#63b8ff" points="101.57,-133.29 91.43,-130.25 97.46,-138.95 101.57,-133.29"/>
</g>
<!-- Node12&#45;&gt;Node4 -->
<g id="edge15" class="edge">
<title>Node12&#45;&gt;Node4</title>
<path fill="none" stroke="#63b8ff" d="M152.65,-164.75C153.89,-158.19 155.63,-148.95 157.21,-140.6"/>
<polygon fill="#63b8ff" stroke="#63b8ff" points="160.62,-141.4 159.03,-130.93 153.74,-140.11 160.62,-141.4"/>
</g>
<!-- Node12&#45;&gt;Node11 -->
<g id="edge14" class="edge">
<title>Node12&#45;&gt;Node11</title>
<path fill="none" stroke="#63b8ff" d="M166.95,-164.51C181.35,-156.39 202.79,-144.3 219.56,-134.85"/>
<polygon fill="#63b8ff" stroke="#63b8ff" points="220.98,-138.06 227.97,-130.1 217.54,-131.96 220.98,-138.06"/>
</g>
</g>
</svg>
