<?xml version="1.0" encoding="UTF-8" standalone="no"?>
<!DOCTYPE svg PUBLIC "-//W3C//DTD SVG 1.1//EN"
 "http://www.w3.org/Graphics/SVG/1.1/DTD/svg11.dtd">
<!-- Generated by graphviz version 7.1.0 (20230121.1956)
 -->
<!-- Title: src/uiobject.cpp Pages: 1 -->
<svg width="622pt" height="302pt"
 viewBox="0.00 0.00 622.00 302.00" xmlns="http://www.w3.org/2000/svg" xmlns:xlink="http://www.w3.org/1999/xlink">
<g id="graph0" class="graph" transform="scale(1 1) rotate(0) translate(4 298)">
<title>src/uiobject.cpp</title>
<!-- Node1 -->
<g id="node1" class="node">
<title>Node1</title>
<g id="a_node1"><a xlink:title=" ">
<polygon fill="#999999" stroke="#666666" points="339,-294 253,-294 253,-275 339,-275 339,-294"/>
<text text-anchor="middle" x="296" y="-282" font-family="Helvetica,sans-Serif" font-size="10.00">src/uiobject.cpp</text>
</a>
</g>
</g>
<!-- Node2 -->
<g id="node2" class="node">
<title>Node2</title>
<g id="a_node2"><a xlink:title=" ">
<polygon fill="#e0e0e0" stroke="#999999" points="54,-239 0,-239 0,-220 54,-220 54,-239"/>
<text text-anchor="middle" x="27" y="-227" font-family="Helvetica,sans-Serif" font-size="10.00">iostream</text>
</a>
</g>
</g>
<!-- Node1&#45;&gt;Node2 -->
<g id="edge1" class="edge">
<title>Node1&#45;&gt;Node2</title>
<path fill="none" stroke="#63b8ff" d="M252.69,-275.2C206.8,-266.37 132.25,-251.93 68,-239 67.17,-238.83 66.33,-238.66 65.49,-238.49"/>
<polygon fill="#63b8ff" stroke="#63b8ff" points="66.32,-235.09 55.82,-236.52 64.92,-241.95 66.32,-235.09"/>
</g>
<!-- Node3 -->
<g id="node3" class="node">
<title>Node3</title>
<g id="a_node3"><a xlink:title=" ">
<polygon fill="#e0e0e0" stroke="#999999" points="160,-19 108,-19 108,0 160,0 160,-19"/>
<text text-anchor="middle" x="134" y="-7" font-family="Helvetica,sans-Serif" font-size="10.00">memory</text>
</a>
</g>
</g>
<!-- Node1&#45;&gt;Node3 -->
<g id="edge2" class="edge">
<title>Node1&#45;&gt;Node3</title>
<path fill="none" stroke="#63b8ff" d="M252.69,-280.63C190.16,-273.87 82,-251.24 82,-175.5 82,-175.5 82,-175.5 82,-118.5 82,-83.96 103.85,-48.82 119.23,-28.37"/>
<polygon fill="#63b8ff" stroke="#63b8ff" points="121.96,-30.55 125.39,-20.52 116.46,-26.22 121.96,-30.55"/>
</g>
<!-- Node4 -->
<g id="node4" class="node">
<title>Node4</title>
<g id="a_node4"><a xlink:title=" ">
<polygon fill="#e0e0e0" stroke="#999999" points="378.5,-74 337.5,-74 337.5,-55 378.5,-55 378.5,-74"/>
<text text-anchor="middle" x="358" y="-62" font-family="Helvetica,sans-Serif" font-size="10.00">string</text>
</a>
</g>
</g>
<!-- Node1&#45;&gt;Node4 -->
<g id="edge3" class="edge">
<title>Node1&#45;&gt;Node4</title>
<path fill="none" stroke="#63b8ff" d="M304.2,-274.7C311.63,-266.22 322.26,-252.69 328,-239 350.03,-186.49 355.89,-118.54 357.44,-85.42"/>
<polygon fill="#63b8ff" stroke="#63b8ff" points="360.93,-85.82 357.8,-75.7 353.93,-85.56 360.93,-85.82"/>
</g>
<!-- Node5 -->
<g id="node5" class="node">
<title>Node5</title>
<g id="a_node5"><a xlink:title=" ">
<polygon fill="#e0e0e0" stroke="#999999" points="446,-129 386,-129 386,-110 446,-110 446,-129"/>
<text text-anchor="middle" x="416" y="-117" font-family="Helvetica,sans-Serif" font-size="10.00">GL/glew.h</text>
</a>
</g>
</g>
<!-- Node1&#45;&gt;Node5 -->
<g id="edge4" class="edge">
<title>Node1&#45;&gt;Node5</title>
<path fill="none" stroke="#63b8ff" d="M321.61,-274.54C355.32,-261.07 412.47,-231.93 431,-184 436.62,-169.45 431.86,-152.19 426.26,-139.34"/>
<polygon fill="#63b8ff" stroke="#63b8ff" points="429.57,-138.15 422.02,-130.71 423.29,-141.23 429.57,-138.15"/>
</g>
<!-- Node6 -->
<g id="node6" class="node">
<title>Node6</title>
<g id="a_node6"><a xlink:title=" ">
<polygon fill="#e0e0e0" stroke="#999999" points="330,-129 262,-129 262,-110 330,-110 330,-129"/>
<text text-anchor="middle" x="296" y="-117" font-family="Helvetica,sans-Serif" font-size="10.00">glm/ext.hpp</text>
</a>
</g>
</g>
<!-- Node1&#45;&gt;Node6 -->
<g id="edge5" class="edge">
<title>Node1&#45;&gt;Node6</title>
<path fill="none" stroke="#63b8ff" d="M286.95,-274.58C279.16,-266.22 268.49,-252.95 264,-239 252.72,-203.98 271.21,-162.3 284.45,-138.87"/>
<polygon fill="#63b8ff" stroke="#63b8ff" points="287.31,-140.89 289.43,-130.51 281.3,-137.31 287.31,-140.89"/>
</g>
<!-- Node7 -->
<g id="node7" class="node">
<title>Node7</title>
<g id="a_node7"><a xlink:href="uiobject_8h.html" target="_top" xlink:title=" ">
<polygon fill="white" stroke="#666666" points="575.5,-239 516.5,-239 516.5,-220 575.5,-220 575.5,-239"/>
<text text-anchor="middle" x="546" y="-227" font-family="Helvetica,sans-Serif" font-size="10.00">uiobject.h</text>
</a>
</g>
</g>
<!-- Node1&#45;&gt;Node7 -->
<g id="edge6" class="edge">
<title>Node1&#45;&gt;Node7</title>
<path fill="none" stroke="#63b8ff" d="M338.41,-274.51C385.03,-264.63 459.39,-248.86 505.31,-239.13"/>
<polygon fill="#63b8ff" stroke="#63b8ff" points="505.8,-242.6 514.86,-237.1 504.35,-235.75 505.8,-242.6"/>
</g>
<!-- Node15 -->
<g id="node15" class="node">
<title>Node15</title>
<g id="a_node15"><a xlink:href="shader_8h.html" target="_top" xlink:title=" ">
<polygon fill="white" stroke="#666666" points="422,-184 368,-184 368,-165 422,-165 422,-184"/>
<text text-anchor="middle" x="395" y="-172" font-family="Helvetica,sans-Serif" font-size="10.00">shader.h</text>
</a>
</g>
</g>
<!-- Node1&#45;&gt;Node15 -->
<g id="edge21" class="edge">
<title>Node1&#45;&gt;Node15</title>
<path fill="none" stroke="#63b8ff" d="M313.44,-274.63C327.61,-266.76 347.4,-254.17 361,-239 372.75,-225.89 381.86,-208 387.68,-194.55"/>
<polygon fill="#63b8ff" stroke="#63b8ff" points="390.83,-196.09 391.36,-185.5 384.35,-193.45 390.83,-196.09"/>
</g>
<!-- Node16 -->
<g id="node16" class="node">
<title>Node16</title>
<g id="a_node16"><a xlink:href="core_8h.html" target="_top" xlink:title=" ">
<polygon fill="white" stroke="#666666" points="218,-184 174,-184 174,-165 218,-165 218,-184"/>
<text text-anchor="middle" x="196" y="-172" font-family="Helvetica,sans-Serif" font-size="10.00">core.h</text>
</a>
</g>
</g>
<!-- Node1&#45;&gt;Node16 -->
<g id="edge23" class="edge">
<title>Node1&#45;&gt;Node16</title>
<path fill="none" stroke="#63b8ff" d="M278.6,-274.58C264.47,-266.69 244.7,-254.09 231,-239 219.09,-225.88 209.7,-207.99 203.65,-194.54"/>
<polygon fill="#63b8ff" stroke="#63b8ff" points="206.94,-193.33 199.81,-185.49 200.5,-196.06 206.94,-193.33"/>
</g>
<!-- Node17 -->
<g id="node17" class="node">
<title>Node17</title>
<g id="a_node17"><a xlink:href="quad_8h.html" target="_top" xlink:title=" ">
<polygon fill="white" stroke="#666666" points="319,-239 273,-239 273,-220 319,-220 319,-239"/>
<text text-anchor="middle" x="296" y="-227" font-family="Helvetica,sans-Serif" font-size="10.00">quad.h</text>
</a>
</g>
</g>
<!-- Node1&#45;&gt;Node17 -->
<g id="edge28" class="edge">
<title>Node1&#45;&gt;Node17</title>
<path fill="none" stroke="#63b8ff" d="M296,-274.75C296,-268.27 296,-259.16 296,-250.9"/>
<polygon fill="#63b8ff" stroke="#63b8ff" points="299.5,-250.96 296,-240.96 292.5,-250.96 299.5,-250.96"/>
</g>
<!-- Node7&#45;&gt;Node6 -->
<g id="edge7" class="edge">
<title>Node7&#45;&gt;Node6</title>
<path fill="none" stroke="#63b8ff" d="M531.91,-219.59C510.66,-206.42 468.83,-181.51 431,-165 401.31,-152.05 366.58,-140.68 339.78,-132.67"/>
<polygon fill="#63b8ff" stroke="#63b8ff" points="340.85,-129.34 330.27,-129.88 338.88,-136.06 340.85,-129.34"/>
</g>
<!-- Node8 -->
<g id="node8" class="node">
<title>Node8</title>
<g id="a_node8"><a xlink:href="instance_8h.html" target="_top" xlink:title=" ">
<polygon fill="white" stroke="#666666" points="614,-129 552,-129 552,-110 614,-110 614,-129"/>
<text text-anchor="middle" x="583" y="-117" font-family="Helvetica,sans-Serif" font-size="10.00">instance.h</text>
</a>
</g>
</g>
<!-- Node7&#45;&gt;Node8 -->
<g id="edge8" class="edge">
<title>Node7&#45;&gt;Node8</title>
<path fill="none" stroke="#63b8ff" d="M561.13,-219.73C572.81,-211.99 588.12,-199.55 595,-184 601.26,-169.86 597.3,-152.54 592.31,-139.57"/>
<polygon fill="#63b8ff" stroke="#63b8ff" points="595.54,-138.22 588.32,-130.47 589.13,-141.03 595.54,-138.22"/>
</g>
<!-- Node13 -->
<g id="node13" class="node">
<title>Node13</title>
<g id="a_node13"><a xlink:href="renderable_8h.html" target="_top" xlink:title=" ">
<polygon fill="white" stroke="#666666" points="534,-129 464,-129 464,-110 534,-110 534,-129"/>
<text text-anchor="middle" x="499" y="-117" font-family="Helvetica,sans-Serif" font-size="10.00">renderable.h</text>
</a>
</g>
</g>
<!-- Node7&#45;&gt;Node13 -->
<g id="edge16" class="edge">
<title>Node7&#45;&gt;Node13</title>
<path fill="none" stroke="#63b8ff" d="M542.15,-219.66C534.61,-202.34 517.73,-163.55 507.46,-139.95"/>
<polygon fill="#63b8ff" stroke="#63b8ff" points="510.7,-138.62 503.5,-130.85 504.28,-141.41 510.7,-138.62"/>
</g>
<!-- Node14 -->
<g id="node14" class="node">
<title>Node14</title>
<g id="a_node14"><a xlink:href="ui_8h.html" target="_top" xlink:title=" ">
<polygon fill="white" stroke="#666666" points="586,-184 554,-184 554,-165 586,-165 586,-184"/>
<text text-anchor="middle" x="570" y="-172" font-family="Helvetica,sans-Serif" font-size="10.00">ui.h</text>
</a>
</g>
</g>
<!-- Node7&#45;&gt;Node14 -->
<g id="edge17" class="edge">
<title>Node7&#45;&gt;Node14</title>
<path fill="none" stroke="#63b8ff" d="M549.96,-219.75C553.04,-212.96 557.41,-203.3 561.29,-194.73"/>
<polygon fill="#63b8ff" stroke="#63b8ff" points="564.39,-196.37 565.33,-185.82 558.01,-193.49 564.39,-196.37"/>
</g>
<!-- Node8&#45;&gt;Node4 -->
<g id="edge10" class="edge">
<title>Node8&#45;&gt;Node4</title>
<path fill="none" stroke="#63b8ff" d="M551.71,-111.13C509.02,-101.07 432.91,-83.15 389.9,-73.01"/>
<polygon fill="#63b8ff" stroke="#63b8ff" points="390.96,-69.67 380.43,-70.78 389.36,-76.48 390.96,-69.67"/>
</g>
<!-- Node9 -->
<g id="node9" class="node">
<title>Node9</title>
<g id="a_node9"><a xlink:title=" ">
<polygon fill="#e0e0e0" stroke="#999999" points="555,-74 457,-74 457,-55 555,-55 555,-74"/>
<text text-anchor="middle" x="506" y="-62" font-family="Helvetica,sans-Serif" font-size="10.00">nlohmann/json.hpp</text>
</a>
</g>
</g>
<!-- Node8&#45;&gt;Node9 -->
<g id="edge9" class="edge">
<title>Node8&#45;&gt;Node9</title>
<path fill="none" stroke="#63b8ff" d="M569.94,-109.51C558.48,-101.62 541.57,-89.98 528.02,-80.65"/>
<polygon fill="#63b8ff" stroke="#63b8ff" points="530.34,-78 520.12,-75.22 526.37,-83.77 530.34,-78"/>
</g>
<!-- Node10 -->
<g id="node10" class="node">
<title>Node10</title>
<g id="a_node10"><a xlink:title=" ">
<polygon fill="#e0e0e0" stroke="#999999" points="456,-19 414,-19 414,0 456,0 456,-19"/>
<text text-anchor="middle" x="435" y="-7" font-family="Helvetica,sans-Serif" font-size="10.00">vector</text>
</a>
</g>
</g>
<!-- Node8&#45;&gt;Node10 -->
<g id="edge11" class="edge">
<title>Node8&#45;&gt;Node10</title>
<path fill="none" stroke="#63b8ff" d="M582.82,-109.88C582.06,-96.4 578.66,-70.28 564,-55 538.63,-28.56 496.82,-17.82 467.7,-13.47"/>
<polygon fill="#63b8ff" stroke="#63b8ff" points="468.33,-10.02 457.96,-12.2 467.43,-16.96 468.33,-10.02"/>
</g>
<!-- Node11 -->
<g id="node11" class="node">
<title>Node11</title>
<g id="a_node11"><a xlink:href="event_8h.html" target="_top" xlink:title=" ">
<polygon fill="white" stroke="#666666" points="243.5,-74 196.5,-74 196.5,-55 243.5,-55 243.5,-74"/>
<text text-anchor="middle" x="220" y="-62" font-family="Helvetica,sans-Serif" font-size="10.00">event.h</text>
</a>
</g>
</g>
<!-- Node8&#45;&gt;Node11 -->
<g id="edge12" class="edge">
<title>Node8&#45;&gt;Node11</title>
<path fill="none" stroke="#63b8ff" d="M551.6,-111.6C548.7,-111.03 545.8,-110.49 543,-110 438.93,-91.8 314.92,-76.48 255.36,-69.52"/>
<polygon fill="#63b8ff" stroke="#63b8ff" points="255.84,-66.05 245.5,-68.38 255.03,-73.01 255.84,-66.05"/>
</g>
<!-- Node11&#45;&gt;Node3 -->
<g id="edge15" class="edge">
<title>Node11&#45;&gt;Node3</title>
<path fill="none" stroke="#63b8ff" d="M205.41,-54.51C192.48,-46.54 173.36,-34.75 158.15,-25.38"/>
<polygon fill="#63b8ff" stroke="#63b8ff" points="160.01,-22.42 149.66,-20.15 156.34,-28.38 160.01,-22.42"/>
</g>
<!-- Node11&#45;&gt;Node10 -->
<g id="edge14" class="edge">
<title>Node11&#45;&gt;Node10</title>
<path fill="none" stroke="#63b8ff" d="M243.83,-57.63C282.49,-48.1 358.92,-29.25 402.52,-18.51"/>
<polygon fill="#63b8ff" stroke="#63b8ff" points="403.29,-21.92 412.16,-16.13 401.62,-15.12 403.29,-21.92"/>
</g>
<!-- Node12 -->
<g id="node12" class="node">
<title>Node12</title>
<g id="a_node12"><a xlink:title=" ">
<polygon fill="#e0e0e0" stroke="#999999" points="249,-19 191,-19 191,0 249,0 249,-19"/>
<text text-anchor="middle" x="220" y="-7" font-family="Helvetica,sans-Serif" font-size="10.00">functional</text>
</a>
</g>
</g>
<!-- Node11&#45;&gt;Node12 -->
<g id="edge13" class="edge">
<title>Node11&#45;&gt;Node12</title>
<path fill="none" stroke="#63b8ff" d="M220,-54.75C220,-48.27 220,-39.16 220,-30.9"/>
<polygon fill="#63b8ff" stroke="#63b8ff" points="223.5,-30.96 220,-20.96 216.5,-30.96 223.5,-30.96"/>
</g>
<!-- Node14&#45;&gt;Node6 -->
<g id="edge18" class="edge">
<title>Node14&#45;&gt;Node6</title>
<path fill="none" stroke="#63b8ff" d="M553.68,-170.34C512.57,-162.39 403.63,-141.32 341.35,-129.27"/>
<polygon fill="#63b8ff" stroke="#63b8ff" points="342.26,-125.88 331.78,-127.42 340.93,-132.76 342.26,-125.88"/>
</g>
<!-- Node14&#45;&gt;Node8 -->
<g id="edge20" class="edge">
<title>Node14&#45;&gt;Node8</title>
<path fill="none" stroke="#63b8ff" d="M572.15,-164.75C573.76,-158.19 576.02,-148.95 578.07,-140.6"/>
<polygon fill="#63b8ff" stroke="#63b8ff" points="581.46,-141.46 580.45,-130.91 574.66,-139.79 581.46,-141.46"/>
</g>
<!-- Node14&#45;&gt;Node13 -->
<g id="edge19" class="edge">
<title>Node14&#45;&gt;Node13</title>
<path fill="none" stroke="#63b8ff" d="M557.96,-164.51C547.59,-156.77 532.4,-145.43 520.03,-136.2"/>
<polygon fill="#63b8ff" stroke="#63b8ff" points="522.19,-133.44 512.08,-130.26 518,-139.05 522.19,-133.44"/>
</g>
<!-- Node15&#45;&gt;Node5 -->
<g id="edge22" class="edge">
<title>Node15&#45;&gt;Node5</title>
<path fill="none" stroke="#63b8ff" d="M398.47,-164.75C401.13,-158.04 404.9,-148.52 408.26,-140.02"/>
<polygon fill="#63b8ff" stroke="#63b8ff" points="411.47,-141.44 411.9,-130.85 404.96,-138.86 411.47,-141.44"/>
</g>
<!-- Node16&#45;&gt;Node3 -->
<g id="edge24" class="edge">
<title>Node16&#45;&gt;Node3</title>
<path fill="none" stroke="#63b8ff" d="M192.67,-164.74C182.99,-139.31 154.76,-65.08 141.3,-29.69"/>
<polygon fill="#63b8ff" stroke="#63b8ff" points="144.71,-28.82 137.89,-20.72 138.17,-31.31 144.71,-28.82"/>
</g>
<!-- Node16&#45;&gt;Node4 -->
<g id="edge25" class="edge">
<title>Node16&#45;&gt;Node4</title>
<path fill="none" stroke="#63b8ff" d="M202.03,-164.58C211.5,-151.15 231.06,-125.67 253,-110 275.5,-93.93 304.7,-82.15 326.59,-74.76"/>
<polygon fill="#63b8ff" stroke="#63b8ff" points="327.43,-78.17 335.86,-71.77 325.27,-71.51 327.43,-78.17"/>
</g>
<!-- Node16&#45;&gt;Node6 -->
<g id="edge26" class="edge">
<title>Node16&#45;&gt;Node6</title>
<path fill="none" stroke="#63b8ff" d="M212.96,-164.51C228.36,-156.35 251.31,-144.19 269.19,-134.71"/>
<polygon fill="#63b8ff" stroke="#63b8ff" points="270.75,-137.84 277.95,-130.07 267.47,-131.66 270.75,-137.84"/>
</g>
<!-- Node16&#45;&gt;Node11 -->
<g id="edge27" class="edge">
<title>Node16&#45;&gt;Node11</title>
<path fill="none" stroke="#63b8ff" d="M197.96,-164.66C201.78,-147.5 210.28,-109.26 215.53,-85.6"/>
<polygon fill="#63b8ff" stroke="#63b8ff" points="218.93,-86.46 217.68,-75.94 212.09,-84.94 218.93,-86.46"/>
</g>
<!-- Node17&#45;&gt;Node3 -->
<g id="edge30" class="edge">
<title>Node17&#45;&gt;Node3</title>
<path fill="none" stroke="#63b8ff" d="M272.67,-227.48C242.97,-224.86 192.24,-215.69 165,-184 127.16,-139.98 128.38,-65.93 131.55,-30.53"/>
<polygon fill="#63b8ff" stroke="#63b8ff" points="135,-31.18 132.57,-20.86 128.04,-30.44 135,-31.18"/>
</g>
<!-- Node17&#45;&gt;Node6 -->
<g id="edge29" class="edge">
<title>Node17&#45;&gt;Node6</title>
<path fill="none" stroke="#63b8ff" d="M296,-219.66C296,-202.57 296,-164.61 296,-140.92"/>
<polygon fill="#63b8ff" stroke="#63b8ff" points="299.5,-140.97 296,-130.97 292.5,-140.97 299.5,-140.97"/>
</g>
<!-- Node17&#45;&gt;Node15 -->
<g id="edge31" class="edge">
<title>Node17&#45;&gt;Node15</title>
<path fill="none" stroke="#63b8ff" d="M312.79,-219.51C328.1,-211.31 350.97,-199.07 368.7,-189.58"/>
<polygon fill="#63b8ff" stroke="#63b8ff" points="369.96,-192.88 377.12,-185.07 366.65,-186.71 369.96,-192.88"/>
</g>
</g>
</svg>
