<?xml version="1.0" encoding="UTF-8" standalone="no"?>
<!DOCTYPE svg PUBLIC "-//W3C//DTD SVG 1.1//EN"
 "http://www.w3.org/Graphics/SVG/1.1/DTD/svg11.dtd">
<!-- Generated by graphviz version 7.1.0 (20230121.1956)
 -->
<!-- Title: src/uitext.cpp Pages: 1 -->
<svg width="787pt" height="357pt"
 viewBox="0.00 0.00 787.00 357.00" xmlns="http://www.w3.org/2000/svg" xmlns:xlink="http://www.w3.org/1999/xlink">
<g id="graph0" class="graph" transform="scale(1 1) rotate(0) translate(4 353)">
<title>src/uitext.cpp</title>
<!-- Node1 -->
<g id="node1" class="node">
<title>Node1</title>
<g id="a_node1"><a xlink:title=" ">
<polygon fill="#999999" stroke="#666666" points="646,-349 570,-349 570,-330 646,-330 646,-349"/>
<text text-anchor="middle" x="608" y="-337" font-family="Helvetica,sans-Serif" font-size="10.00">src/uitext.cpp</text>
</a>
</g>
</g>
<!-- Node2 -->
<g id="node2" class="node">
<title>Node2</title>
<g id="a_node2"><a xlink:href="uitext_8h.html" target="_top" xlink:title=" ">
<polygon fill="white" stroke="#666666" points="306.5,-294 257.5,-294 257.5,-275 306.5,-275 306.5,-294"/>
<text text-anchor="middle" x="282" y="-282" font-family="Helvetica,sans-Serif" font-size="10.00">uitext.h</text>
</a>
</g>
</g>
<!-- Node1&#45;&gt;Node2 -->
<g id="edge1" class="edge">
<title>Node1&#45;&gt;Node2</title>
<path fill="none" stroke="#63b8ff" d="M569.65,-332.26C506.08,-321.93 379.79,-301.4 317.89,-291.33"/>
<polygon fill="#63b8ff" stroke="#63b8ff" points="318.68,-287.92 308.25,-289.77 317.56,-294.83 318.68,-287.92"/>
</g>
<!-- Node7 -->
<g id="node7" class="node">
<title>Node7</title>
<g id="a_node7"><a xlink:title=" ">
<polygon fill="#e0e0e0" stroke="#999999" points="515.5,-74 474.5,-74 474.5,-55 515.5,-55 515.5,-74"/>
<text text-anchor="middle" x="495" y="-62" font-family="Helvetica,sans-Serif" font-size="10.00">string</text>
</a>
</g>
</g>
<!-- Node1&#45;&gt;Node7 -->
<g id="edge27" class="edge">
<title>Node1&#45;&gt;Node7</title>
<path fill="none" stroke="#63b8ff" d="M605.36,-329.63C600.14,-311.3 589,-267.81 589,-230.5 589,-230.5 589,-230.5 589,-173.5 589,-131.88 548.79,-98.5 520.97,-80.39"/>
<polygon fill="#63b8ff" stroke="#63b8ff" points="523,-77.53 512.66,-75.22 519.3,-83.48 523,-77.53"/>
</g>
<!-- Node11 -->
<g id="node11" class="node">
<title>Node11</title>
<g id="a_node11"><a xlink:title=" ">
<polygon fill="#e0e0e0" stroke="#999999" points="295,-19 243,-19 243,0 295,0 295,-19"/>
<text text-anchor="middle" x="269" y="-7" font-family="Helvetica,sans-Serif" font-size="10.00">memory</text>
</a>
</g>
</g>
<!-- Node1&#45;&gt;Node11 -->
<g id="edge25" class="edge">
<title>Node1&#45;&gt;Node11</title>
<path fill="none" stroke="#63b8ff" d="M610.64,-329.63C615.86,-311.3 627,-267.81 627,-230.5 627,-230.5 627,-230.5 627,-118.5 627,-52.11 398.47,-22.86 306.59,-13.79"/>
<polygon fill="#63b8ff" stroke="#63b8ff" points="307.12,-10.32 296.83,-12.86 306.45,-17.29 307.12,-10.32"/>
</g>
<!-- Node18 -->
<g id="node18" class="node">
<title>Node18</title>
<g id="a_node18"><a xlink:title=" ">
<polygon fill="#e0e0e0" stroke="#999999" points="709,-294 655,-294 655,-275 709,-275 709,-294"/>
<text text-anchor="middle" x="682" y="-282" font-family="Helvetica,sans-Serif" font-size="10.00">iostream</text>
</a>
</g>
</g>
<!-- Node1&#45;&gt;Node18 -->
<g id="edge26" class="edge">
<title>Node1&#45;&gt;Node18</title>
<path fill="none" stroke="#63b8ff" d="M620.55,-329.51C631.46,-321.7 647.5,-310.21 660.46,-300.93"/>
<polygon fill="#63b8ff" stroke="#63b8ff" points="662.31,-303.91 668.4,-295.24 658.23,-298.22 662.31,-303.91"/>
</g>
<!-- Node19 -->
<g id="node19" class="node">
<title>Node19</title>
<g id="a_node19"><a xlink:title=" ">
<polygon fill="#e0e0e0" stroke="#999999" points="779,-294 727,-294 727,-275 779,-275 779,-294"/>
<text text-anchor="middle" x="753" y="-282" font-family="Helvetica,sans-Serif" font-size="10.00">sstream</text>
</a>
</g>
</g>
<!-- Node1&#45;&gt;Node19 -->
<g id="edge28" class="edge">
<title>Node1&#45;&gt;Node19</title>
<path fill="none" stroke="#63b8ff" d="M632.6,-329.51C656.07,-320.93 691.67,-307.92 718.07,-298.27"/>
<polygon fill="#63b8ff" stroke="#63b8ff" points="719.15,-301.6 727.34,-294.88 716.75,-295.02 719.15,-301.6"/>
</g>
<!-- Node20 -->
<g id="node20" class="node">
<title>Node20</title>
<g id="a_node20"><a xlink:href="text_8h.html" target="_top" xlink:title=" ">
<polygon fill="white" stroke="#666666" points="515.5,-239 474.5,-239 474.5,-220 515.5,-220 515.5,-239"/>
<text text-anchor="middle" x="495" y="-227" font-family="Helvetica,sans-Serif" font-size="10.00">text.h</text>
</a>
</g>
</g>
<!-- Node1&#45;&gt;Node20 -->
<g id="edge29" class="edge">
<title>Node1&#45;&gt;Node20</title>
<path fill="none" stroke="#63b8ff" d="M598.75,-329.66C579.88,-311.62 536.67,-270.32 512.38,-247.12"/>
<polygon fill="#63b8ff" stroke="#63b8ff" points="515.12,-244.89 505.47,-240.51 510.28,-249.95 515.12,-244.89"/>
</g>
<!-- Node3 -->
<g id="node3" class="node">
<title>Node3</title>
<g id="a_node3"><a xlink:title=" ">
<polygon fill="#e0e0e0" stroke="#999999" points="241,-129 173,-129 173,-110 241,-110 241,-129"/>
<text text-anchor="middle" x="207" y="-117" font-family="Helvetica,sans-Serif" font-size="10.00">glm/ext.hpp</text>
</a>
</g>
</g>
<!-- Node2&#45;&gt;Node3 -->
<g id="edge2" class="edge">
<title>Node2&#45;&gt;Node3</title>
<path fill="none" stroke="#63b8ff" d="M277.97,-274.74C266.27,-249.31 232.11,-175.08 215.83,-139.69"/>
<polygon fill="#63b8ff" stroke="#63b8ff" points="219.04,-138.3 211.68,-130.68 212.69,-141.23 219.04,-138.3"/>
</g>
<!-- Node4 -->
<g id="node4" class="node">
<title>Node4</title>
<g id="a_node4"><a xlink:href="uiobject_8h.html" target="_top" xlink:title=" ">
<polygon fill="white" stroke="#666666" points="197.5,-239 138.5,-239 138.5,-220 197.5,-220 197.5,-239"/>
<text text-anchor="middle" x="168" y="-227" font-family="Helvetica,sans-Serif" font-size="10.00">uiobject.h</text>
</a>
</g>
</g>
<!-- Node2&#45;&gt;Node4 -->
<g id="edge3" class="edge">
<title>Node2&#45;&gt;Node4</title>
<path fill="none" stroke="#63b8ff" d="M262.66,-274.51C244.78,-266.2 217.96,-253.73 197.43,-244.18"/>
<polygon fill="#63b8ff" stroke="#63b8ff" points="198.97,-241.04 188.43,-240 196.02,-247.39 198.97,-241.04"/>
</g>
<!-- Node14 -->
<g id="node14" class="node">
<title>Node14</title>
<g id="a_node14"><a xlink:href="font_8h.html" target="_top" xlink:title=" ">
<polygon fill="white" stroke="#666666" points="377.5,-184 336.5,-184 336.5,-165 377.5,-165 377.5,-184"/>
<text text-anchor="middle" x="357" y="-172" font-family="Helvetica,sans-Serif" font-size="10.00">font.h</text>
</a>
</g>
</g>
<!-- Node2&#45;&gt;Node14 -->
<g id="edge18" class="edge">
<title>Node2&#45;&gt;Node14</title>
<path fill="none" stroke="#63b8ff" d="M288.14,-274.66C300.39,-257.02 328.09,-217.12 344.38,-193.67"/>
<polygon fill="#63b8ff" stroke="#63b8ff" points="347.09,-195.91 349.91,-185.7 341.34,-191.92 347.09,-195.91"/>
</g>
<!-- Node4&#45;&gt;Node3 -->
<g id="edge4" class="edge">
<title>Node4&#45;&gt;Node3</title>
<path fill="none" stroke="#63b8ff" d="M171.19,-219.66C177.42,-202.42 191.33,-163.9 199.86,-140.27"/>
<polygon fill="#63b8ff" stroke="#63b8ff" points="203.15,-141.48 203.25,-130.88 196.56,-139.1 203.15,-141.48"/>
</g>
<!-- Node5 -->
<g id="node5" class="node">
<title>Node5</title>
<g id="a_node5"><a xlink:href="instance_8h.html" target="_top" xlink:title=" ">
<polygon fill="white" stroke="#666666" points="155,-129 93,-129 93,-110 155,-110 155,-129"/>
<text text-anchor="middle" x="124" y="-117" font-family="Helvetica,sans-Serif" font-size="10.00">instance.h</text>
</a>
</g>
</g>
<!-- Node4&#45;&gt;Node5 -->
<g id="edge5" class="edge">
<title>Node4&#45;&gt;Node5</title>
<path fill="none" stroke="#63b8ff" d="M166.01,-219.66C163.06,-207.19 157,-183.86 149,-165 145.28,-156.24 140.28,-147 135.73,-139.22"/>
<polygon fill="#63b8ff" stroke="#63b8ff" points="138.74,-137.43 130.57,-130.7 132.76,-141.06 138.74,-137.43"/>
</g>
<!-- Node12 -->
<g id="node12" class="node">
<title>Node12</title>
<g id="a_node12"><a xlink:href="renderable_8h.html" target="_top" xlink:title=" ">
<polygon fill="white" stroke="#666666" points="75,-129 5,-129 5,-110 75,-110 75,-129"/>
<text text-anchor="middle" x="40" y="-117" font-family="Helvetica,sans-Serif" font-size="10.00">renderable.h</text>
</a>
</g>
</g>
<!-- Node4&#45;&gt;Node12 -->
<g id="edge13" class="edge">
<title>Node4&#45;&gt;Node12</title>
<path fill="none" stroke="#63b8ff" d="M151.88,-219.65C137.38,-211.34 115.83,-198.1 99,-184 82.29,-170 65.6,-151.51 54.26,-138.1"/>
<polygon fill="#63b8ff" stroke="#63b8ff" points="57.06,-136 47.99,-130.53 51.67,-140.47 57.06,-136"/>
</g>
<!-- Node13 -->
<g id="node13" class="node">
<title>Node13</title>
<g id="a_node13"><a xlink:href="ui_8h.html" target="_top" xlink:title=" ">
<polygon fill="white" stroke="#666666" points="140,-184 108,-184 108,-165 140,-165 140,-184"/>
<text text-anchor="middle" x="124" y="-172" font-family="Helvetica,sans-Serif" font-size="10.00">ui.h</text>
</a>
</g>
</g>
<!-- Node4&#45;&gt;Node13 -->
<g id="edge14" class="edge">
<title>Node4&#45;&gt;Node13</title>
<path fill="none" stroke="#63b8ff" d="M160.73,-219.75C154.72,-212.5 145.99,-201.98 138.54,-193.02"/>
<polygon fill="#63b8ff" stroke="#63b8ff" points="141.47,-191.07 132.39,-185.61 136.08,-195.54 141.47,-191.07"/>
</g>
<!-- Node6 -->
<g id="node6" class="node">
<title>Node6</title>
<g id="a_node6"><a xlink:title=" ">
<polygon fill="#e0e0e0" stroke="#999999" points="98,-74 0,-74 0,-55 98,-55 98,-74"/>
<text text-anchor="middle" x="49" y="-62" font-family="Helvetica,sans-Serif" font-size="10.00">nlohmann/json.hpp</text>
</a>
</g>
</g>
<!-- Node5&#45;&gt;Node6 -->
<g id="edge6" class="edge">
<title>Node5&#45;&gt;Node6</title>
<path fill="none" stroke="#63b8ff" d="M111.28,-109.51C100.22,-101.7 83.96,-90.21 70.83,-80.93"/>
<polygon fill="#63b8ff" stroke="#63b8ff" points="72.96,-78.14 62.77,-75.23 68.92,-83.86 72.96,-78.14"/>
</g>
<!-- Node5&#45;&gt;Node7 -->
<g id="edge7" class="edge">
<title>Node5&#45;&gt;Node7</title>
<path fill="none" stroke="#63b8ff" d="M155.4,-111.59C158.3,-111.03 161.2,-110.48 164,-110 273.04,-91.11 403.46,-75.65 462.79,-69.01"/>
<polygon fill="#63b8ff" stroke="#63b8ff" points="462.95,-72.51 472.5,-67.93 462.17,-65.56 462.95,-72.51"/>
</g>
<!-- Node8 -->
<g id="node8" class="node">
<title>Node8</title>
<g id="a_node8"><a xlink:title=" ">
<polygon fill="#e0e0e0" stroke="#999999" points="147,-19 105,-19 105,0 147,0 147,-19"/>
<text text-anchor="middle" x="126" y="-7" font-family="Helvetica,sans-Serif" font-size="10.00">vector</text>
</a>
</g>
</g>
<!-- Node5&#45;&gt;Node8 -->
<g id="edge8" class="edge">
<title>Node5&#45;&gt;Node8</title>
<path fill="none" stroke="#63b8ff" d="M124.16,-109.66C124.48,-92.57 125.18,-54.61 125.62,-30.92"/>
<polygon fill="#63b8ff" stroke="#63b8ff" points="129.12,-31.04 125.81,-20.97 122.12,-30.91 129.12,-31.04"/>
</g>
<!-- Node9 -->
<g id="node9" class="node">
<title>Node9</title>
<g id="a_node9"><a xlink:href="event_8h.html" target="_top" xlink:title=" ">
<polygon fill="white" stroke="#666666" points="209.5,-74 162.5,-74 162.5,-55 209.5,-55 209.5,-74"/>
<text text-anchor="middle" x="186" y="-62" font-family="Helvetica,sans-Serif" font-size="10.00">event.h</text>
</a>
</g>
</g>
<!-- Node5&#45;&gt;Node9 -->
<g id="edge9" class="edge">
<title>Node5&#45;&gt;Node9</title>
<path fill="none" stroke="#63b8ff" d="M134.52,-109.51C143.39,-101.93 156.31,-90.88 166.99,-81.75"/>
<polygon fill="#63b8ff" stroke="#63b8ff" points="169.16,-84.5 174.49,-75.34 164.61,-79.18 169.16,-84.5"/>
</g>
<!-- Node9&#45;&gt;Node8 -->
<g id="edge11" class="edge">
<title>Node9&#45;&gt;Node8</title>
<path fill="none" stroke="#63b8ff" d="M175.82,-54.51C167.24,-46.93 154.73,-35.88 144.4,-26.75"/>
<polygon fill="#63b8ff" stroke="#63b8ff" points="146.97,-24.36 137.16,-20.36 142.34,-29.6 146.97,-24.36"/>
</g>
<!-- Node10 -->
<g id="node10" class="node">
<title>Node10</title>
<g id="a_node10"><a xlink:title=" ">
<polygon fill="#e0e0e0" stroke="#999999" points="223,-19 165,-19 165,0 223,0 223,-19"/>
<text text-anchor="middle" x="194" y="-7" font-family="Helvetica,sans-Serif" font-size="10.00">functional</text>
</a>
</g>
</g>
<!-- Node9&#45;&gt;Node10 -->
<g id="edge10" class="edge">
<title>Node9&#45;&gt;Node10</title>
<path fill="none" stroke="#63b8ff" d="M187.32,-54.75C188.31,-48.19 189.71,-38.95 190.97,-30.6"/>
<polygon fill="#63b8ff" stroke="#63b8ff" points="194.39,-31.35 192.42,-20.94 187.47,-30.3 194.39,-31.35"/>
</g>
<!-- Node9&#45;&gt;Node11 -->
<g id="edge12" class="edge">
<title>Node9&#45;&gt;Node11</title>
<path fill="none" stroke="#63b8ff" d="M200.08,-54.51C212.56,-46.54 231.02,-34.75 245.69,-25.38"/>
<polygon fill="#63b8ff" stroke="#63b8ff" points="247.31,-28.5 253.85,-20.17 243.54,-22.6 247.31,-28.5"/>
</g>
<!-- Node13&#45;&gt;Node3 -->
<g id="edge15" class="edge">
<title>Node13&#45;&gt;Node3</title>
<path fill="none" stroke="#63b8ff" d="M138.08,-164.51C150.56,-156.54 169.02,-144.75 183.69,-135.38"/>
<polygon fill="#63b8ff" stroke="#63b8ff" points="185.31,-138.5 191.85,-130.17 181.54,-132.6 185.31,-138.5"/>
</g>
<!-- Node13&#45;&gt;Node5 -->
<g id="edge17" class="edge">
<title>Node13&#45;&gt;Node5</title>
<path fill="none" stroke="#63b8ff" d="M124,-164.75C124,-158.27 124,-149.16 124,-140.9"/>
<polygon fill="#63b8ff" stroke="#63b8ff" points="127.5,-140.96 124,-130.96 120.5,-140.96 127.5,-140.96"/>
</g>
<!-- Node13&#45;&gt;Node12 -->
<g id="edge16" class="edge">
<title>Node13&#45;&gt;Node12</title>
<path fill="none" stroke="#63b8ff" d="M109.75,-164.51C97.12,-156.54 78.44,-144.75 63.59,-135.38"/>
<polygon fill="#63b8ff" stroke="#63b8ff" points="65.64,-132.54 55.32,-130.17 61.91,-138.46 65.64,-132.54"/>
</g>
<!-- Node14&#45;&gt;Node3 -->
<g id="edge20" class="edge">
<title>Node14&#45;&gt;Node3</title>
<path fill="none" stroke="#63b8ff" d="M336.14,-166.13C312.09,-157.63 272.12,-143.51 243.01,-133.22"/>
<polygon fill="#63b8ff" stroke="#63b8ff" points="244.46,-130.02 233.87,-129.99 242.13,-136.62 244.46,-130.02"/>
</g>
<!-- Node14&#45;&gt;Node7 -->
<g id="edge22" class="edge">
<title>Node14&#45;&gt;Node7</title>
<path fill="none" stroke="#63b8ff" d="M370.27,-164.62C383.19,-155.87 403.27,-141.95 420,-129 439.89,-113.61 461.74,-94.89 476.7,-81.77"/>
<polygon fill="#63b8ff" stroke="#63b8ff" points="478.72,-84.66 483.91,-75.42 474.09,-79.41 478.72,-84.66"/>
</g>
<!-- Node14&#45;&gt;Node11 -->
<g id="edge21" class="edge">
<title>Node14&#45;&gt;Node11</title>
<path fill="none" stroke="#63b8ff" d="M336.05,-165.31C320.53,-158.12 300.2,-146.12 289,-129 269.35,-98.97 267.08,-55.79 267.7,-30.7"/>
<polygon fill="#63b8ff" stroke="#63b8ff" points="271.19,-31.05 268.15,-20.9 264.2,-30.73 271.19,-31.05"/>
</g>
<!-- Node15 -->
<g id="node15" class="node">
<title>Node15</title>
<g id="a_node15"><a xlink:title=" ">
<polygon fill="#e0e0e0" stroke="#999999" points="523,-129 467,-129 467,-110 523,-110 523,-129"/>
<text text-anchor="middle" x="495" y="-117" font-family="Helvetica,sans-Serif" font-size="10.00">ft2build.h</text>
</a>
</g>
</g>
<!-- Node14&#45;&gt;Node15 -->
<g id="edge19" class="edge">
<title>Node14&#45;&gt;Node15</title>
<path fill="none" stroke="#63b8ff" d="M377.96,-165.45C400.13,-156.94 435.43,-143.38 461.47,-133.38"/>
<polygon fill="#63b8ff" stroke="#63b8ff" points="462.51,-136.73 470.59,-129.88 460,-130.19 462.51,-136.73"/>
</g>
<!-- Node16 -->
<g id="node16" class="node">
<title>Node16</title>
<g id="a_node16"><a xlink:title=" ">
<polygon fill="#e0e0e0" stroke="#999999" points="332.5,-129 297.5,-129 297.5,-110 332.5,-110 332.5,-129"/>
<text text-anchor="middle" x="315" y="-117" font-family="Helvetica,sans-Serif" font-size="10.00">map</text>
</a>
</g>
</g>
<!-- Node14&#45;&gt;Node16 -->
<g id="edge23" class="edge">
<title>Node14&#45;&gt;Node16</title>
<path fill="none" stroke="#63b8ff" d="M350.06,-164.75C344.38,-157.58 336.16,-147.2 329.11,-138.3"/>
<polygon fill="#63b8ff" stroke="#63b8ff" points="331.98,-136.29 323.03,-130.63 326.49,-140.64 331.98,-136.29"/>
</g>
<!-- Node17 -->
<g id="node17" class="node">
<title>Node17</title>
<g id="a_node17"><a xlink:title=" ">
<polygon fill="#e0e0e0" stroke="#999999" points="411,-129 351,-129 351,-110 411,-110 411,-129"/>
<text text-anchor="middle" x="381" y="-117" font-family="Helvetica,sans-Serif" font-size="10.00">GL/glew.h</text>
</a>
</g>
</g>
<!-- Node14&#45;&gt;Node17 -->
<g id="edge24" class="edge">
<title>Node14&#45;&gt;Node17</title>
<path fill="none" stroke="#63b8ff" d="M360.96,-164.75C364.04,-157.96 368.41,-148.3 372.29,-139.73"/>
<polygon fill="#63b8ff" stroke="#63b8ff" points="375.39,-141.37 376.33,-130.82 369.01,-138.49 375.39,-141.37"/>
</g>
<!-- Node20&#45;&gt;Node3 -->
<g id="edge31" class="edge">
<title>Node20&#45;&gt;Node3</title>
<path fill="none" stroke="#63b8ff" d="M474.22,-224.52C442.17,-218.04 379.02,-203.9 328,-184 292.96,-170.33 254.91,-149.24 231.02,-135.16"/>
<polygon fill="#63b8ff" stroke="#63b8ff" points="233.08,-132.31 222.7,-130.19 229.49,-138.32 233.08,-132.31"/>
</g>
<!-- Node20&#45;&gt;Node7 -->
<g id="edge32" class="edge">
<title>Node20&#45;&gt;Node7</title>
<path fill="none" stroke="#63b8ff" d="M501.64,-219.79C515.83,-200.06 546.65,-150.54 532,-110 528.27,-99.68 520.98,-90.06 513.86,-82.43"/>
<polygon fill="#63b8ff" stroke="#63b8ff" points="516.44,-80.06 506.86,-75.52 511.52,-85.04 516.44,-80.06"/>
</g>
<!-- Node20&#45;&gt;Node14 -->
<g id="edge33" class="edge">
<title>Node20&#45;&gt;Node14</title>
<path fill="none" stroke="#63b8ff" d="M474.04,-220.45C451.21,-211.68 414.46,-197.57 388.23,-187.49"/>
<polygon fill="#63b8ff" stroke="#63b8ff" points="389.71,-184.31 379.12,-183.99 387.2,-190.85 389.71,-184.31"/>
</g>
<!-- Node20&#45;&gt;Node15 -->
<g id="edge30" class="edge">
<title>Node20&#45;&gt;Node15</title>
<path fill="none" stroke="#63b8ff" d="M495,-219.66C495,-202.57 495,-164.61 495,-140.92"/>
<polygon fill="#63b8ff" stroke="#63b8ff" points="498.5,-140.97 495,-130.97 491.5,-140.97 498.5,-140.97"/>
</g>
</g>
</svg>
