<?xml version="1.0" encoding="UTF-8" standalone="no"?>
<!DOCTYPE svg PUBLIC "-//W3C//DTD SVG 1.1//EN"
 "http://www.w3.org/Graphics/SVG/1.1/DTD/svg11.dtd">
<!-- Generated by graphviz version 7.1.0 (20230121.1956)
 -->
<!-- Title: src/uitext.h Pages: 1 -->
<!--zoomable 302 -->
<svg id="main" version="1.1" xmlns="http://www.w3.org/2000/svg" xmlns:xlink="http://www.w3.org/1999/xlink" xml:space="preserve" onload="init(evt)">
<style type="text/css"><![CDATA[
.edge:hover path { stroke: red; }
.edge:hover polygon { stroke: red; fill: red; }
]]></style>
<script type="text/javascript"><![CDATA[
var edges = document.getElementsByTagName('g');
if (edges && edges.length) {
  for (var i=0;i<edges.length;i++) {
    if (edges[i].id.substr(0,4)=='edge') {
      edges[i].setAttribute('class','edge');
    }
  }
}
]]></script>
        <defs>
                <circle id="rim" cx="0" cy="0" r="7"/>
                <circle id="rim2" cx="0" cy="0" r="3.5"/>
                <g id="zoomPlus">
                        <use xlink:href="#rim" fill="#404040">
                                <set attributeName="fill" to="#808080" begin="zoomplus.mouseover" end="zoomplus.mouseout"/>
                        </use>
                        <path d="M-4,0h8M0,-4v8" fill="none" stroke="white" stroke-width="1.5" pointer-events="none"/>
                </g>
                <g id="zoomMin">
                        <use xlink:href="#rim" fill="#404040">
                                <set attributeName="fill" to="#808080" begin="zoomminus.mouseover" end="zoomminus.mouseout"/>
                        </use>
                        <path d="M-4,0h8" fill="none" stroke="white" stroke-width="1.5" pointer-events="none"/>
                </g>
                <g id="dirArrow">
                        <path fill="none" stroke="white" stroke-width="1.5" d="M0,-3.0v7 M-2.5,-0.5L0,-3.0L2.5,-0.5"/>
                </g>
               <g id="resetDef">
                       <use xlink:href="#rim2" fill="#404040">
                               <set attributeName="fill" to="#808080" begin="reset.mouseover" end="reset.mouseout"/>
                       </use>
               </g>
        </defs>

<script type="text/javascript">
var viewWidth = 538;
var viewHeight = 302;
var sectionId = 'dynsection-0';
</script>
<script xlink:href="svgpan.js"/>
<svg id="graph" class="graph">
<g id="viewport">
<title>src/uitext.h</title>
<!-- Node1 -->
<g id="node1" class="node">
<title>Node1</title>
<g id="a_node1"><a xlink:title=" ">
<polygon fill="#999999" stroke="#666666" points="309.5,-294 244.5,-294 244.5,-275 309.5,-275 309.5,-294"/>
<text text-anchor="middle" x="277" y="-282" font-family="Helvetica,sans-Serif" font-size="10.00">src/uitext.h</text>
</a>
</g>
</g>
<!-- Node2 -->
<g id="node2" class="node">
<title>Node2</title>
<g id="a_node2"><a xlink:title=" ">
<polygon fill="#e0e0e0" stroke="#999999" points="292,-129 224,-129 224,-110 292,-110 292,-129"/>
<text text-anchor="middle" x="258" y="-117" font-family="Helvetica,sans-Serif" font-size="10.00">glm/ext.hpp</text>
</a>
</g>
</g>
<!-- Node1&#45;&gt;Node2 -->
<g id="edge1" class="edge">
<title>Node1&#45;&gt;Node2</title>
<path fill="none" stroke="#63b8ff" d="M275.98,-274.74C273.04,-249.53 264.51,-176.36 260.35,-140.62"/>
<polygon fill="#63b8ff" stroke="#63b8ff" points="263.84,-140.34 259.2,-130.81 256.88,-141.15 263.84,-140.34"/>
</g>
<!-- Node3 -->
<g id="node3" class="node">
<title>Node3</title>
<g id="a_node3"><a xlink:href="uiobject_8h.html" target="_top" xlink:title=" ">
<polygon fill="white" stroke="#666666" points="224.5,-239 165.5,-239 165.5,-220 224.5,-220 224.5,-239"/>
<text text-anchor="middle" x="195" y="-227" font-family="Helvetica,sans-Serif" font-size="10.00">uiobject.h</text>
</a>
</g>
</g>
<!-- Node1&#45;&gt;Node3 -->
<g id="edge2" class="edge">
<title>Node1&#45;&gt;Node3</title>
<path fill="none" stroke="#63b8ff" d="M263.09,-274.51C250.76,-266.54 232.53,-254.75 218.03,-245.38"/>
<polygon fill="#63b8ff" stroke="#63b8ff" points="220.27,-242.67 209.98,-240.18 216.47,-248.55 220.27,-242.67"/>
</g>
<!-- Node13 -->
<g id="node13" class="node">
<title>Node13</title>
<g id="a_node13"><a xlink:href="font_8h.html" target="_top" xlink:title=" ">
<polygon fill="white" stroke="#666666" points="422.5,-184 381.5,-184 381.5,-165 422.5,-165 422.5,-184"/>
<text text-anchor="middle" x="402" y="-172" font-family="Helvetica,sans-Serif" font-size="10.00">font.h</text>
</a>
</g>
</g>
<!-- Node1&#45;&gt;Node13 -->
<g id="edge17" class="edge">
<title>Node1&#45;&gt;Node13</title>
<path fill="none" stroke="#63b8ff" d="M287.23,-274.66C308.2,-256.55 356.33,-214.96 383.12,-191.81"/>
<polygon fill="#63b8ff" stroke="#63b8ff" points="385.21,-194.64 390.48,-185.45 380.63,-189.34 385.21,-194.64"/>
</g>
<!-- Node3&#45;&gt;Node2 -->
<g id="edge3" class="edge">
<title>Node3&#45;&gt;Node2</title>
<path fill="none" stroke="#63b8ff" d="M200.16,-219.66C210.35,-202.18 233.3,-162.84 247.03,-139.3"/>
<polygon fill="#63b8ff" stroke="#63b8ff" points="250,-141.17 252.01,-130.77 243.95,-137.64 250,-141.17"/>
</g>
<!-- Node4 -->
<g id="node4" class="node">
<title>Node4</title>
<g id="a_node4"><a xlink:href="instance_8h.html" target="_top" xlink:title=" ">
<polygon fill="white" stroke="#666666" points="118,-129 56,-129 56,-110 118,-110 118,-129"/>
<text text-anchor="middle" x="87" y="-117" font-family="Helvetica,sans-Serif" font-size="10.00">instance.h</text>
</a>
</g>
</g>
<!-- Node3&#45;&gt;Node4 -->
<g id="edge4" class="edge">
<title>Node3&#45;&gt;Node4</title>
<path fill="none" stroke="#63b8ff" d="M186.16,-219.66C168.2,-201.7 127.19,-160.69 103.92,-137.42"/>
<polygon fill="#63b8ff" stroke="#63b8ff" points="106.58,-135.13 97.03,-130.53 101.63,-140.08 106.58,-135.13"/>
</g>
<!-- Node11 -->
<g id="node11" class="node">
<title>Node11</title>
<g id="a_node11"><a xlink:href="renderable_8h.html" target="_top" xlink:title=" ">
<polygon fill="white" stroke="#666666" points="206,-129 136,-129 136,-110 206,-110 206,-129"/>
<text text-anchor="middle" x="171" y="-117" font-family="Helvetica,sans-Serif" font-size="10.00">renderable.h</text>
</a>
</g>
</g>
<!-- Node3&#45;&gt;Node11 -->
<g id="edge12" class="edge">
<title>Node3&#45;&gt;Node11</title>
<path fill="none" stroke="#63b8ff" d="M188.14,-219.56C182.02,-210.97 173.5,-197.37 170,-184 166.27,-169.76 166.71,-153.1 167.97,-140.42"/>
<polygon fill="#63b8ff" stroke="#63b8ff" points="171.41,-141.17 169.2,-130.81 164.46,-140.28 171.41,-141.17"/>
</g>
<!-- Node12 -->
<g id="node12" class="node">
<title>Node12</title>
<g id="a_node12"><a xlink:href="ui_8h.html" target="_top" xlink:title=" ">
<polygon fill="white" stroke="#666666" points="211,-184 179,-184 179,-165 211,-165 211,-184"/>
<text text-anchor="middle" x="195" y="-172" font-family="Helvetica,sans-Serif" font-size="10.00">ui.h</text>
</a>
</g>
</g>
<!-- Node3&#45;&gt;Node12 -->
<g id="edge13" class="edge">
<title>Node3&#45;&gt;Node12</title>
<path fill="none" stroke="#63b8ff" d="M195,-219.75C195,-213.27 195,-204.16 195,-195.9"/>
<polygon fill="#63b8ff" stroke="#63b8ff" points="198.5,-195.96 195,-185.96 191.5,-195.96 198.5,-195.96"/>
</g>
<!-- Node5 -->
<g id="node5" class="node">
<title>Node5</title>
<g id="a_node5"><a xlink:title=" ">
<polygon fill="#e0e0e0" stroke="#999999" points="98,-74 0,-74 0,-55 98,-55 98,-74"/>
<text text-anchor="middle" x="49" y="-62" font-family="Helvetica,sans-Serif" font-size="10.00">nlohmann/json.hpp</text>
</a>
</g>
</g>
<!-- Node4&#45;&gt;Node5 -->
<g id="edge5" class="edge">
<title>Node4&#45;&gt;Node5</title>
<path fill="none" stroke="#63b8ff" d="M80.73,-109.75C75.64,-102.66 68.3,-92.42 61.97,-83.59"/>
<polygon fill="#63b8ff" stroke="#63b8ff" points="64.96,-81.76 56.29,-75.67 59.28,-85.84 64.96,-81.76"/>
</g>
<!-- Node6 -->
<g id="node6" class="node">
<title>Node6</title>
<g id="a_node6"><a xlink:title=" ">
<polygon fill="#e0e0e0" stroke="#999999" points="406.5,-74 365.5,-74 365.5,-55 406.5,-55 406.5,-74"/>
<text text-anchor="middle" x="386" y="-62" font-family="Helvetica,sans-Serif" font-size="10.00">string</text>
</a>
</g>
</g>
<!-- Node4&#45;&gt;Node6 -->
<g id="edge6" class="edge">
<title>Node4&#45;&gt;Node6</title>
<path fill="none" stroke="#63b8ff" d="M118.42,-111.7C121.32,-111.11 124.21,-110.54 127,-110 208.54,-94.34 305.04,-78.45 354.02,-70.58"/>
<polygon fill="#63b8ff" stroke="#63b8ff" points="354.32,-74.08 363.64,-69.04 353.21,-67.17 354.32,-74.08"/>
</g>
<!-- Node7 -->
<g id="node7" class="node">
<title>Node7</title>
<g id="a_node7"><a xlink:title=" ">
<polygon fill="#e0e0e0" stroke="#999999" points="147,-19 105,-19 105,0 147,0 147,-19"/>
<text text-anchor="middle" x="126" y="-7" font-family="Helvetica,sans-Serif" font-size="10.00">vector</text>
</a>
</g>
</g>
<!-- Node4&#45;&gt;Node7 -->
<g id="edge7" class="edge">
<title>Node4&#45;&gt;Node7</title>
<path fill="none" stroke="#63b8ff" d="M91.33,-109.78C95.64,-100.91 102.27,-86.7 107,-74 112.36,-59.6 117.3,-42.95 120.8,-30.32"/>
<polygon fill="#63b8ff" stroke="#63b8ff" points="124.16,-31.27 123.38,-20.71 117.4,-29.46 124.16,-31.27"/>
</g>
<!-- Node8 -->
<g id="node8" class="node">
<title>Node8</title>
<g id="a_node8"><a xlink:href="event_8h.html" target="_top" xlink:title=" ">
<polygon fill="white" stroke="#666666" points="209.5,-74 162.5,-74 162.5,-55 209.5,-55 209.5,-74"/>
<text text-anchor="middle" x="186" y="-62" font-family="Helvetica,sans-Serif" font-size="10.00">event.h</text>
</a>
</g>
</g>
<!-- Node4&#45;&gt;Node8 -->
<g id="edge8" class="edge">
<title>Node4&#45;&gt;Node8</title>
<path fill="none" stroke="#63b8ff" d="M103.79,-109.51C119.1,-101.31 141.97,-89.07 159.7,-79.58"/>
<polygon fill="#63b8ff" stroke="#63b8ff" points="160.96,-82.88 168.12,-75.07 157.65,-76.71 160.96,-82.88"/>
</g>
<!-- Node8&#45;&gt;Node7 -->
<g id="edge10" class="edge">
<title>Node8&#45;&gt;Node7</title>
<path fill="none" stroke="#63b8ff" d="M175.82,-54.51C167.24,-46.93 154.73,-35.88 144.4,-26.75"/>
<polygon fill="#63b8ff" stroke="#63b8ff" points="146.97,-24.36 137.16,-20.36 142.34,-29.6 146.97,-24.36"/>
</g>
<!-- Node9 -->
<g id="node9" class="node">
<title>Node9</title>
<g id="a_node9"><a xlink:title=" ">
<polygon fill="#e0e0e0" stroke="#999999" points="223,-19 165,-19 165,0 223,0 223,-19"/>
<text text-anchor="middle" x="194" y="-7" font-family="Helvetica,sans-Serif" font-size="10.00">functional</text>
</a>
</g>
</g>
<!-- Node8&#45;&gt;Node9 -->
<g id="edge9" class="edge">
<title>Node8&#45;&gt;Node9</title>
<path fill="none" stroke="#63b8ff" d="M187.32,-54.75C188.31,-48.19 189.71,-38.95 190.97,-30.6"/>
<polygon fill="#63b8ff" stroke="#63b8ff" points="194.39,-31.35 192.42,-20.94 187.47,-30.3 194.39,-31.35"/>
</g>
<!-- Node10 -->
<g id="node10" class="node">
<title>Node10</title>
<g id="a_node10"><a xlink:title=" ">
<polygon fill="#e0e0e0" stroke="#999999" points="441,-19 389,-19 389,0 441,0 441,-19"/>
<text text-anchor="middle" x="415" y="-7" font-family="Helvetica,sans-Serif" font-size="10.00">memory</text>
</a>
</g>
</g>
<!-- Node8&#45;&gt;Node10 -->
<g id="edge11" class="edge">
<title>Node8&#45;&gt;Node10</title>
<path fill="none" stroke="#63b8ff" d="M209.64,-58.03C249.44,-48.82 330.12,-30.14 377.65,-19.15"/>
<polygon fill="#63b8ff" stroke="#63b8ff" points="378.26,-22.6 387.21,-16.93 376.68,-15.78 378.26,-22.6"/>
</g>
<!-- Node12&#45;&gt;Node2 -->
<g id="edge14" class="edge">
<title>Node12&#45;&gt;Node2</title>
<path fill="none" stroke="#63b8ff" d="M205.69,-164.51C214.7,-156.93 227.83,-145.88 238.68,-136.75"/>
<polygon fill="#63b8ff" stroke="#63b8ff" points="240.91,-139.45 246.31,-130.33 236.41,-134.09 240.91,-139.45"/>
</g>
<!-- Node12&#45;&gt;Node4 -->
<g id="edge16" class="edge">
<title>Node12&#45;&gt;Node4</title>
<path fill="none" stroke="#63b8ff" d="M178.6,-165.45C161.79,-157.2 135.34,-144.22 115.17,-134.33"/>
<polygon fill="#63b8ff" stroke="#63b8ff" points="116.88,-131.26 106.36,-130 113.79,-137.55 116.88,-131.26"/>
</g>
<!-- Node12&#45;&gt;Node11 -->
<g id="edge15" class="edge">
<title>Node12&#45;&gt;Node11</title>
<path fill="none" stroke="#63b8ff" d="M191.04,-164.75C187.96,-157.96 183.59,-148.3 179.71,-139.73"/>
<polygon fill="#63b8ff" stroke="#63b8ff" points="182.99,-138.49 175.67,-130.82 176.61,-141.37 182.99,-138.49"/>
</g>
<!-- Node13&#45;&gt;Node2 -->
<g id="edge19" class="edge">
<title>Node13&#45;&gt;Node2</title>
<path fill="none" stroke="#63b8ff" d="M381.06,-165.79C358.03,-157.31 320.62,-143.55 293.09,-133.42"/>
<polygon fill="#63b8ff" stroke="#63b8ff" points="294.35,-130.15 283.76,-129.98 291.93,-136.72 294.35,-130.15"/>
</g>
<!-- Node13&#45;&gt;Node6 -->
<g id="edge21" class="edge">
<title>Node13&#45;&gt;Node6</title>
<path fill="none" stroke="#63b8ff" d="M422.79,-169.87C459.64,-162.49 530.4,-143.54 507,-110 487.08,-81.44 446.68,-71.16 418.06,-67.49"/>
<polygon fill="#63b8ff" stroke="#63b8ff" points="418.8,-64.05 408.49,-66.47 418.06,-71.01 418.8,-64.05"/>
</g>
<!-- Node13&#45;&gt;Node10 -->
<g id="edge20" class="edge">
<title>Node13&#45;&gt;Node10</title>
<path fill="none" stroke="#63b8ff" d="M422.98,-172.68C451.17,-170.33 500.33,-161.49 523,-129 551.79,-87.73 486.07,-45.66 444.96,-24.5"/>
<polygon fill="#63b8ff" stroke="#63b8ff" points="446.73,-21.47 436.22,-20.13 443.6,-27.73 446.73,-21.47"/>
</g>
<!-- Node14 -->
<g id="node14" class="node">
<title>Node14</title>
<g id="a_node14"><a xlink:title=" ">
<polygon fill="#e0e0e0" stroke="#999999" points="366,-129 310,-129 310,-110 366,-110 366,-129"/>
<text text-anchor="middle" x="338" y="-117" font-family="Helvetica,sans-Serif" font-size="10.00">ft2build.h</text>
</a>
</g>
</g>
<!-- Node13&#45;&gt;Node14 -->
<g id="edge18" class="edge">
<title>Node13&#45;&gt;Node14</title>
<path fill="none" stroke="#63b8ff" d="M391.14,-164.51C381.89,-156.85 368.38,-145.66 357.29,-136.47"/>
<polygon fill="#63b8ff" stroke="#63b8ff" points="359.8,-134.01 349.86,-130.32 355.33,-139.4 359.8,-134.01"/>
</g>
<!-- Node15 -->
<g id="node15" class="node">
<title>Node15</title>
<g id="a_node15"><a xlink:title=" ">
<polygon fill="#e0e0e0" stroke="#999999" points="419.5,-129 384.5,-129 384.5,-110 419.5,-110 419.5,-129"/>
<text text-anchor="middle" x="402" y="-117" font-family="Helvetica,sans-Serif" font-size="10.00">map</text>
</a>
</g>
</g>
<!-- Node13&#45;&gt;Node15 -->
<g id="edge22" class="edge">
<title>Node13&#45;&gt;Node15</title>
<path fill="none" stroke="#63b8ff" d="M402,-164.75C402,-158.27 402,-149.16 402,-140.9"/>
<polygon fill="#63b8ff" stroke="#63b8ff" points="405.5,-140.96 402,-130.96 398.5,-140.96 405.5,-140.96"/>
</g>
<!-- Node16 -->
<g id="node16" class="node">
<title>Node16</title>
<g id="a_node16"><a xlink:title=" ">
<polygon fill="#e0e0e0" stroke="#999999" points="498,-129 438,-129 438,-110 498,-110 498,-129"/>
<text text-anchor="middle" x="468" y="-117" font-family="Helvetica,sans-Serif" font-size="10.00">GL/glew.h</text>
</a>
</g>
</g>
<!-- Node13&#45;&gt;Node16 -->
<g id="edge23" class="edge">
<title>Node13&#45;&gt;Node16</title>
<path fill="none" stroke="#63b8ff" d="M413.2,-164.51C422.74,-156.85 436.67,-145.66 448.11,-136.47"/>
<polygon fill="#63b8ff" stroke="#63b8ff" points="450.18,-139.3 455.79,-130.31 445.8,-133.84 450.18,-139.3"/>
</g>
</g>
</svg>
        <g id="navigator" transform="translate(0 0)" fill="#404254">
                <rect fill="#f2f5e9" fill-opacity="0.5" stroke="#606060" stroke-width=".5" x="0" y="0" width="60" height="60"/>
                <use id="zoomplus" xlink:href="#zoomPlus" x="17" y="9" onmousedown="handleZoom(evt,'in')"/>
                <use id="zoomminus" xlink:href="#zoomMin" x="42" y="9" onmousedown="handleZoom(evt,'out')"/>
                <use id="reset" xlink:href="#resetDef" x="30" y="36" onmousedown="handleReset()"/>
                <g id="arrowUp" xlink:href="#dirArrow" transform="translate(30 24)" onmousedown="handlePan(0,-1)">
                  <use xlink:href="#rim" fill="#404040">
                        <set attributeName="fill" to="#808080" begin="arrowUp.mouseover" end="arrowUp.mouseout"/>
                  </use>
                  <path fill="none" stroke="white" stroke-width="1.5" d="M0,-3.0v7 M-2.5,-0.5L0,-3.0L2.5,-0.5"/>
                </g>
                <g id="arrowRight" xlink:href="#dirArrow" transform="rotate(90) translate(36 -43)" onmousedown="handlePan(1,0)">
                  <use xlink:href="#rim" fill="#404040">
                        <set attributeName="fill" to="#808080" begin="arrowRight.mouseover" end="arrowRight.mouseout"/>
                  </use>
                  <path fill="none" stroke="white" stroke-width="1.5" d="M0,-3.0v7 M-2.5,-0.5L0,-3.0L2.5,-0.5"/>
                </g>
                <g id="arrowDown" xlink:href="#dirArrow" transform="rotate(180) translate(-30 -48)" onmousedown="handlePan(0,1)">
                  <use xlink:href="#rim" fill="#404040">
                        <set attributeName="fill" to="#808080" begin="arrowDown.mouseover" end="arrowDown.mouseout"/>
                  </use>
                  <path fill="none" stroke="white" stroke-width="1.5" d="M0,-3.0v7 M-2.5,-0.5L0,-3.0L2.5,-0.5"/>
                </g>
                <g id="arrowLeft" xlink:href="#dirArrow" transform="rotate(270) translate(-36 17)" onmousedown="handlePan(-1,0)">
                  <use xlink:href="#rim" fill="#404040">
                        <set attributeName="fill" to="#808080" begin="arrowLeft.mouseover" end="arrowLeft.mouseout"/>
                  </use>
                  <path fill="none" stroke="white" stroke-width="1.5" d="M0,-3.0v7 M-2.5,-0.5L0,-3.0L2.5,-0.5"/>
                </g>
        </g>
        <svg viewBox="0 0 15 15" width="100%" height="30px" preserveAspectRatio="xMaxYMin meet">
         <g id="arrow_out" transform="scale(0.3 0.3)">
          <a xlink:href="uitext_8h__incl_org.svg" target="_base">
           <rect id="button" ry="5" rx="5" y="6" x="6" height="38" width="38"
                fill="#f2f5e9" fill-opacity="0.5" stroke="#606060" stroke-width="1.0"/>
           <path id="arrow"
             d="M 11.500037,31.436501 C 11.940474,20.09759 22.043105,11.32322 32.158766,21.979434 L 37.068811,17.246167 C 37.068811,17.246167 37.088388,32 37.088388,32 L 22.160133,31.978069 C 22.160133,31.978069 26.997745,27.140456 26.997745,27.140456 C 18.528582,18.264221 13.291696,25.230495 11.500037,31.436501 z"
             style="fill:#404040;"/>
          </a>
         </g>
        </svg>
</svg>
